<?xml version="1.0" encoding="UTF-8" standalone="no"?>
<!-- Created with Keyshape -->
<svg xmlns="http://www.w3.org/2000/svg" xmlns:xlink="http://www.w3.org/1999/xlink" width="50" height="50" viewBox="0 0 50 50">
    <title>02D07760-9DFC-4172-8441-817273B41053</title>
    <g fill="#828B91" fill-rule="evenodd" transform="translate(0,0) rotate(360)">
        <path id="_a0" d="M25.509,40.719L25.509,49.9C31.537,49.77,37.505,47.485,42.176,43.004L35.679,36.507C32.834,39.202,29.192,40.589,25.509,40.719Z" opacity="0.72" fill="#828B91"/>
        <path id="_a1" d="M14.212,36.517L7.715,43.014C12.385,47.485,18.353,49.77,24.381,49.91L24.381,40.73C23.4443,40.6942,22.5126,40.5753,21.5968,40.3749C20.6811,40.1745,19.7849,39.8933,18.9189,39.5346C18.0528,39.1759,17.2202,38.7412,16.4309,38.2354C15.6417,37.7297,14.8988,37.155,14.211,36.518Z" opacity="0.84" fill="#828B91"/>
        <path id="_a2" d="M40.719,24.391L49.9,24.391C49.77,18.363,47.485,12.395,43.004,7.725L36.507,14.222C39.202,17.066,40.589,20.709,40.719,24.392Z" opacity="0.48" fill="#828B91"/>
        <path id="_a3" d="M9.182,25.509L0,25.509C0.13,31.537,2.455,37.505,6.896,42.176L13.393,35.679C10.699,32.834,9.311,29.192,9.182,25.509Z" fill="#828B91" opacity="1"/>
        <path id="_a4" d="M13.383,14.212L6.896,7.685C2.416,12.355,0.13,18.323,0,24.35L9.182,24.35C9.312,20.708,10.699,17.065,13.383,14.21Z" opacity="0.12" fill="#828B91"/>
        <path id="_a5" d="M36.517,35.689L43.014,42.216C47.485,37.545,49.77,31.576,49.91,25.549L40.73,25.549C40.6926,26.4832,40.5727,27.4123,40.3715,28.3254C40.1704,29.2385,39.8888,30.132,39.5302,30.9954C39.1715,31.8588,38.7371,32.6889,38.2322,33.4757C37.7272,34.2626,37.1535,35.0033,36.518,35.689Z" opacity="0.6" fill="#828B91"/>
        <path id="_a6" d="M24.391,9.182L24.391,0C18.363,0.13,12.395,2.455,7.725,6.896L14.182,13.393C17.066,10.699,20.709,9.311,24.392,9.182Z" opacity="0.24" fill="#828B91"/>
        <path id="_a7" d="M35.689,13.383L42.186,6.886C37.505,2.416,31.546,0.13,25.509,0L25.509,9.182C29.192,9.312,32.834,10.699,35.689,13.383Z" opacity="0.36" fill="#828B91"/>
    </g>
    <script><![CDATA[var ids=['_a0','_a1','_a2','_a3','_a4','_a5','_a6','_a7'];var anims=[[[8,0,-1,[0,100,200,300,400,500,600,700,800],[0.72,0.72,0.48,0.36,0.24,0.12,1,0.84,0.72]]],[[8,0,-1,[0,100,200,300,400,500,600,700,800],[0.84,0.84,0.6,0.48,0.36,0.24,0.12,1,0.84]]],[[8,0,-1,[0,100,200,300,400,500,600,700,800],[0.48,0.36,0.24,0.12,1,0.84,0.72,0.6,0.48]]],[[8,0,-1,[0,100,200,300,400,500,600,700,800],[1,0.84,0.72,0.6,0.48,0.36,0.24,0.12,1]]],[[8,0,-1,[0,100,200,300,400,500,600,700,800],[0.12,1,0.84,0.72,0.6,0.48,0.36,0.24,0.12]]],[[8,0,-1,[0,100,200,300,400,500,600,700,800],[0.6,0.48,0.36,0.24,0.12,1,0.84,0.72,0.6]]],[[8,0,-1,[0,100,200,300,400,500,600,700,800],[0.24,0.12,1,0.84,0.72,0.6,0.48,0.36,0.24]]],[[8,0,-1,[0,100,200,300,400,500,600,700,800],[0.36,0.24,0.12,1,0.84,0.72,0.6,0.48,0.36]]]];var end=-1;var t="- translate translate scale scale skewX skewY rotate opacity stroke-opacity fill-opacity stroke-width stroke-miterlimit stroke-dasharray stroke-dashoffset stroke fill d".split(" "),u=[0,0,0,0,0,0,0,0,0,0,0,0,0,3,0,2,2,4];
(function(){function v(){0>q&&(q=(new Date).getTime());for(var c=(new Date).getTime()-q+x,a,e=r.length,d=0;d<e;++d){for(var b=r[d],g="",k=anims[d].length,m=0;m<k;++m){var f=anims[d][m],h=f[0];if(2==f.length)a=f[1];else{a=f[1];var l=f[3].length,n=f[3][l-1];a=c<=a?f[4][0]:0<=f[2]&&c>=a+f[2]?0!=n&&f[2]%n?w(f[2]%n,f):f[4][l-1]:w((c-a)%n,f)}0==h?(a=a*f[7]/100,h=f[6].getPointAtLength(a),g+="translate("+h.x+","+h.y+") ",f[8]&&(a?a=f[6].getPointAtLength(a-.001):(a=h,h=f[6].getPointAtLength(.001)),g+="rotate("+
180*Math.atan2(h.y-a.y,h.x-a.x)/Math.PI+") ")):7>=h?(f=t[h]+"(",f=3>h?f+(h&1?a+",0":"0,"+a):5>h?f+(h&1?a+",1":"1,"+a):f+a,g+=f+") "):(f=b,l=t[h],h=y(u[h],a),f.getAttribute("id"),f.setAttribute(l,h))}""!=g&&(b.getAttribute("id"),b.setAttribute("transform",g))}(0>end||c<end)&&p(v)}function m(c){return 0<=c?Math.pow(c,1/3):-Math.pow(-c,1/3)}function z(c,a,e,d){if(0==c)return 0==a?a=-d/e:(c=Math.sqrt(e*e-4*a*d),d=(-e+c)/(2*a),0<=d&&1>=d?a=d:(d=(-e-c)/(2*a),a=0<=d&&1>=d?d:0)),a;var b=e/c-a*a/(c*c)/3;e=
a*a*a/(c*c*c)/13.5-a*e/(c*c)/3+d/c;var g=e*e/4+b*b*b/27;a=-a/(3*c);if(0>=g)if(b||e){c=Math.sqrt(e*e/4-g);d=Math.acos(-e/2/c);e=Math.cos(d/3);d=Math.sqrt(3)*Math.sin(d/3);c=m(c);b=2*c*e+a;if(0<=b&&1>=b)return b;b=-c*(e+d)+a;if(0<=b&&1>=b)return b;b=c*(d-e)+a;if(0<=b&&1>=b)return b}else return-m(d/c);else{c=m(-e/2+Math.sqrt(g));e=m(-e/2-Math.sqrt(g));d=c+e+a;if(0<=d&&1>=d)return d;d=-(c+e)/2+a;if(0<=d&&1>=d)return d}return 0}function y(c,a){if(2==c&&"number"===typeof a)return"#"+("000000"+a.toString(16)).substr(-6);
if(3==c)return a.join(",");if(4==c){for(var e="",d=a.length,b=0;b<d;)if(0==a[b])e+="M"+a[b+1]+","+a[b+2],b+=3;else if(1==a[b])e+="L"+a[b+1]+","+a[b+2],b+=3;else if(2==a[b])e+="C"+a[b+1]+","+a[b+2]+","+a[b+3]+","+a[b+4]+","+a[b+5]+","+a[b+6],b+=7;else if(3==a[b])e+="Z",b+=1;else break;return e}return a}function A(c,a,e,d){if(0==c)return(e-a)*d+a;if(1==c)return 1>d?a:e;if(2==c){if("number"===typeof a&&"number"===typeof e){c=1-d;var b;return c*(a>>16)+d*(e>>16)<<16|c*(a>>8&255)+d*(e>>8&255)<<8|c*(a&
255)+d*(e&255)}return 1>d?a:e}if(3==c){0==a.length&&(a=[0]);0==e.length&&(e=[0]);c=a.length;a.length!=e.length&&(c=a.length*e.length);for(var g=Array(c),k=0;k<c;++k)b=a[k%a.length],b=(e[k%e.length]-b)*d+b,0>b&&(b=0),g[k]=b;return g}if(4==c){c=a.length;g=Array(c);for(k=0;k<c;++k)g[k]=(e[k]-a[k])*d+a[k];return g}return 0}function w(c,a){var e;a:{e=a[3].length;for(var d=0;d<e;++d)if(c<a[3][d]){e=d;break a}--e}var d=a[3][e-1],b=(c-d)/(a[3][e]-d);if(5<a.length&&a[5].length>e-1)if(d=a[5][e-1],0<=d[0])if(0>=
b)b=0;else if(1<=b)b=1;else var g=d[0],k=d[2],b=z(3*g-3*k+1,-6*g+3*k,3*g,-b),b=3*b*(1-b)*(1-b)*d[1]+3*b*b*(1-b)*d[3]+b*b*b;else-1!=d[0]&&(-2==d[0]?b=Math.ceil(b):-3==d[0]&&(b=Math.floor(b)));return A(u[a[0]],a[4][e-1],a[4][e],b)}var p=window.requestAnimationFrame||window.webkitRequestAnimationFrame||window.mozRequestAnimationFrame||window.oRequestAnimationFrame||window.msRequestAnimationFrame||null;p||(p=function(c){window.setTimeout(c,16)});for(var x=0,q=-1,r=Array(ids.length),l=0;l<ids.length;++l)r[l]=
document.getElementById(ids[l]);anims.forEach(function(c){if(0==c[0][0]){var a=document.createElementNS("http://www.w3.org/2000/svg","path");a.setAttribute("d",c[0][6]);c[0][8]=" "==c[0][6].charAt(0);c[0][7]=a.getTotalLength();c[0][6]=a}});p(v)})();
]]></script>
</svg>
