<svg width="114" height="20" viewBox="0 0 114 20" xmlns="http://www.w3.org/2000/svg" xmlns:xlink="http://www.w3.org/1999/xlink"><title>8D0C1126-CFE5-4497-992C-1B2D61A33DFA</title><defs><path id="a" d="M0 19.622h113.977V.16H0z"/></defs><g fill="none" fill-rule="evenodd"><path fill="#444" d="M13.493.684v18.939h3.399V9.538h2.088V7.197h-2.088V.684zM7.706 12.868H4.012c-.408 0-.612-.2-.612-.601V3.009h3.8c.337 0 .506.186.506.557v9.302zM9.563.666H0v12.67c0 .685.137 1.17.412 1.451.273.282.728.424 1.358.424h9.06l.36-12.782c.043-1.175-.5-1.763-1.627-1.763zM28.368 9.522c-.528.64-1.222.959-2.08.959-.86 0-1.55-.32-2.082-.96-.528-.64-.79-1.515-.79-2.632 0-1.115.262-1.992.79-2.631.531-.64 1.222-.96 2.082-.96.858 0 1.552.32 2.08.96.526.64.791 1.516.791 2.631 0 1.117-.265 1.993-.79 2.633M26.288.555c-1.877 0-3.376.572-4.51 1.717-1.13 1.145-1.7 2.684-1.7 4.617 0 1.95.565 3.493 1.69 4.63 1.126 1.138 2.629 1.706 4.52 1.706 1.885 0 3.387-.568 4.515-1.706 1.129-1.137 1.69-2.68 1.69-4.63 0-1.948-.561-3.49-1.69-4.628-1.128-1.137-2.63-1.706-4.516-1.706"/><mask id="b" fill="#fff"><use xlink:href="#a"/></mask><path fill="#444" mask="url(#b)" d="M33.65 19.622h3.397V.684H33.65z"/><path d="M53.05 10.155c0 .729-.253 1.279-.758 1.65-.368.27-.98.496-1.837.68-.861.187-2.197.28-4.012.28-.943 0-1.686-.04-2.228-.122-.54-.083-.814-.316-.814-.702V8.79h6.608l.486-6.696C50.567 1.098 50.12.6 49.165.6h-8.971v2.343h6.332c.354 0 .528.208.528.624V6.47h-7.051v5.983c0 1.591.624 2.476 1.88 2.654.647.09 1.483.132 2.511.132 2.62 0 4.567-.168 5.85-.512 1.405-.386 2.34-.83 2.806-1.338v6.234h3.399V.683h-3.4v9.472zM63.413 15.747h11.678l.255-4.64c.041-.816-.347-1.226-1.162-1.226H59.993v2.298h11.533c.25 0 .378.126.378.379v.98H59.993v4.106c0 .669.144 1.145.434 1.427.29.282.783.424 1.487.424h13.833v-2.297H63.814c-.268 0-.4-.128-.4-.38v-1.071zM61.442 4.707c0-.583.17-1.052.513-1.41.345-.357.792-.537 1.344-.537.55 0 .998.18 1.342.537.344.358.514.827.514 1.41 0 .595-.17 1.07-.514 1.426-.344.36-.791.538-1.342.538-.552 0-1-.178-1.344-.538-.342-.355-.513-.83-.513-1.426m5.126 3.629c.873-.625 1.42-1.483 1.644-2.577h4.109v3.31h2.975V.761H72.32v2.653h-4.11c-.21-.822-.75-1.694-1.624-2.318C65.713.471 64.614.16 63.299.16c-1.514 0-2.729.406-3.637 1.219-.914.814-1.369 1.922-1.369 3.327 0 1.406.455 2.517 1.369 3.337.908.82 2.123 1.229 3.637 1.229 1.305 0 2.395-.312 3.27-.936" fill="#5B8DEF" mask="url(#b)"/><path d="M83.768 2.74h5.306v.463c0 .401-.008.744-.023 1.026h-5.263c-.013-.282-.02-.625-.02-1.026V2.74zm-3.358-.117c0 .61.036 1.145.106 1.606h-2.151v2.21h16.112v-2.21h-2.133c.058-.46.088-.996.088-1.606v.118h2.217V.533H78.194v2.208h2.216v-.118zM77.87 9.756h17.108V7.57H77.87zM81.524 17.007v-.87h12.62l.274-4.261c.047-.817-.34-1.227-1.159-1.227H78.104v2.164h12.514c.255 0 .382.134.382.402v.87H78.104v3.681c0 .669.14 1.145.423 1.429.282.281.774.421 1.48.421h14.73V17.41H81.925c-.268 0-.401-.133-.401-.402M110.98.394v5.153h-1.341V.394h-2.892v6.17c0 .7-.131 1.202-.39 1.505-.26.306-.735.533-1.426.682-1.124.237-2.472.274-4.032.111-.438-.029-.654-.253-.654-.67v-1.65h4.945l.318-4.32c.069-1.01-.381-1.516-1.353-1.516h-7.033V2.98h4.754c.352 0 .53.187.53.558v.772h-5.309v4.686c0 .79.15 1.357.445 1.706.296.35.782.555 1.456.614.45.044.952.067 1.5.067 1.661 0 3.08-.149 4.266-.446.927-.224 1.591-.572 1.983-1.048v3.401h2.892V7.888h1.341v5.446h2.997V.394h-2.997zM101.054 16.138V12.3h-3.337v5.22c0 .565.124.962.37 1.192.245.231.65.347 1.215.347h14.55v-2.365h-12.186c-.408 0-.612-.186-.612-.557" fill="#444" mask="url(#b)"/></g></svg>