<svg xmlns="http://www.w3.org/2000/svg" xmlns:xlink="http://www.w3.org/1999/xlink" width="374" height="215" viewBox="0 0 374 215">
    <defs>
        <path id="a" d="M.17.022h56.75v37H.17z"/>
    </defs>
    <g fill="none" fill-rule="evenodd">
        <path fill="#FFEEC9" d="M24.188 153.184h21.01c-.117 0-.233-.007-.347-.02 1.599-.175 2.844-1.543 2.844-3.207 0-1.383-.862-2.56-2.072-3.019H28.411c-2.168 0-3.925-1.777-3.925-3.969S26.243 139 28.411 139h36c2.168 0 3.924 1.777 3.924 3.97 0 2.191-1.756 3.968-3.924 3.968h-5.605a3.22 3.22 0 0 0-2.079 3.02c0 1.639 1.21 2.99 2.777 3.196-.136.018-.274.03-.415.03h13.986c2.168 0 3.925 1.777 3.925 3.97 0 2.191-1.757 3.969-3.925 3.969H48.412c.108 0 .213.009.317.023a2.459 2.459 0 0 0-2.125 2.446c0 1.255.926 2.289 2.125 2.446a2.42 2.42 0 0 1-.317.024h8.07c2.168 0 3.925 1.777 3.925 3.969S58.65 174 56.482 174h-24.42c-2.168 0-3.925-1.777-3.925-3.97 0-2.191 1.757-3.968 3.924-3.968h5.72c-.09 0-.178-.006-.265-.016a2.459 2.459 0 0 0 2.176-2.454 2.46 2.46 0 0 0-2.176-2.454c.087-.01.176-.015.265-.015H3.925c-2.168 0-3.925-1.778-3.925-3.97s1.757-3.969 3.925-3.969"/>
        <path fill="#FFEDC9" d="M370.265 161.374h-19.998c.112 0 .222-.008.33-.02a3.04 3.04 0 0 1-2.705-3.023 3.04 3.04 0 0 1 1.971-2.846h5.362a3.739 3.739 0 0 0 3.735-3.743 3.739 3.739 0 0 0-3.735-3.742h-23.243a3.739 3.739 0 0 0-3.735 3.742 3.739 3.739 0 0 0 3.735 3.743h5.334a3.039 3.039 0 0 1-.664 5.86c.13.017.26.029.395.029h-13.312a3.739 3.739 0 0 0-3.735 3.742 3.739 3.739 0 0 0 3.735 3.742h23.474c-.103 0-.203.01-.301.022a2.326 2.326 0 0 1 0 4.613c.098.013.198.022.301.022h-7.681a3.739 3.739 0 0 0-3.735 3.743 3.739 3.739 0 0 0 3.735 3.742h23.243a3.739 3.739 0 0 0 3.735-3.742 3.739 3.739 0 0 0-3.735-3.743h-5.444c.085 0 .17-.005.253-.014a2.326 2.326 0 0 1-2.071-2.314c0-1.2.906-2.188 2.07-2.314a2.374 2.374 0 0 0-.252-.015h12.938a3.739 3.739 0 0 0 3.735-3.742 3.739 3.739 0 0 0-3.735-3.742M333.764 7.894a3.209 3.209 0 0 1-.783 6.192c.114.012.23.02.348.02h13.957c.14 0 .279-.013.415-.03a3.207 3.207 0 0 1-.71-6.182h5.64a3.945 3.945 0 0 0 3.943-3.947A3.945 3.945 0 0 0 352.63 0h-24.534a3.945 3.945 0 0 0-3.943 3.947 3.945 3.945 0 0 0 3.943 3.947h5.667zM320.943 22h49.114A3.945 3.945 0 0 0 374 18.053a3.945 3.945 0 0 0-3.943-3.948h-49.114A3.945 3.945 0 0 0 317 18.053 3.945 3.945 0 0 0 320.943 22z"/>
        <path fill="#FFF" d="M143.747 186.718c-12.752 0-23.09-10.79-23.09-24.099v-5.384c0-13.31 10.338-24.1 23.09-24.1h14.768c12.753 0 23.09 10.79 23.09 24.1v5.384c0 13.31-10.337 24.1-23.09 24.1h-14.768z"/>
        <path stroke="#343351" stroke-width="1.385" d="M143.747 186.718h14.768c12.753 0 23.09-10.79 23.09-24.099v-5.384c0-13.31-10.337-24.1-23.09-24.1h-14.768c-12.752 0-23.09 10.79-23.09 24.1v5.384c0 13.31 10.338 24.1 23.09 24.1z"/>
        <path fill="#FFF" d="M125.476 154.479v23.698c0 5.394 4.19 9.766 9.357 9.766h32.597c5.167 0 9.357-4.372 9.357-9.766V154.48"/>
        <path stroke="#343351" stroke-width="1.106" d="M125.476 154.479v25.12c0 5.717 4.19 10.351 9.357 10.351h32.597c5.167 0 9.357-4.634 9.357-10.351v-25.12"/>
        <path fill="#E49D86" d="M148.4 136.736v2.37l2.16 2.336h2.27l2.16-2.336v-2.37z"/>
        <path stroke="#444" stroke-linecap="round" stroke-linejoin="round" stroke-width="1.106" d="M148.4 136.736v2.37l2.16 2.336h2.27l2.16-2.336v-2.37z"/>
        <path fill="#E49D86" d="M150.235 141.442h2.98l2.182 34.613-3.672 6.293-3.673-6.293z"/>
        <path stroke="#444" stroke-linecap="round" stroke-linejoin="round" stroke-width="1.106" d="M150.235 141.442h2.98l2.182 34.613-3.672 6.293-3.673-6.293z"/>
        <path fill="#FFD9CA" d="M158.627 135.023v-5.637c0-2.208-1.73-4.014-3.846-4.014h-6.54c-2.115 0-3.845 1.806-3.845 4.014v5.637l7.115 3.332 7.116-3.332z"/>
        <path stroke="#444" stroke-linecap="round" stroke-linejoin="round" stroke-width="1.106" d="M158.627 135.023v-5.637c0-2.208-1.73-4.014-3.846-4.014h-6.54c-2.115 0-3.845 1.806-3.845 4.014v5.637l7.115 3.332 7.116-3.332z"/>
        <path fill="#4D478C" d="M151.237 126.733c12.845 0 23.354-10.969 23.354-24.375v-9.461c0-13.406-10.51-24.375-23.354-24.375-12.845 0-23.355 10.969-23.355 24.375v9.461c0 13.406 10.51 24.375 23.355 24.375"/>
        <path stroke="#444" stroke-width="1.385" d="M151.237 126.733c12.845 0 23.354-10.969 23.354-24.375v-9.461c0-13.406-10.51-24.375-23.354-24.375-12.845 0-23.355 10.969-23.355 24.375v9.461c0 13.406 10.51 24.375 23.355 24.375z"/>
        <path fill="#FFCDB8" d="M172.984 106.636c2.441 0 4.439-2.085 4.439-4.633s-1.998-4.633-4.44-4.633c-2.441 0-4.439 2.085-4.439 4.633s1.998 4.633 4.44 4.633"/>
        <path stroke="#343351" stroke-width="1.385" d="M172.984 106.636c2.441 0 4.439-2.085 4.439-4.633s-1.998-4.633-4.44-4.633c-2.441 0-4.439 2.085-4.439 4.633s1.998 4.633 4.44 4.633z"/>
        <path fill="#FFCDB8" d="M130.134 106.636c2.442 0 4.44-2.085 4.44-4.633s-1.998-4.633-4.44-4.633-4.44 2.085-4.44 4.633 1.998 4.633 4.44 4.633"/>
        <path stroke="#343351" stroke-width="1.385" d="M130.134 106.636c2.442 0 4.44-2.085 4.44-4.633s-1.998-4.633-4.44-4.633-4.44 2.085-4.44 4.633 1.998 4.633 4.44 4.633z"/>
        <path fill="#FFD9CA" d="M151.855 131.025c-11.368 0-20.616-9.652-20.616-21.516v-12.65c0-11.863 9.248-21.515 20.616-21.515 11.367 0 20.615 9.652 20.615 21.516v12.649c0 11.864-9.248 21.516-20.615 21.516"/>
        <path fill="#444" d="M151.855 74.62c-11.72 0-21.31 10.008-21.31 22.24v12.649c0 12.232 9.59 22.24 21.31 22.24 11.72 0 21.309-10.008 21.309-22.24v-12.65c0-12.231-9.59-22.24-21.31-22.24m0 1.449c10.985 0 19.922 9.327 19.922 20.792v12.649c0 11.464-8.937 20.791-19.921 20.791-10.985 0-19.922-9.327-19.922-20.791v-12.65c0-11.464 8.937-20.791 19.922-20.791"/>
        <path fill="#343351" d="M158.94 100.016c.662 0 1.204-.565 1.204-1.256 0-.691-.542-1.257-1.204-1.257-.662 0-1.204.566-1.204 1.257 0 .69.542 1.256 1.204 1.256M144.858 100.016c.663 0 1.204-.565 1.204-1.256 0-.691-.541-1.257-1.204-1.257-.662 0-1.203.566-1.203 1.257 0 .69.541 1.256 1.203 1.256"/>
        <path fill="#EC5A76" d="M163.982 105.907h2.937c1.481 0 2.693-1.265 2.693-2.811s-1.212-2.81-2.693-2.81h-2.937c-1.481 0-2.693 1.264-2.693 2.81s1.212 2.81 2.693 2.81M136.494 105.907h2.937c1.481 0 2.693-1.265 2.693-2.811s-1.212-2.81-2.693-2.81h-2.937c-1.481 0-2.693 1.264-2.693 2.81s1.212 2.81 2.693 2.81" opacity=".3"/>
        <path fill="#FFF" d="M152.004 113.646c-1.822 0-3.253-.56-4.256-1.666-1.595-1.76-1.482-4.242-1.477-4.347a.53.53 0 0 1 .52-.513h10.425a.53.53 0 0 1 .52.513c.005.105.118 2.587-1.477 4.347-1.003 1.105-2.434 1.666-4.255 1.666"/>
        <path fill="#444" d="M157.216 106.577h-10.425c-.553 0-1.008.45-1.04 1.026-.005.114-.128 2.822 1.62 4.75 1.104 1.218 2.663 1.836 4.632 1.836 1.97 0 3.53-.618 4.634-1.836 1.747-1.928 1.624-4.636 1.618-4.75-.03-.576-.487-1.026-1.039-1.026m0 1.086s.29 5.44-5.213 5.44c-5.502 0-5.212-5.44-5.212-5.44h10.425"/>
        <path stroke="#444" stroke-linecap="round" stroke-linejoin="round" stroke-width="1.039" d="M150.057 116.717c2.243 2.341 4.25 0 4.25 0"/>
        <path fill="#343351" d="M144.92 96.005h-6.726c-.796 0-1.447-.68-1.447-1.511 0-.831.651-1.511 1.447-1.511h6.725c.796 0 1.448.68 1.448 1.511 0 .831-.652 1.511-1.448 1.511M164.673 96.005h-6.725c-.796 0-1.448-.68-1.448-1.511 0-.831.652-1.511 1.448-1.511h6.725c.796 0 1.448.68 1.448 1.511 0 .831-.652 1.511-1.448 1.511"/>
        <path fill="#4D478C" d="M167.305 85.805h-16.729c-3.938 0-7.16-3.362-7.16-7.471 0-4.11 3.222-7.472 7.16-7.472h16.729c3.937 0 7.158 3.362 7.158 7.472 0 4.109-3.22 7.471-7.158 7.471"/>
        <path stroke="#444" stroke-width="1.106" d="M167.305 85.805h-16.729c-3.938 0-7.16-3.362-7.16-7.471 0-4.11 3.222-7.472 7.16-7.472h16.729c3.937 0 7.158 3.362 7.158 7.472 0 4.109-3.22 7.471-7.158 7.471z"/>
        <path stroke="#444" stroke-linecap="round" stroke-linejoin="round" stroke-width="1.385" d="M165.75 81.913h-12.4c-.187.023-2.768.305-4.323-1.69-.953-1.225-.991-2.627-.992-2.946a4.988 4.988 0 0 1 .731-2.618"/>
        <path fill="#606060" d="M144.41 133.136h-1.068c-12.529 0-22.685 10.6-22.685 23.675v21.169c0 13.075 10.156 23.675 22.685 23.675h1.068v-68.52z"/>
        <path stroke="#444" stroke-linecap="round" stroke-linejoin="round" stroke-width="1.106" d="M144.41 133.136h-1.068c-12.529 0-22.685 10.6-22.685 23.675v21.169c0 13.075 10.156 23.675 22.685 23.675h1.068v-68.52z"/>
        <path fill="#606060" d="M158.921 133.136h-.463v68.52h.463c12.529 0 22.685-10.6 22.685-23.676v-21.17c0-13.075-10.156-23.674-22.685-23.674"/>
        <path stroke="#444" stroke-linecap="round" stroke-linejoin="round" stroke-width="1.106" d="M158.921 133.136h-.463v68.52h.463c12.529 0 22.685-10.6 22.685-23.676v-21.17c0-13.075-10.156-23.674-22.685-23.674zM137.495 134.202l4.66 5.474-5.202 4.3 7.4 18.22"/>
        <path stroke="#444" stroke-linecap="round" stroke-linejoin="round" stroke-width="1.106" d="M165.316 134.202l-4.661 5.474 5.203 4.3-7.4 18.22"/>
        <g>
            <path fill="#FFD4BE" d="M244.398 180.323c2.405 0 4.372-2.053 4.372-4.563v-16.795c0-2.51-1.967-4.564-4.372-4.564s-4.372 2.054-4.372 4.564v16.795c0 2.51 1.967 4.563 4.372 4.563"/>
            <path stroke="#343351" stroke-width="1.385" d="M244.398 180.323c2.405 0 4.372-2.053 4.372-4.563v-16.795c0-2.51-1.967-4.564-4.372-4.564s-4.372 2.054-4.372 4.564v16.795c0 2.51 1.967 4.563 4.372 4.563z"/>
            <path fill="#FFD4BE" d="M286.422 180.323c-2.405 0-4.372-2.053-4.372-4.563v-16.795c0-2.51 1.967-4.564 4.372-4.564s4.372 2.054 4.372 4.564v16.795c0 2.51-1.967 4.563-4.372 4.563"/>
            <path stroke="#343351" stroke-width="1.385" d="M286.422 180.323c-2.405 0-4.372-2.053-4.372-4.563v-16.795c0-2.51 1.967-4.564 4.372-4.564s4.372 2.054 4.372 4.564v16.795c0 2.51-1.967 4.563-4.372 4.563z"/>
            <path fill="#A3D8FF" d="M242.865 161.778c-1.857 0-3.367-1.423-3.367-3.173V147.43c0-5.312 4.374-9.8 9.551-9.8h33.028c5.241 0 9.67 4.488 9.67 9.8v11.174c0 1.898-1.803 3.173-3.485 3.173h-45.397z"/>
            <path fill="#444" d="M282.077 136.907h-33.028c-2.687 0-5.24 1.093-7.19 3.077a10.568 10.568 0 0 0-3.054 7.447v11.174c0 2.149 1.821 3.897 4.06 3.897H288.26c2.581 0 4.18-2.023 4.18-3.897v-11.174c0-5.705-4.747-10.524-10.364-10.524m0 1.448c4.783 0 8.976 4.084 8.976 9.076v11.174c0 1.442-1.41 2.45-2.792 2.45H242.865c-1.382 0-2.673-1.008-2.673-2.45v-11.174c0-4.992 4.074-9.076 8.857-9.076h33.028"/>
            <path fill="#A3D8FF" d="M283.01 151.134v33.274c0 4.442-3.482 8.077-7.737 8.077h-19.42c-4.256 0-7.738-3.635-7.738-8.077v-33.274"/>
            <path stroke="#444" stroke-linecap="round" stroke-width="1.106" d="M283.01 151.134v33.274c0 4.442-3.482 8.077-7.737 8.077h-19.42c-4.256 0-7.738-3.635-7.738-8.077v-33.274"/>
            <path fill="#FFD4BE" d="M285.21 172.917h-12.156c-1.952 0-3.549 1.666-3.549 3.703 0 2.036 1.597 3.703 3.549 3.703h14.192c1.952 0 3.548-1.667 3.548-3.703v-3.703"/>
            <path stroke="#343351" stroke-linecap="round" stroke-width="1.385" d="M285.21 172.917h-12.156c-1.952 0-3.549 1.666-3.549 3.703 0 2.036 1.597 3.703 3.549 3.703h14.192c1.952 0 3.548-1.667 3.548-3.703v-3.703"/>
            <path fill="#FFD9CA" d="M264.782 145.889c-4.258-.023-7.992-3.045-9.079-7.35l-.229-.909 18.709.012-.23.909c-1.097 4.32-4.849 7.338-9.124 7.338h-.047"/>
            <path fill="#444" d="M254.574 136.906l.458 1.818c1.167 4.62 5.175 7.865 9.747 7.888h.05c4.59 0 8.617-3.238 9.794-7.876l.461-1.818h-1.802l-8.453-.006-8.454-.005-1.801-.001zm1.8 1.449l16.908.01c-1.015 3.999-4.504 6.8-8.453 6.8h-.043c-3.939-.02-7.405-2.825-8.412-6.81z"/>
            <path fill="#7A300D" d="M264.63 129.598c-14.563 0-26.41-12.364-26.41-27.563 0-15.198 11.847-27.563 26.41-27.563 14.562 0 26.41 12.365 26.41 27.563 0 15.199-11.848 27.563-26.41 27.563"/>
            <path fill="#444" d="M264.63 73.748c-14.908 0-27.104 12.73-27.104 28.287 0 15.558 12.196 28.287 27.103 28.287 14.907 0 27.104-12.729 27.104-28.287 0-15.557-12.197-28.287-27.104-28.287m0 1.448c6.84 0 13.289 2.8 18.161 7.885 4.872 5.085 7.555 11.817 7.555 18.954 0 7.138-2.683 13.87-7.555 18.954-4.872 5.085-11.322 7.885-18.16 7.885-6.84 0-13.29-2.8-18.161-7.885-4.873-5.085-7.556-11.816-7.556-18.954 0-7.137 2.683-13.869 7.556-18.954 4.871-5.084 11.321-7.885 18.16-7.885"/>
            <path fill="#FFD9CA" d="M258.573 139.228V126.26c0-3.567 2.796-6.484 6.213-6.484 3.417 0 6.212 2.917 6.212 6.484v12.968"/>
            <path stroke="#444" stroke-linecap="round" stroke-width="1.385" d="M258.573 139.228V126.26c0-3.567 2.796-6.484 6.213-6.484 3.417 0 6.212 2.917 6.212 6.484v12.968"/>
            <path fill="#FFD4BE" d="M288.924 113.528c-2.309 0-4.198-1.972-4.198-4.382 0-2.41 1.89-4.382 4.198-4.382 2.31 0 4.2 1.972 4.2 4.382 0 2.41-1.89 4.382-4.2 4.382"/>
            <path stroke="#343351" stroke-width="1.385" d="M288.924 113.528c-2.309 0-4.198-1.972-4.198-4.382 0-2.41 1.89-4.382 4.198-4.382 2.31 0 4.2 1.972 4.2 4.382 0 2.41-1.89 4.382-4.2 4.382z"/>
            <path fill="#FFD4BE" d="M240.767 113.528c-2.31 0-4.199-1.972-4.199-4.382 0-2.41 1.89-4.382 4.199-4.382 2.31 0 4.198 1.972 4.198 4.382 0 2.41-1.889 4.382-4.198 4.382"/>
            <path stroke="#343351" stroke-width="1.385" d="M240.767 113.528c-2.31 0-4.199-1.972-4.199-4.382 0-2.41 1.89-4.382 4.199-4.382 2.31 0 4.198 1.972 4.198 4.382 0 2.41-1.889 4.382-4.198 4.382z"/>
            <path fill="#FFD9CA" d="M264.859 133.79c-12.85 0-23.304-10.911-23.304-24.323v-6.482c0-13.412 10.454-24.322 23.304-24.322 12.85 0 23.304 10.91 23.304 24.322v6.482c0 13.412-10.454 24.322-23.304 24.322"/>
            <path fill="#444" d="M264.859 77.939c-13.199 0-23.998 11.27-23.998 25.046v6.482c0 13.775 10.8 25.046 23.998 25.046 13.199 0 23.998-11.27 23.998-25.046v-6.482c0-13.775-10.8-25.046-23.998-25.046m0 1.448c6.013 0 11.684 2.462 15.968 6.933 4.283 4.47 6.643 10.39 6.643 16.665v6.482c0 6.276-2.36 12.194-6.643 16.665-4.284 4.471-9.955 6.933-15.968 6.933s-11.684-2.462-15.967-6.933c-4.284-4.47-6.644-10.39-6.644-16.665v-6.482c0-6.276 2.36-12.194 6.644-16.665 4.283-4.47 9.954-6.933 15.967-6.933"/>
            <path fill="#FFF" d="M259.244 115.777v.08c0 3.202 2.51 5.822 5.578 5.822 3.07 0 5.58-2.62 5.58-5.822v-.08h-11.158z"/>
            <path stroke="#444" stroke-linecap="round" stroke-linejoin="round" stroke-width="1.039" d="M259.244 115.777v.08c0 3.202 2.51 5.822 5.578 5.822 3.07 0 5.58-2.62 5.58-5.822v-.08h-11.158z"/>
            <path fill="#883B0D" d="M268.047 76.01a22.452 22.452 0 0 1 9.758 4.462l-.906 5.19c-.444 2.544-2.46 8.963-8.3 13.566-7.105 5.6-17.155 6.246-26.012 1.866-.824-.327-1.502-.626-2.49-.983l.777-4.449c2.304-13.21 14.515-22.058 27.173-19.652"/>
            <path fill="#883B0D" d="M277.898 81.405c-.286 2.124-1.763 11.407-9.604 17.555-7.755 6.08-18.674 6.691-27.977 1.62"/>
            <path stroke="#444" stroke-linecap="round" stroke-width="1.106" d="M277.898 81.405c-.286 2.124-1.763 11.407-9.604 17.555-7.755 6.08-18.674 6.691-27.977 1.62"/>
            <path stroke="#444" stroke-linecap="round" stroke-width="1.039" d="M269.229 90.879c-1.153 1.658-5.15 6.967-12.354 8.829-10.589 2.736-18.865-4.361-19.74-5.138M245.677 89.15c.607-1.51 1.886-4.13 4.428-6.5.384-.358 2.368-2.176 5.314-3.378 6.302-2.573 12.409-.452 14.285.284"/>
            <path fill="#FFD9CA" d="M245.61 172.917h12.156c1.951 0 3.548 1.666 3.548 3.703 0 2.036-1.597 3.703-3.548 3.703h-14.192c-1.952 0-3.548-1.667-3.548-3.703v-3.703"/>
            <path stroke="#444" stroke-linecap="round" stroke-width="1.385" d="M245.61 172.917h12.156c1.951 0 3.548 1.666 3.548 3.703 0 2.036-1.597 3.703-3.548 3.703h-14.192c-1.952 0-3.548-1.667-3.548-3.703v-3.703"/>
            <path fill="#FFD9CA" d="M258.213 180.323h1.618c2.76 0 5.019-2.357 5.019-5.238 0-2.88-2.258-5.237-5.019-5.237h-1.618c-2.76 0-5.019 2.357-5.019 5.237 0 2.881 2.258 5.238 5.019 5.238"/>
            <path stroke="#444" stroke-width="1.106" d="M258.213 180.323h1.618c2.76 0 5.019-2.357 5.019-5.238 0-2.88-2.258-5.237-5.019-5.237h-1.618c-2.76 0-5.019 2.357-5.019 5.237 0 2.881 2.258 5.238 5.019 5.238z"/>
            <path fill="#FFF" d="M268.301 182.81h-7.344c-1.293 0-2.35-1.104-2.35-2.454v-17.094c0-1.35 1.057-2.453 2.35-2.453h7.344c1.294 0 2.351 1.104 2.351 2.453v17.094c0 1.35-1.057 2.454-2.35 2.454"/>
            <path stroke="#444" stroke-width="1.385" d="M268.301 182.81h-7.344c-1.293 0-2.35-1.104-2.35-2.454v-17.094c0-1.35 1.057-2.453 2.35-2.453h7.344c1.294 0 2.351 1.104 2.351 2.453v17.094c0 1.35-1.057 2.454-2.35 2.454z"/>
            <path fill="#B5B5B5" d="M261.576 164.45a.564.564 0 0 1-.55-.575c0-.317.246-.574.55-.574.304 0 .551.257.551.574a.564.564 0 0 1-.55.576"/>
            <path fill="#343351" d="M261.576 162.938c-.494 0-.898.422-.898.937 0 .516.404.938.898.938s.898-.422.898-.938c0-.515-.404-.937-.898-.937m0 .724c.11 0 .204.098.204.213a.211.211 0 0 1-.204.214.212.212 0 0 1-.204-.214c0-.115.094-.213.204-.213"/>
            <path fill="#B5B5B5" d="M263.707 163.992a.124.124 0 0 1-.122-.122c0-.066.056-.121.122-.121s.121.055.121.121a.124.124 0 0 1-.121.122"/>
            <path fill="#343351" d="M263.707 163.387a.48.48 0 0 0-.469.489c0 .269.211.488.469.488a.48.48 0 0 0 .468-.488.48.48 0 0 0-.468-.49"/>
            <path fill="#FFD9CA" d="M272.607 180.323h-1.619c-2.76 0-5.018-2.357-5.018-5.238 0-2.88 2.258-5.237 5.018-5.237h1.619c2.76 0 5.018 2.357 5.018 5.237 0 2.881-2.258 5.238-5.018 5.238"/>
            <path stroke="#444" stroke-width="1.106" d="M272.607 180.323h-1.619c-2.76 0-5.018-2.357-5.018-5.238 0-2.88 2.258-5.237 5.018-5.237h1.619c2.76 0 5.018 2.357 5.018 5.237 0 2.881-2.258 5.238-5.018 5.238z"/>
            <path fill="#EC5A76" d="M251.988 115.026h-3.25c-1.347 0-2.45-1.15-2.45-2.557s1.103-2.557 2.45-2.557h3.25c1.348 0 2.45 1.15 2.45 2.557s-1.102 2.557-2.45 2.557M281.576 115.026h-3.25c-1.348 0-2.45-1.15-2.45-2.557s1.102-2.557 2.45-2.557h3.25c1.347 0 2.45 1.15 2.45 2.557s-1.103 2.557-2.45 2.557" opacity=".3"/>
            <path fill="#3A1500" d="M258.533 109.733c-.41 0-.742-.348-.742-.775 0-.427.333-.774.742-.774.41 0 .742.347.742.774 0 .427-.333.775-.742.775"/>
            <path fill="#3A1500" d="M258.533 107.64c-.697 0-1.263.59-1.263 1.318 0 .728.566 1.318 1.263 1.318s1.262-.59 1.262-1.318c0-.728-.565-1.317-1.262-1.317m0 1.086c.122 0 .222.104.222.231 0 .128-.1.232-.222.232a.227.227 0 0 1-.222-.232c0-.127.1-.231.222-.231M272.238 109.733c-.409 0-.741-.348-.741-.775 0-.427.332-.774.741-.774.41 0 .743.347.743.774 0 .427-.333.775-.743.775"/>
            <path fill="#3A1500" d="M272.239 107.64c-.698 0-1.263.59-1.263 1.318 0 .728.565 1.318 1.263 1.318.697 0 1.262-.59 1.262-1.318 0-.728-.565-1.317-1.262-1.317m0 1.086c.122 0 .221.104.221.231 0 .128-.099.232-.221.232a.227.227 0 0 1-.222-.232c0-.127.1-.231.222-.231"/>
            <path stroke="#3B1600" stroke-linecap="round" stroke-width="1.049" d="M274.64 100.037c.248-.04 1.705-.255 2.98.792.996.818 1.278 1.91 1.352 2.249"/>
        </g>
        <g>
            <path fill="#8D4052" d="M206.907 172.194c-2.16.17-12.455.745-21.075-7.035-11.94-10.775-9.488-27.486-9.333-28.44l2.313-25.34c0-16.128 12.643-29.323 28.095-29.323 15.452 0 28.095 13.195 28.095 29.322l2.428 25.46c.157 1.012 2.464 17.607-9.448 28.321-8.627 7.76-18.897 7.205-21.075 7.035"/>
            <path stroke="#444" stroke-linecap="round" stroke-width="1.106" d="M206.907 172.194c-2.16.17-12.455.745-21.075-7.035-11.94-10.775-9.488-27.486-9.333-28.44l2.313-25.34c0-16.128 12.643-29.323 28.095-29.323 15.452 0 28.095 13.195 28.095 29.322l2.428 25.46c.157 1.012 2.464 17.607-9.448 28.321-8.627 7.76-18.897 7.205-21.075 7.035z"/>
            <path fill="#F8C063" d="M221.09 142.872h-29.06c-4.207 0-7.669 3.594-7.669 7.986v9.831c0 1.268 1.013 2.093 2.229 2.093h39.94c1.216 0 2.228-.825 2.228-2.093V150.858c0-4.392-3.46-7.986-7.669-7.986"/>
            <path stroke="#444" stroke-linecap="round" stroke-width="1.385" d="M221.09 142.872h-29.06c-4.207 0-7.669 3.594-7.669 7.986v9.831c0 1.268 1.013 2.093 2.229 2.093h39.94c1.216 0 2.228-.825 2.228-2.093V150.858c0-4.392-3.46-7.986-7.669-7.986z"/>
            <path fill="#EB739A" d="M222.437 154.116v30.278c0 4.041-3.169 7.348-7.042 7.348h-17.67c-3.873 0-7.042-3.307-7.042-7.348v-30.278"/>
            <path stroke="#343351" stroke-linecap="round" stroke-width="1.385" d="M222.437 154.116v30.278c0 4.041-3.169 7.348-7.042 7.348h-17.67c-3.873 0-7.042-3.307-7.042-7.348v-30.278"/>
            <path fill="#FFD9CA" d="M199.623 142.872v5.586c0 4.095 3.36 7.446 7.284 7.446s7.284-3.35 7.284-7.446v-5.586h-14.568z"/>
            <path stroke="#444" stroke-width="1.385" d="M199.623 142.872v5.586c0 4.095 3.36 7.446 7.284 7.446s7.284-3.35 7.284-7.446v-5.586h-14.568z"/>
            <path fill="#FFD9CA" d="M202.05 144.501v-9.774c0-2.688 2.108-4.887 4.683-4.887 2.576 0 4.683 2.2 4.683 4.887v9.774"/>
            <path stroke="#444" stroke-linecap="round" stroke-width="1.385" d="M202.05 144.501v-9.774c0-2.688 2.108-4.887 4.683-4.887 2.576 0 4.683 2.2 4.683 4.887v9.774"/>
            <path fill="#FFD4BE" d="M181.587 118.602c-1.995 0-3.627-1.703-3.627-3.785 0-2.081 1.632-3.784 3.627-3.784 1.994 0 3.626 1.703 3.626 3.784 0 2.082-1.632 3.785-3.626 3.785"/>
            <path stroke="#343351" stroke-width="1.385" d="M181.587 118.602c-1.995 0-3.627-1.703-3.627-3.785 0-2.081 1.632-3.784 3.627-3.784 1.994 0 3.626 1.703 3.626 3.784 0 2.082-1.632 3.785-3.626 3.785z"/>
            <path fill="#FFD9CA" d="M206.56 138.89c-13.388 0-24.28-11.367-24.28-25.34 0-13.972 10.892-25.34 24.28-25.34 13.388 0 24.28 11.368 24.28 25.34 0 13.973-10.892 25.34-24.28 25.34"/>
            <path fill="#444" d="M206.56 87.486c-13.793 0-24.973 11.67-24.973 26.064 0 14.395 11.18 26.064 24.973 26.064s24.973-11.669 24.973-26.064-11.18-26.064-24.973-26.064m0 1.448c13.005 0 23.586 11.043 23.586 24.616 0 13.574-10.58 24.616-23.586 24.616-13.005 0-23.586-11.042-23.586-24.616 0-13.573 10.58-24.616 23.586-24.616"/>
            <path stroke="#44121B" stroke-linecap="round" stroke-width="1.039" d="M194.82 108.932c.177-.288.482-.701.963-1.07.337-.258.66-.418.914-.518"/>
            <path fill="#EC5A76" d="M192.427 121.587h-3.368c-1.397 0-2.54-1.193-2.54-2.651 0-1.458 1.143-2.651 2.54-2.651h3.368c1.397 0 2.54 1.193 2.54 2.65 0 1.459-1.143 2.652-2.54 2.652M223.097 121.587h-3.369c-1.397 0-2.54-1.193-2.54-2.651 0-1.458 1.143-2.651 2.54-2.651h3.369c1.397 0 2.54 1.193 2.54 2.65 0 1.459-1.143 2.652-2.54 2.652" opacity=".3"/>
            <path fill="#A04C5B" d="M205.739 84.71a25.282 25.282 0 0 0-11.666 2.86v5.876c.197 2.88 1.094 10.334 6.614 16.594 6.715 7.618 17.67 10.417 28.214 7.462.965-.187 1.939-.373 2.98-.56v-5.036c0-14.957-11.81-27.195-26.142-27.195"/>
            <path fill="#A04C5B" d="M194.015 88.572c-.092 2.387-.249 12.868 7.169 21.238 7.336 8.277 19.184 11.221 30.35 7.602"/>
            <path stroke="#444" stroke-linecap="round" stroke-width="1.106" d="M194.015 88.572c-.092 2.387-.249 12.868 7.169 21.238 7.336 8.277 19.184 11.221 30.35 7.602"/>
            <path fill="#A04C5B" d="M227.477 101.894c-.377-1.781-1.277-4.918-3.61-8.046-.352-.471-2.18-2.876-5.178-4.807-6.414-4.131-13.512-3.08-15.709-2.664"/>
            <path stroke="#444" stroke-linecap="round" stroke-width="1.039" d="M227.477 101.894c-.377-1.781-1.277-4.918-3.61-8.046-.352-.471-2.18-2.876-5.178-4.807-6.414-4.131-13.512-3.08-15.709-2.664M201.704 100.76c.947 2.057 4.312 8.707 11.85 12.247 11.082 5.204 21.508-.85 22.615-1.52"/>
            <path fill="#44121B" d="M198.864 115.033c-.434 0-.788-.37-.788-.822 0-.454.354-.823.788-.823.435 0 .788.369.788.823 0 .453-.353.822-.788.822"/>
            <path fill="#44121B" d="M198.864 112.845c-.722 0-1.308.611-1.308 1.365 0 .755.586 1.366 1.308 1.366.723 0 1.308-.611 1.308-1.366 0-.754-.585-1.365-1.308-1.365m0 1.086c.148 0 .268.125.268.28 0 .154-.12.279-.268.279a.274.274 0 0 1-.268-.28c0-.154.12-.28.268-.28"/>
            <path fill="#FFF" d="M200.663 120.79v.084c0 3.32 2.603 6.035 5.783 6.035s5.783-2.716 5.783-6.035v-.084h-11.566z"/>
            <path stroke="#444" stroke-linecap="round" stroke-linejoin="round" stroke-width="1.039" d="M200.663 120.79v.084c0 3.32 2.603 6.035 5.783 6.035s5.783-2.716 5.783-6.035v-.084h-11.566z"/>
        </g>
        <g>
            <path fill="#7EC3A0" d="M76.233 168.926c-1.786 0-3.58-.218-5.347-.66-5.968-1.491-10.818-5.31-13.307-10.478-4.536-9.42-.755-21.86 8.608-28.32l6.37 10.058c-4.869 3.359-6.339 9.355-4.656 12.848.942 1.957 3.064 3.515 5.676 4.169 3.33.832 6.876.051 9.73-2.142l6.85 9.707c-4.11 3.16-8.99 4.818-13.924 4.818"/>
            <path stroke="#444" stroke-linecap="round" stroke-linejoin="round" stroke-width="1.106" d="M76.233 168.926c-1.786 0-3.58-.218-5.347-.66-5.968-1.491-10.818-5.31-13.307-10.478-4.536-9.42-.755-21.86 8.608-28.32l6.37 10.058c-4.869 3.359-6.339 9.355-4.656 12.848.942 1.957 3.064 3.515 5.676 4.169 3.33.832 6.876.051 9.73-2.142l6.85 9.707c-4.11 3.16-8.99 4.818-13.924 4.818z"/>
            <path fill="#503A3A" d="M97.36 139.473c-13.18 0-23.9-11.19-23.9-24.944s10.72-24.944 23.9-24.944c13.178 0 23.9 11.19 23.9 24.944s-10.722 24.944-23.9 24.944"/>
            <path fill="#444" d="M97.36 88.861c-13.561 0-24.594 11.514-24.594 25.668 0 14.153 11.033 25.668 24.594 25.668 13.56 0 24.594-11.515 24.594-25.668 0-14.154-11.033-25.668-24.594-25.668m0 1.448c12.763 0 23.206 10.899 23.206 24.22 0 13.32-10.443 24.22-23.206 24.22-12.764 0-23.207-10.9-23.207-24.22 0-13.321 10.443-24.22 23.207-24.22"/>
            <path fill="#FFCAB3" d="M92.97 159.926h10.007c.16 0 .29-.136.29-.302V138.13a.297.297 0 0 0-.29-.303H92.97c-.16 0-.29.136-.29.303v21.493c0 .166.13.302.29.302"/>
            <path fill="#FFD9CA" d="M92.68 159.926h7.467v-22.098H92.68z"/>
            <path stroke="#444" stroke-linecap="round" stroke-linejoin="round" stroke-width="1.385" d="M92.68 159.926h7.467v-22.098H92.68z"/>
            <path fill="#FFD9CA" d="M118.968 127.568c2.427 0 4.412-2.072 4.412-4.604s-1.985-4.604-4.412-4.604c-2.426 0-4.411 2.072-4.411 4.604s1.985 4.604 4.411 4.604"/>
            <path stroke="#343351" stroke-width="1.049" d="M118.968 127.568c2.427 0 4.412-2.072 4.412-4.604s-1.985-4.604-4.412-4.604c-2.426 0-4.411 2.072-4.411 4.604s1.985 4.604 4.411 4.604z"/>
            <path fill="#FFD9CA" d="M76.39 127.568c2.427 0 4.412-2.072 4.412-4.604s-1.985-4.604-4.411-4.604c-2.426 0-4.412 2.072-4.412 4.604s1.986 4.604 4.412 4.604"/>
            <path stroke="#343351" stroke-width="1.049" d="M76.39 127.568c2.427 0 4.412-2.072 4.412-4.604s-1.985-4.604-4.411-4.604c-2.426 0-4.412 2.072-4.412 4.604s1.986 4.604 4.412 4.604z"/>
            <path fill="#7EC3A0" d="M93.47 210.947h7.556c9.207 0 16.67-7.79 16.67-17.399v-24.48c0-9.609-7.463-17.398-16.67-17.398H93.47c-9.207 0-16.67 7.79-16.67 17.398v24.48c0 9.609 7.463 17.399 16.67 17.399"/>
            <path stroke="#444" stroke-width="1.106" d="M93.47 210.947h7.556c9.207 0 16.67-7.79 16.67-17.399v-24.48c0-9.609-7.463-17.398-16.67-17.398H93.47c-9.207 0-16.67 7.79-16.67 17.398v24.48c0 9.609 7.463 17.399 16.67 17.399z"/>
            <path fill="#FFD9CA" d="M119.147 124.017v-2.763c0-12.154-9.528-22.098-21.173-22.098-11.646 0-21.174 9.944-21.174 22.098v2.763c0 12.154 9.528 22.098 21.174 22.098 11.645 0 21.173-9.944 21.173-22.098z"/>
            <path stroke="#444" stroke-linecap="round" stroke-linejoin="round" stroke-width="1.106" d="M97.974 146.115c11.645 0 21.173-9.944 21.173-22.098v-2.763c0-12.154-9.528-22.098-21.173-22.098-11.646 0-21.174 9.944-21.174 22.098v2.763c0 12.154 9.528 22.098 21.174 22.098z"/>
            <path fill="#2C1C27" d="M104.342 121.603c.658 0 1.196-.562 1.196-1.249 0-.686-.538-1.248-1.196-1.248-.658 0-1.197.562-1.197 1.248 0 .687.539 1.249 1.197 1.249M90.236 122.635c.835 0 1.519-.713 1.519-1.585 0-.873-.684-1.586-1.52-1.586-.835 0-1.518.713-1.518 1.586 0 .872.683 1.585 1.519 1.585"/>
            <path fill="#EC5A76" d="M109.502 128.157h3.963c1.184 0 2.153-1.012 2.153-2.248 0-1.236-.969-2.248-2.153-2.248h-3.963c-1.185 0-2.154 1.012-2.154 2.248 0 1.236.97 2.248 2.154 2.248M81 129.03h4.733c1.415 0 2.572-1.208 2.572-2.685 0-1.476-1.157-2.684-2.572-2.684H81c-1.415 0-2.572 1.208-2.572 2.684 0 1.477 1.157 2.685 2.572 2.685" opacity=".3"/>
            <path fill="#D7DEE6" d="M105.914 151.578l-4.614 4.815-4.613-4.815z"/>
            <path fill="#DEF8EB" d="M93.544 157.208a.676.676 0 0 1-.49-.212l-4.614-4.815a.746.746 0 0 1-.15-.788.694.694 0 0 1 .64-.448h9.227c.281 0 .534.177.641.448a.746.746 0 0 1-.15.788l-4.614 4.815a.676.676 0 0 1-.49.212"/>
            <path fill="#444" d="M98.157 150.222H88.93c-.56 0-1.067.353-1.281.894a1.494 1.494 0 0 0 .3 1.578l4.614 4.814c.27.283.626.425.98.425.356 0 .711-.142.982-.425l4.614-4.814a1.495 1.495 0 0 0 .3-1.578 1.388 1.388 0 0 0-1.282-.894m0 1.448l-4.613 4.815-4.614-4.815h9.227"/>
            <path fill="#503A3A" d="M86.202 96.192h-6.224c-2.017 0-3.652 2.02-3.652 4.124 0 .55.113.944.314 1.668h-.314c-2.638 0-4.776 2.316-4.776 5.068 0 2.753 2.138 5.068 4.776 5.068H118.094c2.638 0 4.776-2.315 4.776-5.068 0-2.752-2.138-5.068-4.776-5.068h-.313c.2-.724.313-1.118.313-1.668 0-2.105-1.635-4.124-3.652-4.124H108.4"/>
            <path stroke="#444" stroke-linecap="round" stroke-linejoin="round" stroke-width="1.106" d="M86.202 96.192h-6.224c-2.017 0-3.652 2.02-3.652 4.124 0 .55.113.944.314 1.668h-.314c-2.638 0-4.776 2.316-4.776 5.068 0 2.753 2.138 5.068 4.776 5.068H118.094c2.638 0 4.776-2.315 4.776-5.068 0-2.752-2.138-5.068-4.776-5.068h-.313c.2-.724.313-1.118.313-1.668 0-2.105-1.635-4.124-3.652-4.124H108.4"/>
            <path fill="#2C1C27" d="M92.286 117.092h-5.81c-.907 0-1.649-.775-1.649-1.72 0-.947.742-1.72 1.649-1.72h5.81c.906 0 1.648.773 1.648 1.72 0 .945-.742 1.72-1.648 1.72M106.867 117.238h-4.574c-.714 0-1.298-.61-1.298-1.355s.584-1.354 1.298-1.354h4.574c.714 0 1.298.61 1.298 1.354 0 .745-.584 1.355-1.298 1.355"/>
            <path fill="#FFF" d="M96.788 118.72c0 4.777-3.71 8.65-8.287 8.65-4.577 0-8.288-3.873-8.288-8.65s3.71-8.65 8.288-8.65c4.577 0 8.287 3.873 8.287 8.65" opacity=".3"/>
            <path fill="#DEDEDE" d="M99.15 180.594a.678.678 0 0 1-.464-.185.736.736 0 0 1-.23-.5l-2.088-39.808a.745.745 0 0 1 .177-.522.682.682 0 0 1 .478-.24l28.645-1.636c.366 0 .672.299.692.685l2.089 39.807c.02.4-.273.741-.655.763l-28.645 1.636"/>
            <path fill="#444" d="M125.669 136.979c-.026 0-.051 0-.077.002l-28.607 1.635c-.765.044-1.351.727-1.31 1.525l2.089 39.808c.02.383.185.743.46.999a1.355 1.355 0 0 0 1.001.367l28.607-1.634c.367-.021.712-.194.957-.48.246-.286.372-.662.352-1.045l-2.088-39.808c-.04-.772-.653-1.369-1.384-1.369m-.001 1.448l2.088 39.808-28.607 1.635-2.088-39.808 28.607-1.635"/>
            <path fill="#F3F3F3" d="M124.963 181.025l-28.541-2.593a.686.686 0 0 1-.471-.256.745.745 0 0 1-.16-.528l3.312-39.717a.737.737 0 0 1 .245-.492.675.675 0 0 1 .506-.167l28.542 2.593a.684.684 0 0 1 .47.255.745.745 0 0 1 .16.529l-3.312 39.717a.706.706 0 0 1-.75.659"/>
            <path fill="#444" d="M99.794 136.545c-.325 0-.642.12-.892.34-.282.247-.459.6-.49.983L95.1 177.586c-.067.796.498 1.498 1.262 1.567l28.541 2.593a1.344 1.344 0 0 0 1.013-.334c.281-.247.458-.6.49-.983l3.311-39.718c.067-.796-.498-1.498-1.262-1.567l-28.541-2.593a1.339 1.339 0 0 0-.12-.006m0 1.448l28.541 2.593-3.312 39.717-28.541-2.592 3.312-39.718"/>
            <path fill="#FFD9CA" d="M125.924 162.066c-2.51 0-4.552-2.13-4.552-4.75v-3.103c0-2.619 2.042-4.75 4.552-4.75s4.551 2.131 4.551 4.75v3.103c0 2.62-2.042 4.75-4.551 4.75"/>
            <path fill="#444" d="M125.924 148.739c-2.893 0-5.246 2.456-5.246 5.474v3.103c0 3.019 2.353 5.474 5.246 5.474 2.892 0 5.245-2.455 5.245-5.474v-3.103c0-3.018-2.353-5.474-5.245-5.474m-.005 1.05c2.305 0 4.19 1.909 4.19 4.242v3.268c0 2.334-1.885 4.242-4.19 4.242-2.305 0-4.19-1.908-4.19-4.242v-3.268c0-2.333 1.885-4.242 4.19-4.242"/>
            <path fill="#2E509D" d="M88.394 110.504c-4.26 0-7.824 3.48-8.113 7.92-.147 2.264.56 4.452 1.989 6.161 1.43 1.71 3.411 2.735 5.58 2.889.188.013.374.02.559.02 4.26 0 7.824-3.48 8.113-7.92.303-4.673-3.092-8.733-7.57-9.05a7.821 7.821 0 0 0-.558-.02m-15.557 22.407a.864.864 0 0 1 .077-1.181l8.374-7.63-.295-.518a9.244 9.244 0 0 1-1.185-5.191c.306-4.7 4.076-8.381 8.584-8.381.196 0 .394.007.592.02 2.295.163 4.393 1.249 5.906 3.058 1.512 1.808 2.26 4.124 2.104 6.52-.305 4.7-4.076 8.38-8.583 8.38a8.363 8.363 0 0 1-5.64-2.188l-.457-.412-8.346 7.603a.779.779 0 0 1-1.131-.08z"/>
            <path fill="#343351" d="M88.409 126.77c-.17 0-.34-.006-.512-.018-4.103-.291-7.202-3.997-6.924-8.279.267-4.102 3.539-7.244 7.42-7.245.17 0 .34.006.512.018 4.103.29 7.203 3.998 6.925 8.28-.267 4.102-3.54 7.244-7.421 7.244m-.017-17.484c-4.853 0-8.943 3.927-9.276 9.055-.133 2.041.35 3.976 1.28 5.61l-7.939 7.233a1.614 1.614 0 0 0-.143 2.204 1.454 1.454 0 0 0 2.11.15l7.892-7.19a9.065 9.065 0 0 0 6.094 2.365c4.854 0 8.943-3.928 9.277-9.056.347-5.352-3.528-9.986-8.656-10.349a9.039 9.039 0 0 0-.64-.022m-6.839 15.534c.046.06.092.117.14.175l-.288.262-7.892 7.189c-.007.007-.028.026-.07.026a.105.105 0 0 1-.083-.037.113.113 0 0 1-.025-.082.112.112 0 0 1 .035-.078l7.94-7.232.243-.223"/>
            <path fill="#FFD9CA" d="M70.737 139.016l-4.094-1.49c-2.785-1.014-4.199-4.223-3.14-7.131 1.058-2.907 4.203-4.457 6.989-3.443l4.094 1.49c2.786 1.014 4.2 4.223 3.141 7.13-1.058 2.908-4.203 4.458-6.99 3.444"/>
            <path stroke="#444" stroke-linecap="round" stroke-linejoin="round" stroke-width="1.049" d="M70.737 139.016l-4.094-1.49c-2.785-1.014-4.199-4.223-3.14-7.131 1.058-2.907 4.203-4.457 6.989-3.443l4.094 1.49c2.786 1.014 4.2 4.223 3.141 7.13-1.058 2.908-4.203 4.458-6.99 3.444z"/>
            <path stroke="#444" stroke-linecap="round" stroke-linejoin="round" stroke-width="1.039" d="M94.113 129.21c0 2.321 1.82 4.22 4.044 4.22 2.225 0 4.045-1.899 4.045-4.22v-.06"/>
        </g>
        <g>
            <path fill="#A3969A" d="M340.635 106.107a7.862 7.862 0 0 0 1.347-4.408c0-4.133-3.156-7.65-7.078-7.825-.516-3.727-3.608-6.732-7.316-6.732h-3.414c-3.234-1.448-6.705-2.075-10.52-2.075v-.038c-3.816 0-7.267.665-10.501 2.113h-2.955c-3.707 0-6.892 3.006-7.409 6.732-3.949.143-7.23 3.636-7.23 7.791v.019c0 1.666.608 3.212 1.478 4.478-1.657 1.418-2.642 3.786-2.642 5.958h.009c0 2.172 1.036 4.503 2.658 5.921 2.178 13.252 13.411 23.429 26.592 23.429 12.833 0 24.161-9.941 26.518-22.967 1.953-1.393 3.245-3.849 3.245-6.383h.001c0-2.534-1.09-4.596-2.783-6.013"/>
            <path stroke="#444" stroke-linecap="round" stroke-width="1.106" d="M340.635 106.107a7.862 7.862 0 0 0 1.347-4.408c0-4.133-3.156-7.65-7.078-7.825-.516-3.727-3.608-6.732-7.316-6.732h-3.414c-3.234-1.448-6.705-2.075-10.52-2.075v-.038c-3.816 0-7.267.665-10.501 2.113h-2.955c-3.707 0-6.892 3.006-7.409 6.732-3.949.143-7.23 3.636-7.23 7.791v.019c0 1.666.608 3.212 1.478 4.478-1.657 1.418-2.642 3.786-2.642 5.958h.009c0 2.172 1.036 4.503 2.658 5.921 2.178 13.252 13.411 23.429 26.592 23.429 12.833 0 24.161-9.941 26.518-22.967 1.953-1.393 3.245-3.849 3.245-6.383h.001c0-2.534-1.09-4.596-2.783-6.013z"/>
            <path fill="#FAE670" d="M327.163 182.274h-26c-6.867 0-12.486-5.864-12.486-13.032v-11.261c0-7.168 5.619-13.033 12.486-13.033h26c6.868 0 12.487 5.865 12.487 13.033v11.261c0 7.168-5.619 13.032-12.487 13.032"/>
            <path stroke="#444" stroke-linecap="round" stroke-width="1.106" d="M327.163 182.274h-26c-6.867 0-12.486-5.864-12.486-13.032v-11.261c0-7.168 5.619-13.033 12.486-13.033h26c6.868 0 12.487 5.865 12.487 13.033v11.261c0 7.168-5.619 13.032-12.487 13.032z"/>
            <path fill="#FAE670" d="M329.692 157.823v29.93c0 3.996-3.133 7.265-6.961 7.265h-17.468c-3.829 0-6.961-3.269-6.961-7.264v-29.931"/>
            <path stroke="#444" stroke-linecap="round" stroke-width="1.106" d="M329.692 157.823v29.93c0 3.996-3.133 7.265-6.961 7.265h-17.468c-3.829 0-6.961-3.269-6.961-7.264v-29.931"/>
            <path fill="#FFD9CA" d="M306.023 145.062v6.226c0 4.73 3.792 8.6 8.324 8.6s8.325-3.87 8.325-8.6v-6.226h-16.65z"/>
            <path stroke="#444" stroke-width="1.385" d="M306.023 145.062v6.226c0 4.73 3.792 8.6 8.324 8.6s8.325-3.87 8.325-8.6v-6.226h-16.65z"/>
            <path fill="#FFD9CA" d="M308.79 146.72v-11.288c0-3.105 2.433-5.644 5.407-5.644s5.408 2.54 5.408 5.644v11.287"/>
            <path stroke="#444" stroke-linecap="round" stroke-width="1.385" d="M308.79 146.72v-11.288c0-3.105 2.433-5.644 5.407-5.644s5.408 2.54 5.408 5.644v11.287"/>
            <path fill="#FFD4BE" d="M289.676 120.956c-1.915 0-3.483-1.635-3.483-3.635 0-2 1.568-3.635 3.483-3.635 1.916 0 3.483 1.636 3.483 3.635 0 2-1.567 3.635-3.483 3.635"/>
            <path stroke="#444" stroke-width="1.385" d="M289.676 120.956c-1.915 0-3.483-1.635-3.483-3.635 0-2 1.568-3.635 3.483-3.635 1.916 0 3.483 1.636 3.483 3.635 0 2-1.567 3.635-3.483 3.635z"/>
            <path fill="#FFD9CA" d="M337.47 120.956c-1.916 0-3.484-1.635-3.484-3.635 0-2 1.568-3.635 3.483-3.635 1.916 0 3.484 1.636 3.484 3.635 0 2-1.568 3.635-3.484 3.635"/>
            <path stroke="#444" stroke-width="1.385" d="M337.47 120.956c-1.916 0-3.484-1.635-3.484-3.635 0-2 1.568-3.635 3.483-3.635 1.916 0 3.484 1.636 3.484 3.635 0 2-1.568 3.635-3.484 3.635z"/>
            <path fill="#FFD9CA" d="M313.664 142.138c-12.845 0-23.294-10.906-23.294-24.311s10.45-24.311 23.294-24.311c12.844 0 23.294 10.906 23.294 24.31 0 13.406-10.45 24.312-23.294 24.312"/>
            <path fill="#444" d="M313.664 92.792c-13.248 0-23.988 11.209-23.988 25.035s10.74 25.035 23.988 25.035 23.987-11.209 23.987-25.035-10.74-25.035-23.987-25.035m0 1.448c12.461 0 22.6 10.58 22.6 23.587 0 13.006-10.139 23.587-22.6 23.587-12.462 0-22.6-10.581-22.6-23.587s10.138-23.587 22.6-23.587"/>
            <path stroke="#444" stroke-linecap="round" stroke-width="1.049" d="M298.362 111.505c.297-.38.794-.918 1.536-1.364a5.415 5.415 0 0 1 1.38-.588"/>
            <path fill="#EC5A76" d="M300.682 125.129h-3.236c-1.341 0-2.44-1.146-2.44-2.547 0-1.4 1.099-2.546 2.44-2.546h3.236c1.342 0 2.44 1.146 2.44 2.546 0 1.401-1.098 2.547-2.44 2.547M330.14 125.129h-3.235c-1.342 0-2.44-1.146-2.44-2.547 0-1.4 1.098-2.546 2.44-2.546h3.236c1.342 0 2.44 1.146 2.44 2.546 0 1.401-1.098 2.547-2.44 2.547" opacity=".3"/>
            <path fill="#FFF" d="M309.353 121.433H297.38c-1.105 0-2.01-.943-2.01-2.097v-4.41c0-1.152.905-2.097 2.01-2.097h11.973c1.105 0 2.01.945 2.01 2.098v4.41c0 1.153-.905 2.096-2.01 2.096" opacity=".8"/>
            <path fill="#444" d="M305.939 117.491c-.407 0-.737-.345-.737-.769 0-.424.33-.769.737-.769.406 0 .736.345.736.77 0 .423-.33.768-.736.768"/>
            <path fill="#444" d="M305.939 115.41c-.695 0-1.257.588-1.257 1.313 0 .724.562 1.311 1.257 1.311.694 0 1.257-.587 1.257-1.311 0-.725-.563-1.312-1.257-1.312m0 1.086c.119 0 .216.101.216.226a.222.222 0 0 1-.216.225.222.222 0 0 1-.217-.225c0-.125.097-.226.217-.226"/>
            <path fill="#FFF" d="M328.66 121.433h-11.972c-1.105 0-2.01-.943-2.01-2.097v-4.41c0-1.152.905-2.097 2.01-2.097h11.973c1.105 0 2.01.945 2.01 2.098v4.41c0 1.153-.905 2.096-2.01 2.096" opacity=".8"/>
            <path fill="#444" d="M319.585 117.491c-.406 0-.737-.345-.737-.769 0-.424.33-.769.737-.769.406 0 .737.345.737.77 0 .423-.331.768-.737.768"/>
            <path fill="#444" d="M319.585 115.41c-.694 0-1.257.588-1.257 1.313 0 .724.563 1.311 1.257 1.311s1.257-.587 1.257-1.311c0-.725-.563-1.312-1.257-1.312m0 1.086c.12 0 .216.101.216.226a.222.222 0 0 1-.216.225.222.222 0 0 1-.217-.225c0-.125.098-.226.217-.226"/>
            <path stroke="#ED5084" stroke-linecap="round" stroke-width=".693" d="M309.516 124.286c-.003 2.397-1.885 4.355-4.18 4.351" opacity=".12"/>
            <path fill="#A3969A" d="M304.7 93.32c.205 1.616 1.292 8.687 7.687 13.467 6.325 4.728 15.344 5.35 23.11 1.634"/>
            <path stroke="#ED5084" stroke-linecap="round" stroke-width=".693" d="M318.07 124.286c.004 2.397 1.886 4.355 4.182 4.351" opacity=".12"/>
            <path fill="#ED5084" d="M313.916 126.734c0 .726-.564 1.315-1.26 1.315-.697 0-1.26-.589-1.26-1.315 0-.727.563-1.315 1.26-1.315.696 0 1.26.588 1.26 1.315"/>
            <path fill="#ED5084" d="M315.932 126.734c0 .726-.564 1.315-1.26 1.315-.696 0-1.26-.589-1.26-1.315 0-.727.564-1.315 1.26-1.315.696 0 1.26.588 1.26 1.315"/>
            <path stroke="#ED5084" stroke-linecap="round" stroke-linejoin="round" stroke-width="1.039" d="M310.98 126.312c1.094 2.263 4.276 2.273 5.368 0"/>
            <path fill="#444" d="M309.353 112.83H297.38c-1.105 0-2.01.943-2.01 2.097v4.41c0 1.153.905 2.097 2.01 2.097h11.973c1.105 0 2.01-.944 2.01-2.098v-4.409c0-1.154-.905-2.097-2.01-2.097m0 1.086c.534 0 .969.453.969 1.011v4.41c0 .557-.435 1.01-.97 1.01H297.38c-.534 0-.969-.453-.969-1.01v-4.41c0-.558.435-1.011.97-1.011h11.972M328.66 112.83h-11.972c-1.105 0-2.01.943-2.01 2.097v4.41c0 1.153.905 2.097 2.01 2.097h11.973c1.105 0 2.01-.944 2.01-2.098v-4.409c0-1.154-.905-2.097-2.01-2.097m0 1.086c.534 0 .969.453.969 1.011v4.41c0 .557-.435 1.01-.97 1.01h-11.972c-.534 0-.969-.453-.969-1.01v-4.41c0-.558.435-1.011.97-1.011h11.972"/>
            <path fill="#A3969A" d="M312.884 89.37a19.398 19.398 0 0 0-8.132 3.249l.674 3.954c.33 1.937 1.924 6.837 6.686 10.417 5.795 4.355 14.086 4.99 21.473 1.793.686-.237 1.241-.452 2.062-.71l-.577-3.388c-1.715-10.065-11.684-16.958-22.186-15.314"/>
            <path stroke="#444" stroke-linecap="round" stroke-width="1.106" d="M304.7 93.32c.205 1.616 1.292 8.687 7.687 13.467 6.325 4.728 15.344 5.35 23.11 1.634"/>
            <path stroke="#444" stroke-linecap="round" stroke-width="1.039" d="M315.149 98.147c.304 1.142 1.458 4.866 5.243 7.456 5.563 3.806 11.954 1.84 12.635 1.618"/>
            <path fill="#FFD9CA" d="M293.579 190.498c-2.708 0-4.902-2.29-4.902-5.116V166.06c0-2.825 2.194-5.116 4.902-5.116 2.707 0 4.902 2.29 4.902 5.116v19.323c0 2.826-2.195 5.116-4.902 5.116"/>
            <path stroke="#444" stroke-width="1.385" d="M293.579 190.498c-2.708 0-4.902-2.29-4.902-5.116V166.06c0-2.825 2.194-5.116 4.902-5.116 2.707 0 4.902 2.29 4.902 5.116v19.323c0 2.826-2.195 5.116-4.902 5.116z"/>
            <path fill="#FFD9CA" d="M334.748 190.498c2.707 0 4.902-2.29 4.902-5.116V166.06c0-2.825-2.195-5.116-4.902-5.116-2.707 0-4.902 2.29-4.902 5.116v19.323c0 2.826 2.195 5.116 4.902 5.116"/>
            <path stroke="#444" stroke-width="1.106" d="M334.748 190.498c2.707 0 4.902-2.29 4.902-5.116V166.06c0-2.825-2.195-5.116-4.902-5.116-2.707 0-4.902 2.29-4.902 5.116v19.323c0 2.826 2.195 5.116 4.902 5.116z"/>
            <path fill="#FFD9CA" d="M332.32 182.004h-16.086c-2.708 0-4.903 2.291-4.903 5.116 0 2.826 2.195 5.117 4.903 5.117h18.514c2.707 0 4.902-2.29 4.902-5.117v-7.4"/>
            <path stroke="#444" stroke-linecap="round" stroke-width="1.106" d="M332.32 182.004h-16.086c-2.708 0-4.903 2.291-4.903 5.116 0 2.826 2.195 5.117 4.903 5.117h18.514c2.707 0 4.902-2.29 4.902-5.117v-7.4"/>
            <path fill="#B5B5B5" d="M314.71 195.018h-33.307c-1.571 0-2.857-1.341-2.857-2.982V168.68c0-1.64 1.286-2.983 2.857-2.983h33.307c1.571 0 2.857 1.342 2.857 2.983v23.357c0 1.64-1.286 2.982-2.857 2.982"/>
            <path stroke="#444" stroke-linecap="round" stroke-width="1.106" d="M314.71 195.018h-33.307c-1.571 0-2.857-1.341-2.857-2.982V168.68c0-1.64 1.286-2.983 2.857-2.983h33.307c1.571 0 2.857 1.342 2.857 2.983v23.357c0 1.64-1.286 2.982-2.857 2.982z"/>
            <path fill="#FFD9CA" d="M320.082 188.045h-1.652c-2.817 0-5.122-2.375-5.122-5.278 0-2.903 2.305-5.277 5.122-5.277h1.652c2.818 0 5.123 2.374 5.123 5.277s-2.305 5.278-5.123 5.278"/>
            <path stroke="#444" stroke-width="1.106" d="M320.082 188.045h-1.652c-2.817 0-5.122-2.375-5.122-5.278 0-2.903 2.305-5.277 5.122-5.277h1.652c2.818 0 5.123 2.374 5.123 5.277s-2.305 5.278-5.123 5.278z"/>
            <path fill="#FFD9CA" d="M280.174 188.045h-1.653c-2.817 0-5.122-2.375-5.122-5.278 0-2.903 2.305-5.277 5.122-5.277h1.653c2.817 0 5.122 2.374 5.122 5.277s-2.305 5.278-5.122 5.278"/>
            <path stroke="#444" stroke-width="1.106" d="M280.174 188.045h-1.653c-2.817 0-5.122-2.375-5.122-5.278 0-2.903 2.305-5.277 5.122-5.277h1.653c2.817 0 5.122 2.374 5.122 5.277s-2.305 5.278-5.122 5.278z"/>
            <path fill="#FFF" d="M297.357 182.601c-1.148 0-2.087-.98-2.087-2.178s.94-2.178 2.087-2.178c1.148 0 2.087.98 2.087 2.178s-.939 2.178-2.087 2.178M298.645 176.92c-.362.378-.597.799-.475 1.283.31.086.702-.12 1.178-.617.43-.448.604-.834.522-1.157-.464-.128-.863.114-1.225.492z"/>
        </g>
        <path fill="#FFF" d="M63 214.256h280.963v-25.921H63z"/>
        <path stroke="#444" stroke-linecap="round" stroke-width="1.106" d="M77.533 188.926H348M308.44 201.283h4.843M237.39 201.283h63.783M106.598 201.283h20.184M134.856 201.283h13.725"/>
        <g>
            <path fill="#FFF" d="M179.669 187.821c-1.231 0-2.233-.989-2.233-2.204v-31.875c0-1.215 1.002-2.204 2.233-2.204h51.557c1.231 0 2.233.989 2.233 2.204v31.875c0 1.215-1.002 2.204-2.233 2.204h-51.557z"/>
            <g transform="translate(176.902 151.158)">
                <mask id="b" fill="#fff">
                    <use xlink:href="#a"/>
                </mask>
                <path fill="#444" d="M54.323.022H2.767C1.335.022.17 1.172.17 2.585v31.874c0 1.413 1.165 2.563 2.597 2.563h51.556c1.432 0 2.596-1.15 2.596-2.563V2.585c0-1.414-1.164-2.563-2.596-2.563m0 .717c1.029 0 1.87.83 1.87 1.846v31.874c0 1.015-.841 1.846-1.87 1.846H2.767c-1.029 0-1.87-.83-1.87-1.846V2.585c0-1.016.841-1.846 1.87-1.846h51.556" mask="url(#b)"/>
            </g>
            <path fill="#FFF" d="M181.767 187.65c-1.231 0-2.233-.989-2.233-2.204V156.27c0-1.215 1.002-2.204 2.233-2.204h47.36c1.232 0 2.234.989 2.234 2.204v29.176c0 1.215-1.002 2.204-2.234 2.204h-47.36z"/>
            <path fill="#444" d="M229.127 153.707h-47.36c-1.431 0-2.596 1.15-2.596 2.563v29.176c0 1.413 1.165 2.563 2.596 2.563h47.36c1.432 0 2.597-1.15 2.597-2.563V156.27c0-1.413-1.165-2.563-2.597-2.563m0 .717c1.03 0 1.87.831 1.87 1.846v29.176c0 1.015-.84 1.846-1.87 1.846h-47.36c-1.028 0-1.87-.831-1.87-1.846V156.27c0-1.015.842-1.846 1.87-1.846h47.36"/>
            <path fill="#FFF" d="M238.895 185.315v1.98c0 .729-.539 1.325-1.196 1.325h-64.503c-.658 0-1.196-.596-1.196-1.325v-1.98h66.895z"/>
            <path stroke="#444" stroke-linecap="round" stroke-linejoin="round" stroke-width=".9" d="M238.895 185.315v1.98c0 .729-.539 1.325-1.196 1.325h-64.503c-.658 0-1.196-.596-1.196-1.325v-1.98h66.895z"/>
            <path stroke="#435779" stroke-linecap="round" stroke-linejoin="round" stroke-width=".72" d="M211.37 185.413c0 .919-.762 1.67-1.693 1.67h-8.46c-.93 0-1.692-.751-1.692-1.67"/>
            <path fill="#435779" d="M205.302 152.327a.564.564 0 0 0-.566.559c0 .307.255.559.566.559a.564.564 0 0 0 .566-.559.564.564 0 0 0-.566-.559"/>
            <path fill="#444" d="M193.158 167.19l-.826-3.242v3.512c0 .195-.044.34-.132.438a.448.448 0 0 1-.35.145.448.448 0 0 1-.344-.144c-.09-.096-.134-.242-.134-.439v-4.026c0-.222.059-.372.176-.45.117-.077.275-.115.475-.115h.323c.195 0 .336.017.424.052a.353.353 0 0 1 .195.187c.042.09.09.237.144.44l.749 2.788.749-2.787c.053-.204.102-.35.144-.441a.353.353 0 0 1 .195-.187c.088-.035.229-.052.424-.052h.323c.2 0 .357.038.475.116.117.077.175.227.175.45v4.025c0 .195-.043.34-.131.438a.452.452 0 0 1-.354.145.441.441 0 0 1-.34-.145c-.09-.098-.134-.243-.134-.438v-3.512l-.826 3.242c-.054.21-.098.365-.132.463a.64.64 0 0 1-.189.269.552.552 0 0 1-.38.121.578.578 0 0 1-.309-.078.567.567 0 0 1-.196-.2 1.136 1.136 0 0 1-.111-.268l-.083-.307M198.566 167.415v-1.614l-1.26-1.926a4.025 4.025 0 0 1-.233-.406.612.612 0 0 1-.068-.253c0-.118.046-.22.138-.306a.487.487 0 0 1 .343-.128c.143 0 .251.04.325.12.074.08.185.238.333.477l.963 1.544.974-1.544.148-.24c.04-.064.083-.125.131-.182a.524.524 0 0 1 .16-.13.464.464 0 0 1 .215-.045c.131 0 .24.042.329.126a.396.396 0 0 1 .131.294c0 .09-.022.18-.067.27-.044.09-.12.216-.228.375l-1.29 1.954v1.614c0 .21-.05.368-.148.472a.495.495 0 0 1-.376.156.491.491 0 0 1-.376-.154c-.096-.103-.144-.26-.144-.474"/>
            <path fill="#5B8DEF" d="M203.917 163.642h-.964v1.4h.935c.251 0 .462-.022.633-.065a.744.744 0 0 0 .392-.219c.09-.103.136-.244.136-.425a.65.65 0 0 0-.11-.373.657.657 0 0 0-.302-.241c-.121-.05-.362-.077-.72-.077m-.598 2.139h-.366v1.634c0 .216-.048.374-.144.476a.494.494 0 0 1-.376.152.482.482 0 0 1-.387-.16c-.091-.106-.137-.262-.137-.468V163.5c0-.222.05-.383.151-.482.101-.1.264-.15.489-.15h1.698c.234 0 .435.01.601.03.167.02.317.06.45.12a1.305 1.305 0 0 1 .712.723c.065.166.097.341.097.526 0 .38-.108.683-.325.91-.217.226-.546.387-.986.482.185.097.362.24.53.43.17.19.32.392.452.606.133.214.236.407.31.58.074.172.11.29.11.356a.36.36 0 0 1-.065.199.453.453 0 0 1-.177.156.566.566 0 0 1-.26.057.512.512 0 0 1-.296-.081.79.79 0 0 1-.205-.207 8.116 8.116 0 0 1-.234-.368l-.419-.687a3.77 3.77 0 0 0-.402-.576.996.996 0 0 0-.36-.27 1.254 1.254 0 0 0-.46-.073M210.491 163.663h-2.352v1.25h2.166c.16 0 .278.035.357.106.078.07.118.163.118.279a.37.37 0 0 1-.116.283c-.078.073-.197.11-.359.11h-2.166v1.447h2.433c.164 0 .288.037.371.112a.385.385 0 0 1 .125.3c0 .12-.042.219-.125.294-.083.075-.207.113-.37.113h-2.838c-.228 0-.39-.05-.49-.15-.1-.099-.15-.26-.15-.482V163.5a.85.85 0 0 1 .067-.363.412.412 0 0 1 .209-.204.892.892 0 0 1 .364-.065h2.756c.167 0 .29.037.371.11.081.073.121.168.121.286 0 .12-.04.217-.12.29-.082.073-.205.11-.372.11M213.128 165.968h1.54l-.777-2.1-.763 2.1zm2.067 1.412l-.246-.638h-2.095l-.246.652c-.096.255-.178.427-.246.516-.068.089-.18.133-.334.133a.493.493 0 0 1-.348-.142.433.433 0 0 1-.152-.323c0-.07.012-.14.036-.215a4.39 4.39 0 0 1 .116-.309l1.318-3.304.135-.342a1.72 1.72 0 0 1 .17-.331.682.682 0 0 1 .235-.214.73.73 0 0 1 .36-.081c.145 0 .267.027.364.081a.697.697 0 0 1 .236.21c.06.086.11.178.15.276.042.099.094.23.157.394l1.347 3.284c.105.25.158.431.158.544 0 .118-.05.227-.15.325a.494.494 0 0 1-.36.147.427.427 0 0 1-.359-.162 1.085 1.085 0 0 1-.128-.228 13.538 13.538 0 0 1-.118-.273zM218.1 163.406v3.704h2.116c.169 0 .298.04.389.121.09.081.135.183.135.306a.383.383 0 0 1-.134.303c-.089.078-.219.117-.39.117h-2.52c-.228 0-.392-.05-.491-.15-.1-.099-.15-.26-.15-.482v-3.919c0-.208.048-.364.143-.468a.482.482 0 0 1 .374-.156.5.5 0 0 1 .382.154c.097.103.146.26.146.47"/>
            <path fill="#444" d="M194.397 170.528h-1.078v2.384h1.078c.378 0 .693-.039.946-.117.254-.078.447-.206.58-.383.133-.177.2-.41.2-.697 0-.344-.103-.624-.308-.84-.23-.231-.703-.347-1.418-.347m.388 3.576h-1.466v2.21c0 .315-.076.554-.226.718a.746.746 0 0 1-.572.244.75.75 0 0 1-.582-.242c-.148-.161-.221-.398-.221-.71v-6.014c0-.348.08-.596.242-.745.162-.15.42-.224.771-.224h2.054c.608 0 1.075.047 1.402.139.323.088.603.236.838.441.236.206.414.458.537.756.122.298.183.633.183 1.006 0 .795-.248 1.397-.744 1.807-.496.41-1.235.614-2.216.614M200.65 170.166v5.679h3.246c.259 0 .457.062.596.186.138.124.207.28.207.468a.588.588 0 0 1-.205.466c-.136.119-.336.178-.598.178h-3.865c-.349 0-.6-.076-.752-.229-.153-.152-.23-.399-.23-.74v-6.008c0-.32.073-.559.219-.718a.74.74 0 0 1 .574-.24c.24 0 .436.08.585.237.15.158.224.398.224.721M207.492 174.094h2.361l-1.191-3.22-1.17 3.22zm3.17 2.166l-.378-.98h-3.213l-.377 1.001c-.148.39-.273.654-.378.79-.104.137-.274.205-.511.205a.756.756 0 0 1-.534-.218.665.665 0 0 1-.232-.495c0-.106.018-.216.054-.33a6.6 6.6 0 0 1 .178-.473l2.021-5.067.208-.524c.08-.204.167-.373.259-.508.091-.135.211-.244.36-.328a1.12 1.12 0 0 1 .553-.125c.223 0 .409.042.558.125.15.084.27.191.361.322.092.132.17.273.232.424.063.15.143.352.24.604l2.065 5.034c.162.383.243.662.243.835 0 .182-.077.347-.23.498a.759.759 0 0 1-.552.226.66.66 0 0 1-.55-.248 1.655 1.655 0 0 1-.197-.35c-.07-.158-.13-.298-.18-.418zM215.632 170.156l3.078 4.598v-4.64c0-.302.066-.529.197-.68a.668.668 0 0 1 .531-.226c.23 0 .412.076.545.227.132.15.2.377.2.678v6.136c0 .685-.288 1.027-.863 1.027-.144 0-.273-.02-.389-.061a.99.99 0 0 1-.323-.194 1.895 1.895 0 0 1-.28-.311c-.087-.12-.173-.24-.26-.365l-3.002-4.545v4.572c0 .298-.07.523-.21.675a.7.7 0 0 1-.54.23.691.691 0 0 1-.544-.232c-.136-.155-.205-.379-.205-.673v-6.02c0-.255.03-.455.087-.6a.861.861 0 0 1 .34-.392.934.934 0 0 1 .511-.152c.144 0 .267.023.37.07a.89.89 0 0 1 .27.186c.077.078.156.179.237.303l.25.389"/>
        </g>
        <g>
            <path fill="#FFD9CA" d="M230.935 164.694l-.129-1.474c-.22-2.512 1.746-4.756 4.368-4.985 2.623-.23 4.948 1.638 5.168 4.151l.13 1.474c.22 2.513-1.747 4.756-4.37 4.986-2.622.229-4.947-1.64-5.167-4.152"/>
            <path stroke="#444" stroke-width="1.106" d="M230.935 164.694l-.129-1.474c-.22-2.512 1.746-4.756 4.368-4.985 2.623-.23 4.948 1.638 5.168 4.151l.13 1.474c.22 2.513-1.747 4.756-4.37 4.986-2.622.229-4.947-1.64-5.167-4.152z"/>
            <g>
                <path fill="#FFD9CA" d="M177.63 184.35l-.914 1.169c-1.558 1.993-4.496 2.265-6.528.603-2.032-1.661-2.42-4.652-.862-6.645l.914-1.169c1.559-1.993 4.497-2.265 6.529-.604 2.032 1.662 2.42 4.652.861 6.646"/>
                <path stroke="#444" stroke-width="1.106" d="M177.63 184.35l-.914 1.169c-1.558 1.993-4.496 2.265-6.528.603-2.032-1.661-2.42-4.652-.862-6.645l.914-1.169c1.559-1.993 4.497-2.265 6.529-.604 2.032 1.662 2.42 4.652.861 6.646z"/>
            </g>
        </g>
        <g fill="#FFF">
            <path d="M230.721 64.658c-.382 0-.693-.325-.693-.724v-6.878c0-.4.31-.724.693-.724h10.356c.384 0 .694.324.694.724v6.878c0 .4-.31.724-.694.724h-10.356z"/>
        </g>
        <g fill="#FFF">
            <path d="M239.071 68.037l-5.272 2.75-5.272-2.75"/>
        </g>
        <g transform="translate(91.643 18)">
            <path fill="#FFF" d="M20.23 16.352h22.287c1.483 0 2.742 1.436 2.742 2.983v30.519c1.387 2.612 4.235 8.896 4.235 8.896l-8.54-2.216H20.23c-1.483 0-2.72-1.28-2.72-2.828v-34.37c0-1.548 1.237-2.984 2.72-2.984"/>
            <path stroke="#444" stroke-linecap="round" stroke-linejoin="round" stroke-width="1.106" d="M20.23 16.352h22.287c1.483 0 2.742 1.436 2.742 2.983v30.519c1.387 2.612 4.235 8.896 4.235 8.896l-8.54-2.216H20.23c-1.483 0-2.72-1.28-2.72-2.828v-34.37c0-1.548 1.237-2.984 2.72-2.984z"/>
            <path stroke="#E7E7E7" stroke-linecap="round" stroke-width="2.5" d="M13.604 11.06L7.906 4.947M8.705 21.32l-8.424-.548M25.327 8.54l.391-8.278"/>
            <path stroke="#343351" stroke-linecap="round" stroke-linejoin="round" stroke-width=".995" d="M40.076 42.303H23.462M40.076 45.629H23.462M31.216 48.955h-7.754"/>
            <rect width="16.804" height="15.754" x="23.118" y="22.056" fill="#5B8DEF" rx="1.049"/>
            <g fill="#FFF">
                <path d="M26.64 28.03l-.31-1.369v1.484c0 .082-.016.143-.05.184a.16.16 0 0 1-.13.062.157.157 0 0 1-.13-.061c-.033-.04-.05-.102-.05-.185v-1.7c0-.094.023-.157.066-.19a.292.292 0 0 1 .178-.05h.121c.073 0 .126.008.16.022a.142.142 0 0 1 .072.08c.016.038.034.1.055.186l.28 1.177.28-1.177c.021-.086.039-.148.055-.186a.142.142 0 0 1 .073-.08.43.43 0 0 1 .159-.022h.12a.29.29 0 0 1 .179.05c.044.033.066.096.066.19v1.7c0 .082-.017.143-.05.184a.16.16 0 0 1-.132.062.158.158 0 0 1-.128-.062c-.033-.04-.05-.102-.05-.184V26.66l-.31 1.37c-.02.088-.036.154-.05.195a.272.272 0 0 1-.07.114.192.192 0 0 1-.142.05.2.2 0 0 1-.116-.032.23.23 0 0 1-.074-.084.505.505 0 0 1-.041-.114 7.785 7.785 0 0 1-.031-.13M28.667 28.126v-.682l-.472-.813a1.727 1.727 0 0 1-.088-.172.293.293 0 0 1-.026-.107.18.18 0 0 1 .052-.129.172.172 0 0 1 .13-.054c.053 0 .093.017.12.05.029.034.07.101.126.202l.36.652.365-.652.056-.101a.61.61 0 0 1 .05-.077.198.198 0 0 1 .06-.055.154.154 0 0 1 .08-.019.177.177 0 0 1 .173.177.287.287 0 0 1-.025.114 1.518 1.518 0 0 1-.086.159l-.484.825v.682c0 .089-.018.155-.055.199a.176.176 0 0 1-.141.066.174.174 0 0 1-.141-.065c-.036-.043-.054-.11-.054-.2M30.672 26.532h-.36v.591h.35a.88.88 0 0 0 .237-.027.273.273 0 0 0 .147-.092.284.284 0 0 0 .05-.18.295.295 0 0 0-.04-.157.253.253 0 0 0-.113-.102.742.742 0 0 0-.27-.033m-.225.904h-.137v.69c0 .09-.018.157-.053.2a.177.177 0 0 1-.142.065.172.172 0 0 1-.145-.067c-.034-.045-.05-.11-.05-.198v-1.653c0-.094.018-.162.055-.205.038-.041.1-.063.184-.063h.636c.088 0 .164.005.226.013a.528.528 0 0 1 .435.356c.024.07.036.144.036.222 0 .16-.04.288-.122.384a.68.68 0 0 1-.369.204c.07.041.136.102.199.182s.12.165.17.256c.049.09.087.172.115.245a.515.515 0 0 1 .042.15.166.166 0 0 1-.025.084.176.176 0 0 1-.066.066.188.188 0 0 1-.098.024.177.177 0 0 1-.11-.034.327.327 0 0 1-.078-.087 3.35 3.35 0 0 1-.087-.156l-.157-.29a1.675 1.675 0 0 0-.15-.244.382.382 0 0 0-.136-.114.426.426 0 0 0-.173-.03M33.137 26.541h-.882v.528h.812c.06 0 .104.015.134.045.03.03.044.069.044.118a.17.17 0 0 1-.043.12c-.03.03-.074.045-.135.045h-.812v.612h.912c.062 0 .108.015.14.047a.174.174 0 0 1 .046.127.17.17 0 0 1-.047.124c-.03.031-.077.048-.139.048h-1.063c-.085 0-.147-.022-.184-.064-.038-.042-.056-.11-.056-.203v-1.615c0-.063.008-.114.025-.154a.165.165 0 0 1 .078-.086.3.3 0 0 1 .137-.028h1.033c.062 0 .108.016.139.047.03.03.045.07.045.12a.167.167 0 0 1-.045.123c-.03.03-.077.046-.14.046M34.125 27.515h.578l-.292-.887-.286.887zm.775.596l-.092-.27h-.785l-.093.276c-.036.108-.067.18-.092.218-.025.037-.067.056-.125.056a.175.175 0 0 1-.13-.06.195.195 0 0 1-.057-.136c0-.03.004-.06.013-.091s.023-.075.043-.13l.494-1.396.051-.144a.745.745 0 0 1 .063-.14.271.271 0 0 1 .089-.09.25.25 0 0 1 .135-.035.25.25 0 0 1 .225.123c.022.036.04.075.056.116.016.042.035.098.059.167l.504 1.386c.04.106.06.183.06.23 0 .05-.02.096-.056.138a.175.175 0 0 1-.135.062.162.162 0 0 1-.08-.018.163.163 0 0 1-.054-.05.485.485 0 0 1-.049-.097l-.044-.115zM35.989 26.433v1.564h.793c.063 0 .112.017.146.051.034.034.05.077.05.13a.172.172 0 0 1-.05.128c-.033.032-.082.048-.146.048h-.945c-.085 0-.146-.02-.184-.063-.037-.041-.055-.11-.055-.203v-1.655c0-.088.017-.154.053-.198a.17.17 0 0 1 .14-.066c.059 0 .107.022.143.065.037.043.055.11.055.199M27.104 29.44H26.7v1.007h.404c.142 0 .26-.016.355-.049a.416.416 0 0 0 .217-.162.523.523 0 0 0 .075-.294.533.533 0 0 0-.115-.356c-.087-.097-.264-.146-.532-.146m.146 1.51h-.55v.933c0 .134-.028.235-.085.304a.265.265 0 0 1-.214.104.268.268 0 0 1-.218-.103.47.47 0 0 1-.083-.3v-2.54c0-.147.03-.252.09-.314.061-.063.158-.095.29-.095h.77c.227 0 .402.02.525.059.121.037.226.1.314.186a.837.837 0 0 1 .201.32c.046.125.069.267.069.424 0 .336-.093.59-.278.763-.186.173-.463.26-.831.26M29.448 29.288v2.398h1.217c.097 0 .171.026.223.078a.271.271 0 0 1 .078.199c0 .08-.026.146-.077.196-.052.05-.126.075-.224.075h-1.45c-.13 0-.224-.032-.28-.096-.059-.065-.087-.169-.087-.313v-2.537c0-.135.028-.236.082-.304a.264.264 0 0 1 .215-.1c.09 0 .164.033.22.099.055.067.083.168.083.305M32.012 30.946h.886l-.447-1.36-.439 1.36zm1.189.915l-.142-.413h-1.204l-.141.422a1.561 1.561 0 0 1-.142.334c-.04.058-.103.087-.192.087a.267.267 0 0 1-.2-.093.296.296 0 0 1-.087-.209.52.52 0 0 1 .02-.139c.014-.048.036-.115.067-.2l.758-2.14.077-.221c.03-.087.063-.158.098-.215a.382.382 0 0 1 .342-.191.386.386 0 0 1 .344.189.941.941 0 0 1 .087.179c.024.063.054.148.09.255l.774 2.126c.061.162.091.28.091.353a.306.306 0 0 1-.086.21.268.268 0 0 1-.207.096.243.243 0 0 1-.206-.105.744.744 0 0 1-.074-.148 9.68 9.68 0 0 1-.067-.177zM35.064 29.283l1.154 1.942v-1.96c0-.127.024-.223.073-.286a.24.24 0 0 1 .2-.096c.085 0 .154.032.204.096.05.063.074.159.074.286v2.592c0 .289-.107.433-.323.433a.358.358 0 0 1-.267-.108.783.783 0 0 1-.105-.131 6.923 6.923 0 0 1-.097-.154l-1.125-1.92v1.931c0 .126-.027.221-.08.286a.25.25 0 0 1-.202.096.246.246 0 0 1-.203-.097.452.452 0 0 1-.077-.285v-2.542c0-.107.01-.192.032-.254a.352.352 0 0 1 .32-.229.304.304 0 0 1 .239.108c.029.033.058.075.089.128l.094.164"/>
            </g>
        </g>
        <g>
            <path fill="#FFF" d="M289.47 40.73h-50.04c-3.087 0-5.71 2.555-5.71 5.777v12.926c0 3.222 2.623 5.913 5.71 5.913h21.639l3.52 3.674 3.52-3.674h21.361c3.088 0 5.642-2.69 5.642-5.913V46.507c0-3.222-2.554-5.777-5.642-5.777"/>
            <path stroke="#343351" stroke-linecap="round" stroke-linejoin="round" stroke-width="1.106" d="M261.467 49.418h24.974"/>
            <path stroke="#444" stroke-linecap="round" stroke-linejoin="round" stroke-width="1.106" d="M289.47 40.73h-50.04c-3.087 0-5.71 2.555-5.71 5.777v12.926c0 3.222 2.623 5.913 5.71 5.913h21.639l3.52 3.674 3.52-3.674h21.361c3.088 0 5.642-2.69 5.642-5.913V46.507c0-3.222-2.554-5.777-5.642-5.777z"/>
            <path stroke="#343351" stroke-linecap="round" stroke-linejoin="round" stroke-width="1.106" d="M261.467 52.676h24.974M261.467 55.934h12.487"/>
            <path fill="#5B8DEF" d="M252.078 47.608h-10.356c-.767 0-1.388.648-1.388 1.448v6.878c0 .8.621 1.448 1.388 1.448h10.356c.766 0 1.387-.649 1.387-1.448v-6.878c0-.8-.621-1.448-1.387-1.448m0 1.448v6.878h-10.356v-6.878h10.356"/>
            <path stroke="#5B8DEF" stroke-linecap="round" stroke-linejoin="round" stroke-width="1.385" d="M252.172 50.584l-5.272 2.751-5.273-2.75"/>
        </g>
    </g>
</svg>
