<svg xmlns="http://www.w3.org/2000/svg" xmlns:xlink="http://www.w3.org/1999/xlink" width="351" height="237" viewBox="0 0 351 237">
    <defs>
        <path id="a" d="M18.702 37.604C8.39 37.604 0 29.17 0 18.802 0 8.435 8.39 0 18.702 0c10.313 0 18.702 8.435 18.702 18.802 0 10.368-8.39 18.802-18.702 18.802"/>
        <path id="c" d="M.218 7.799A17.714 17.714 0 0 1 8.47.109h14.207a17.714 17.714 0 0 1 8.254 7.69v17.208c-2.986 5.493-8.744 9.214-15.357 9.214-6.613 0-12.37-3.72-15.357-9.214V7.8z"/>
        <path id="e" d="M.218 26.246c2.986 5.79 8.744 9.712 15.357 9.712 6.613 0 12.37-3.922 15.357-9.713V8.107C29.088 4.53 26.186 1.667 22.678 0H8.471C4.964 1.667 2.062 4.53.218 8.106v18.14z"/>
    </defs>
    <g fill="none" fill-rule="evenodd">
        <path fill="#FFF5C9" d="M55.139 178.4c.131 0 .26-.008.388-.022-1.786-.19-3.177-1.676-3.177-3.482 0-1.501.963-2.779 2.314-3.277h12.83c2.422 0 4.385-1.93 4.385-4.31S69.916 163 67.494 163H33.673c-2.423 0-4.385 1.93-4.385 4.31s1.962 4.309 4.385 4.309h6.262c1.355.495 2.323 1.773 2.323 3.277 0 1.78-1.353 3.248-3.103 3.471.152.02.306.033.463.033H4.385C1.963 178.4 0 180.33 0 182.71s1.963 4.309 4.385 4.309H51.55c-.12 0-.238.01-.354.025 1.339.17 2.374 1.293 2.374 2.656 0 1.363-1.035 2.485-2.374 2.656.116.015.233.025.354.025H29.46c-2.421 0-4.385 1.93-4.385 4.31S27.04 201 29.46 201h40.358c2.421 0 4.384-1.93 4.384-4.31s-1.963-4.309-4.384-4.309h-6.392c.1 0 .2-.006.297-.017-1.366-.145-2.431-1.282-2.431-2.664 0-1.382 1.065-2.52 2.431-2.665a2.841 2.841 0 0 0-.297-.016h15.189c2.422 0 4.385-1.93 4.385-4.31s-1.963-4.31-4.385-4.31H55.139zM307.415 204.106c1.075-.458 1.84-1.63 1.84-3.002 0-1.655-1.11-3.016-2.535-3.19.101-.012.204-.02.309-.02h12.384c.125 0 .247.013.369.03-1.396.205-2.476 1.549-2.476 3.18 0 1.375.768 2.546 1.845 3.002h3.195c2.932 0 5.309 1.767 5.309 3.947s-2.377 3.947-5.31 3.947H289.31c-2.932 0-5.309-1.767-5.309-3.947s2.377-3.947 5.309-3.947h18.106zM294.137 190h52.637c2.334 0 4.226 1.767 4.226 3.947s-1.892 3.948-4.226 3.948h-52.637c-2.333 0-4.225-1.768-4.225-3.948 0-2.18 1.892-3.947 4.225-3.947z"/>
        <path fill="#FFF" stroke="#444" stroke-linecap="round" stroke-width=".972" d="M226.071 98.093l27.542-21.247h54.434c3.202 0 5.907-2.741 5.907-5.985V22.17c0-3.241-2.705-5.98-5.907-5.98h-80.79c-3.176 0-5.76 2.683-5.76 5.98v48.69c0 3.3 2.584 5.986 5.76 5.986h8.727L225.2 97.35a.59.59 0 0 0 .516.863.58.58 0 0 0 .356-.121z"/>
        <path fill="#5DD3EC" d="M235.71 70.708h-2.53c-.606 0-1.102-.461-1.102-1.026v-2.355c0-.565.496-1.026 1.102-1.026h2.53c.607 0 1.103.461 1.103 1.026v2.355c0 .565-.496 1.026-1.102 1.026"/>
        <path stroke="#444" stroke-linecap="round" stroke-linejoin="round" stroke-width=".875" d="M235.71 70.708h-2.53c-.606 0-1.102-.461-1.102-1.026v-2.355c0-.565.496-1.026 1.102-1.026h2.53c.607 0 1.103.461 1.103 1.026v2.355c0 .565-.496 1.026-1.102 1.026z"/>
        <path fill="#F8ACB5" d="M243.603 70.708h-2.53c-.607 0-1.103-.461-1.103-1.026v-2.355c0-.565.496-1.026 1.102-1.026h2.53c.607 0 1.103.461 1.103 1.026v2.355c0 .565-.496 1.026-1.102 1.026"/>
        <path stroke="#444" stroke-linecap="round" stroke-linejoin="round" stroke-width=".875" d="M243.603 70.708h-2.53c-.607 0-1.103-.461-1.103-1.026v-2.355c0-.565.496-1.026 1.102-1.026h2.53c.607 0 1.103.461 1.103 1.026v2.355c0 .565-.496 1.026-1.102 1.026z"/>
        <path fill="#D8E100" d="M251.495 70.708h-2.531c-.606 0-1.102-.461-1.102-1.026v-2.355c0-.565.496-1.026 1.102-1.026h2.53c.607 0 1.103.461 1.103 1.026v2.355c0 .565-.496 1.026-1.102 1.026"/>
        <path stroke="#444" stroke-linecap="round" stroke-linejoin="round" stroke-width=".875" d="M251.495 70.708h-2.531c-.606 0-1.102-.461-1.102-1.026v-2.355c0-.565.496-1.026 1.102-1.026h2.53c.607 0 1.103.461 1.103 1.026v2.355c0 .565-.496 1.026-1.102 1.026z"/>
        <path fill="#A5BEDE" d="M259.387 70.708h-2.531c-.606 0-1.102-.461-1.102-1.026v-2.355c0-.565.496-1.026 1.102-1.026h2.53c.607 0 1.103.461 1.103 1.026v2.355c0 .565-.496 1.026-1.102 1.026"/>
        <path stroke="#444" stroke-linecap="round" stroke-linejoin="round" stroke-width=".875" d="M259.387 70.708h-2.531c-.606 0-1.102-.461-1.102-1.026v-2.355c0-.565.496-1.026 1.102-1.026h2.53c.607 0 1.103.461 1.103 1.026v2.355c0 .565-.496 1.026-1.102 1.026z"/>
        <g stroke="#888" stroke-dasharray="1.01039400100708,1.683990097045898" stroke-linecap="round" stroke-linejoin="round" stroke-width="1.01">
            <path d="M282.61 42.045l2.131 2.193M278.324 44.36h6.374l-2.073 2.045M272.51 42.045l-2.131 2.193M276.942 44.36h-6.52l2.146 2.045"/>
        </g>
        <g transform="translate(227.495 23.913)">
            <mask id="b" fill="#fff">
                <use xlink:href="#a"/>
            </mask>
            <use fill="#75A3FF" xlink:href="#a"/>
            <g mask="url(#b)">
                <g transform="translate(3.405 4.881)">
                    <mask id="d" fill="#fff">
                        <use xlink:href="#c"/>
                    </mask>
                    <path fill="#8D4052" d="M15.553 43.926c-1.078.083-6.217.362-10.522-3.42C-.929 35.268.294 27.144.372 26.681l1.155-12.319C1.527 6.522 7.839.108 15.553.108c7.715 0 14.027 6.414 14.027 14.254l1.212 12.377c.079.492 1.23 8.559-4.717 13.767-4.307 3.773-9.434 3.503-10.522 3.42" mask="url(#d)"/>
                </g>
                <g transform="translate(3.405 3.882)">
                    <mask id="f" fill="#fff">
                        <use xlink:href="#e"/>
                    </mask>
                    <path stroke="#444" stroke-linecap="round" stroke-width=".875" d="M15.553 44.925c-1.078.083-6.217.362-10.522-3.42C-.929 36.267.294 28.143.372 27.68l1.155-12.318c0-7.84 6.312-14.254 14.026-14.254 7.715 0 14.027 6.414 14.027 14.254l1.212 12.377c.079.491 1.23 8.559-4.717 13.767-4.307 3.773-9.434 3.503-10.522 3.42z" mask="url(#f)"/>
                </g>
                <path fill="#FFEFDE" d="M6.317 22.755c-.995 0-1.81-.828-1.81-1.84s.815-1.84 1.81-1.84c.996 0 1.81.828 1.81 1.84s-.814 1.84-1.81 1.84"/>
                <path stroke="#444" stroke-width="1.05" d="M6.317 22.755c-.995 0-1.81-.828-1.81-1.84s.815-1.84 1.81-1.84c.996 0 1.81.828 1.81 1.84s-.814 1.84-1.81 1.84z"/>
                <path fill="#FFEFDE" d="M18.785 32.43c-6.582 0-11.936-5.442-11.936-12.131s5.354-12.13 11.936-12.13 11.937 5.441 11.937 12.13c0 6.689-5.355 12.13-11.937 12.13"/>
                <path fill="#444" d="M18.785 7.629c-6.886 0-12.468 5.673-12.468 12.67 0 6.998 5.582 12.67 12.468 12.67s12.469-5.672 12.469-12.67c0-6.997-5.583-12.67-12.469-12.67m0 1.08c6.29 0 11.406 5.2 11.406 11.59s-5.117 11.59-11.406 11.59c-6.288 0-11.405-5.2-11.405-11.59S12.497 8.71 18.785 8.71"/>
                <path stroke="#5F2A37" stroke-linecap="round" stroke-width=".787" d="M12.064 18.59a1.924 1.924 0 0 1 .926-.787"/>
                <path fill="#FFF" d="M15.784 23.97v.039c0 1.543 1.242 2.805 2.76 2.805 1.519 0 2.76-1.262 2.76-2.805v-.04h-5.52z"/>
                <path stroke="#5F2B38" stroke-linecap="round" stroke-linejoin="round" stroke-width=".787" d="M15.784 23.97v.039c0 1.543 1.242 2.805 2.76 2.805 1.519 0 2.76-1.262 2.76-2.805v-.04h-5.52z"/>
                <path fill="#EC5A76" fill-opacity=".5" d="M11.73 24.206h-1.682c-.698 0-1.268-.58-1.268-1.289s.57-1.289 1.268-1.289h1.682c.697 0 1.268.58 1.268 1.29 0 .708-.571 1.288-1.268 1.288M27.042 24.206H25.36c-.698 0-1.268-.58-1.268-1.289s.57-1.289 1.268-1.289h1.682c.697 0 1.268.58 1.268 1.29 0 .708-.57 1.288-1.268 1.288"/>
                <path fill="#A04C5B" d="M18.347 6.28c-2.075 0-3.96.502-5.82 1.389v2.857c0 1.4.558 5.024 3.314 8.067 3.353 3.703 8.811 5.064 14.075 3.627.482-.09.946-.181 1.478-.272V19.5c0-7.271-5.892-13.22-13.047-13.22"/>
                <path fill="#A04C5B" d="M12.522 8.157c-.046 1.16-.124 6.255 3.58 10.323 3.662 4.024 9.577 5.456 15.151 3.696"/>
                <path stroke="#444" stroke-linecap="round" stroke-width=".875" d="M12.522 8.157c-.046 1.16-.124 6.255 3.58 10.323 3.662 4.024 9.577 5.456 15.151 3.696"/>
                <path fill="#A04C5B" d="M29.228 14.633a9.897 9.897 0 0 0-1.802-3.911 10.223 10.223 0 0 0-2.585-2.338c-3.202-2.008-6.746-1.496-7.843-1.294"/>
                <path stroke="#444" stroke-linecap="round" stroke-width=".875" d="M29.228 14.633a9.897 9.897 0 0 0-1.802-3.911 10.223 10.223 0 0 0-2.585-2.338c-3.202-2.008-6.746-1.496-7.843-1.294M16.361 14.081c.473 1 2.153 4.233 5.917 5.954 5.532 2.53 10.737-.413 11.29-.739"/>
                <path fill="#435779" d="M14.94 20.867a.253.253 0 1 1 .002-.506.253.253 0 0 1-.001.506"/>
                <path fill="#5F2B38" d="M14.943 19.956a.659.659 0 0 0-.653.664c0 .367.292.664.653.664.361 0 .653-.297.653-.664a.659.659 0 0 0-.653-.664"/>
            </g>
        </g>
        <g>
            <g fill="#343351" font-family="ArialRoundedMTBold, Arial Rounded MT Bold">
                <text font-size="8.6" transform="translate(303.72 12.847)">
                    <tspan x=".172" y="8.142">BEST</tspan>
                </text>
                <text font-size="6.952" transform="translate(303.72 12.847)">
                    <tspan x="2.18" y="16.974">P</tspan> <tspan x="6.817" y="16.974" letter-spacing="-.092">L</tspan> <tspan x="10.833" y="16.974">AN</tspan>
                </text>
            </g>
            <path fill="#FFF" d="M337.733 12.33v50.455c0 1.191-.969 2.166-2.154 2.166h-41.486a2.167 2.167 0 0 1-2.155-2.166V5.72c0-1.192.97-2.166 2.155-2.166h34.912"/>
            <path stroke="#444" stroke-linecap="round" stroke-width=".972" d="M337.733 12.33v50.455c0 1.191-.969 2.166-2.154 2.166h-41.486a2.167 2.167 0 0 1-2.155-2.166V5.72c0-1.192.97-2.166 2.155-2.166h34.912"/>
            <path fill="#CECECE" d="M328.953 3.555l8.78 8.667h-8.78z"/>
            <path stroke="#444" stroke-linecap="round" stroke-linejoin="round" stroke-width=".972" d="M328.953 3.555l8.78 8.667h-8.78z"/>
            <path stroke="#444" stroke-linecap="round" stroke-linejoin="round" stroke-width="1.08" d="M300.678 37.139h28.288M300.678 40.4h28.288M300.678 44.748h28.288M300.678 48.009h28.288M300.678 52.356h28.288M300.678 55.617h16.973"/>
            <path fill="#435779" d="M307.4 17.618h-1.301v1.811h1.343c.844 0 1.267-.306 1.267-.918 0-.313-.11-.54-.329-.681-.219-.142-.546-.212-.98-.212zm-1.301-2.505v1.604h1.145c.311 0 .552-.03.722-.09a.69.69 0 0 0 .39-.338.77.77 0 0 0 .104-.397c0-.313-.11-.521-.332-.625-.222-.103-.56-.154-1.015-.154H306.1zm1.393 5.26h-1.886c-.272 0-.466-.062-.582-.184-.117-.123-.175-.318-.175-.586v-4.664c0-.273.06-.47.179-.59s.312-.18.578-.18h2c.294 0 .55.019.766.055.216.037.41.107.58.212a1.53 1.53 0 0 1 .645.776c.059.163.088.334.088.514 0 .621-.309 1.075-.926 1.363.81.26 1.217.765 1.217 1.515 0 .347-.089.66-.266.937a1.592 1.592 0 0 1-.715.616 2.527 2.527 0 0 1-.649.167 6.587 6.587 0 0 1-.854.049zM315.123 15.138h-2.816v1.524h2.593c.19 0 .333.043.427.129a.44.44 0 0 1 .141.34.457.457 0 0 1-.139.345c-.092.09-.236.134-.43.134h-2.592v1.764h2.913c.196 0 .344.046.444.138.1.091.15.213.15.366 0 .146-.05.266-.15.357-.1.092-.248.138-.444.138h-3.397c-.272 0-.468-.061-.587-.182-.12-.122-.179-.318-.179-.588v-4.664c0-.18.027-.327.08-.442a.5.5 0 0 1 .25-.25 1.05 1.05 0 0 1 .436-.078h3.3c.2 0 .347.045.444.134a.452.452 0 0 1 .145.349.456.456 0 0 1-.145.353c-.097.089-.245.133-.444.133M321.495 18.51c0 .376-.096.713-.288 1.012a1.92 1.92 0 0 1-.844.703c-.37.169-.81.254-1.317.254-.61 0-1.112-.116-1.507-.348a2.01 2.01 0 0 1-.684-.666c-.176-.278-.263-.548-.263-.81 0-.153.052-.283.158-.392a.535.535 0 0 1 .402-.163c.131 0 .243.043.334.127.091.085.17.21.234.377.078.197.163.362.254.495.092.133.22.242.385.328.166.086.384.13.653.13.37 0 .671-.088.903-.261.231-.174.347-.39.347-.65a.69.69 0 0 0-.187-.501 1.21 1.21 0 0 0-.485-.294 8.298 8.298 0 0 0-.793-.216 5.775 5.775 0 0 1-1.113-.366 1.801 1.801 0 0 1-.711-.571c-.176-.241-.263-.541-.263-.9 0-.34.092-.644.277-.91.186-.265.454-.468.804-.61.35-.143.764-.214 1.238-.214.379 0 .706.047.983.141.276.095.505.22.688.377.182.157.315.32.4.493.084.172.126.34.126.503 0 .15-.053.285-.158.405a.502.502 0 0 1-.394.18c-.143 0-.251-.036-.326-.108a1.446 1.446 0 0 1-.242-.354 1.6 1.6 0 0 0-.404-.548c-.157-.131-.41-.197-.757-.197-.323 0-.583.071-.78.214-.199.143-.298.314-.298.514 0 .124.034.232.101.322s.16.168.278.232c.118.065.237.116.358.153.12.037.32.09.597.16.348.082.663.173.945.271.282.1.522.22.72.36.198.141.352.32.463.535.111.216.166.48.166.794M326.563 15.206h-1.364v4.507c0 .259-.057.452-.172.577a.577.577 0 0 1-.447.188.584.584 0 0 1-.452-.19c-.117-.127-.175-.319-.175-.575v-4.507h-1.364c-.213 0-.371-.047-.475-.142a.483.483 0 0 1-.156-.374c0-.161.054-.288.162-.381.108-.093.265-.14.47-.14h3.973c.216 0 .377.048.482.144a.484.484 0 0 1 .157.377c0 .155-.053.28-.16.374-.106.095-.266.142-.48.142M308.427 24.528h-.68v1.532h.68c.238 0 .437-.025.597-.075a.695.695 0 0 0 .366-.246.738.738 0 0 0 .126-.448.764.764 0 0 0-.194-.54c-.146-.149-.444-.223-.895-.223m.245 2.299h-.926v1.42c0 .202-.047.356-.143.461a.467.467 0 0 1-.36.158.47.47 0 0 1-.368-.156c-.093-.104-.14-.256-.14-.457v-3.866c0-.223.052-.382.154-.478.102-.096.264-.144.486-.144h1.297c.383 0 .678.03.884.09a1.282 1.282 0 0 1 .868.77c.077.19.116.406.116.645 0 .511-.157.898-.47 1.162-.313.263-.779.395-1.398.395M312.374 24.295v3.65h2.048c.164 0 .289.04.376.12.088.08.131.18.131.301a.38.38 0 0 1-.129.3c-.086.076-.212.114-.378.114h-2.44c-.22 0-.378-.049-.474-.147-.096-.098-.145-.256-.145-.475v-3.863c0-.205.046-.359.138-.461a.462.462 0 0 1 .362-.154c.152 0 .275.05.37.152.094.101.14.256.14.463M316.692 26.82h1.49l-.752-2.07-.738 2.07zm2 1.392l-.238-.63h-2.027l-.239.644c-.093.25-.172.42-.238.508-.066.088-.174.131-.323.131a.473.473 0 0 1-.337-.14.43.43 0 0 1-.146-.318c0-.068.01-.139.034-.212.022-.073.06-.174.112-.304l1.276-3.257.131-.337c.05-.131.105-.24.163-.327a.669.669 0 0 1 .228-.21.698.698 0 0 1 .349-.08c.14 0 .258.026.352.08.094.053.17.123.228.207.058.084.107.175.146.272.04.097.09.226.152.388l1.303 3.236c.102.247.153.426.153.537a.446.446 0 0 1-.144.32.474.474 0 0 1-.349.145.452.452 0 0 1-.204-.042.42.42 0 0 1-.143-.116 1.068 1.068 0 0 1-.125-.226 13.93 13.93 0 0 1-.113-.269zM321.83 24.288l1.943 2.956v-2.983c0-.194.041-.34.124-.436a.418.418 0 0 1 .335-.145c.145 0 .26.048.344.145.084.097.126.242.126.436v3.945c0 .44-.182.66-.545.66a.624.624 0 0 1-.45-.164 1.206 1.206 0 0 1-.176-.2 12.436 12.436 0 0 1-.163-.235l-1.896-2.922v2.939c0 .192-.044.336-.132.435a.438.438 0 0 1-.34.147.433.433 0 0 1-.344-.15c-.086-.098-.13-.243-.13-.432v-3.869c0-.164.019-.293.055-.387a.55.55 0 0 1 .214-.251.58.58 0 0 1 .323-.097c.091 0 .17.014.234.044s.121.07.17.12c.049.05.099.115.15.195l.158.25"/>
        </g>
        <g>
            <path fill="#4B77CE" d="M295.045 29.088l-4.436-9.442 6.235-2.966 4.435 9.443-3.832-.04z"/>
            <path fill="#5B8DEF" d="M289.603 29.632l4.407-9.38-6.193-2.945-4.406 9.38 3.807-.041z"/>
            <path fill="#FFD33F" d="M292.269.824c.24-.003.615-.46.855-.444.24.017.548.522.787.56.237.037.682-.353.915-.297.235.057.456.607.684.682.229.076.731-.234.953-.14.221.094.35.674.562.786.214.113.76-.11.963.02.203.13.234.722.426.868.192.146.767.017.946.178.18.162.114.751.28.927.164.176.753.144.903.333.15.19-.011.76.123.96.134.202.72.267.838.479.117.211-.136.747-.036.967.1.22.666.383.747.61.081.228-.255.715-.193.95.062.233.595.486.637.725.043.239-.368.663-.346.904.023.24.508.579.511.821.003.242-.473.593-.49.835-.016.241.406.654.37.894-.037.24-.564.506-.62.742-.055.235.293.713.218.943-.076.23-.638.406-.732.63-.094.222.172.752.06.966-.112.215-.696.295-.825.499-.128.205.047.771-.098.964-.146.193-.734.176-.896.356-.16.18-.08.767-.255.934-.175.166-.753.051-.94.203-.189.15-.205.744-.405.879-.2.135-.75-.074-.962.044-.21.118-.323.7-.542.8-.219.1-.73-.197-.956-.116-.226.082-.433.637-.666.699-.233.063-.686-.315-.923-.272-.237.043-.532.556-.771.58-.24.023-.626-.426-.867-.423-.24.003-.616.461-.856.444-.24-.017-.548-.522-.786-.559-.238-.037-.682.353-.916.296-.234-.056-.455-.606-.684-.682-.228-.075-.73.235-.952.14-.222-.094-.35-.673-.563-.785-.213-.113-.76.11-.962-.02-.203-.13-.235-.721-.427-.868-.191-.146-.767-.016-.946-.178-.179-.162-.113-.751-.279-.927-.165-.177-.753-.144-.904-.333-.15-.19.012-.76-.123-.961-.134-.201-.72-.266-.837-.478-.117-.212.135-.747.036-.968-.1-.22-.667-.382-.748-.61-.081-.227.256-.715.194-.949-.062-.234-.595-.487-.638-.725-.042-.238.369-.663.346-.904-.023-.241-.507-.58-.51-.821-.003-.242.472-.593.489-.835.016-.24-.405-.655-.369-.894.037-.24.563-.507.62-.742.055-.236-.294-.714-.219-.943.076-.23.639-.407.732-.63.094-.223-.172-.752-.06-.967.112-.214.696-.294.825-.499.129-.204-.047-.77.099-.963.145-.193.734-.176.895-.356.16-.18.08-.768.255-.934.175-.166.753-.052.941-.203.188-.15.204-.743.404-.878.2-.136.752.073.962-.045.21-.118.323-.7.542-.8.22-.1.73.198.956.116.227-.082.434-.637.666-.7.233-.062.687.316.924.273.237-.044.532-.556.771-.58.24-.023.626.425.867.422"/>
            <path fill="#FFF" d="M292.396 5.062l1.787 3.641 3.993.585-2.89 2.834.683 4.002-3.573-1.89-3.572 1.89.682-4.002-2.89-2.834 3.994-.585z"/>
        </g>
        <g>
            <path fill="#FFF" stroke="#444" stroke-linecap="round" stroke-width=".9" d="M270.1 235.534l-59.53-27.6c-4.564-2.116-6.557-7.56-4.429-12.097l33.88-72.237c2.128-4.538 7.603-6.519 12.166-4.403l59.53 27.6c4.564 2.115 6.556 7.559 4.428 12.097l-33.879 72.237c-2.128 4.537-7.603 6.519-12.167 4.403z"/>
            <path fill="#FFD33F" d="M272.642 180.074a26.39 26.39 0 0 1-11.178-2.474c-13.24-6.139-18.989-21.843-12.815-35.007 4.335-9.243 13.767-15.215 24.03-15.215 3.876 0 7.637.832 11.178 2.474 6.414 2.974 11.279 8.253 13.7 14.864 2.42 6.612 2.105 13.765-.885 20.142-4.335 9.243-13.768 15.216-24.03 15.216"/>
            <path stroke="#444" stroke-linecap="round" stroke-linejoin="round" d="M227.717 183.904l51.905 24.065M224.685 190.368l51.905 24.065M221.653 196.833l51.905 24.065"/>
            <path fill="#818181" d="M265.131 166.897c-11.61-6.704-15.591-21.623-8.873-33.258l.548-.95c6.718-11.636 21.629-15.648 33.24-8.945 11.61 6.703 15.59 21.623 8.873 33.259l-.548.95c-6.718 11.635-21.63 15.647-33.24 8.944"/>
            <path fill="#424242" d="M290.296 123.31c-11.85-6.84-27.067-2.746-33.923 9.129l-.548.95c-6.856 11.874-2.794 27.1 9.056 33.942 11.85 6.841 27.067 2.746 33.923-9.128l.548-.95c6.856-11.875 2.793-27.101-9.056-33.943m-.501.868c11.343 6.549 15.254 21.208 8.691 32.575l-.548.95c-6.563 11.367-21.213 15.309-32.556 8.76-11.343-6.549-15.254-21.207-8.691-32.574l.548-.95c6.563-11.367 21.213-15.31 32.556-8.76"/>
            <path fill="#FFEFDE" d="M291.189 164.541a3.944 3.944 0 0 1 3.943-6.83 3.944 3.944 0 0 1-3.943 6.83"/>
            <path fill="#424242" d="M295.383 157.277c-2.113-1.22-4.842-.486-6.064 1.631-1.222 2.118-.494 4.847 1.62 6.067 2.112 1.22 4.84.486 6.062-1.631 1.223-2.118.494-4.848-1.618-6.067m-.501.868a3.443 3.443 0 0 1-3.443 5.962 3.443 3.443 0 0 1 3.443-5.962"/>
            <path fill="#FFEFDE" d="M254.114 143.136a3.944 3.944 0 0 1 3.944-6.83 3.944 3.944 0 0 1-3.944 6.83"/>
            <path fill="#424242" d="M258.308 135.872c-2.112-1.22-4.84-.486-6.063 1.632-1.223 2.117-.493 4.847 1.619 6.066 2.112 1.22 4.84.486 6.063-1.631 1.223-2.117.494-4.847-1.619-6.067m-.5.868a3.443 3.443 0 0 1-3.443 5.962 3.443 3.443 0 0 1 3.442-5.962"/>
            <path fill="#FFEFDE" d="M263.867 169.645c10.14 5.855 23.237 2.33 29.104-7.831l3.598-6.231c5.867-10.162 2.37-23.267-7.77-29.121-10.14-5.855-23.237-2.33-29.104 7.831l-3.598 6.231c-5.867 10.162-2.37 23.267 7.77 29.121"/>
            <path stroke="#424242" d="M263.867 169.645c10.14 5.855 23.237 2.33 29.104-7.831l3.598-6.231c5.867-10.162 2.37-23.267-7.77-29.121-10.14-5.855-23.237-2.33-29.104 7.831l-3.598 6.231c-5.867 10.162-2.37 23.267 7.77 29.121z"/>
            <path fill="#435779" d="M280.366 151.845c.573.331 1.313.132 1.645-.442a1.208 1.208 0 0 0-.44-1.646 1.208 1.208 0 0 0-1.644.443 1.208 1.208 0 0 0 .439 1.645M269.939 145.825c.573.331 1.313.132 1.645-.442a1.208 1.208 0 0 0-.44-1.646 1.208 1.208 0 0 0-1.644.443 1.208 1.208 0 0 0 .439 1.645"/>
            <path fill="#EC5A76" fill-opacity=".5" d="M281.662 162.006l3.45 1.992a2.174 2.174 0 0 0 2.96-.796 2.174 2.174 0 0 0-.79-2.962l-3.45-1.992a2.174 2.174 0 0 0-2.96.796 2.174 2.174 0 0 0 .79 2.962M257.879 148.275l3.45 1.992a2.174 2.174 0 0 0 2.96-.796 2.174 2.174 0 0 0-.79-2.962l-3.45-1.992a2.174 2.174 0 0 0-2.96.796 2.174 2.174 0 0 0 .79 2.962"/>
            <path stroke="#435779" stroke-linecap="round" stroke-width="2" d="M268.76 156.028c.124 1.53 2.1 2.728 3.512 2.13"/>
            <path fill="#818181" d="M271.743 153.64l-3.281.002a1.124 1.124 0 0 1-1.122-1.122c0-.618.506-1.124 1.124-1.125l3.28-.003a1.124 1.124 0 0 1-.001 2.247"/>
            <path fill="#818181" d="M272.616 154.143l1.778 3.087c.308.535.998.72 1.533.41.535-.31.72-1 .412-1.535l-1.778-3.087a1.124 1.124 0 0 0-1.945 1.125"/>
            <path fill="#858585" d="M290.05 124.296c3.422 1.975 4.602 6.398 2.622 9.827a7.186 7.186 0 0 1-4.37 3.348c-2.653.714-4.796-.341-5.452-.705-3.195-1.772-3.787-5.232-3.855-5.677a8.34 8.34 0 0 1 .996-4.724 8.311 8.311 0 0 1 2.91-3.042"/>
            <path stroke="#424242" stroke-linecap="round" d="M290.05 124.296c3.422 1.975 4.602 6.398 2.622 9.827a7.186 7.186 0 0 1-4.37 3.348c-2.653.714-4.796-.341-5.452-.705-3.195-1.772-3.787-5.232-3.855-5.677a8.34 8.34 0 0 1 .996-4.724 8.311 8.311 0 0 1 2.91-3.042"/>
            <path fill="#435779" d="M248.736 178.91c-.124-.067-.525-.263-.648-.33-.046-.033-.131-.072-.232-.119-.154.35-.296.652-.47 1.021-.103.199-.197.4-.288.593l.528.235c.545.243 1.456.563 1.811-.04.29-.532-.183-1.037-.7-1.36m1.74 1.996c-.283.493-.783.834-1.452.79-.539-.014-.99-.152-1.533-.352a17.607 17.607 0 0 1-.6-.237 2.23 2.23 0 0 0-.232-.098l-.816 1.74c-.133.195-.26.444-.539.468-.15.012-.365-.077-.497-.17-.14-.095-.227-.196-.223-.38.005-.12.01-.26.1-.455l2.181-4.65c.036-.075.084-.135.123-.198l.138-.161a.413.413 0 0 1 .156-.091c.075-.028.212-.036.45.074l.016.008c.355.144.861.338 1.125.5.144.088.275.16.398.226.132.072.259.151.387.23l.28.192c.086.06.183.136.253.23.094.085.176.174.237.263.06.09.117.189.166.282.238.591.177 1.27-.118 1.789M250.686 185.138l-.134.153c-.016.013-.033.026-.045.03l-.049.04a.418.418 0 0 1-.223.08.7.7 0 0 1-.455-.15.47.47 0 0 1-.189-.19.315.315 0 0 1-.052-.198.816.816 0 0 1 .029-.191.65.65 0 0 1 .045-.163l2.21-4.71c.034-.075.07-.13.106-.185a.826.826 0 0 1 .142-.17.332.332 0 0 1 .157-.091.497.497 0 0 1 .234.006c.087.01.154.042.24.08a.738.738 0 0 1 .238.193.437.437 0 0 1 .083.264.788.788 0 0 1-.062.35c-.042.113-.168.403-.22.513l-.015.033c-.153.37-.299.68-.489 1.063-.177.38-.352.728-.513 1.073l-.828 1.767c-.02.041-.031.087-.05.129-.024.05-.04.084-.068.122-.036.055-.069.102-.092.152M252.855 185.212c.035.21.284.47.572.624.656.355 1.47-.434 1.378-1.183-.06-.55-.782-.834-1.25-.672-.463.154-.784.752-.7 1.231m2.917-1.084c.158.432.14.843.011 1.295-.184.611-.013 1.192-.143 1.798-.062.288-.29.53-.601.447-.379-.093-.45-.577-.488-.891-.42.215-.79.258-1.241.12a2.836 2.836 0 0 1-1.005-.557c-.846-.7-.632-1.88.043-2.683.445-.531.948-.748 1.458-.758.846-.027 1.652.408 1.966 1.23M257.435 185.237c.123-.26.235-.587.447-.776a.518.518 0 0 1 .655-.013c.383.26.233.558.108.869.405-.294.968-.155 1.158-.078.431.2.798.606.918 1.071.128.54-.113 1.033-.317 1.532-.14.365-.31.727-.5 1.068-.151.279-.353.86-.714.775-.52-.118-.524-.376-.437-.714.068-.276.265-.697.379-.961.098-.21.212-.496.326-.719.245-.521.087-.953-.406-1.13-.384-.127-.819-.011-.988.371-.126.29-.238.463-.399.829-.173.37-.361.835-.585 1.049-.21.23-.503.238-.72-.047-.177-.256-.041-.613.057-.865.14-.386.277-.68.45-1.05l.568-1.21zM265.413 192.622c-.82-.186-1.67-.806-2.075-1.659-.482-1.012.058-2.297.564-3.178.446-.797 1.421-1.624 2.571-1.706.88-.073 1.973.557 2.29 1.33.21.475.335 1.658-.504 1.495-.353-.061-.424-.37-.49-.647-.246-.903-1.326-1.147-2.004-.58-.71.592-1.356 1.684-1.198 2.576.124.703.776 1.2 1.501 1.147.23-.006.584-.17.882-.124a.562.562 0 0 1 .49.535c.005.78-1.284.96-2.027.81"/>
        </g>
        <g>
            <path fill="#FFF" stroke="#444" stroke-linecap="round" stroke-width=".9" d="M153.429 207.934l-59.53 27.6c-4.564 2.116-10.038.135-12.167-4.403l-33.88-72.237c-2.127-4.538-.134-9.981 4.43-12.097l59.529-27.6c4.563-2.116 10.039-.134 12.167 4.403l33.88 72.237c2.127 4.538.135 9.981-4.43 12.097z"/>
            <path fill="#F78B8B" d="M91.954 180.841c-10.263 0-19.694-5.973-24.03-15.215-6.173-13.164-.425-28.868 12.815-35.007a26.397 26.397 0 0 1 11.18-2.474c10.261 0 19.693 5.972 24.028 15.216 2.991 6.376 3.305 13.53.885 20.141-2.42 6.612-7.285 11.891-13.7 14.865a26.387 26.387 0 0 1-11.178 2.474"/>
            <path stroke="#444" stroke-linecap="round" stroke-linejoin="round" d="M86.407 207.028l51.905-24.065M89.439 213.492l51.904-24.065M92.47 219.957l51.905-24.065"/>
            <path fill="#9B6273" d="M99.966 169.066c-12.077 6.973-27.675 2.775-34.662-9.327l-.755-1.308c-6.988-12.102-2.824-27.71 9.253-34.682 12.077-6.972 27.675-2.775 34.662 9.327l.755 1.308c6.988 12.103 2.824 27.71-9.253 34.682"/>
            <path stroke="#424242" stroke-linecap="round" d="M99.966 169.066c-12.077 6.973-27.675 2.775-34.662-9.327l-.755-1.308c-6.988-12.102-2.824-27.71 9.253-34.682 12.077-6.972 27.675-2.775 34.662 9.327l.755 1.308c6.988 12.103 2.824 27.71-9.253 34.682z"/>
            <path fill="#FFEFDE" d="M69.341 161.098a3.285 3.285 0 0 1-4.473-1.204 3.285 3.285 0 0 1 1.194-4.477 3.285 3.285 0 0 1 4.474 1.204 3.285 3.285 0 0 1-1.195 4.477"/>
            <path stroke="#424242" d="M69.341 161.098a3.285 3.285 0 0 1-4.473-1.204 3.285 3.285 0 0 1 1.194-4.477 3.285 3.285 0 0 1 4.474 1.204 3.285 3.285 0 0 1-1.195 4.477z"/>
            <path fill="#FFEFDE" d="M108.23 138.645a3.285 3.285 0 0 1-4.474-1.203 3.285 3.285 0 0 1 1.194-4.477 3.285 3.285 0 0 1 4.474 1.204 3.285 3.285 0 0 1-1.194 4.476"/>
            <path stroke="#424242" d="M108.23 138.645a3.285 3.285 0 0 1-4.474-1.203 3.285 3.285 0 0 1 1.194-4.477 3.285 3.285 0 0 1 4.474 1.204 3.285 3.285 0 0 1-1.194 4.476z"/>
            <path fill="#FFEFDE" d="M98.49 166.51c-10.524 6.075-24.039 2.439-30.127-8.107-6.089-10.546-2.481-24.07 8.042-30.145 10.524-6.076 24.04-2.439 30.128 8.107 6.088 10.546 2.48 24.069-8.043 30.145"/>
            <path fill="#424242" d="M76.155 127.824c-10.78 6.224-14.462 20.026-8.225 30.828 6.237 10.803 20.03 14.515 30.81 8.291 10.78-6.223 14.463-20.025 8.226-30.828-6.237-10.803-20.032-14.515-30.81-8.291m.5.868c10.285-5.938 23.493-2.384 29.444 7.923 5.95 10.307 2.424 23.523-7.86 29.46-10.285 5.938-23.494 2.384-29.444-7.923-5.95-10.306-2.425-23.522 7.86-29.46"/>
            <path stroke="#435779" stroke-linecap="round" stroke-width="1.5" d="M72.146 149.633a5.217 5.217 0 0 1 1.492-2.895"/>
            <path fill="#EC5A76" fill-opacity=".5" d="M79.708 158.372l-2.633 1.52a2.301 2.301 0 0 1-3.133-.843 2.301 2.301 0 0 1 .836-3.135l2.633-1.52a2.301 2.301 0 0 1 3.134.842 2.302 2.302 0 0 1-.837 3.136M103.678 144.533l-2.633 1.52a2.302 2.302 0 0 1-3.134-.843 2.302 2.302 0 0 1 .837-3.136l2.633-1.52a2.302 2.302 0 0 1 3.134.843 2.302 2.302 0 0 1-.837 3.136"/>
            <path fill="#FFF" d="M84.693 152.731l-7.994 4.616a2.908 2.908 0 0 1-3.96-1.066l-.978-1.694a2.908 2.908 0 0 1 1.057-3.962l7.994-4.616a2.908 2.908 0 0 1 3.96 1.066l.979 1.693a2.908 2.908 0 0 1-1.058 3.963"/>
            <path fill="#435779" d="M80.88 150.524a.432.432 0 0 1-.432-.748.432.432 0 0 1 .432.748"/>
            <path fill="#435779" d="M80.072 149.125a1.182 1.182 0 0 0-.431 1.615 1.182 1.182 0 1 0 2.046-1.18 1.182 1.182 0 0 0-1.615-.435M80.246 149.597l-1.732 1"/>
            <path stroke="#435779" stroke-linecap="round" stroke-width="1.5" d="M80.246 149.597l-1.732 1"/>
            <path fill="#FFF" d="M100.404 143.66l-7.995 4.616a2.908 2.908 0 0 1-3.96-1.066l-.978-1.693a2.908 2.908 0 0 1 1.057-3.963l7.995-4.615a2.908 2.908 0 0 1 3.96 1.065l.978 1.694a2.908 2.908 0 0 1-1.057 3.963"/>
            <path fill="#435779" d="M91.983 144.113a.432.432 0 0 1-.432-.748.432.432 0 0 1 .432.748"/>
            <path fill="#435779" d="M91.176 142.714a1.183 1.183 0 0 0 1.183 2.05c.565-.326.758-1.049.431-1.615a1.182 1.182 0 0 0-1.614-.435M91.937 142.847l1.3-.75"/>
            <path stroke="#435779" stroke-linecap="round" stroke-width="1.5" d="M91.937 142.847l1.3-.75"/>
            <path stroke="#ED5084" stroke-linecap="round" d="M86.516 153.564c1.079 1.874.43 4.287-1.44 5.363M93.477 149.545c1.084 1.871 3.498 2.517 5.365 1.435" opacity=".3"/>
            <path fill="#ED5084" d="M91.67 154.224a1.185 1.185 0 1 1-2.05 1.184 1.185 1.185 0 1 1 2.05-1.184"/>
            <path fill="#ED5084" d="M93.311 153.277a1.185 1.185 0 1 1-2.05 1.184 1.185 1.185 0 1 1 2.05-1.184"/>
            <path stroke="#ED5084" stroke-linecap="round" stroke-linejoin="round" stroke-width="1.5" d="M89.09 155.274c1.913 1.254 4.506-.234 4.37-2.522"/>
            <path fill="#424242" d="M80.812 146.009l-7.994 4.615a2.908 2.908 0 0 0-1.057 3.963l.977 1.694a2.908 2.908 0 0 0 3.96 1.066l7.995-4.616a2.908 2.908 0 0 0 1.057-3.963l-.977-1.693a2.908 2.908 0 0 0-3.96-1.066m.5.868a1.901 1.901 0 0 1 2.594.698l.977 1.693a1.901 1.901 0 0 1-.692 2.595l-7.994 4.616c-.906.523-2.07.21-2.594-.698l-.977-1.694a1.901 1.901 0 0 1 .692-2.595l7.994-4.615M96.523 136.939l-7.995 4.615a2.908 2.908 0 0 0-1.057 3.963l.978 1.693a2.908 2.908 0 0 0 3.96 1.066l7.995-4.615a2.908 2.908 0 0 0 1.057-3.963l-.978-1.694a2.908 2.908 0 0 0-3.96-1.065m.5.867a1.901 1.901 0 0 1 2.594.698l.978 1.694a1.901 1.901 0 0 1-.692 2.595l-7.995 4.615a1.9 1.9 0 0 1-2.593-.698l-.978-1.693a1.9 1.9 0 0 1 .692-2.595l7.995-4.616"/>
            <path stroke="#435779" stroke-linecap="round" stroke-width="1.5" d="M85.035 148.25l3.03-1.75"/>
            <path fill="#AE7385" d="M73.978 125.517c-2.262 1.803-3.998 4-5.152 6.358l2.332 2.773c1.142 1.359 4.65 4.438 10.139 4.998 6.68.68 13.712-2.718 18.28-8.687.452-.507.807-.936 1.359-1.523l-1.998-2.377c-5.936-7.057-17.157-7.76-24.96-1.542"/>
            <g>
                <path fill="#AE7385" d="M69.099 132.448c.897 1.166 4.97 6.18 12.33 6.91 7.28.723 14.899-3.028 19.541-9.58"/>
                <path stroke="#424242" stroke-linecap="round" d="M69.099 132.448c.897 1.166 4.97 6.18 12.33 6.91 7.28.723 14.899-3.028 19.541-9.58"/>
            </g>
            <path stroke="#424242" stroke-linecap="round" d="M79.779 131.31c.763.75 3.382 3.117 7.63 3.362 6.243.36 10.556-4.177 11.01-4.67"/>
            <path fill="#435779" d="M96.91 187.424c-.131.05-.542.23-.672.28-.055.015-.14.055-.241.102.17.34.312.643.486 1.013.086.206.18.408.271.601l.52-.252c.538-.258 1.37-.747 1.133-1.405-.223-.562-.917-.527-1.498-.34m2.657-.043c.198.532.14 1.132-.324 1.614-.358.4-.753.656-1.258.94-.228.128-.36.199-.567.305-.043.02-.187.087-.225.115l.816 1.74c.065.226.175.482.015.71-.088.123-.295.229-.45.271-.165.045-.299.046-.437-.075-.09-.08-.196-.175-.286-.368l-2.181-4.65c-.036-.077-.05-.151-.073-.223-.012-.067-.026-.142-.036-.208.001-.062.003-.125.03-.178.026-.074.109-.184.345-.293l.018-.008c.339-.178.813-.439 1.108-.535.16-.054.3-.108.43-.158.14-.055.283-.1.426-.146.118-.035.219-.061.328-.091.1-.027.223-.052.34-.045.126-.017.247-.022.354-.01.109.01.221.03.325.054.608.198 1.092.68 1.302 1.239M102.96 189.942l.033.2c0 .02-.001.041-.006.053l-.001.063a.412.412 0 0 1-.082.222.701.701 0 0 1-.408.25.485.485 0 0 1-.267.022.322.322 0 0 1-.186-.088.822.822 0 0 1-.13-.145.635.635 0 0 1-.096-.14l-2.208-4.709a1.34 1.34 0 0 1-.114-.418.327.327 0 0 1 .03-.177.494.494 0 0 1 .155-.175c.065-.06.132-.092.217-.131a.748.748 0 0 1 .302-.058.44.44 0 0 1 .256.107c.098.077.183.17.23.272.06.105.203.387.254.496l.015.034c.187.353.333.665.506 1.055.178.379.335.736.497 1.08l.828 1.767c.019.042.048.08.067.122a.65.65 0 0 1 .05.13c.02.063.035.117.059.168M104.412 188.337c.185.109.544.085.848-.035.697-.271.61-1.399-.025-1.81-.463-.308-1.146.06-1.32.52-.18.452.074 1.081.497 1.325m1.04-2.919c.434.157.74.436 1.005.824.353.533.91.776 1.293 1.264.181.233.222.563-.042.747-.315.228-.734-.029-1-.202-.104.458-.31.768-.705 1.022a2.835 2.835 0 0 1-1.075.407c-1.083.195-1.855-.727-2.04-1.757-.123-.68.034-1.203.353-1.597.524-.663 1.376-.996 2.212-.708M107.376 184.864c-.122-.26-.302-.556-.311-.838a.514.514 0 0 1 .41-.508c.446-.125.58.182.74.476.034-.497.502-.836.684-.932.432-.2.98-.218 1.416-.01.498.25.723.75.976 1.225.192.342.361.703.502 1.068.117.294.436.821.138 1.042-.426.32-.626.157-.831-.126-.17-.23-.367-.65-.497-.906-.1-.21-.246-.48-.344-.711-.245-.522-.679-.679-1.133-.417-.344.21-.535.616-.349.991.143.282.205.478.382.836.174.37.412.812.433 1.12.042.308-.14.536-.499.518-.312-.029-.499-.362-.63-.598a11.591 11.591 0 0 1-.519-1.019l-.568-1.21zM117.288 182.593c.138-.494-.261-1.149-.78-1.246-.357-.08-.732.042-1.062.195-.317.158-.545.222-.39.53.15.277.259.596.385.865.071.151.14.385.313.449.183.058.456-.017.731-.155.339-.178.742-.416.803-.638m-3.197-2.644c.099.21.189.424.284.626.204.458.854.044 1.19-.184.375-.255.504-.55.349-.97-.195-.524-.62-.531-1.153-.305-.71.309-.93.32-.67.833m3.945.946c.734.775.953 1.902-.146 2.719a6.561 6.561 0 0 1-1.108.667c-.436.212-.91.452-1.394.564-.221.031-.36-.089-.477-.25a.425.425 0 0 1-.104-.135l-2.24-4.777c-.296-.63.258-.918.837-1.177.23-.106.453-.22.694-.321.376-.164.819-.318 1.237-.348.109-.01.222-.011.326-.008a.855.855 0 0 1 .307.062c1.023.314 1.57 1.504.952 2.425a1.78 1.78 0 0 1 1.116.579"/>
        </g>
        <g>
            <path fill="#FFF" d="M219.704 225.095h-77.272c-5.035 0-9.155-4.096-9.155-9.103v-93.214c0-5.006 4.12-9.103 9.155-9.103h77.272c5.036 0 9.156 4.097 9.156 9.103v93.214c0 5.007-4.12 9.103-9.156 9.103"/>
            <path stroke="#444" stroke-linecap="round" stroke-width=".9" d="M219.704 225.095h-77.272c-5.035 0-9.155-4.096-9.155-9.103v-93.214c0-5.006 4.12-9.103 9.155-9.103h77.272c5.036 0 9.156 4.097 9.156 9.103v93.214c0 5.007-4.12 9.103-9.156 9.103z"/>
            <path fill="#86ABF4" d="M181.384 168.657c-14.768 0-26.782-11.945-26.782-26.628 0-14.682 12.014-26.628 26.782-26.628 14.767 0 26.781 11.946 26.781 26.628 0 14.683-12.014 26.628-26.781 26.628"/>
            <path fill="#88682C" d="M180.623 153.077c-13.705 0-24.855-10.744-24.855-23.95s11.15-23.95 24.855-23.95 24.855 10.744 24.855 23.95-11.15 23.95-24.855 23.95"/>
            <path fill="#424242" d="M180.623 104.695c-13.945 0-25.355 10.994-25.355 24.432 0 13.437 11.41 24.431 25.355 24.431s25.355-10.994 25.355-24.431c0-13.438-11.41-24.432-25.355-24.432m0 .964c13.43 0 24.355 10.528 24.355 23.468s-10.926 23.468-24.355 23.468-24.355-10.528-24.355-23.468 10.926-23.468 24.355-23.468"/>
            <path fill="#FFEFDE" d="M203.35 140.455c-2.16 0-3.927-1.771-3.927-3.936s1.767-3.936 3.928-3.936c2.16 0 3.927 1.77 3.927 3.936 0 2.165-1.767 3.936-3.927 3.936"/>
            <path stroke="#424242" d="M203.35 140.455c-2.16 0-3.927-1.771-3.927-3.936s1.767-3.936 3.928-3.936c2.16 0 3.927 1.77 3.927 3.936 0 2.165-1.767 3.936-3.927 3.936z"/>
            <path fill="#FFEFDE" d="M158.3 140.455c-2.16 0-3.928-1.771-3.928-3.936s1.768-3.936 3.928-3.936 3.928 1.77 3.928 3.936c0 2.165-1.767 3.936-3.928 3.936"/>
            <path stroke="#424242" d="M158.3 140.455c-2.16 0-3.928-1.771-3.928-3.936s1.768-3.936 3.928-3.936 3.928 1.77 3.928 3.936c0 2.165-1.767 3.936-3.928 3.936z"/>
            <path fill="#FFEFDE" d="M180.838 158.804c-12.103 0-21.95-9.867-21.95-21.996v-5.823c0-12.129 9.847-21.996 21.95-21.996s21.95 9.867 21.95 21.996v5.823c0 12.129-9.847 21.996-21.95 21.996"/>
            <path fill="#424242" d="M180.838 108.487c-12.347 0-22.45 10.124-22.45 22.498v5.823c0 12.373 10.103 22.497 22.45 22.497s22.45-10.124 22.45-22.497v-5.823c0-12.374-10.103-22.498-22.45-22.498m0 1.002c11.827 0 21.45 9.643 21.45 21.496v5.823c0 11.852-9.623 21.495-21.45 21.495s-21.45-9.643-21.45-21.495v-5.823c0-11.853 9.623-21.496 21.45-21.496"/>
            <path fill="#FFF" d="M175.585 142.475v.072c0 2.877 2.349 5.23 5.22 5.23 2.87 0 5.218-2.353 5.218-5.23v-.072h-10.438z"/>
            <path stroke="#435779" stroke-linecap="round" stroke-linejoin="round" stroke-width="1.5" d="M175.585 142.475v.072c0 2.877 2.349 5.23 5.22 5.23 2.87 0 5.218-2.353 5.218-5.23v-.072h-10.438z"/>
            <path fill="#927332" d="M183.82 106.755a21.41 21.41 0 0 1 9.128 4.008l-.847 4.662c-.415 2.285-2.301 8.05-7.764 12.185-6.647 5.031-16.049 5.61-24.334 1.676-.77-.293-1.405-.562-2.329-.883l.726-3.996c2.156-11.866 13.58-19.813 25.42-17.652"/>
            <path fill="#927332" d="M193.035 111.6c-.267 1.908-1.648 10.247-8.984 15.769-7.254 5.461-17.468 6.01-26.171 1.456"/>
            <path stroke="#424242" stroke-linecap="round" d="M193.035 111.6c-.267 1.908-1.648 10.247-8.984 15.769-7.254 5.461-17.468 6.01-26.171 1.456"/>
            <path stroke="#424242" stroke-linecap="round" d="M184.926 120.11c-1.078 1.49-4.817 6.258-11.557 7.931-9.906 2.458-17.647-3.917-18.466-4.615M162.894 118.557a16.286 16.286 0 0 1 4.143-5.838c.358-.322 2.215-1.955 4.97-3.034 5.896-2.311 11.608-.406 13.363.255"/>
            <path fill="#EC5A76" fill-opacity=".5" d="M168.798 141.801h-3.04a2.302 2.302 0 0 1-2.293-2.297 2.302 2.302 0 0 1 2.293-2.297h3.04a2.302 2.302 0 0 1 2.292 2.297 2.302 2.302 0 0 1-2.292 2.297M196.476 141.801h-3.04a2.301 2.301 0 0 1-2.292-2.297 2.302 2.302 0 0 1 2.292-2.297h3.04a2.301 2.301 0 0 1 2.292 2.297 2.301 2.301 0 0 1-2.292 2.297"/>
            <path fill="#435779" d="M174.92 136.782a.432.432 0 0 1 0-.864.432.432 0 0 1 0 .864"/>
            <path fill="#435779" d="M174.92 135.167c-.652 0-1.18.53-1.18 1.183a1.182 1.182 0 1 0 2.36 0c0-.653-.528-1.183-1.18-1.183M175.102 135.816h-2"/>
            <path stroke="#435779" stroke-linecap="round" stroke-width="1.5" d="M175.102 135.816h-2"/>
            <path fill="#435779" d="M187.741 136.782a.432.432 0 0 1 0-.864.432.432 0 0 1 0 .864"/>
            <path fill="#435779" d="M187.741 135.167c-.652 0-1.18.53-1.18 1.183a1.182 1.182 0 1 0 2.361 0c0-.653-.528-1.183-1.18-1.183"/>
            <g>
                <path fill="#435779" d="M188.102 135.816h1"/>
                <path stroke="#435779" stroke-linecap="round" stroke-width="1.5" d="M188.102 135.816h1"/>
            </g>
            <path stroke="#424242" stroke-linecap="round" d="M189.989 128.337c.231-.036 1.594-.23 2.787.71a3.622 3.622 0 0 1 1.264 2.021"/>
            <path stroke="#444" stroke-linecap="round" stroke-linejoin="round" d="M149.756 192h65.173M149.756 200h65.173M149.756 208h65.173"/>
            <path fill="#435779" d="M168.943 176.901c-.16-.01-.669-.02-.829-.031-.063-.011-.17-.011-.297-.011.01.433.01.813.01 1.278-.01.253-.01.507-.01.75l.659-.01c.68-.011 1.773-.117 1.848-.909.043-.687-.69-.982-1.38-1.067m2.761 1.225c-.053.645-.404 1.236-1.115 1.51-.563.244-1.094.318-1.753.37a20.62 20.62 0 0 1-.733.043c-.053 0-.234 0-.287.01v2.187c-.042.263-.053.58-.33.739-.148.084-.413.095-.594.063-.191-.031-.33-.095-.414-.285-.054-.127-.117-.274-.117-.517v-5.841c0-.095.021-.18.032-.264l.063-.233c.033-.063.064-.126.117-.168.064-.064.202-.138.5-.138h.02c.436-.021 1.052-.063 1.403-.021.191.021.361.032.52.042.17.011.34.032.51.053.139.021.256.042.383.064.117.02.255.052.372.115.138.043.265.096.371.159.107.063.213.137.309.211.53.497.796 1.226.743 1.901M173.966 182.394l-.064.22c-.01.022-.02.044-.031.054l-.032.063a.472.472 0 0 1-.191.19.797.797 0 0 1-.542.064.546.546 0 0 1-.287-.106.363.363 0 0 1-.149-.18.939.939 0 0 1-.064-.21.706.706 0 0 1-.031-.19v-5.915c0-.096.01-.17.021-.243a.899.899 0 0 1 .064-.243.374.374 0 0 1 .116-.17.563.563 0 0 1 .245-.105c.096-.031.18-.031.287-.031.106 0 .223.031.34.084.095.053.17.138.212.232a.9.9 0 0 1 .106.391c.01.138.022.497.022.634v.042c.02.454.02.845.01 1.33 0 .476-.01.92-.01 1.353v2.218c0 .053.01.105.01.159 0 .063 0 .105-.01.158-.011.073-.022.137-.022.2M176.24 181.432c.137.201.52.349.892.37.85.053 1.306-1.151.85-1.88-.33-.539-1.212-.486-1.615-.095-.404.38-.447 1.151-.128 1.605m2.486-2.513c.372.37.552.802.637 1.33.106.719.563 1.236.723 1.923.074.327-.043.686-.404.75-.435.084-.744-.38-.935-.687-.33.422-.69.644-1.221.718a3.25 3.25 0 0 1-1.307-.095c-1.211-.317-1.561-1.637-1.254-2.788.202-.76.616-1.225 1.137-1.48.86-.432 1.901-.368 2.624.329M180.975 179.267c0-.327-.042-.718.085-1.014a.589.589 0 0 1 .67-.327c.52.084.51.465.53.845.277-.497.925-.623 1.159-.634.541 0 1.115.243 1.466.666.393.496.382 1.119.414 1.731.032.444.032.898 0 1.342-.021.359.053 1.056-.361 1.14-.595.127-.723-.137-.797-.527-.064-.317-.064-.845-.075-1.173 0-.264-.02-.613-.01-.898 0-.655-.372-1.024-.967-.972-.456.054-.85.38-.84.856.012.36-.02.592-.01 1.046 0 .464.033 1.035-.095 1.362-.107.338-.404.486-.765.296-.308-.18-.34-.612-.361-.919-.043-.465-.043-.834-.043-1.299v-1.521zM192.871 179.732c-.18-.402-.372-.845-.584-1.3-.053-.126-.117-.263-.17-.39-.042.127-.107.264-.16.39-.212.455-.403.898-.584 1.3l-.19.464h1.88l-.192-.464zm2.54 2.841a.376.376 0 0 1-.076.232.517.517 0 0 1-.212.18c-.18.106-.361.137-.563.106a.638.638 0 0 1-.265-.138c-.022-.021-.043-.031-.054-.053-.01-.01-.031-.042-.053-.052-.063-.064-.106-.138-.148-.201a3.856 3.856 0 0 0-.106-.2.532.532 0 0 1-.075-.159 1.049 1.049 0 0 1-.053-.17l-.223-.517c-.967 0-1.955.01-2.921 0l-.224.518c-.02.053-.031.116-.052.17-.022.052-.043.105-.075.157-.042.074-.074.137-.117.2a.743.743 0 0 1-.138.202c-.02.01-.042.042-.053.052-.01.022-.032.032-.053.053a.641.641 0 0 1-.266.138.813.813 0 0 1-.563-.106.522.522 0 0 1-.212-.18.378.378 0 0 1-.074-.232c0-.095.01-.17.02-.254a.969.969 0 0 1 .054-.19c.02-.063.032-.084.032-.095l2.21-5.407.063-.17c.032-.084.075-.147.107-.242.031-.085.063-.159.116-.243.042-.085.106-.159.16-.222a.548.548 0 0 1 .18-.138c.202-.074.489-.074.69 0a.557.557 0 0 1 .181.138c.053.063.107.137.16.222.053.084.085.158.117.243.031.095.074.158.106.243l.063.169 2.21 5.407c0 .01.01.032.031.095a.969.969 0 0 1 .054.19c.01.085.021.159.021.254z"/>
        </g>
        <g stroke="#E7E7E7" stroke-linecap="round" stroke-width="2.5">
            <path d="M180 79.221v10.696M202.262 88.263l-8.071 6.875M160.118 88.263l8.071 6.875"/>
        </g>
    </g>
</svg>
