<svg xmlns="http://www.w3.org/2000/svg" xmlns:xlink="http://www.w3.org/1999/xlink" width="1000" height="203" viewBox="0 0 1000 203">
    <defs>
        <path id="a" d="M6.793.01V6.07H.54V.009h6.254z"/>
        <path id="c" d="M.724.311h2.828v4.562H.724V.311z"/>
        <path id="e" d="M0 4.124V.109h4.215v4.015z"/>
        <path id="g" d="M3.635.305v2.094H.346V.305z"/>
        <path id="i" d="M0 94.784h75.771V0H0z"/>
        <path id="k" d="M20.596 15.772V.43H.242v15.342h20.354z"/>
        <path id="m" d="M0 29.538h79.922V.192H0z"/>
    </defs>
    <g fill="none" fill-rule="evenodd">
        <g fill="#318369">
            <path d="M976.628 188.852h-40.04c-4.763 0-8.661-3.873-8.661-8.607 0-4.733 3.898-8.607 8.661-8.607h40.04c4.764 0 8.66 3.874 8.66 8.607 0 4.734-3.896 8.607-8.66 8.607"/>
            <path d="M983.817 175.081h-43.765c-4.763 0-8.66-3.873-8.66-8.606 0-4.734 3.897-8.607 8.66-8.607h43.765c4.764 0 8.66 3.873 8.66 8.607 0 4.733-3.896 8.606-8.66 8.606"/>
            <path d="M981.625 161.31h-34.644c-4.763 0-8.66-3.872-8.66-8.606 0-4.733 3.897-8.606 8.66-8.606h34.644c4.764 0 8.661 3.873 8.661 8.606 0 4.734-3.897 8.607-8.66 8.607"/>
            <path d="M957.375 147.54h-6.93c-4.763 0-8.66-3.872-8.66-8.606 0-4.733 3.897-8.607 8.66-8.607h6.93c4.763 0 8.66 3.874 8.66 8.607 0 4.734-3.897 8.606-8.66 8.606"/>
            <path d="M962.571 140.655c-5.716 0-10.393-4.647-10.393-10.327S956.855 120 962.571 120c5.716 0 10.393 4.647 10.393 10.328 0 5.68-4.677 10.327-10.393 10.327"/>
            <path d="M975.702 145.543h-8.94c-4.21 0-7.656-3.424-7.656-7.608 0-4.184 3.446-7.607 7.657-7.607h8.939c4.21 0 7.655 3.423 7.655 7.607s-3.444 7.608-7.655 7.608"/>
        </g>
        <g fill="#7BB725">
            <path d="M931.067 188.852h-11.259c-2.62 0-4.764-2.13-4.764-4.734s2.144-4.734 4.764-4.734h11.26c2.62 0 4.763 2.13 4.763 4.734s-2.144 4.734-4.764 4.734"/>
            <path d="M933.752 181.278h-19.054c-2.62 0-4.763-2.13-4.763-4.733 0-2.604 2.143-4.734 4.763-4.734h19.054c2.62 0 4.764 2.13 4.764 4.734 0 2.603-2.144 4.733-4.764 4.733"/>
            <path d="M920.415 173.704h-3.812c-2.619 0-4.763-2.13-4.763-4.733 0-2.604 2.144-4.734 4.763-4.734h3.812c2.62 0 4.763 2.13 4.763 4.734 0 2.603-2.144 4.733-4.763 4.733"/>
            <path d="M923.272 169.917c-3.144 0-5.716-2.556-5.716-5.68 0-3.124 2.572-5.68 5.716-5.68 3.145 0 5.717 2.556 5.717 5.68 0 3.124-2.572 5.68-5.717 5.68M939.602 188.852h-11.26c-2.62 0-4.763-2.13-4.763-4.734s2.144-4.734 4.763-4.734h11.26c2.62 0 4.763 2.13 4.763 4.734s-2.143 4.734-4.763 4.734"/>
            <path d="M942.287 181.278h-19.055c-2.62 0-4.764-2.13-4.764-4.733 0-2.604 2.144-4.734 4.764-4.734h19.055c2.62 0 4.763 2.13 4.763 4.734 0 2.603-2.144 4.733-4.763 4.733"/>
            <path d="M928.949 173.704h-3.811c-2.62 0-4.764-2.13-4.764-4.733 0-2.604 2.144-4.734 4.764-4.734h3.81c2.62 0 4.764 2.13 4.764 4.734 0 2.603-2.144 4.733-4.763 4.733"/>
            <path d="M931.807 169.917c-3.144 0-5.717-2.556-5.717-5.68 0-3.124 2.573-5.68 5.717-5.68 3.144 0 5.716 2.556 5.716 5.68 0 3.124-2.572 5.68-5.716 5.68"/>
            <path d="M939.029 172.605h-4.917c-2.315 0-4.21-1.883-4.21-4.184s1.895-4.184 4.21-4.184h4.917c2.316 0 4.21 1.883 4.21 4.184s-1.894 4.184-4.21 4.184"/>
            <path d="M930.494 172.605h-4.916c-2.316 0-4.211-1.883-4.211-4.184s1.895-4.184 4.21-4.184h4.917c2.316 0 4.211 1.883 4.211 4.184s-1.895 4.184-4.21 4.184"/>
        </g>
        <path fill="#318369" d="M919.465 188.935h1.56c-1.086-12.12-8.797-10.62-8.797-10.62 5.339-.38 6.851 5.89 7.237 10.62"/>
        <path fill="#318369" d="M917.985 188.935h.95c-1.215-5.544-5.13-4.563-5.13-4.563 2.572-.183 3.699 2.147 4.18 4.563"/>
        <path fill="#318369" d="M918.427 188.935h1.391c-1.135-10.328-7.796-8.926-7.796-8.926 4.559-.324 5.99 4.787 6.405 8.926"/>
        <path fill="#318369" d="M921.133 188.935c.415-4.14 1.846-9.25 6.405-8.926 0 0-6.662-1.402-7.797 8.926h1.392z"/>
        <path fill="#318369" d="M922.474 188.935c.46-3.125 1.725-6.49 5.064-6.254 0 0-4.982-1.115-6.187 6.254h1.123zM920.96 188.935c.43-7.926-1.454-18.542-1.454-18.542l1.228 18.542h.227z"/>
        <path fill="#FF8C45" d="M924.637 178.507a1.294 1.294 0 0 1 1.328.673c.26.495.163 1.08-.198 1.468a1.292 1.292 0 0 1-1.327-.673 1.276 1.276 0 0 1 .197-1.468"/>
        <path fill="#FF8C45" d="M925.69 180.568a1.298 1.298 0 0 1 1.475-.209c.5.255.76.79.69 1.313a1.297 1.297 0 0 1-1.476.21 1.28 1.28 0 0 1-.689-1.314M923.118 180.412a1.291 1.291 0 0 1 2.41.32c-.242.47-.762.761-1.32.688a1.287 1.287 0 0 1-1.09-1.008"/>
        <path fill="#FF8C45" d="M927.24 178.605a1.295 1.295 0 0 0-1.43.417 1.277 1.277 0 0 0-.08 1.479c.503.17 1.081.02 1.43-.417.348-.438.363-1.031.08-1.479M925.615 180.763a1.279 1.279 0 1 0-.736 2.303 1.278 1.278 0 1 0 .736-2.303"/>
        <path fill="#FFF1C2" d="M925.852 181.092h-.17a.362.362 0 0 1-.362-.36v-.169c0-.198.163-.36.362-.36h.17c.199 0 .362.162.362.36v.17c0 .197-.163.359-.362.359"/>
        <path fill="#FF8C45" d="M917.816 170.035a2.528 2.528 0 0 1 2.596 1.317c.51.967.32 2.113-.387 2.87a2.53 2.53 0 0 1-2.596-1.316 2.498 2.498 0 0 1 .387-2.87"/>
        <path fill="#FF8C45" d="M919.875 174.067a2.537 2.537 0 0 1 2.886-.408 2.505 2.505 0 0 1 1.348 2.568 2.537 2.537 0 0 1-2.887.409 2.506 2.506 0 0 1-1.347-2.569M914.842 173.762a2.528 2.528 0 0 1 4.717.625 2.529 2.529 0 0 1-4.717-.625"/>
        <path fill="#FF8C45" d="M922.906 170.227a2.535 2.535 0 0 0-2.796.816 2.497 2.497 0 0 0-.156 2.892c.985.334 2.115.04 2.797-.816.682-.857.71-2.017.155-2.892M919.729 174.448a2.523 2.523 0 0 0-2.325 1.747 2.5 2.5 0 0 0 .885 2.76 2.523 2.523 0 0 0 2.325-1.747 2.501 2.501 0 0 0-.885-2.76"/>
        <path fill="#FFF1C2" d="M920.192 175.092h-.334a.707.707 0 0 1-.707-.703v-.332c0-.387.318-.704.707-.704h.334c.389 0 .708.317.708.704v.332a.708.708 0 0 1-.708.703"/>
        <g>
            <path fill="#318369" d="M910.623 188.935h1.698c-1.02-13.771-9.594-11.983-9.594-11.983 5.968-.424 7.534 6.8 7.896 11.983"/>
            <path fill="#318369" d="M909.432 188.935h1.37c-1.144-10.096-7.678-8.728-7.678-8.728 4.468-.317 5.889 4.66 6.308 8.728M912.488 188.935c.447-3.447 1.769-7.332 5.479-7.07 0 0-5.488-1.152-6.682 7.07h1.203z"/>
            <path fill="#318369" d="M913.687 188.935c.48-2.498 1.622-4.94 4.28-4.751 0 0-4.012-.906-5.24 4.751h.96zM912.33 188.935c-.454-8.948-1.867-12.548-1.867-12.548l1.784 12.548h.084z"/>
            <path fill="#FF7797" d="M908.982 172.433a2.414 2.414 0 0 1 2.48 1.257 2.384 2.384 0 0 1-.37 2.741 2.414 2.414 0 0 1-2.478-1.257 2.384 2.384 0 0 1 .368-2.741"/>
            <path fill="#FF7797" d="M910.95 176.283a2.423 2.423 0 0 1 2.755-.39 2.391 2.391 0 0 1 1.287 2.453 2.422 2.422 0 0 1-2.756.39 2.391 2.391 0 0 1-1.287-2.453M906.143 175.992a2.415 2.415 0 0 1 2.465-1.286 2.404 2.404 0 0 1 2.039 1.883 2.414 2.414 0 0 1-4.504-.597"/>
            <path fill="#FF7797" d="M913.844 172.616a2.42 2.42 0 0 0-2.67.779 2.384 2.384 0 0 0-.15 2.762c.94.318 2.02.039 2.672-.779a2.385 2.385 0 0 0 .148-2.762M910.81 176.647a2.408 2.408 0 0 0-2.22 1.668c-.318.995.052 2.04.845 2.635a2.409 2.409 0 0 0 2.22-1.668 2.387 2.387 0 0 0-.845-2.635"/>
            <path fill="#FFF1C2" d="M911.252 177.262h-.319a.675.675 0 0 1-.675-.672v-.317c0-.369.304-.671.675-.671h.319c.372 0 .676.302.676.671v.317c0 .37-.304.672-.676.672"/>
        </g>
        <g>
            <path fill="#318369" d="M753.465 195.935h1.56c-1.086-12.12-8.797-10.62-8.797-10.62 5.339-.38 6.851 5.89 7.237 10.62"/>
            <path fill="#318369" d="M751.985 195.935h.95c-1.215-5.544-5.13-4.563-5.13-4.563 2.572-.183 3.699 2.147 4.18 4.563"/>
            <path fill="#318369" d="M752.427 195.935h1.391c-1.135-10.328-7.796-8.926-7.796-8.926 4.559-.324 5.99 4.787 6.405 8.926"/>
            <path fill="#318369" d="M755.133 195.935c.415-4.14 1.846-9.25 6.405-8.926 0 0-6.662-1.402-7.797 8.926h1.392z"/>
            <path fill="#318369" d="M756.474 195.935c.46-3.125 1.725-6.49 5.064-6.254 0 0-4.982-1.115-6.187 6.254h1.123zM754.96 195.935c.43-7.926-1.454-18.542-1.454-18.542l1.228 18.542h.227z"/>
            <path fill="#FF8C45" d="M758.637 185.507a1.294 1.294 0 0 1 1.328.673c.26.495.163 1.08-.198 1.468a1.292 1.292 0 0 1-1.327-.673 1.276 1.276 0 0 1 .197-1.468"/>
            <path fill="#FF8C45" d="M759.69 187.568a1.298 1.298 0 0 1 1.475-.209c.5.255.76.79.69 1.313a1.297 1.297 0 0 1-1.476.21 1.28 1.28 0 0 1-.689-1.314M757.118 187.412a1.291 1.291 0 0 1 2.41.32c-.242.47-.762.761-1.32.688a1.287 1.287 0 0 1-1.09-1.008"/>
            <path fill="#FF8C45" d="M761.24 185.605a1.295 1.295 0 0 0-1.43.417 1.277 1.277 0 0 0-.08 1.479c.503.17 1.081.02 1.43-.417.348-.438.363-1.031.08-1.479M759.615 187.763a1.279 1.279 0 1 0-.736 2.303 1.278 1.278 0 1 0 .736-2.303"/>
            <path fill="#FFF1C2" d="M759.852 188.092h-.17a.362.362 0 0 1-.362-.36v-.169c0-.198.163-.36.362-.36h.17c.199 0 .362.162.362.36v.17c0 .197-.163.359-.362.359"/>
            <path fill="#FF8C45" d="M751.816 177.035a2.528 2.528 0 0 1 2.596 1.317c.51.967.32 2.113-.387 2.87a2.53 2.53 0 0 1-2.596-1.316 2.498 2.498 0 0 1 .387-2.87"/>
            <path fill="#FF8C45" d="M753.875 181.067a2.537 2.537 0 0 1 2.886-.408 2.505 2.505 0 0 1 1.348 2.568 2.537 2.537 0 0 1-2.887.409 2.506 2.506 0 0 1-1.347-2.569M748.842 180.762a2.528 2.528 0 0 1 4.717.625 2.529 2.529 0 0 1-4.717-.625"/>
            <path fill="#FF8C45" d="M756.906 177.227a2.535 2.535 0 0 0-2.796.816 2.497 2.497 0 0 0-.156 2.892c.985.334 2.115.04 2.797-.816.682-.857.71-2.017.155-2.892M753.729 181.448a2.523 2.523 0 0 0-2.325 1.747 2.5 2.5 0 0 0 .885 2.76 2.523 2.523 0 0 0 2.325-1.747 2.501 2.501 0 0 0-.885-2.76"/>
            <path fill="#FFF1C2" d="M754.192 182.092h-.334a.707.707 0 0 1-.707-.703v-.332c0-.387.318-.704.707-.704h.334c.389 0 .708.317.708.704v.332a.708.708 0 0 1-.708.703"/>
        </g>
        <g>
            <path fill="#318369" d="M745.623 195.935h1.698c-1.02-13.771-9.594-11.983-9.594-11.983 5.968-.424 7.534 6.8 7.896 11.983"/>
            <path fill="#318369" d="M744.432 195.935h1.37c-1.144-10.096-7.678-8.728-7.678-8.728 4.468-.317 5.889 4.66 6.308 8.728M747.488 195.935c.447-3.447 1.769-7.332 5.479-7.07 0 0-5.488-1.152-6.682 7.07h1.203z"/>
            <path fill="#318369" d="M748.687 195.935c.48-2.498 1.622-4.94 4.28-4.751 0 0-4.012-.906-5.24 4.751h.96zM747.33 195.935c-.454-8.948-1.867-12.548-1.867-12.548l1.784 12.548h.084z"/>
            <path fill="#FF7797" d="M743.982 179.433a2.414 2.414 0 0 1 2.48 1.257 2.384 2.384 0 0 1-.37 2.741 2.414 2.414 0 0 1-2.478-1.257 2.384 2.384 0 0 1 .368-2.741"/>
            <path fill="#FF7797" d="M745.95 183.283a2.423 2.423 0 0 1 2.755-.39 2.391 2.391 0 0 1 1.287 2.453 2.422 2.422 0 0 1-2.756.39 2.391 2.391 0 0 1-1.287-2.453M741.143 182.992a2.415 2.415 0 0 1 2.465-1.286 2.404 2.404 0 0 1 2.039 1.883 2.414 2.414 0 0 1-4.504-.597"/>
            <path fill="#FF7797" d="M748.844 179.616a2.42 2.42 0 0 0-2.67.779 2.384 2.384 0 0 0-.15 2.762c.94.318 2.02.039 2.672-.779a2.385 2.385 0 0 0 .148-2.762M745.81 183.647a2.408 2.408 0 0 0-2.22 1.668c-.318.995.052 2.04.845 2.635a2.409 2.409 0 0 0 2.22-1.668 2.387 2.387 0 0 0-.845-2.635"/>
            <path fill="#FFF1C2" d="M746.252 184.262h-.319a.675.675 0 0 1-.675-.672v-.317c0-.369.304-.671.675-.671h.319c.372 0 .676.302.676.671v.317c0 .37-.304.672-.676.672"/>
        </g>
        <g>
            <path fill="#4A9D83" d="M763.755 188.939h1.464c-.896-11.762-8.236-10.226-8.236-10.226 5.103-.363 6.455 5.78 6.772 10.226"/>
            <path fill="#4A9D83" d="M762.412 188.939h.868c-1.077-5.348-4.825-4.575-4.825-4.575 2.512-.178 3.545 2.212 3.957 4.575"/>
            <path fill="#4A9D83" d="M762.794 188.939h1.303c-.958-9.973-7.307-8.646-7.307-8.646 4.372-.31 5.657 4.732 6.004 8.646"/>
            <path fill="#4A9D83" d="M765.264 188.939c.347-3.914 1.632-8.956 6.003-8.646 0 0-6.348-1.327-7.306 8.646h1.303z"/>
            <path fill="#4A9D83" d="M766.499 188.939c.39-3 1.54-6.382 4.768-6.153 0 0-4.79-1.081-5.82 6.153h1.052z"/>
            <path fill="#4A9D83" d="M765.466 188.939c.728-7.227-2.6-14.045-2.6-14.045l2.256 14.045h.344z"/>
            <path fill="#FED129" d="M759.206 169.896a3.002 3.002 0 0 1 3.081 1.563 2.963 2.963 0 0 1-.46 3.407 3.002 3.002 0 0 1-3.08-1.563 2.962 2.962 0 0 1 .459-3.407"/>
            <path fill="#FED129" d="M761.65 174.681a3.01 3.01 0 0 1 3.424-.485 2.974 2.974 0 0 1 1.6 3.049 3.013 3.013 0 0 1-3.425.485 2.974 2.974 0 0 1-1.599-3.049M755.677 174.32a3 3 0 0 1 5.598.74 3.001 3.001 0 0 1-5.598-.74"/>
            <path fill="#FED129" d="M765.247 170.124a3.01 3.01 0 0 0-3.32.968 2.963 2.963 0 0 0-.183 3.432 3.006 3.006 0 0 0 3.319-.968 2.962 2.962 0 0 0 .184-3.432M761.476 175.133a2.994 2.994 0 0 0-2.759 2.074 2.966 2.966 0 0 0 1.05 3.274 2.992 2.992 0 0 0 2.76-2.073 2.967 2.967 0 0 0-1.051-3.275"/>
            <path fill="#FFF1C2" d="M762.049 175.897h-.441a.817.817 0 0 1-.818-.812v-.439c0-.446.368-.812.818-.812h.44c.45 0 .818.366.818.812v.439a.817.817 0 0 1-.817.812"/>
        </g>
        <g>
            <path fill="#FED129" d="M966.465 166.335a2.387 2.387 0 0 1 2.45 1.242 2.356 2.356 0 0 1-.365 2.71 2.386 2.386 0 0 1-2.45-1.243 2.356 2.356 0 0 1 .365-2.709"/>
            <path fill="#FED129" d="M968.409 170.14c.714-.67 1.8-.856 2.723-.386a2.366 2.366 0 0 1 1.272 2.424c-.714.67-1.8.857-2.724.386a2.365 2.365 0 0 1-1.271-2.424M963.66 169.852a2.385 2.385 0 0 1 4.45.59 2.386 2.386 0 0 1-4.45-.59"/>
            <path fill="#FED129" d="M971.27 166.516a2.393 2.393 0 0 0-2.64.77 2.356 2.356 0 0 0-.147 2.73 2.391 2.391 0 0 0 2.64-.77 2.356 2.356 0 0 0 .147-2.73M968.27 170.5c-.98.031-1.88.666-2.193 1.648a2.359 2.359 0 0 0 .835 2.604 2.381 2.381 0 0 0 2.194-1.648 2.359 2.359 0 0 0-.835-2.605"/>
            <path fill="#FFF1C2" d="M968.708 171.107h-.315a.668.668 0 0 1-.668-.663v-.314c0-.365.3-.664.668-.664h.315c.367 0 .667.3.667.664v.314c0 .364-.3.663-.667.663"/>
            <path fill="#318369" d="M961.265 196.939h1.969c-.393-18.354-11.222-16.093-11.222-16.093 7.817-.554 9.12 10.216 9.253 16.093"/>
            <path fill="#318369" d="M960.895 196.939h1.213c-.75-9.734-6.828-8.464-6.828-8.464 4.224-.3 5.35 4.778 5.615 8.464"/>
            <path fill="#318369" d="M959.995 196.939h1.761c-.495-15.95-10.004-13.959-10.004-13.959 6.803-.483 8.076 8.644 8.243 13.959M963.802 196.939c.12-6.046 1.428-17.344 9.57-16.766 0 0-11.247-2.349-11.607 16.766h2.037z"/>
            <path fill="#318369" d="M965.292 196.939c.227-4.355 1.425-10.964 6.641-10.594 0 0-7.421-1.667-8.067 10.594h1.426z"/>
            <path fill="#FC78CB" d="M973.277 173.792a3.012 3.012 0 0 1 1.85 2.953 3.016 3.016 0 0 1-2.188 2.715 3.01 3.01 0 0 1-1.85-2.953 3.017 3.017 0 0 1 2.188-2.715"/>
            <path fill="#FC78CB" d="M972.883 179.208a3.039 3.039 0 0 1 3.223 1.356 2.996 2.996 0 0 1-.215 3.472 3.04 3.04 0 0 1-3.223-1.356 2.996 2.996 0 0 1 .215-3.472M967.895 175.796a3.048 3.048 0 0 1 3.495.203c1.03.82 1.378 2.17.968 3.343a3.047 3.047 0 0 1-3.495-.204 3 3 0 0 1-.968-3.342"/>
            <path fill="#FC78CB" d="M978.395 177.123a3.045 3.045 0 0 0-3.386-.883 3.015 3.015 0 0 0-1.963 2.88 3.045 3.045 0 0 0 3.386.883 3.013 3.013 0 0 0 1.963-2.88M972.494 179.51a3.047 3.047 0 0 0-3.48.366 3 3 0 0 0-.81 3.383c1.09.605 2.49.5 3.48-.366a3 3 0 0 0 .81-3.384"/>
            <path fill="#FFF1C2" d="M972.598 180.474l-.4-.24a.811.811 0 0 1-.278-1.114l.24-.397a.824.824 0 0 1 1.122-.277l.4.24c.384.23.51.731.278 1.114l-.24.397a.823.823 0 0 1-1.122.277"/>
            <path fill="#318369" d="M960.767 178.94s4.15 7.927 2.94 16.667"/>
            <path fill="#F85468" d="M956.19 171.567a3.684 3.684 0 0 1 3.781 1.918 3.638 3.638 0 0 1-.563 4.18 3.684 3.684 0 0 1-3.781-1.917 3.637 3.637 0 0 1 .563-4.18"/>
            <path fill="#F85468" d="M959.19 177.44a3.694 3.694 0 0 1 4.202-.596 3.649 3.649 0 0 1 1.962 3.741 3.694 3.694 0 0 1-4.202.595 3.648 3.648 0 0 1-1.962-3.74M951.86 176.995a3.681 3.681 0 0 1 3.759-1.96 3.667 3.667 0 0 1 3.11 2.87 3.682 3.682 0 0 1-3.759 1.96 3.666 3.666 0 0 1-3.11-2.87"/>
            <path fill="#F85468" d="M963.604 171.847a3.69 3.69 0 0 0-4.073 1.188 3.635 3.635 0 0 0-.227 4.212c1.434.486 3.08.06 4.073-1.188a3.635 3.635 0 0 0 .227-4.212M958.976 177.994a3.674 3.674 0 0 0-3.386 2.544 3.641 3.641 0 0 0 1.29 4.019 3.675 3.675 0 0 0 3.386-2.544 3.643 3.643 0 0 0-1.29-4.02"/>
            <path fill="#FFF1C2" d="M959.864 178.931h-.913a.816.816 0 0 1-.817-.811v-.907c0-.447.368-.813.817-.813h.913c.45 0 .817.366.817.813v.907a.816.816 0 0 1-.817.811"/>
        </g>
        <g>
            <path fill="#65961E" d="M992.041 195.769c.296-4.845 1.697-11.878 7.377-11.474 0 0-8.116-1.694-8.96 11.474h1.583z"/>
            <path fill="#65961E" d="M993.145 195.769c.35-3.843 1.626-8.746 5.903-8.442 0 0-6.217-1.3-7.184 8.442h1.281zM990.361 195.769h1.123c-1.02-7.993-6.263-6.897-6.263-6.897 3.568-.253 4.763 3.613 5.14 6.897"/>
            <path fill="#65961E" d="M989.263 195.769h.89c-1.067-5.592-4.932-4.737-4.932-4.737 2.585-.183 3.631 2.306 4.042 4.737M990.505 195.769l1.706-12s-1.344 3.446-1.752 12h.046z"/>
            <path fill="#FF8C45" d="M993.78 182.38a1.444 1.444 0 0 0-1.482.753 1.426 1.426 0 0 0 .22 1.638c.588.084 1.191-.2 1.482-.752a1.424 1.424 0 0 0-.22-1.638"/>
            <path fill="#FF8C45" d="M992.604 184.683a1.448 1.448 0 0 0-1.647-.234 1.43 1.43 0 0 0-.77 1.466c.433.405 1.09.519 1.648.234a1.43 1.43 0 0 0 .77-1.466M995.477 184.508a1.443 1.443 0 0 0-2.693.357c.272.525.852.851 1.474.769a1.437 1.437 0 0 0 1.219-1.126"/>
            <path fill="#FF8C45" d="M990.874 182.49a1.446 1.446 0 0 1 1.596.466c.39.49.405 1.151.09 1.651a1.448 1.448 0 0 1-1.598-.466 1.426 1.426 0 0 1-.088-1.65M992.688 184.9a1.44 1.44 0 0 1 1.327.997c.19.595-.032 1.22-.506 1.576a1.428 1.428 0 1 1-.822-2.573"/>
            <path fill="#FFF1C2" d="M992.423 185.267h.19c.224 0 .405-.18.405-.401v-.19a.403.403 0 0 0-.405-.4h-.19a.404.404 0 0 0-.404.4v.19c0 .22.182.401.404.401"/>
        </g>
        <g>
            <path fill="#318369" d="M982.257 195.769c.318-4.44 1.67-10.567 6.761-10.205 0 0-7.313-1.421-8.22 10.205h1.459z"/>
            <path fill="#318369" d="M983.6 195.769c.412-2.358 1.443-4.74 3.95-4.562 0 0-3.777-.93-4.833 4.562h.883z"/>
            <path fill="#318369" d="M983.217 195.769c.347-3.908 1.632-8.936 5.994-8.627 0 0-6.337-1.331-7.295 8.627h1.301z"/>
            <path fill="#318369" d="M980.75 195.769h1.3c-.957-9.958-7.294-8.627-7.294-8.627 4.362-.31 5.647 4.72 5.993 8.627"/>
            <path fill="#318369" d="M979.517 195.769h1.049c-1.032-7.204-5.81-6.138-5.81-6.138 3.22-.228 4.37 3.143 4.76 6.138M981.074 195.769l1.165-17.585s-1.804 10.17-1.336 17.585h.17z"/>
            <path fill="#FF7797" d="M977.458 185.743c-.49-.07-.993.166-1.237.627a1.19 1.19 0 0 0 .185 1.368c.49.07.993-.167 1.237-.627a1.189 1.189 0 0 0-.185-1.368"/>
            <path fill="#FF7797" d="M976.477 187.663a1.208 1.208 0 0 0-1.374-.194 1.194 1.194 0 0 0-.642 1.223c.361.338.909.432 1.375.195.466-.238.707-.736.641-1.224M978.874 187.518a1.205 1.205 0 0 0-1.229-.641 1.2 1.2 0 0 0-1.017.939 1.204 1.204 0 0 0 2.246-.298"/>
            <path fill="#FF7797" d="M975.034 185.835a1.206 1.206 0 0 1 1.332.388c.324.408.337.96.074 1.378a1.208 1.208 0 0 1-1.332-.389 1.19 1.19 0 0 1-.074-1.377M976.547 187.845a1.19 1.19 0 1 1 .686 2.146 1.192 1.192 0 1 1-.686-2.146"/>
            <path fill="#FFF1C2" d="M976.327 188.151h.159c.185 0 .336-.15.336-.334v-.159a.337.337 0 0 0-.336-.334h-.16a.337.337 0 0 0-.337.334v.159c0 .184.152.334.338.334"/>
            <path fill="#FF7797" d="M983.813 177.85a2.355 2.355 0 0 0-2.418 1.228 2.326 2.326 0 0 0 .36 2.674 2.356 2.356 0 0 0 2.419-1.227 2.326 2.326 0 0 0-.36-2.674"/>
            <path fill="#FF7797" d="M981.895 181.607a2.364 2.364 0 0 0-2.689-.38 2.334 2.334 0 0 0-1.255 2.393c.705.66 1.777.845 2.688.38a2.334 2.334 0 0 0 1.256-2.393M986.583 181.323a2.355 2.355 0 0 0-4.394.582 2.357 2.357 0 0 0 2.405 1.254 2.346 2.346 0 0 0 1.99-1.836"/>
            <path fill="#FF7797" d="M979.07 178.03a2.361 2.361 0 0 1 2.606.76c.636.798.661 1.879.145 2.694a2.36 2.36 0 0 1-2.605-.76 2.326 2.326 0 0 1-.145-2.694M982.03 181.962a2.351 2.351 0 0 1 2.167 1.628c.31.97-.051 1.99-.825 2.57a2.35 2.35 0 0 1-2.166-1.627 2.33 2.33 0 0 1 .825-2.571"/>
            <path fill="#FFF1C2" d="M981.6 182.562h.31a.659.659 0 0 0 .66-.655v-.31a.659.659 0 0 0-.66-.654h-.31a.659.659 0 0 0-.66.655v.309c0 .36.297.655.66.655"/>
        </g>
        <g>
            <path fill="#318369" d="M807.935 189.526h-1.414c.984-10.983 7.972-9.624 7.972-9.624-4.838-.344-6.209 5.337-6.558 9.624"/>
            <path fill="#318369" d="M809.276 189.526h-.861c1.101-5.024 4.649-4.135 4.649-4.135-2.331-.165-3.352 1.946-3.788 4.135"/>
            <path fill="#318369" d="M808.875 189.526h-1.262c1.03-9.36 7.067-8.09 7.067-8.09-4.132-.293-5.428 4.34-5.805 8.09"/>
            <path fill="#318369" d="M806.423 189.526c-.377-3.75-1.673-8.383-5.805-8.09 0 0 6.037-1.27 7.067 8.09h-1.262z"/>
            <path fill="#318369" d="M805.208 189.526c-.417-2.832-1.564-5.882-4.59-5.667 0 0 4.515-1.01 5.607 5.667h-1.017zM806.58 189.526c-.39-7.183 1.318-16.804 1.318-16.804l-1.114 16.804h-.205z"/>
            <path fill="#FF8C45" d="M803.247 180.076a1.17 1.17 0 0 0-1.203.61c-.236.448-.148.979.18 1.33a1.17 1.17 0 0 0 1.202-.61c.236-.448.149-.98-.18-1.33"/>
            <path fill="#FF8C45" d="M802.293 181.944a1.175 1.175 0 0 0-1.337-.19 1.162 1.162 0 0 0-.624 1.19c.35.33.884.42 1.337.19a1.16 1.16 0 0 0 .624-1.19M804.625 181.802a1.172 1.172 0 0 0-2.185.29 1.17 1.17 0 0 0 2.185-.29"/>
            <path fill="#FF8C45" d="M800.889 180.165c.455-.155.98-.02 1.295.377.316.397.328.935.072 1.34-.456.155-.979.02-1.295-.377a1.157 1.157 0 0 1-.072-1.34M802.361 182.12c.481.016.923.327 1.077.81.154.482-.026.99-.41 1.278a1.158 1.158 0 1 1-.666-2.088"/>
            <path fill="#FFF1C2" d="M802.146 182.418h.155c.18 0 .328-.147.328-.325v-.154a.328.328 0 0 0-.328-.326h-.155a.328.328 0 0 0-.328.326v.154c0 .178.148.325.328.325"/>
            <path fill="#FF8C45" d="M809.43 172.398a2.291 2.291 0 0 0-2.353 1.193 2.262 2.262 0 0 0 .35 2.602A2.292 2.292 0 0 0 809.78 175a2.263 2.263 0 0 0-.35-2.602"/>
            <path fill="#FF8C45" d="M807.563 176.052a2.3 2.3 0 0 0-2.616-.37 2.27 2.27 0 0 0-1.22 2.328c.685.643 1.729.822 2.615.37a2.27 2.27 0 0 0 1.221-2.328M812.124 175.776a2.291 2.291 0 0 0-4.274.566 2.291 2.291 0 0 0 4.274-.566"/>
            <path fill="#FF8C45" d="M804.815 172.572a2.298 2.298 0 0 1 2.535.739c.619.777.643 1.828.141 2.622a2.298 2.298 0 0 1-2.535-.74 2.263 2.263 0 0 1-.14-2.621M807.696 176.397c.942.03 1.805.64 2.106 1.583a2.265 2.265 0 0 1-.802 2.501 2.285 2.285 0 0 1-2.107-1.583 2.266 2.266 0 0 1 .803-2.5"/>
            <path fill="#FFF1C2" d="M807.276 176.98h.302a.64.64 0 0 0 .641-.637v-.3a.641.641 0 0 0-.64-.638h-.303a.641.641 0 0 0-.641.638v.3c0 .351.288.638.64.638"/>
        </g>
        <g>
            <path fill="#FF95D6" d="M992.061 96.637l-.474.534a1.528 1.528 0 0 1-2.142.131l-.536-.471a1.506 1.506 0 0 1-.133-2.129l.475-.533a1.528 1.528 0 0 1 2.142-.131l.536.471c.625.55.685 1.507.132 2.128"/>
            <path fill="#FF95D6" d="M989.435 94.805c-.48.54-.428 1.366.114 1.843a1.321 1.321 0 0 0 1.854-.114 1.3 1.3 0 0 0-.115-1.841 1.32 1.32 0 0 0-1.853.112m2.81 2.469a2.45 2.45 0 0 1-3.44.21 2.415 2.415 0 0 1-.212-3.418 2.45 2.45 0 0 1 3.44-.21 2.414 2.414 0 0 1 .212 3.418"/>
            <path fill="#FF95D6" d="M991.473 92.681l-1.079 1.844a2.188 2.188 0 0 1-2.972.783l-.887-.513a2.16 2.16 0 0 1-.788-2.954l1.079-1.844a2.188 2.188 0 0 1 2.972-.782l.888.512a2.16 2.16 0 0 1 .787 2.954"/>
            <path fill="#FF95D6" d="M987.299 90.381a2.141 2.141 0 0 0-.245.337l-.563.963a2.086 2.086 0 0 0-.214 1.601c.146.548.495 1.005.984 1.287.488.281 1.06.357 1.61.212a2.113 2.113 0 0 0 1.296-.977l.562-.963c.284-.485.36-1.053.214-1.6a2.1 2.1 0 0 0-.983-1.287 2.121 2.121 0 0 0-1.612-.212c-.412.108-.775.33-1.05.64m3.464 4.501c-.42.472-.972.812-1.602.978a3.246 3.246 0 0 1-2.465-.326 3.21 3.21 0 0 1-1.504-1.967 3.188 3.188 0 0 1 .328-2.449l.563-.962a3.265 3.265 0 0 1 4.443-1.169 3.21 3.21 0 0 1 1.504 1.966 3.19 3.19 0 0 1-.328 2.449l-.563.962c-.11.187-.235.36-.376.518"/>
            <path fill="#A1908B" d="M991.246 98.714l-.17.19a.547.547 0 0 1-.766.048l-5.64-4.954a.538.538 0 0 1-.046-.761l.17-.19a.547.547 0 0 1 .766-.048l5.64 4.953c.223.197.244.54.046.762"/>
            <path fill="#A1908B" d="M985.11 93.216l-.37.415a1.19 1.19 0 0 1-1.67.102l-.417-.367a1.172 1.172 0 0 1-.103-1.658l.37-.416a1.191 1.191 0 0 1 1.668-.102l.418.367c.488.428.534 1.175.103 1.659"/>
            <path fill="#A1908B" d="M983.413 91.623c-.45-.344-.906-.697-1.25-1.153-.176-.235-.354-.504-.408-.799-.115-.378.019-.647.405-.805.41.025.522.175.34.45-.274-.097-.392.336-.12.432.612.216.786-.494.584-.939-.234-.518-.853-.523-1.284-.217-.54.384-.45 1.107-.199 1.633.365.758 1.05 1.285 1.705 1.785.23.176.455-.213.227-.387M982.605 92.826c-.549.045-1.12.099-1.667.007a2.513 2.513 0 0 1-.753-.236c-.402-.16-.54-.485-.417-.976.302-.233.5-.201.595.097-.264.11-.148.543.12.432.983-.409-.496-1.9-1.144-.681-.332.623.044 1.208.618 1.515.806.43 1.771.361 2.648.29.288-.023.29-.472 0-.448"/>
        </g>
        <g>
            <path fill="#FE0" d="M814.16 13.122l-.634-.177c-.74-.206-1.17-.961-.957-1.678l.182-.616c.213-.716.992-1.134 1.73-.928l.636.177c.74.206 1.17.961.957 1.678l-.183.616c-.211.716-.991 1.134-1.73.928"/>
            <path stroke="#FFCB05" stroke-width=".72" d="M814.16 13.122l-.634-.177c-.74-.206-1.17-.961-.957-1.678l.182-.616c.213-.716.992-1.134 1.73-.928l.636.177c.74.206 1.17.961.957 1.678l-.183.616c-.211.716-.991 1.134-1.73.928z"/>
            <path fill="#FE0" d="M814.656 10.294c-.642-.178-1.314.182-1.498.804-.185.622.187 1.273.829 1.453.641.179 1.314-.182 1.498-.804.184-.622-.187-1.273-.829-1.453m-.956 3.222c-1.191-.332-1.881-1.542-1.538-2.696.343-1.154 1.59-1.823 2.78-1.49 1.192.33 1.882 1.54 1.54 2.695-.343 1.154-1.591 1.823-2.782 1.49"/>
            <path stroke="#FFCB05" stroke-width=".72" d="M814.656 10.294c-.642-.178-1.314.182-1.498.804-.185.622.187 1.273.829 1.453.641.179 1.314-.182 1.498-.804.184-.622-.187-1.273-.829-1.453zm-.956 3.222c-1.191-.332-1.881-1.542-1.538-2.696.343-1.154 1.59-1.823 2.78-1.49 1.192.33 1.882 1.54 1.54 2.695-.343 1.154-1.591 1.823-2.782 1.49z"/>
            <path fill="#FE0" d="M809.87 11.925l.635.178c.739.205 1.518-.212 1.731-.929l.183-.615c.212-.717-.218-1.472-.958-1.679l-.635-.176c-.74-.206-1.518.211-1.73.928l-.184.616c-.213.716.218 1.472.958 1.677"/>
            <path stroke="#FFCB05" stroke-width=".72" d="M809.87 11.925l.635.178c.739.205 1.518-.212 1.731-.929l.183-.615c.212-.717-.218-1.472-.958-1.679l-.635-.176c-.74-.206-1.518.211-1.73.928l-.184.616c-.213.716.218 1.472.958 1.677z"/>
            <path fill="#FE0" d="M811 9.275c-.641-.179-1.314.182-1.498.804-.185.621.187 1.273.828 1.452.642.179 1.315-.182 1.499-.803.185-.622-.187-1.274-.83-1.453m-.955 3.222c-1.191-.333-1.882-1.542-1.539-2.696.343-1.154 1.59-1.824 2.782-1.491 1.191.332 1.881 1.541 1.538 2.696-.342 1.154-1.59 1.823-2.78 1.49"/>
            <path stroke="#FFCB05" stroke-width=".72" d="M811 9.275c-.641-.179-1.314.182-1.498.804-.185.621.187 1.273.828 1.452.642.179 1.315-.182 1.499-.803.185-.622-.187-1.274-.83-1.453zm-.956 3.222c-1.191-.333-1.882-1.542-1.539-2.696.343-1.154 1.59-1.824 2.782-1.491 1.191.332 1.881 1.541 1.538 2.696-.342 1.154-1.59 1.823-2.78 1.49z"/>
            <path fill="#FE0" d="M817.243 11.12l-1.971-.16c-1.1-.088-1.925-1.031-1.833-2.097l.078-.914c.091-1.065 1.065-1.864 2.164-1.776l1.972.16c1.1.087 1.924 1.031 1.833 2.096l-.078.915c-.092 1.064-1.066 1.864-2.165 1.776"/>
            <path stroke="#FFCB05" stroke-width=".72" d="M817.243 11.12l-1.971-.16c-1.1-.088-1.925-1.031-1.833-2.097l.078-.914c.091-1.065 1.065-1.864 2.164-1.776l1.972.16c1.1.087 1.924 1.031 1.833 2.096l-.078.915c-.092 1.064-1.066 1.864-2.165 1.776z"/>
            <path fill="#FE0" d="M817.518 6.862a2.007 2.007 0 0 0-.379-.068l-1.03-.082a1.99 1.99 0 0 0-1.426.446 1.87 1.87 0 0 0-.69 1.29c-.042.503.121.994.46 1.383.341.388.813.625 1.333.667l1.029.083a1.984 1.984 0 0 0 1.426-.446 1.848 1.848 0 0 0 .229-2.673 1.953 1.953 0 0 0-.952-.6m-2.401 4.534a2.983 2.983 0 0 1-1.454-.916 2.822 2.822 0 0 1-.702-2.115c.066-.77.44-1.472 1.052-1.974a3.033 3.033 0 0 1 2.182-.68l1.03.082c1.647.133 2.874 1.539 2.739 3.135a2.859 2.859 0 0 1-1.053 1.974 3.04 3.04 0 0 1-2.182.68l-1.03-.082a3.105 3.105 0 0 1-.582-.104"/>
            <path stroke="#FFCB05" stroke-width=".72" d="M817.518 6.862a2.007 2.007 0 0 0-.379-.068l-1.03-.082a1.99 1.99 0 0 0-1.426.446 1.87 1.87 0 0 0-.69 1.29c-.042.503.121.994.46 1.383.341.388.813.625 1.333.667l1.029.083a1.984 1.984 0 0 0 1.426-.446 1.848 1.848 0 0 0 .229-2.673 1.953 1.953 0 0 0-.952-.6zm-2.401 4.534a2.983 2.983 0 0 1-1.454-.916 2.822 2.822 0 0 1-.702-2.115c.066-.77.44-1.472 1.052-1.974a3.033 3.033 0 0 1 2.182-.68l1.03.082c1.647.133 2.874 1.539 2.739 3.135a2.859 2.859 0 0 1-1.053 1.974 3.04 3.04 0 0 1-2.182.68l-1.03-.082a3.105 3.105 0 0 1-.582-.104z"/>
            <path fill="#FE0" d="M808.69 8.301l1.705.975c.95.542 2.186.234 2.746-.687l.48-.79c.56-.92.242-2.118-.708-2.662l-1.705-.974c-.95-.543-2.186-.234-2.745.687l-.481.79c-.56.921-.242 2.119.708 2.661"/>
            <path stroke="#FFCB05" stroke-width=".72" d="M808.69 8.301l1.705.975c.95.542 2.186.234 2.746-.687l.48-.79c.56-.92.242-2.118-.708-2.662l-1.705-.974c-.95-.543-2.186-.234-2.745.687l-.481.79c-.56.921-.242 2.119.708 2.661z"/>
            <path fill="#FE0" d="M810.9 4.64c-.84-.234-1.768.1-2.232.86a1.837 1.837 0 0 0-.206 1.44c.132.492.45.905.899 1.162l.89.508c.45.256.976.328 1.484.2.51-.127.935-.437 1.2-.872.264-.434.337-.945.206-1.438a1.89 1.89 0 0 0-.9-1.163l-.888-.508a2 2 0 0 0-.454-.19m-.48 5.126a3.014 3.014 0 0 1-.694-.29l-.89-.508a2.892 2.892 0 0 1-1.377-1.776 2.812 2.812 0 0 1 .317-2.202c.84-1.379 2.681-1.84 4.103-1.026l.89.51a2.897 2.897 0 0 1 1.377 1.775 2.81 2.81 0 0 1-.317 2.2 2.967 2.967 0 0 1-1.833 1.335 3.08 3.08 0 0 1-1.577-.018"/>
            <path stroke="#FFCB05" stroke-width=".72" d="M810.9 4.64c-.84-.234-1.768.1-2.232.86a1.837 1.837 0 0 0-.206 1.44c.132.492.45.905.899 1.162l.89.508c.45.256.976.328 1.484.2.51-.127.935-.437 1.2-.872.264-.434.337-.945.206-1.438a1.89 1.89 0 0 0-.9-1.163l-.888-.508a2 2 0 0 0-.454-.19zm-.482 5.125a3.014 3.014 0 0 1-.693-.29l-.89-.508a2.892 2.892 0 0 1-1.377-1.776 2.812 2.812 0 0 1 .317-2.202c.84-1.379 2.681-1.84 4.103-1.026l.89.51a2.897 2.897 0 0 1 1.377 1.775 2.81 2.81 0 0 1-.317 2.2 2.967 2.967 0 0 1-1.833 1.335 3.08 3.08 0 0 1-1.577-.018z"/>
            <path fill="#A1908B" d="M812.098 13.266l-.227-.063a.485.485 0 0 1-.343-.601l1.918-6.464a.506.506 0 0 1 .62-.333l.227.064a.485.485 0 0 1 .343.6l-1.919 6.464a.504.504 0 0 1-.619.333"/>
            <path fill="#A1908B" d="M814.277 6.19l-.496-.139c-.575-.16-.911-.749-.746-1.307l.143-.48c.166-.558.773-.884 1.35-.723l.493.138c.577.16.912.749.746 1.308l-.142.478c-.165.559-.772.884-1.348.724"/>
            <path fill="#A1908B" d="M814.388 4.022c.302-.946.59-1.963.189-2.925-.213-.512-.67-1.235-1.342-1.074-.525.126-1.056.745-.814 1.282.22.49.838.471 1.104.05.183-.289-.286-.553-.468-.265-.014-.491.194-.632.626-.423l.2.266c.2.308.299.623.335.982.066.677-.148 1.328-.352 1.967-.103.324.42.462.522.14M814.994 4.258c.111-.504.222-1.023.472-1.483.12-.22.271-.44.472-.599.125-.1.367-.215.534-.172.22.052.298.167.236.344.032.126-.012.213-.13.264-.035-.333-.577-.336-.542 0 .06.571.657.624 1.043.275.469-.425.264-1.027-.265-1.311-.594-.32-1.215.11-1.568.559-.45.573-.622 1.292-.775 1.984-.072.329.45.47.523.139"/>
        </g>
        <g>
            <path fill="#FF6953" d="M854.536 54.949l-.747.818a1.892 1.892 0 0 1-2.603.156l-.843-.724a1.755 1.755 0 0 1-.16-2.523l.745-.818a1.892 1.892 0 0 1 2.603-.156l.844.724c.76.65.832 1.786.16 2.523"/>
            <g transform="translate(848.692 50.772)">
                <mask id="b" fill="#fff">
                    <use xlink:href="#a"/>
                </mask>
                <path fill="#F7ACB4" d="M2.404 1.958c-.616.675-.55 1.71.146 2.307a1.725 1.725 0 0 0 2.379-.143c.616-.675.55-1.71-.146-2.306a1.725 1.725 0 0 0-2.38.142m3.608 3.09c-1.143 1.253-3.124 1.371-4.416.264a2.97 2.97 0 0 1-.272-4.28C2.465-.221 4.446-.34 5.738.768a2.97 2.97 0 0 1 .273 4.28" mask="url(#b)"/>
            </g>
            <path fill="#FF6953" d="M850.283 59.612l.746-.818c.67-.736.6-1.871-.16-2.522l-.845-.723a1.89 1.89 0 0 0-2.602.155l-.747.818c-.67.737-.6 1.872.16 2.523l.845.723a1.89 1.89 0 0 0 2.603-.156"/>
            <path fill="#F7ACB4" d="M847.589 56.576c-.615.675-.55 1.71.147 2.307a1.725 1.725 0 0 0 2.379-.143 1.6 1.6 0 0 0-.147-2.306 1.725 1.725 0 0 0-2.379.142m3.607 3.09c-1.142 1.253-3.123 1.371-4.415.264a2.971 2.971 0 0 1-.273-4.28c1.142-1.253 3.123-1.371 4.415-.264a2.97 2.97 0 0 1 .273 4.28"/>
            <path fill="#FF6953" d="M853.786 49.946l-1.534 2.558c-.73 1.219-2.355 1.635-3.611.927l-1.396-.786c-1.257-.707-1.687-2.283-.957-3.501l1.534-2.558c.73-1.217 2.356-1.635 3.612-.927l1.396.786c1.256.708 1.686 2.284.956 3.501"/>
            <path fill="#F7ACB4" d="M848.354 47.192c-.118.13-.224.27-.314.422l-.723 1.205a2.555 2.555 0 0 0-.274 2.005 2.635 2.635 0 0 0 1.263 1.61c.626.353 1.36.448 2.068.266a2.7 2.7 0 0 0 1.66-1.224l.723-1.204c.364-.608.462-1.32.275-2.005a2.635 2.635 0 0 0-1.262-1.61 2.786 2.786 0 0 0-2.068-.266c-.531.136-.996.414-1.348.8m4.445 5.637a4.165 4.165 0 0 1-2.056 1.224 4.26 4.26 0 0 1-3.163-.409 4.031 4.031 0 0 1-1.931-2.461 3.904 3.904 0 0 1 .421-3.066l.722-1.205c1.156-1.927 3.713-2.584 5.703-1.463a4.034 4.034 0 0 1 1.932 2.46 3.91 3.91 0 0 1-.423 3.066l-.722 1.205c-.14.234-.302.45-.483.649"/>
            <path fill="#FF6953" d="M844.823 58.89l2.53-1.657c1.203-.789 1.522-2.39.709-3.556l-.905-1.297c-.813-1.166-2.464-1.476-3.668-.688l-2.529 1.657c-1.204.79-1.524 2.39-.71 3.556l.904 1.297c.814 1.167 2.465 1.476 3.669.688"/>
            <path fill="#F7ACB4" d="M841.517 53.93a2.585 2.585 0 0 0-.217 3.232 2.714 2.714 0 0 0 1.743 1.112 2.777 2.777 0 0 0 2.045-.402l1.192-.78a2.625 2.625 0 0 0 1.146-1.69 2.562 2.562 0 0 0-.414-1.982 2.716 2.716 0 0 0-1.743-1.111 2.777 2.777 0 0 0-2.045.4l-1.191.781a2.707 2.707 0 0 0-.516.44m6.36 3.649c-.23.252-.495.478-.79.671l-1.192.78c-.919.604-2.029.823-3.126.616a4.153 4.153 0 0 1-2.665-1.701c-1.287-1.847-.785-4.367 1.121-5.613l1.19-.78a4.25 4.25 0 0 1 3.128-.617 4.152 4.152 0 0 1 2.664 1.702c.622.892.847 1.968.635 3.03a3.975 3.975 0 0 1-.965 1.912"/>
            <path fill="#A1908B" d="M853.445 57.596l-.267.294a.677.677 0 0 1-.93.055l-7.294-6.25a.627.627 0 0 1-.057-.902l.266-.292a.675.675 0 0 1 .93-.055l7.295 6.248a.628.628 0 0 1 .057.902"/>
            <path fill="#A1908B" d="M845.597 50.681l-.58.638a1.473 1.473 0 0 1-2.029.121l-.657-.564a1.368 1.368 0 0 1-.126-1.965l.582-.637a1.473 1.473 0 0 1 2.028-.121l.657.563c.593.507.65 1.392.125 1.965"/>
            <path fill="#A1908B" d="M842.748 49.398c-.956-.851-1.991-1.75-3.325-1.938-.77-.108-2.17-.071-2.391.857-.156.654.274 1.622 1.049 1.665.674.037 1.02-.624.67-1.143-.191-.285-.667-.02-.473.268-.831-.003-.933-.346-.304-1.031.088-.02.176-.042.263-.063.58-.22 1.364-.017 1.913.204.854.345 1.537.957 2.21 1.556.259.23.647-.143.388-.375"/>
            <g transform="translate(839.923 44.397)">
                <mask id="d" fill="#fff">
                    <use xlink:href="#c"/>
                </mask>
                <path fill="#A1908B" d="M3.437 4.362c-.58-.433-1.168-.876-1.609-1.447-.228-.297-.457-.635-.527-1.005-.15-.484.027-.826.53-1.028.554.039.7.236.437.592-.333-.114-.476.399-.146.513.775.266.987-.611.731-1.157C2.556.19 1.771.19 1.228.567.54 1.043.659 1.94.978 2.59c.465.947 1.346 1.607 2.182 2.23.28.209.553-.252.277-.458" mask="url(#d)"/>
            </g>
        </g>
        <g>
            <path fill="#6BC72A" d="M713.447 147.377l.89.96a.988.988 0 0 0 1.342.079l1.006-.849a.877.877 0 0 0 .083-1.277l-.89-.959a.986.986 0 0 0-1.341-.079l-1.008.848a.878.878 0 0 0-.082 1.277"/>
            <g transform="translate(713 144.717)">
                <mask id="f" fill="#fff">
                    <use xlink:href="#e"/>
                </mask>
                <path fill="#6BC72A" d="M1.355 1.306a1.047 1.047 0 0 0-.099 1.527 1.179 1.179 0 0 0 1.604.095c.47-.396.513-1.08.099-1.528a1.179 1.179 0 0 0-1.604-.094M.71.612c.872-.733 2.207-.655 2.976.175.77.83.688 2.1-.184 2.834-.87.734-2.205.655-2.976-.175-.769-.829-.687-2.1.184-2.834" mask="url(#f)"/>
            </g>
            <path fill="#6BC72A" d="M713.934 143.928l1.455 2.385c.377.616 1.215.828 1.862.47l1.666-.922c.648-.359.87-1.157.493-1.773l-1.456-2.385c-.376-.617-1.213-.827-1.86-.47l-1.667.923c-.647.358-.868 1.156-.493 1.772"/>
            <path fill="#6BC72A" d="M716.898 141.919a1.903 1.903 0 0 0-1.393.176 1.746 1.746 0 0 0-.85 1.067c-.127.453-.061.925.184 1.327l.487.798c.246.402.643.69 1.12.81.476.12.97.058 1.394-.176a1.75 1.75 0 0 0 .85-1.066c.127-.454.06-.926-.184-1.328l-.488-.798a1.798 1.798 0 0 0-1.12-.81m-2.413 3.833l-.487-.797a2.55 2.55 0 0 1-.284-2.03 2.678 2.678 0 0 1 1.302-1.63c1.34-.743 3.064-.308 3.843.969l.487.798c.376.615.477 1.337.285 2.03a2.678 2.678 0 0 1-1.303 1.63 2.914 2.914 0 0 1-2.132.27 2.817 2.817 0 0 1-1.386-.81 2.745 2.745 0 0 1-.325-.43"/>
            <path fill="#A1908B" d="M714.306 149.265l.318.343c.124.133.34.146.48.028l5.073-4.27a.314.314 0 0 0 .029-.457l-.318-.343a.352.352 0 0 0-.48-.028l-5.072 4.27a.315.315 0 0 0-.03.457"/>
            <path fill="#A1908B" d="M719.513 144.598l.695.747c.269.29.74.318 1.044.061l.785-.66a.684.684 0 0 0 .064-.995l-.693-.748a.768.768 0 0 0-1.045-.061l-.785.66a.684.684 0 0 0-.065.996"/>
            <path fill="#A1908B" d="M721.408 143.87c.577-.422 1.183-.867 1.505-1.509.238-.473.311-1.127-.203-1.466-.42-.278-1.022-.26-1.237.23-.189.426.01 1.081.61.878.34-.114.193-.632-.149-.516.018-.14.116-.212.295-.215.283.109.38.298.29.567-.043.233-.192.448-.339.634-.288.369-.676.656-1.056.935-.283.208-.003.673.284.463"/>
            <g transform="translate(721.25 142.574)">
                <mask id="h" fill="#fff">
                    <use xlink:href="#g"/>
                </mask>
                <path fill="#A1908B" d="M.616 2.356c.774.06 1.626.113 2.334-.253.537-.276.879-.81.566-1.368-.634-1.132-2.102.281-1.087.686.334.132.48-.386.15-.517a.471.471 0 0 1 .417.04c.088.354-.02.586-.33.697a2.152 2.152 0 0 1-.63.187c-.467.073-.952.028-1.42-.008-.36-.028-.359.508 0 .536" mask="url(#h)"/>
            </g>
        </g>
        <g>
            <path fill="#5D3009" d="M835.157 156.455h-3.7c-7.597 0-13.813-6.241-13.813-13.869V124.87c0-7.628 6.216-13.869 13.812-13.869h3.7c7.597 0 13.813 6.241 13.813 13.869v17.717c0 7.628-6.216 13.869-13.812 13.869z"/>
            <path fill="#FFD8C6" d="M839.392 149.556l.482.38c.991.777 2.436.599 3.21-.396l15.279-19.63a2.309 2.309 0 0 0-.394-3.222l-.483-.379a2.287 2.287 0 0 0-3.209.395L839 146.334a2.309 2.309 0 0 0 .393 3.222M827.453 149.556l-.482.38c-.991.777-2.436.599-3.21-.396l-15.279-19.63a2.309 2.309 0 0 1 .394-3.222l.483-.379a2.286 2.286 0 0 1 3.209.395l15.278 19.63a2.309 2.309 0 0 1-.393 3.222"/>
            <path fill="#FFC9B2" d="M834.838 141.817h-2.95c-6.055 0-11.01-4.975-11.01-11.054v-4.53c0-6.08 4.955-11.054 11.01-11.054h2.95c6.055 0 11.01 4.975 11.01 11.054v4.53c0 6.08-4.955 11.054-11.01 11.054"/>
            <path fill="#FFD8C6" d="M836.138 141.817h-2.602c-5.34 0-9.71-4.387-9.71-9.75v-5.572c0-5.362 4.37-9.75 9.71-9.75h2.602c5.34 0 9.71 4.388 9.71 9.75v5.573c0 5.362-4.37 9.75-9.71 9.75"/>
            <path fill="#2D1C27" d="M829.815 129.131h-.167a.625.625 0 0 1-.622-.625v-.167c0-.343.28-.625.622-.625h.167c.342 0 .622.282.622.625v.167c0 .344-.28.625-.622.625M836.852 129.131h-.167a.625.625 0 0 1-.622-.625v-.167c0-.343.28-.625.622-.625h.167c.342 0 .621.282.621.625v.167c0 .344-.279.625-.621.625"/>
            <path fill="#EB5B76" d="M827.646 132.485h-2.281c-.842 0-1.531-.692-1.531-1.537v-.411c0-.846.689-1.537 1.53-1.537h2.282c.841 0 1.53.691 1.53 1.537v.41c0 .846-.689 1.538-1.53 1.538M841.075 132.485h-2.281c-.841 0-1.53-.692-1.53-1.537v-.411c0-.846.689-1.537 1.53-1.537h2.281c.842 0 1.53.691 1.53 1.537v.41c0 .846-.688 1.538-1.53 1.538" opacity=".5"/>
            <path fill="#FF9FA8" d="M833.45 133.924a2.203 2.203 0 0 1-2.197-2.205.636.636 0 1 1 1.271 0c0 .512.416.929.926.929s.925-.417.925-.929a.636.636 0 1 1 1.27 0 2.203 2.203 0 0 1-2.195 2.205"/>
            <path fill="#74400A" d="M830.816 126.622h-.001zM843.712 123.861v-4.742c-2.147-3.01-5.733-4.906-9.96-4.906h-.834c-4 0-7.995 1.696-10.143 4.433v5.215c0 1.509 1.207 2.744 2.71 2.744a2.727 2.727 0 0 0 2.664-2.182c.257 1.246 1.356 2.199 2.67 2.199 1.502 0 2.729-1.235 2.729-2.744a2.745 2.745 0 0 0 2.732 2.744c1.296 0 2.366-.93 2.642-2.15.276 1.22 2.106 2.137 2.643 2.137v-.002c.537 0 2.147-1.237 2.147-2.746"/>
            <path fill="#FFC9B2" d="M830.375 144.6h6.149v-3.728h-6.149z"/>
            <path fill="#FFD8C6" d="M836.253 144.6h-3.795a.271.271 0 0 1-.27-.272v-3.185c0-.15.12-.272.27-.272h3.795c.15 0 .271.122.271.272v3.185c0 .15-.121.271-.27.271M837.209 199.334h.613a2.298 2.298 0 0 0 2.286-2.296v-24.913a2.297 2.297 0 0 0-2.286-2.295h-.613a2.298 2.298 0 0 0-2.287 2.295v24.913a2.298 2.298 0 0 0 2.287 2.296"/>
            <path fill="#D07E4F" d="M837.179 201.58h3.621c1.381 0 2.51-1.135 2.51-2.521v-.675c0-1.386-1.129-2.521-2.51-2.521h-3.621a2.523 2.523 0 0 0-2.511 2.52v.676c0 1.386 1.13 2.52 2.51 2.52"/>
            <path fill="#FFD8C6" d="M829.18 199.334h-.614a2.298 2.298 0 0 1-2.286-2.296v-24.913a2.298 2.298 0 0 1 2.286-2.295h.613a2.297 2.297 0 0 1 2.286 2.295v24.913a2.298 2.298 0 0 1-2.286 2.296"/>
            <path fill="#FFCF00" d="M834.922 192.667h5.185v-1.722h-5.185z"/>
            <path fill="#D07E4F" d="M834.922 192.359v4.372a2.606 2.606 0 0 0 2.593 2.603 2.605 2.605 0 0 0 2.593-2.603v-4.372h-5.186z"/>
            <path fill="#FFCF00" d="M826.28 192.667h5.185v-1.722h-5.185z"/>
            <path fill="#D07E4F" d="M826.28 192.359v4.372a2.606 2.606 0 0 0 2.593 2.603 2.605 2.605 0 0 0 2.592-2.603v-4.372h-5.185z"/>
            <path fill="#A673B9" d="M849.08 173.016v-.025c0-5.905-3.22-11.186-6.978-14.533v-5.634c0-5.07-3.76-8.424-8.81-8.424h-.02c-5.05 0-8.886 3.353-8.886 8.424v6.103c-3.758 3.353-6.442 8.41-6.442 14.04v.049c0 .088.424.12.425.312 0 0-1.199 4.05 14.037 4.05s16.187-4.05 16.187-4.05c.001-.193.487-.224.487-.312"/>
            <path fill="#D07E4F" d="M829.21 201.58h-3.623a2.523 2.523 0 0 1-2.51-2.521v-.675c0-1.386 1.13-2.521 2.51-2.521h3.622c1.38 0 2.51 1.135 2.51 2.52v.676c0 1.386-1.13 2.52-2.51 2.52"/>
            <path fill="#FFF" d="M828.768 143.881v.766a2.298 2.298 0 0 0 2.286 2.296 2.298 2.298 0 0 0 2.287-2.296v-.766h-4.573zM833.341 143.881v.766a2.298 2.298 0 0 0 2.288 2.296 2.298 2.298 0 0 0 2.287-2.296v-.766h-4.575z"/>
            <path fill="#FC78CB" d="M828.622 116.68a1.265 1.265 0 0 1-.14 2.379 1.263 1.263 0 0 1 .14-2.378"/>
            <path fill="#FC78CB" d="M828.458 118.953c.506-.11 1.05.101 1.338.569.289.468.236 1.05-.09 1.456-.506.111-1.05-.1-1.337-.568a1.268 1.268 0 0 1 .089-1.457M826.387 117.522a1.255 1.255 0 0 1 1.45.085c.429.344.573.91.403 1.402a1.255 1.255 0 0 1-1.451-.085 1.268 1.268 0 0 1-.402-1.402"/>
            <path fill="#FC78CB" d="M830.747 118.078a1.255 1.255 0 0 0-2.221.838 1.255 1.255 0 0 0 2.22-.838M828.297 119.08a1.255 1.255 0 0 0-1.445.153c-.412.363-.53.936-.337 1.42.453.254 1.034.21 1.446-.154.411-.364.528-.936.336-1.42"/>
            <path fill="#FFF1C2" d="M828.3 119.46l-.088-.053a.388.388 0 0 1-.13-.53l.052-.089a.386.386 0 0 1 .529-.131l.088.053c.181.11.24.349.13.53l-.052.09a.384.384 0 0 1-.528.13"/>
            <path fill="#FF8C45" d="M838.188 116.275a1.264 1.264 0 1 1 .108 2.38 1.263 1.263 0 0 1-.108-2.38"/>
            <path fill="#FF8C45" d="M838.262 118.553a1.255 1.255 0 0 1 1.39.425c.336.435.343 1.02.063 1.458a1.257 1.257 0 0 1-1.39-.425 1.27 1.27 0 0 1-.063-1.458M836.054 117.346c.41-.32.99-.364 1.451-.067.461.297.664.845.546 1.352-.41.32-.99.365-1.451.068a1.266 1.266 0 0 1-.546-1.353"/>
            <path fill="#FF8C45" d="M840.447 117.442a1.256 1.256 0 0 0-1.437-.22c-.49.246-.748.77-.684 1.287.374.361.946.467 1.436.22.49-.246.75-.77.685-1.287M838.115 118.695a1.254 1.254 0 0 0-1.421.305 1.267 1.267 0 0 0-.187 1.447c.477.205 1.05.1 1.421-.304.372-.405.43-.987.187-1.448"/>
            <path fill="#FFF1C2" d="M838.159 119.074l-.094-.044a.389.389 0 0 1-.186-.513l.045-.094a.385.385 0 0 1 .511-.186l.093.043c.192.09.275.322.186.513l-.044.094a.385.385 0 0 1-.511.187"/>
            <path fill="#FF8C45" d="M825.013 115.218a1.88 1.88 0 1 1 .161 3.537 1.88 1.88 0 1 1-.161-3.537"/>
            <path fill="#FF8C45" d="M825.122 118.603a1.868 1.868 0 0 1 2.067.631c.498.647.51 1.516.093 2.167a1.866 1.866 0 0 1-2.066-.631 1.885 1.885 0 0 1-.094-2.167M821.84 116.81a1.865 1.865 0 0 1 2.158-.1c.685.44.986 1.256.81 2.01a1.864 1.864 0 0 1-2.157.1 1.882 1.882 0 0 1-.811-2.01"/>
            <path fill="#FF8C45" d="M828.37 116.952a1.866 1.866 0 0 0-2.136-.327 1.88 1.88 0 0 0-1.017 1.913 1.864 1.864 0 0 0 2.135.327 1.88 1.88 0 0 0 1.018-1.913M824.903 118.814a1.867 1.867 0 0 0-2.112.453 1.884 1.884 0 0 0-.277 2.151c.708.305 1.56.149 2.112-.453a1.883 1.883 0 0 0 .277-2.15"/>
            <path fill="#FFF1C2" d="M824.969 119.377l-.14-.065a.576.576 0 0 1-.275-.763l.065-.139a.572.572 0 0 1 .76-.277l.138.065c.285.134.409.477.276.763l-.065.14a.572.572 0 0 1-.76.276"/>
            <path fill="#FED129" d="M845.06 114.135a1.561 1.561 0 0 1 1.607.824 1.574 1.574 0 0 1-.24 1.795 1.56 1.56 0 0 1-1.605-.823 1.575 1.575 0 0 1 .238-1.796"/>
            <path fill="#FED129" d="M846.335 116.657a1.558 1.558 0 0 1 1.786-.256c.605.312.92.966.834 1.607a1.558 1.558 0 0 1-1.786.255 1.571 1.571 0 0 1-.834-1.606M843.22 116.466a1.563 1.563 0 0 1 1.598-.842c.674.09 1.188.6 1.321 1.233a1.56 1.56 0 0 1-1.597.842 1.566 1.566 0 0 1-1.322-1.233"/>
            <path fill="#FED129" d="M848.211 114.255a1.56 1.56 0 0 0-1.731.51 1.575 1.575 0 0 0-.096 1.81 1.559 1.559 0 0 0 1.73-.511c.423-.536.44-1.262.097-1.809M846.244 116.895a1.564 1.564 0 0 0-1.438 1.092 1.573 1.573 0 0 0 .548 1.726 1.563 1.563 0 0 0 1.438-1.092 1.574 1.574 0 0 0-.548-1.726"/>
            <path fill="#FFF1C2" d="M846.492 117.297h-.128a.48.48 0 0 1-.477-.479v-.128a.48.48 0 0 1 .477-.48h.128a.48.48 0 0 1 .477.48v.128a.48.48 0 0 1-.477.48"/>
            <path fill="#8ECD4D" d="M845.592 120.787a2.631 2.631 0 0 0 2.272-.662 2.644 2.644 0 0 0-1.89-1.429 2.634 2.634 0 0 0-2.273.661 2.642 2.642 0 0 0 1.89 1.43M820.45 116.98c.66.562 1.513.744 2.298.566a2.658 2.658 0 0 0-.928-2.186 2.635 2.635 0 0 0-2.299-.567 2.66 2.66 0 0 0 .929 2.186M845.487 115.417a2.657 2.657 0 0 0 .83-2.225 2.636 2.636 0 0 0-2.272.668 2.66 2.66 0 0 0-.829 2.226 2.634 2.634 0 0 0 2.271-.669M818.148 120.277a2.634 2.634 0 0 0 2.274-.661 2.645 2.645 0 0 0-1.891-1.43 2.633 2.633 0 0 0-2.273.662 2.642 2.642 0 0 0 1.89 1.429M836.136 121.332c.435.214.923.195 1.324-.01a1.483 1.483 0 0 0-2.127-1.047c.084.443.368.843.803 1.057M830.164 117.93c.365.32.842.426 1.283.332.031-.45-.14-.91-.507-1.23a1.472 1.472 0 0 0-1.282-.33c-.032.45.14.91.506 1.228"/>
            <path fill="#F85468" d="M831.627 116.732a1.552 1.552 0 0 1 1.597.819 1.565 1.565 0 0 1-.238 1.785 1.552 1.552 0 0 1-1.597-.819 1.565 1.565 0 0 1 .238-1.785"/>
            <path fill="#F85468" d="M832.894 119.24a1.549 1.549 0 0 1 1.776-.255c.602.31.914.96.829 1.597a1.549 1.549 0 0 1-1.776.254 1.563 1.563 0 0 1-.829-1.597M829.797 119.05a1.552 1.552 0 0 1 1.588-.838c.67.09 1.182.597 1.314 1.226a1.552 1.552 0 0 1-1.588.837 1.554 1.554 0 0 1-1.314-1.225"/>
            <path fill="#F85468" d="M834.76 116.851a1.55 1.55 0 0 0-1.722.508 1.565 1.565 0 0 0-.096 1.798 1.55 1.55 0 0 0 1.721-.507c.42-.533.437-1.255.096-1.799M832.804 119.476a1.556 1.556 0 0 0-1.43 1.086 1.565 1.565 0 0 0 .544 1.716 1.556 1.556 0 0 0 1.43-1.086 1.564 1.564 0 0 0-.544-1.716"/>
            <path fill="#FFF1C2" d="M833.05 119.876h-.127a.477.477 0 0 1-.475-.476v-.128c0-.262.214-.477.475-.477h.127c.26 0 .474.215.474.477v.128a.477.477 0 0 1-.474.476"/>
            <path fill="#FF7797" d="M820.724 116.016a1.258 1.258 0 0 1 1.294.664c.255.487.16 1.064-.192 1.446a1.257 1.257 0 0 1-1.295-.663 1.27 1.27 0 0 1 .193-1.447"/>
            <path fill="#FF7797" d="M821.75 118.048a1.256 1.256 0 0 1 1.44-.206c.488.251.741.778.672 1.294a1.255 1.255 0 0 1-1.439.206 1.265 1.265 0 0 1-.672-1.294M819.241 117.894a1.257 1.257 0 0 1 2.352.315c-.236.463-.743.75-1.287.678a1.261 1.261 0 0 1-1.065-.993"/>
            <path fill="#FF7797" d="M823.262 116.113a1.256 1.256 0 0 0-1.394.41 1.268 1.268 0 0 0-.078 1.458c.49.168 1.055.02 1.394-.41.34-.433.355-1.017.078-1.458M821.678 118.24a1.259 1.259 0 0 0-1.16.88 1.266 1.266 0 0 0 .442 1.39 1.259 1.259 0 0 0 1.16-.88 1.267 1.267 0 0 0-.442-1.39"/>
            <path fill="#FFF1C2" d="M821.877 118.564h-.103a.386.386 0 0 1-.384-.386v-.104c0-.212.173-.386.384-.386h.103c.212 0 .385.174.385.386v.104a.386.386 0 0 1-.385.386"/>
            <path fill="#FF7797" d="M839.863 118.469a1.413 1.413 0 1 1 2.61-.556 1.413 1.413 0 1 1-2.61.556"/>
            <path fill="#FF7797" d="M842.367 117.97a1.427 1.427 0 0 1 .216-1.628 1.413 1.413 0 0 1 1.6-.337c.27.519.204 1.174-.216 1.628-.42.454-1.064.569-1.6.337M841.438 120.652a1.427 1.427 0 0 1-.34-1.606 1.416 1.416 0 0 1 1.395-.856c.428.398.584 1.037.34 1.606a1.416 1.416 0 0 1-1.395.856"/>
            <path fill="#FF7797" d="M840.74 115.737c-.331.483-.344 1.14.019 1.642.362.502.989.694 1.548.527.33-.482.343-1.14-.02-1.641a1.413 1.413 0 0 0-1.547-.528M842.552 118.107c-.14.57.08 1.19.597 1.529.515.34 1.17.297 1.634-.057a1.425 1.425 0 0 0-.597-1.529 1.411 1.411 0 0 0-1.634.057"/>
            <path fill="#FFF1C2" d="M842.962 117.99l-.031.111a.433.433 0 0 1-.533.301l-.112-.031a.436.436 0 0 1-.3-.536l.032-.112a.434.434 0 0 1 .533-.3l.111.03c.23.065.365.306.3.536"/>
            <path fill="#FED129" d="M834.288 119.516a.924.924 0 0 1 1.697-.4.924.924 0 0 1-1.697.4"/>
            <path fill="#FED129" d="M835.916 119.156a.932.932 0 0 1 .118-1.066.922.922 0 0 1 1.04-.242.93.93 0 0 1-.118 1.066.922.922 0 0 1-1.04.242M835.346 120.92a.934.934 0 0 1-.244-1.043.926.926 0 0 1 .9-.579.932.932 0 0 1 .244 1.044.925.925 0 0 1-.9.579"/>
            <path fill="#FED129" d="M834.823 117.72a.93.93 0 0 0 .035 1.072.924.924 0 0 0 1.018.324.93.93 0 0 0-.035-1.072.922.922 0 0 0-1.018-.323M836.038 119.243a.93.93 0 0 0 .412.99.92.92 0 0 0 1.066-.06.93.93 0 0 0-.411-.99.922.922 0 0 0-1.067.06"/>
            <path fill="#FFF1C2" d="M836.305 119.16l-.019.074a.283.283 0 0 1-.344.204l-.073-.02a.284.284 0 0 1-.203-.345l.019-.073a.283.283 0 0 1 .343-.204l.074.018c.15.04.241.196.203.347"/>
        </g>
        <g transform="translate(160 108)">
            <path fill="#CCC" d="M12.773 77.47c-1.432 0-2.596 1.178-2.596 2.627 0 1.449 1.164 2.627 2.596 2.627 1.431 0 2.596-1.178 2.596-2.627 0-1.449-1.165-2.627-2.596-2.627zm0 7.904c-2.876 0-5.215-2.367-5.215-5.277s2.34-5.277 5.215-5.277 5.215 2.367 5.215 5.277-2.34 5.277-5.215 5.277zM62.352 77.47c-1.432 0-2.597 1.178-2.597 2.627 0 1.449 1.165 2.627 2.597 2.627 1.431 0 2.596-1.178 2.596-2.627 0-1.449-1.165-2.627-2.596-2.627m0 7.904c-2.876 0-5.215-2.367-5.215-5.277s2.34-5.277 5.215-5.277 5.215 2.367 5.215 5.277-2.34 5.277-5.215 5.277"/>
            <path fill="#FBD2C6" d="M39.7 37.46L20.574 21.272c-.783-.663-.957-1.771-.385-2.463l.845-1.022c.571-.691 1.68-.715 2.464-.051l19.127 16.188c.784.663.957 1.771.385 2.463l-.844 1.022c-.572.691-1.68.715-2.464.051"/>
            <path fill="#ADB8DC" d="M39.81 41.267l-9.709-8.217a.7.7 0 0 1-.085-.974l4.339-5.25a.68.68 0 0 1 .963-.087l9.708 8.217a.699.699 0 0 1 .086.974l-4.34 5.25a.68.68 0 0 1-.962.087"/>
            <path fill="#FBD2C6" d="M35.563 90.4c-1.576 0-2.864-1.304-2.864-2.898V66.247c0-1.595 1.288-2.899 2.864-2.899 1.575 0 2.864 1.304 2.864 2.899v21.255c0 1.594-1.289 2.898-2.864 2.898"/>
            <path fill="#204188" d="M38.118 71.946l-5.977-3.955c-.453-.3-.581-.92-.285-1.377L39.9 54.16a.98.98 0 0 1 1.362-.288l5.977 3.954c.453.3.581.92.285 1.378L39.48 71.657a.98.98 0 0 1-1.36.289"/>
            <path fill="#4C4C4C" d="M62.837 71.5c-4.792 0-8.69 3.945-8.69 8.794 0 4.85 3.898 8.794 8.69 8.794s8.69-3.945 8.69-8.794-3.898-8.794-8.69-8.794m0 21.882c-7.132 0-12.934-5.871-12.934-13.088 0-7.216 5.802-13.088 12.934-13.088s12.934 5.872 12.934 13.088c0 7.217-5.802 13.088-12.934 13.088M12.934 71.715c-4.792 0-8.69 3.945-8.69 8.794s3.898 8.794 8.69 8.794 8.69-3.945 8.69-8.794-3.898-8.794-8.69-8.794m0 21.882C5.802 93.597 0 87.726 0 80.509c0-7.217 5.802-13.088 12.934-13.088s12.934 5.871 12.934 13.088c0 7.217-5.802 13.088-12.934 13.088"/>
            <path fill="#FFCC05" d="M52.373 70.028l6.086 8.21H47.894l4.479-8.21zm11.966 8.78l-9.717-13.11.728-1.336a2.16 2.16 0 0 0-.832-2.917c-1.026-.573-2.316-.093-2.883.946l-8.588 15.848h-5.944L24.67 60.922l3.292-6.719c.045-.094.081-.205.114-.305.34-1.011 1.048-1.897 1.297-1.897h5.058c1.172 0 2.122-.473 2.122-1.659s-.95-1.659-2.122-1.659h-5.058c-3.383 0-4.932 3.22-5.268 4.161l-13.23 26.525c-.524 1.06-.098 2.234.95 2.764.304.154.628.169.946.169.779 0 1.528-.451 1.9-1.203l7.875-15.966 11.77 16.487c.4.552 1.035 1.143 1.711 1.143h26.411c.31 0 .602-.287.866-.407.215-.072.42-.288.61-.432.938-.712 1.128-2.167.425-3.115z"/>
            <path fill="#818181" d="M43.097 66.743H57.99c1.512 0 2.75-1.253 2.75-2.783s-1.238-2.783-2.75-2.783H43.097c-1.513 0-2.75 1.253-2.75 2.783s1.237 2.783 2.75 2.783"/>
            <path fill="#FBD2C6" d="M53.845 90.883c1.576 0 2.864-1.305 2.864-2.899V60.932c0-1.594-1.288-2.898-2.864-2.898-1.575 0-2.864 1.304-2.864 2.898v27.052c0 1.594 1.289 2.899 2.864 2.899"/>
            <path fill="#2651A3" d="M52.163 47.778H47.4c-4.331 0-8.298 3.118-8.298 7.5v.018c0 4.382 3.967 8.467 8.298 8.467h2.73v6.366c0 .408.287 1.173.69 1.173h5.951c.402 0 .81-.765.81-1.173v-9.058c1.192-1.458 2.494-3.539 2.494-5.84l-.02.258c0-4.383-3.563-7.71-7.893-7.71"/>
            <path fill="#2651A3" d="M57.288 72.474H50.67a1 1 0 0 1-.99-1.003V58.558a1 1 0 0 1 .99-1.002h6.618a1 1 0 0 1 .99 1.002v12.913a1 1 0 0 1-.99 1.003"/>
            <mask id="j" fill="#fff">
                <use xlink:href="#i"/>
            </mask>
            <path fill="#FAC5B3" d="M46.957 35.13h6.102v-6.18h-6.102z" mask="url(#j)"/>
            <path fill="#FBD2C6" d="M47.267 35.13h3.683c.172 0 .31-.317.31-.708V29.66c0-.391-.138-.708-.31-.708h-3.683c-.171 0-.31.317-.31.708v4.763c0 .391.139.708.31.708" mask="url(#j)"/>
            <path fill="#A4AFD3" d="M50.132 32.7h-2.205c-5.578 0-9.718 4.952-9.718 10.115V55.276c0 1.985 1.33 4.566 3.475 4.566H56.374c2.145 0 3.294-2.581 3.294-4.566V42.815c0-5.163-3.958-10.116-9.536-10.116" mask="url(#j)"/>
            <path fill="#A47F42" d="M50.895 28.951h-1.311c-6.764 0-12.298-6.02-12.298-13.378 0-7.358 5.534-13.378 12.298-13.378h1.311c6.764 0 12.298 6.02 12.298 13.378 0 7.358-5.534 13.378-12.298 13.378" mask="url(#j)"/>
            <path fill="#FAC5B3" d="M49.928 31.287c-6.432 0-11.695-5.325-11.695-11.834v-1.48c0-6.508 5.263-11.834 11.695-11.834s11.695 5.326 11.695 11.835v1.479c0 6.509-5.263 11.834-11.695 11.834" mask="url(#j)"/>
            <path fill="#FBD2C6" d="M49.48 31.273c5.577-.288 10.188-4.993 10.188-10.703v-1.34c0-5.895-4.904-10.717-10.73-10.717-5.825 0-10.729 4.822-10.729 10.717v.223c0 6.318 5.097 11.521 11.272 11.82" mask="url(#j)"/>
            <path fill="#2D1C27" d="M45.238 19.2a.611.611 0 0 1-.605-.613c0-.337.272-.613.605-.613.333 0 .606.276.606.613a.611.611 0 0 1-.606.612M52.78 19.2a.611.611 0 0 1-.605-.613c0-.337.273-.613.606-.613.333 0 .605.276.605.613a.611.611 0 0 1-.605.612" mask="url(#j)"/>
            <path fill="#EA5C76" d="M57.42 22.001h-1.393c-.711 0-1.293-.588-1.293-1.308 0-.72.582-1.308 1.293-1.308h1.394c.71 0 1.292.589 1.292 1.308 0 .72-.581 1.308-1.292 1.308" mask="url(#j)" opacity=".5"/>
            <path fill="#FBD2C6" d="M38.134 20.529c-1.083 0-1.968-.896-1.968-1.992s.885-1.992 1.968-1.992 1.968.896 1.968 1.992-.885 1.992-1.968 1.992" mask="url(#j)"/>
            <path fill="#FAC5B3" d="M61.623 20.529c-1.082 0-1.968-.896-1.968-1.992s.886-1.992 1.968-1.992c1.083 0 1.969.896 1.969 1.992s-.886 1.992-1.969 1.992" mask="url(#j)"/>
            <path fill="#F59AA7" d="M52.004 21.306c0 1.521-1.23 2.766-2.734 2.766-1.503 0-2.733-1.245-2.733-2.766" mask="url(#j)"/>
            <path fill="#A47F42" d="M48.086 4.139h-.612a.622.622 0 0 1-.388.1c-.924-.044-1.81.075-2.591.608-.786.535-1.472 1.327-2.131 2.011-1.483 1.538-2.86 3.186-4.062 4.958a.676.676 0 0 1-.428.295v.654c0 1.424 1.094 2.59 2.503 2.59 1.23 0 2.237-.883 2.478-2.06.24 1.177 1.26 2.076 2.492 2.076 1.407 0 2.552-1.166 2.552-2.59 0 1.424 1.149 2.59 2.557 2.59 1.214 0 2.157-.877 2.415-2.03.258 1.153 1.311 2.018 2.415 2.018v-.002c1.839 0 2.33-1.168 2.33-2.592V8.288c-2.33-2.842-5.57-4.15-9.53-4.15M62.236 13.982c-.26-.896-.17-1.797-.231-2.715-.063-.943-.407-1.873-.82-2.714-.442-.897-1.05-1.63-1.678-2.353a10.263 10.263 0 0 0-1.891 1.641v4.924c0 1.424 1.094 2.59 2.502 2.59.927 0 1.725-.502 2.166-1.252a.716.716 0 0 1-.048-.121" mask="url(#j)"/>
            <path fill="#A47F42" d="M55.838 9.722h-1.104c-1.517 0-2.759-1.256-2.759-2.792 0-1.535 1.242-2.791 2.76-2.791h1.103c1.517 0 2.759 1.256 2.759 2.791 0 1.536-1.242 2.792-2.76 2.792" mask="url(#j)"/>
            <path fill="#EA5C76" d="M41.667 22.001h-1.394c-.71 0-1.292-.588-1.292-1.308 0-.72.581-1.308 1.292-1.308h1.394c.711 0 1.293.589 1.293 1.308 0 .72-.582 1.308-1.293 1.308" mask="url(#j)" opacity=".5"/>
            <path fill="#FBD2C6" d="M19.014 21.141l-1.226-.907c-1.435-1.062-1.75-3.119-.7-4.57a3.216 3.216 0 0 1 4.516-.71l1.226.908c1.434 1.062 1.75 3.119.7 4.57a3.216 3.216 0 0 1-4.516.71M34.137 52.828l-1.514.127c-1.772.15-3.342-1.195-3.49-2.987-.147-1.792 1.182-3.381 2.953-3.53l1.514-.128c1.772-.15 3.342 1.195 3.49 2.987.147 1.793-1.182 3.382-2.953 3.53" mask="url(#j)"/>
            <path fill="#FBD2C6" d="M48.297 52.09h-12.71c-1.236 0-2.248-1.024-2.248-2.275 0-1.25 1.012-2.273 2.248-2.273h12.71c1.236 0 2.247 1.023 2.247 2.273 0 1.25-1.011 2.274-2.247 2.274" mask="url(#j)"/>
            <path fill="#FBD2C6" d="M47.304 48.21l8.987-9.094a2.235 2.235 0 0 1 3.178 0 2.3 2.3 0 0 1 0 3.216l-8.988 9.094a2.235 2.235 0 0 1-3.177 0 2.3 2.3 0 0 1 0-3.216" mask="url(#j)"/>
            <path fill="#ADB8DC" d="M58.123 44.73l-6.427 5.961a.406.406 0 0 1-.577-.025l-5.26-5.807a.417.417 0 0 1 .025-.583l6.428-5.961a.406.406 0 0 1 .576.025l5.26 5.806c.152.168.14.43-.025.583" mask="url(#j)"/>
            <path fill="#ADB8DC" d="M59.795 43.179l-3.67 3.403a4.276 4.276 0 0 1-6.074-.268c-1.598-1.764-1.48-4.53.264-6.147l3.669-3.403a4.277 4.277 0 0 1 6.075.268c1.598 1.764 1.48 4.53-.264 6.147" mask="url(#j)"/>
            <path fill="#E02329" d="M57.169 94.36c0-2.622-2.12-4.767-4.712-4.767H50.26c-2.591 0-4.711 2.145-4.711 4.767" mask="url(#j)"/>
            <path fill="#E02329" d="M57.169 94.36v-6.233a.969.969 0 0 0-.96-.971h-4.78a.969.969 0 0 0-.96.971v6.233" mask="url(#j)"/>
            <path fill="#FFF" d="M45.777 94.784H56.94c.127 0 .23-.104.23-.233v-.63a.231.231 0 0 0-.23-.232H45.777a.231.231 0 0 0-.23.233v.63c0 .128.103.232.23.232" mask="url(#j)"/>
            <path fill="#F9AC39" d="M55.025 89.27l.497 1.02 1.111.163-.804.794.19 1.12-.994-.528-.995.529.19-1.121-.805-.794 1.112-.163z" mask="url(#j)"/>
            <path fill="#E02329" d="M38.468 92.979c0-2.622-2.12-4.768-4.711-4.768h-2.2c-2.59 0-4.71 2.146-4.71 4.768" mask="url(#j)"/>
            <path fill="#E02329" d="M38.468 92.979v-6.233a.969.969 0 0 0-.96-.971h-4.78a.968.968 0 0 0-.96.97v6.234" mask="url(#j)"/>
            <path fill="#FFF" d="M27.076 93.403h11.162c.127 0 .23-.105.23-.233v-.63a.231.231 0 0 0-.23-.232H27.076a.231.231 0 0 0-.23.232v.63c0 .128.103.233.23.233" mask="url(#j)"/>
            <path fill="#F9AC39" d="M36.324 87.89l.497 1.019 1.112.163-.805.794.19 1.12-.994-.529-.995.53.19-1.121-.804-.794 1.112-.163z" mask="url(#j)"/>
        </g>
        <g>
            <path fill="#BB7746" d="M25.452 181.982H19.56v-1.126h5.893z"/>
            <g transform="matrix(-1 0 0 1 80 159.27)">
                <path fill="#86452F" d="M79.648 27.005c0 1.4-1.105 2.533-2.467 2.533-1.363 0-2.468-1.134-2.468-2.533 0-1.4 1.105-2.534 2.468-2.534 1.362 0 2.467 1.135 2.467 2.534z"/>
                <path fill="#460E04" d="M77.703 27.005a.53.53 0 0 0-.522-.537.53.53 0 0 0-.523.537c0 .296.234.536.523.536a.53.53 0 0 0 .522-.536"/>
                <path fill="#86452F" d="M64.776 27.005c0-1.4-1.104-2.534-2.466-2.534-1.363 0-2.468 1.135-2.468 2.534 0 1.4 1.105 2.533 2.468 2.533 1.362 0 2.466-1.134 2.466-2.533"/>
                <path fill="#460E04" d="M62.832 27.005a.53.53 0 0 0-.522-.537.53.53 0 0 0-.524.537.53.53 0 0 0 .524.536.53.53 0 0 0 .522-.536"/>
                <g transform="translate(59.326 8.77)">
                    <mask id="l" fill="#fff">
                        <use xlink:href="#k"/>
                    </mask>
                    <path fill="#3FAA98" d="M20.596 13.678c0 1.152-.918 2.094-2.04 2.094H2.281c-1.121 0-2.039-.942-2.039-2.094V2.525C.242 1.373 1.16.43 2.282.43h16.274c1.122 0 2.04.943 2.04 2.095v11.153z" mask="url(#l)"/>
                </g>
                <mask id="n" fill="#fff">
                    <use xlink:href="#m"/>
                </mask>
                <path fill="#922041" d="M59.568 25.105h20.354v-3.449H59.568z" mask="url(#n)"/>
                <path fill="#F5F1D6" d="M65.393 16.395c0 1.152-.88 2.094-1.953 2.094-1.074 0-1.953-.942-1.953-2.094v-1.863c0-1.153.879-2.095 1.953-2.095s1.953.942 1.953 2.095v1.863zM71.698 16.395c0 1.152-.879 2.094-1.954 2.094-1.073 0-1.952-.942-1.952-2.094v-1.863c0-1.153.88-2.095 1.952-2.095 1.075 0 1.954.942 1.954 2.095v1.863zM78.003 16.395c0 1.152-.879 2.094-1.953 2.094s-1.953-.942-1.953-2.094v-1.863c0-1.153.879-2.095 1.953-2.095s1.953.942 1.953 2.095v1.863z" mask="url(#n)"/>
                <path fill="#BB7746" d="M31.521 22.712h5.894v-1.126H31.52z" mask="url(#n)"/>
                <path fill="#86452F" d="M9.163 13.95h1.732V7.926H9.163z" mask="url(#n)"/>
                <path fill="#BB7746" d="M12.907 8.126c0 .935-.738 1.693-1.648 1.693h-2.46c-.91 0-1.648-.758-1.648-1.693 0-.934.739-1.692 1.649-1.692h2.459c.91 0 1.648.758 1.648 1.692" mask="url(#n)"/>
                <path fill="#3FAA98" d="M5.755 22.73L0 27.605h9.945l.224-4.303z" mask="url(#n)"/>
                <path fill="#F5F1D6" d="M3.198 26.783a.209.209 0 0 1-.3-.021.222.222 0 0 1 .02-.309l2.502-2.245a.21.21 0 0 1 .301.021.223.223 0 0 1-.02.31l-2.503 2.244zM5.05 26.783a.209.209 0 0 1-.3-.02.223.223 0 0 1 .02-.31l1.729-1.55a.21.21 0 0 1 .302.02.224.224 0 0 1-.02.31l-1.73 1.55zM6.99 26.783a.208.208 0 0 1-.301-.021.222.222 0 0 1 .02-.309l.953-.856a.21.21 0 0 1 .302.02.225.225 0 0 1-.02.31l-.955.856z" mask="url(#n)"/>
                <path fill="#922041" d="M32.137 19.158c0 3.673-2.899 6.65-6.475 6.65H9.625c-3.577 0-6.476-2.977-6.476-6.65 0-3.673 2.899-6.651 6.476-6.651h16.037c3.576 0 6.475 2.978 6.475 6.65" mask="url(#n)"/>
                <path fill="#DF574B" d="M3.149 19.158c0 2.955 1.878 5.46 4.475 6.325.595-1.786.94-3.893.94-6.149 0-2.39-.387-4.613-1.048-6.464-2.54.899-4.367 3.374-4.367 6.288" mask="url(#n)"/>
                <path fill="#E50C3F" d="M3.149 19.158c0 2.172 1.015 4.1 2.582 5.314.41-1.55.64-3.294.64-5.138 0-1.96-.261-3.805-.719-5.426a6.704 6.704 0 0 0-2.503 5.25" mask="url(#n)"/>
                <path fill="#D03459" d="M18.146 25.597h14.255V2.021H18.146z" mask="url(#n)"/>
                <path fill="#F5F1D6" d="M21.781 15.885h6.984V5.54H21.78z" mask="url(#n)"/>
                <path fill="#3FAA98" d="M33.531 2.02c0 1.012-.797 1.83-1.782 1.83H18.797c-.985 0-1.782-.818-1.782-1.83 0-1.01.797-1.829 1.782-1.829H31.75c.985 0 1.782.82 1.782 1.83" mask="url(#n)"/>
                <path fill="#86452F" d="M33.303 23.556c0-3.303-2.608-5.982-5.825-5.982s-5.825 2.679-5.825 5.982c0 3.304 2.608 5.982 5.825 5.982s5.825-2.678 5.825-5.982" mask="url(#n)"/>
                <path fill="#460E04" d="M28.711 23.556c0-.7-.552-1.267-1.233-1.267s-1.234.568-1.234 1.267c0 .7.553 1.267 1.234 1.267.681 0 1.233-.567 1.233-1.267" mask="url(#n)"/>
                <path fill="#86452F" d="M19.734 27.005c0-1.4-1.105-2.534-2.467-2.534-1.363 0-2.467 1.135-2.467 2.534 0 1.4 1.104 2.533 2.467 2.533 1.362 0 2.467-1.134 2.467-2.533" mask="url(#n)"/>
                <path fill="#460E04" d="M17.789 27.005a.53.53 0 0 0-.522-.537.53.53 0 0 0-.523.537.53.53 0 0 0 .523.536.53.53 0 0 0 .522-.536" mask="url(#n)"/>
                <path fill="#86452F" d="M13.292 27.005c0-1.4-1.105-2.534-2.467-2.534-1.363 0-2.468 1.135-2.468 2.534 0 1.4 1.105 2.533 2.468 2.533 1.362 0 2.467-1.134 2.467-2.533" mask="url(#n)"/>
                <path fill="#460E04" d="M11.347 27.005a.53.53 0 0 0-.522-.537.53.53 0 0 0-.523.537.53.53 0 0 0 .523.536.53.53 0 0 0 .522-.536" mask="url(#n)"/>
                <path fill="#86452F" d="M56.621 27.005c0-1.4-1.105-2.534-2.467-2.534s-2.468 1.135-2.468 2.534c0 1.4 1.106 2.533 2.468 2.533 1.362 0 2.467-1.134 2.467-2.533" mask="url(#n)"/>
                <path fill="#460E04" d="M54.676 27.005a.53.53 0 0 0-.522-.537.53.53 0 0 0-.522.537.53.53 0 0 0 .522.536.53.53 0 0 0 .522-.536" mask="url(#n)"/>
                <path fill="#86452F" d="M41.75 27.005c0-1.4-1.105-2.534-2.468-2.534-1.362 0-2.467 1.135-2.467 2.534 0 1.4 1.105 2.533 2.467 2.533 1.363 0 2.467-1.134 2.467-2.533" mask="url(#n)"/>
                <path fill="#460E04" d="M39.805 27.005a.53.53 0 0 0-.523-.537.528.528 0 0 0-.521.537c0 .296.232.536.521.536a.53.53 0 0 0 .523-.536" mask="url(#n)"/>
                <path fill="#DF574B" d="M56.895 22.447c0 1.152-.918 2.095-2.04 2.095H38.581c-1.122 0-2.04-.943-2.04-2.095V11.294c0-1.152.918-2.095 2.04-2.095h16.274c1.122 0 2.04.943 2.04 2.095v11.153z" mask="url(#n)"/>
                <path fill="#922041" d="M36.54 25.105h20.355v-3.449H36.541z" mask="url(#n)"/>
                <path fill="#F5F1D6" d="M42.367 16.395c0 1.152-.88 2.094-1.954 2.094-1.074 0-1.953-.942-1.953-2.094v-1.863c0-1.153.88-2.095 1.953-2.095 1.074 0 1.954.942 1.954 2.095v1.863zM48.671 16.395c0 1.152-.879 2.094-1.953 2.094s-1.953-.942-1.953-2.094v-1.863c0-1.153.879-2.095 1.953-2.095s1.953.942 1.953 2.095v1.863zM54.976 16.395c0 1.152-.878 2.094-1.954 2.094-1.073 0-1.952-.942-1.952-2.094v-1.863c0-1.153.879-2.095 1.952-2.095 1.076 0 1.954.942 1.954 2.095v1.863z" mask="url(#n)"/>
            </g>
        </g>
        <g>
            <path fill="#BFBFBF" d="M89.163 33.936c.037-.96.087-1.507.088-1.512l-.606-.064c-.002.023-.052.567-.09 1.546l.608.03zm-.027 3.037c-.01-.55-.011-1.058-.007-1.52l-.608-.011c-.004.467-.003.98.007 1.535l.608-.004zm.122 3.037a67.659 67.659 0 0 1-.08-1.518l-.607.018c.02.488.046 1 .08 1.532l.607-.032zm.262 3.03a70.897 70.897 0 0 1-.149-1.514l-.606.047c.044.495.093 1.004.15 1.526l.605-.06zm.402 3.013c-.08-.51-.153-1.012-.219-1.505l-.602.074c.066.498.139 1.005.22 1.52l.601-.09zm.545 2.992a62.994 62.994 0 0 1-.29-1.493l-.6.103c.091.497.189 1 .294 1.507l.596-.117zm.695 2.96c-.126-.48-.25-.976-.367-1.476l-.592.133c.118.505.243 1.007.37 1.492l.589-.15zm.852 2.918c-.152-.471-.302-.96-.446-1.453l-.584.165c.146.5.298.993.452 1.47l.578-.182zm1.018 2.864c-.183-.47-.361-.95-.53-1.425l-.573.2c.17.48.352.965.537 1.441l.566-.216zm1.193 2.795c-.212-.455-.42-.922-.619-1.388l-.559.234c.202.472.412.946.627 1.407l.55-.253zm1.373 2.71c-.242-.439-.48-.89-.71-1.343l-.541.271c.232.459.474.917.72 1.363l.531-.29zm1.561 2.605a41.52 41.52 0 0 1-.804-1.288l-.52.31c.265.443.54.883.816 1.307l.508-.329zm1.752 2.48c-.305-.398-.608-.81-.9-1.223l-.495.349c.296.42.604.838.913 1.242l.482-.368zm1.939 2.334c-.336-.373-.67-.759-.994-1.148l-.465.387c.328.395.668.788 1.01 1.167l.449-.406zm2.122 2.168c-.366-.344-.73-.702-1.083-1.062l-.432.424c.359.367.73.73 1.102 1.08l.413-.442zm2.295 1.984c-.397-.316-.79-.641-1.168-.968l-.394.46c.384.332.784.663 1.187.984l.375-.476zm2.45 1.786a37.82 37.82 0 0 1-1.243-.868l-.355.492c.408.297.834.594 1.265.882l.333-.506zm2.588 1.579a37.796 37.796 0 0 1-1.31-.764l-.312.52c.435.265.882.526 1.33.776l.292-.532zm2.703 1.37c-.458-.21-.917-.432-1.365-.659l-.27.544c.456.23.922.455 1.386.669l.249-.554zm2.797 1.163a41.99 41.99 0 0 1-1.409-.556l-.228.563c.47.195.951.385 1.43.564l.207-.57zm2.873.964a45.41 45.41 0 0 1-1.445-.457l-.187.578c.482.161.974.317 1.464.463l.168-.584zm20.759-14.054c.21-.455.473-.85.78-1.176l-.443-.421a4.99 4.99 0 0 0-.89 1.335l.553.262zm3.295-2.779a3.627 3.627 0 0 0-1.62.252l.233.565a3.034 3.034 0 0 1 1.353-.21l.034-.607zm-21.127 17.64c-.482-.122-.97-.251-1.468-.389l-.155.588c.5.138.994.27 1.48.392l.143-.59zM138.873 70.5c-.004-.5.039-.99.128-1.454l-.597-.122a7.982 7.982 0 0 0-.14 1.575h.61zm6.803-4.377a6.135 6.135 0 0 0-1.373-.83l-.236.558c.43.187.846.438 1.235.748l.374-.476zM124.56 83.214c-.485-.1-.979-.207-1.48-.323l-.131.593c.507.118 1.006.226 1.495.327l.116-.597zm14.843-9.827a9.174 9.174 0 0 1-.387-1.425l-.598.105c.095.51.233 1.022.413 1.52l.572-.2zm-11.86 10.357a53.17 53.17 0 0 1-1.495-.244l-.1.6a52.04 52.04 0 0 0 1.512.247l.082-.603zM147.68 68.57a8.615 8.615 0 0 0-.875-1.322l-.471.38c.3.371.573.784.812 1.227l.534-.285zm-6.876 7.421a10.554 10.554 0 0 1-.797-1.253l-.534.286c.245.454.53.9.844 1.326l.487-.359zm-10.26 8.097c-.49-.039-.996-.089-1.503-.147l-.063.606c.514.059 1.027.11 1.525.149l.042-.608zm18.163-12.55a10.44 10.44 0 0 0-.396-1.521l-.575.193c.16.462.284.944.373 1.432l.598-.103zm-15.15 12.666a33.94 33.94 0 0 1-1.507-.026l-.017.609c.52.02 1.035.029 1.534.026l-.01-.61zm9.31-6.07c-.39-.318-.76-.657-1.1-1.008l-.435.422c.357.37.746.725 1.155 1.057l.38-.472zm5.939-3.469c.06-.516.083-1.043.066-1.565l-.607.013c.015.492-.006.988-.063 1.475l.604.077zm-12.252 9.364c-.482.056-.985.099-1.494.128l.04.608c.521-.029 1.036-.073 1.53-.13l-.076-.606zm2.938-.546c-.467.124-.958.234-1.457.326l.116.6c.514-.096 1.02-.208 1.503-.336l-.162-.59zm8.484-5.811c.214-.473.392-.968.53-1.47l-.586-.168c-.13.472-.297.937-.498 1.382l.554.256zm-2.6 2.083a15.153 15.153 0 0 1-1.298-.747l-.325.513c.427.274.881.535 1.35.776l.273-.542zm-3.095 2.713c-.434.209-.895.402-1.368.573l.212.574c.493-.179.972-.38 1.424-.597l-.268-.55zm3.994-2.193c.349-.388.668-.803.95-1.235l-.509-.338a9.738 9.738 0 0 1-.895 1.162l.454.41zm-1.119 1.079l-.392-.47-.13.106a11.43 11.43 0 0 1-1.061.761l.33.516c.39-.248.767-.518 1.116-.801l.137-.112zm2.995-.467a19.25 19.25 0 0 1-1.412-.509l-.223.565c.469.19.959.367 1.457.525l.178-.58zm2.92.715c-.502-.09-.997-.194-1.472-.31l-.138.593c.487.119.995.225 1.509.318l.1-.6zm2.988.372a31.092 31.092 0 0 1-1.499-.147l-.068.605c.498.062 1.012.112 1.53.15l.037-.608zm3.013.093c-.504.005-1.012 0-1.508-.015l-.011.61c.504.014 1.02.02 1.531.014l-.012-.61zm3.025-.125c-.234.01-.469.024-.706.04-.273.016-.543.03-.81.043l.034.609c.27-.012.544-.028.82-.045.235-.015.466-.027.697-.038l-.035-.61zm3.063-.027a38.71 38.71 0 0 0-1.533-.016l.012.61c.505-.005 1.012 0 1.508.016l.013-.61zm3.06.227a33.49 33.49 0 0 0-1.529-.148l-.038.608c.507.037 1.011.086 1.5.145l.067-.605zm3.031.515c-.495-.11-1.003-.21-1.51-.295l-.095.6c.496.085.994.182 1.48.29l.125-.595zm2.966.841a26.932 26.932 0 0 0-1.472-.463l-.159.587c.486.137.97.29 1.438.452l.193-.576zm2.849 1.197a23.328 23.328 0 0 0-1.406-.645l-.23.563c.466.195.926.405 1.37.627l.266-.545zm2.668 1.572a21.484 21.484 0 0 0-1.307-.833l-.304.525c.432.254.859.526 1.27.81l.34-.502zm2.416 1.949c-.375-.352-.77-.696-1.172-1.02l-.378.473c.39.315.773.648 1.136.99l.414-.443zm2.092 2.294a20.69 20.69 0 0 0-1.002-1.188l-.446.41a19.963 19.963 0 0 1 .971 1.15l.477-.372zm1.716 2.585c-.253-.45-.524-.896-.808-1.324l-.506.333c.276.416.54.848.784 1.285l.53-.294zm1.31 2.809a21.765 21.765 0 0 0-.604-1.428l-.551.253c.211.453.408.92.586 1.387l.568-.212zm.902 2.96a23.388 23.388 0 0 0-.401-1.495l-.581.172c.144.477.276.966.39 1.455l.592-.132zm.51 3.045a25.736 25.736 0 0 0-.208-1.53l-.6.095c.082.49.15.992.203 1.492l.605-.057zm.145 3.079a28.025 28.025 0 0 0-.03-1.54l-.607.021c.023.495.033 1.002.029 1.507l.608.012zm-.186 3.07c.057-.51.101-1.026.132-1.532l-.607-.044c-.03.495-.074 1-.13 1.5l.605.075zm-.485 3.03c.104-.504.198-1.011.277-1.509l-.6-.103c-.079.488-.17.986-.273 1.481l.596.13zm-.755 2.97c.147-.489.284-.986.409-1.476l-.59-.157a35.84 35.84 0 0 1-.401 1.452l.582.181zm-.994 2.894c.184-.473.36-.957.526-1.437l-.576-.204c-.162.472-.336.949-.516 1.414l.566.227zm-1.21 2.806c.222-.466.433-.934.63-1.392l-.558-.247c-.194.452-.403.913-.621 1.372l.55.267zm-1.403 2.71c.25-.444.494-.895.725-1.343l-.54-.285c-.229.44-.47.887-.716 1.325l.531.304zm-1.383 2.31c.21-.33.415-.66.615-.991l-.52-.32c-.198.326-.401.652-.609.979l.514.331z"/>
            <path fill="#EB561E" d="M92.849 28.822l6.091 7.526s.458 1.376-1.975.743c-2.433-.632-5.778-.816-5.778-.816l1.662-7.453zM83.954 28.739l-6.07 7.412s-.455 1.367 1.977.78 5.776-.708 5.776-.708l-1.683-7.484zM90.135 35.449s2.94 2.81 2.778 5.887l-8.698-.02s1.07-7.901 5.92-5.867"/>
            <path fill="#E4F5F9" d="M90.37 21.523c-.768.6-1.711-.606-.942-1.206.767-.6 1.711.605.942 1.206"/>
            <path fill="#6191FF" d="M92.675 13.274l1.524 2.504s.871 13.294.03 21.288l-11.706-.11s.116-18.845 2.4-23.754c2.282-4.91 7.752.072 7.752.072"/>
            <path fill="#EB561E" d="M94.199 15.777l-10.224-.298s1.623-6.691 4.966-7.727c2.11-.653 5.254 5.638 5.258 8.025"/>
            <path fill="#5B6EB1" d="M84.884 21.178c.003 2.217 1.798 4.031 4.01 4.052a3.957 3.957 0 0 0 3.997-3.977c-.003-2.217-1.798-4.03-4.01-4.052a3.958 3.958 0 0 0-3.997 3.977"/>
            <path fill="#ECF4FF" d="M88.891 24.01a2.758 2.758 0 0 0 2.784-2.768 2.83 2.83 0 0 0-2.791-2.821A2.758 2.758 0 0 0 86.1 21.19a2.83 2.83 0 0 0 2.791 2.82"/>
        </g>
    </g>
</svg>
