<svg xmlns="http://www.w3.org/2000/svg" xmlns:xlink="http://www.w3.org/1999/xlink" width="1046" height="247" viewBox="0 0 1046 247">
    <defs>
        <path id="a" d="M27.633 44.942a1.953 1.953 0 0 1-1.943 1.842 1.95 1.95 0 0 1-1.922-1.645 1.95 1.95 0 0 1-1.921 1.645 1.953 1.953 0 0 1-1.944-1.842h-.006a1.952 1.952 0 0 1-1.943 1.842 1.953 1.953 0 0 1-1.943-1.842h-.007a1.952 1.952 0 0 1-1.943 1.842 1.953 1.953 0 0 1-1.943-1.842h-.007a1.952 1.952 0 0 1-1.943 1.842 1.952 1.952 0 0 1-1.943-1.842h-.007a1.952 1.952 0 0 1-1.942 1.842 1.952 1.952 0 0 1-1.944-1.842h-.006a1.953 1.953 0 0 1-1.944 1.842A1.952 1.952 0 0 1 .44 44.942H.436v-.082a2.013 2.013 0 0 1 0-.071v-33.17C.436 5.583 4.65.643 9.8.643h12.367c5.15 0 9.363 4.94 9.363 10.978v33.322h-.003a1.953 1.953 0 0 1-1.944 1.842 1.952 1.952 0 0 1-1.942-1.842h-.007z"/>
        <path id="c" d="M0 17.295V.527h56.698v16.768H0z"/>
    </defs>
    <g fill="none" fill-rule="evenodd">
        <circle cx="304" cy="101" r="6" stroke="#E2E8FF" stroke-width="3"/>
        <circle cx="1038" cy="191" r="6" stroke="#E2E8FF" stroke-width="3"/>
        <circle cx="30" cy="146" r="6" stroke="#E2E8FF" stroke-width="3"/>
        <circle cx="293" cy="169" r="6" stroke="#E2E8FF" stroke-width="3"/>
        <circle cx="877" cy="48" r="6" stroke="#E2E8FF" stroke-width="3"/>
        <path fill="#9A9A9A" d="M908.066 146.393H897.94c-2.384 0-4.334-1.964-4.334-4.364s1.95-4.363 4.334-4.363h10.125c2.384 0 4.335 1.963 4.335 4.363 0 2.4-1.95 4.364-4.334 4.364z"/>
        <path fill="#FFD4BD" d="M880.966 169.857l-7.299 11.933c-.146.027-.292.06-.438.107-1.91.606-2.97 2.656-2.369 4.578.602 1.923 2.638 2.99 4.547 2.385a3.646 3.646 0 0 0 2.516-3.105l9.28-12.93c.567-.827.547-2.307.2-3.18a2.863 2.863 0 0 0-.773-1.19"/>
        <path fill="#FFD4BD" d="M882.224 175.831c-1.634-.575-2.503-2.394-1.93-4.039l6.282-18.062c.573-1.645 2.377-2.52 4.01-1.944 1.635.576 2.503 2.394 1.932 4.038l-6.284 18.063c-.571 1.645-2.376 2.52-4.01 1.944"/>
        <path fill="#FFD8C6" d="M878.822 186.151c0 2.111-1.567 3.823-3.498 3.823-1.932 0-3.497-1.712-3.497-3.823 0-2.111 1.565-3.823 3.497-3.823 1.931 0 3.498 1.712 3.498 3.823"/>
        <path fill="#937C6D" d="M865.642 142.475s14.938 11.429 13.071 42.365l-6.552.076s.356-15.92-6.519-26.936"/>
        <path fill="#FFD4BD" d="M862.131 241.463h4.7v-10.255h-4.7z"/>
        <path fill="#3B5777" d="M864.473 235.714c-3.094 0-5.625-2.549-5.625-5.663v-69.533c0-3.115 2.531-5.663 5.625-5.663 3.093 0 5.625 2.548 5.625 5.663v69.533c0 3.114-2.532 5.663-5.625 5.663"/>
        <path fill="#9DA1A7" d="M861.738 246.211c0-2.35 1.91-4.273 4.244-4.273h1.98c2.334 0 4.244 1.923 4.244 4.273"/>
        <path fill="#9DA1A7" d="M861.738 246.211v-5.586a.87.87 0 0 1 .865-.87h4.306a.87.87 0 0 1 .865.87v5.586"/>
        <path fill="#9DA1A7" d="M871.72 246.59h-9.494a.49.49 0 0 1 0-.98h9.493c.27 0 .487.22.487.49 0 .271-.218.49-.487.49"/>
        <path fill="#FFD4BD" d="M848.63 241.463h4.7v-10.255h-4.7z"/>
        <path fill="#3B5777" d="M850.362 236.344c3.093 0 5.625-2.549 5.625-5.664v-69.533c0-3.115-2.532-5.664-5.625-5.664s-5.625 2.55-5.625 5.664v69.533c0 3.115 2.532 5.664 5.625 5.664"/>
        <path fill="#9DA1A7" d="M853.722 246.211c0-2.35-1.91-4.273-4.243-4.273h-1.981c-2.334 0-4.244 1.923-4.244 4.273"/>
        <path fill="#9DA1A7" d="M853.722 246.211v-5.586a.87.87 0 0 0-.865-.87h-4.305a.87.87 0 0 0-.865.87v5.586"/>
        <path fill="#9DA1A7" d="M843.742 246.59h9.493c.27 0 .487-.219.487-.49a.49.49 0 0 0-.487-.49h-9.493a.49.49 0 0 0-.488.49c0 .271.218.49.488.49"/>
        <path fill="#3B5777" d="M857.138 191.386c7.243 0 13.114-5.913 13.114-13.204v-1.42c0-7.294-5.871-13.206-13.114-13.206s-13.115 5.912-13.115 13.206v1.42c0 7.291 5.872 13.204 13.115 13.204"/>
        <path fill="#FED6C4" d="M837.473 111.916a1.036 1.036 0 0 0 1.386-.479l2.898-5.965a1.051 1.051 0 0 0-.475-1.396 1.036 1.036 0 0 0-1.386.48l-2.898 5.965a1.05 1.05 0 0 0 .475 1.395"/>
        <path fill="#FED6C4" d="M830.12 114.372l4.642 2.287a1.588 1.588 0 0 0 2.127-.735l2.478-5.101a1.61 1.61 0 0 0-.73-2.141l-4.643-2.287a1.59 1.59 0 0 0-2.126.734l-2.479 5.102a1.61 1.61 0 0 0 .73 2.141"/>
        <path fill="#FED6C4" d="M836.333 109.614a1.035 1.035 0 0 0 1.385-.479l2.898-5.965a1.05 1.05 0 0 0-.475-1.395 1.036 1.036 0 0 0-1.386.479l-2.898 5.965a1.049 1.049 0 0 0 .476 1.395"/>
        <path fill="#FED6C4" d="M834.273 109.203a1.036 1.036 0 0 0 1.386-.479l2.897-5.965a1.049 1.049 0 0 0-.475-1.395 1.034 1.034 0 0 0-1.385.479l-2.898 5.965a1.05 1.05 0 0 0 .475 1.395"/>
        <path fill="#FED6C4" d="M831.558 110.14a1.036 1.036 0 0 0 1.386-.478l2.898-5.966a1.05 1.05 0 0 0-.475-1.395 1.036 1.036 0 0 0-1.386.479l-2.898 5.965a1.05 1.05 0 0 0 .475 1.396M834.2 114.35a1.346 1.346 0 0 0 1.791.648l5.407-2.564c.67-.318.96-1.129.644-1.803a1.345 1.345 0 0 0-1.79-.648l-5.408 2.563c-.669.318-.959 1.13-.643 1.804"/>
        <path fill="#A18775" d="M835.117 146.713c-8.286-2.476-12.313-5.488-12.985-9.658-1.111-6.874 5.152-20.84 6.42-23.568l7.72 3.631c-3.003 6.478-5.971 15.086-5.765 18.236 1.712 1.854 10.507 4.527 18.892 5.706l-1.178 8.497c-.23-.032-5.71-.811-11.4-2.359-.587-.16-1.155-.32-1.704-.485"/>
        <path fill="#FF7C53" d="M891.88 245.722c-2.325 0-4.217-1.905-4.217-4.246v-1.684c0-2.342 1.892-4.247 4.218-4.247 2.325 0 4.217 1.905 4.217 4.247v1.684c0 2.341-1.892 4.246-4.217 4.246"/>
        <path fill="#FF7C53" d="M891.88 234.913c-2.671 0-4.845 2.189-4.845 4.879v1.684c0 2.69 2.174 4.879 4.846 4.879 2.671 0 4.845-2.189 4.845-4.879v-1.684c0-2.69-2.174-4.88-4.845-4.88m0 1.266c1.974 0 3.589 1.626 3.589 3.614v1.684c0 1.988-1.615 3.614-3.59 3.614-1.974 0-3.589-1.626-3.589-3.614v-1.684c0-1.988 1.615-3.614 3.59-3.614"/>
        <path fill="#FFD4BD" d="M891.872 242.78c-1.672 0-3.04-1.378-3.04-3.062V187.19c0-1.685 1.368-3.062 3.04-3.062 1.673 0 3.042 1.377 3.042 3.062v52.527c0 1.684-1.37 3.061-3.042 3.061"/>
        <path fill="#C64C26" d="M893.202 243.954h-2.68a2.117 2.117 0 0 1-2.103-2.118c0-1.166.946-2.118 2.104-2.118h2.68c1.157 0 2.103.952 2.103 2.118a2.117 2.117 0 0 1-2.104 2.118"/>
        <path fill="#FF7C53" d="M903.02 245.722c-2.324 0-4.216-1.905-4.216-4.246v-1.684c0-2.342 1.892-4.247 4.217-4.247 2.326 0 4.217 1.905 4.217 4.247v1.684c0 2.341-1.89 4.246-4.217 4.246"/>
        <path fill="#FF7C53" d="M903.02 234.913c-2.67 0-4.845 2.189-4.845 4.879v1.684c0 2.69 2.175 4.879 4.846 4.879 2.672 0 4.846-2.189 4.846-4.879v-1.684c0-2.69-2.174-4.88-4.846-4.88m0 1.266c1.974 0 3.59 1.626 3.59 3.614v1.684c0 1.988-1.616 3.614-3.59 3.614-1.973 0-3.589-1.626-3.589-3.614v-1.684c0-1.988 1.616-3.614 3.589-3.614"/>
        <path fill="#FFD4BD" d="M903.013 242.78c-1.672 0-3.041-1.378-3.041-3.062V187.19c0-1.685 1.369-3.062 3.041-3.062s3.04 1.377 3.04 3.062v52.527c0 1.684-1.367 3.061-3.04 3.061"/>
        <path fill="#C64C26" d="M904.343 243.954h-2.68a2.117 2.117 0 0 1-2.103-2.118c0-1.166.946-2.118 2.104-2.118h2.679c1.157 0 2.103.952 2.103 2.118a2.117 2.117 0 0 1-2.103 2.118"/>
        <path fill="#9A9A9A" d="M898.884 143.426c-8.697-.63-15.331-7.884-14.744-16.123l.203-2.86c.588-8.239 8.183-14.466 16.88-13.838 8.695.629 15.33 7.883 14.743 16.123l-.203 2.859c-.588 8.24-8.183 14.467-16.879 13.839"/>
        <path fill="#FFD4BD" d="M912.595 134.554a1.946 1.946 0 0 1 .276-3.88 1.947 1.947 0 0 1 1.79 2.08 1.943 1.943 0 0 1-2.066 1.8"/>
        <path fill="#FFB0A3" d="M898.365 143.31c-7.299-.527-12.84-6.97-12.317-14.318l.118-1.67c.525-7.348 6.925-12.929 14.222-12.401 7.298.527 12.84 6.97 12.317 14.318l-.12 1.67c-.523 7.348-6.922 12.929-14.22 12.402"/>
        <path fill="#FFC9B2" d="M898.365 143.31c-7.299-.527-12.84-6.97-12.317-14.318l.118-1.67c.525-7.348 6.925-12.929 14.222-12.401 7.298.527 12.84 6.97 12.317 14.318l-.12 1.67c-.523 7.348-6.922 12.929-14.22 12.402"/>
        <path fill="#FFD8C6" d="M899.931 143.424c-6.436-.465-11.324-6.148-10.863-12.628l.225-3.155c.463-6.481 6.106-11.402 12.543-10.937 6.436.464 11.324 6.148 10.862 12.628l-.225 3.155c-.462 6.48-6.105 11.402-12.542 10.937"/>
        <path fill="#FFC9B2" d="M885.53 132.489a1.946 1.946 0 0 1-1.789-2.08 1.941 1.941 0 0 1 2.065-1.8 1.945 1.945 0 0 1-.277 3.88"/>
        <path fill="#2D1C27" d="M894.939 130.4a.758.758 0 0 1 .107-1.51.758.758 0 0 1-.107 1.51M903.178 130.995a.758.758 0 0 1 .108-1.51.758.758 0 0 1-.108 1.51"/>
        <path fill="#FFC9B2" d="M901.338 148.375l-6.634-.48.404-5.659 6.634.48z"/>
        <path fill="#FFD8C6" d="M901.338 148.375l-4.679-.338.403-5.66 4.68.338z"/>
        <path fill="#F7A1AE" d="M898.818 136.958c-1.436-.103-2.519-1.363-2.416-2.808a.367.367 0 1 1 .732.053 1.885 1.885 0 0 0 1.736 2.018 1.88 1.88 0 0 0 2.004-1.748.37.37 0 0 1 .393-.342.37.37 0 0 1 .34.396 2.617 2.617 0 0 1-2.789 2.43"/>
        <g transform="translate(882 177)">
            <mask id="b" fill="#fff">
                <use xlink:href="#a"/>
            </mask>
            <use fill="#A6779B" xlink:href="#a"/>
            <g fill="#FFF" mask="url(#b)" opacity=".398">
                <path d="M77.474 67.024a.504.504 0 0 0 0-1.008.503.503 0 1 0 0 1.008M72.268 67.024a.503.503 0 1 0-.002-1.007.503.503 0 0 0 .002 1.007M67.06 67.024a.503.503 0 1 0-.002-1.006.503.503 0 0 0 .003 1.006M61.853 67.024a.503.503 0 1 0-.001-1.006.503.503 0 0 0 .001 1.006M56.646 67.024a.503.503 0 1 0-.003-1.006.503.503 0 0 0 .003 1.006M51.438 67.024a.504.504 0 1 0-.001-1.007.504.504 0 0 0 .001 1.007M46.232 67.024a.504.504 0 0 0 0-1.008.503.503 0 1 0 0 1.008M41.025 67.024a.504.504 0 0 0 0-1.008.503.503 0 0 0 0 1.008M35.818 67.024a.503.503 0 1 0-.003-1.007.503.503 0 0 0 .003 1.007M30.611 67.024a.504.504 0 0 0 0-1.008.504.504 0 0 0 0 1.008M25.404 67.024a.504.504 0 1 0-.004-1.008.504.504 0 0 0 .004 1.008M20.196 67.024a.504.504 0 0 0 0-1.008.504.504 0 0 0 0 1.008M14.989 67.024a.504.504 0 0 0 0-1.008.503.503 0 0 0 0 1.008M9.782 67.024a.504.504 0 0 0 0-1.008.503.503 0 0 0 0 1.008M4.575 67.024a.503.503 0 1 0-.002-1.007.503.503 0 0 0 .002 1.007M-.632 67.024a.504.504 0 1 0-.003-1.007.504.504 0 0 0 .003 1.007M-5.84 67.024a.503.503 0 1 0-.003-1.007.503.503 0 0 0 .004 1.007M-11.046 67.024a.503.503 0 1 0-.004-1.007.503.503 0 0 0 .004 1.007M-16.254 67.024a.505.505 0 0 0 0-1.008.503.503 0 0 0 0 1.008M-21.462 67.024a.505.505 0 0 0 0-1.008.503.503 0 0 0 0 1.008M-26.669 67.024a.504.504 0 0 0 0-1.008.503.503 0 0 0 0 1.008M-31.876 67.024a.503.503 0 1 0-.002-1.007.503.503 0 0 0 .002 1.007M-37.083 67.024a.503.503 0 1 0-.002-1.007.503.503 0 0 0 .002 1.007M-42.29 67.024a.503.503 0 1 0-.002-1.007.503.503 0 0 0 .002 1.007M-47.497 67.024a.504.504 0 1 0-.003-1.008.504.504 0 0 0 .003 1.008M75.198 61.072a.503.503 0 1 0-.503-.504c0 .28.225.504.503.504M69.99 61.072a.503.503 0 1 0 0-1.006.503.503 0 0 0 0 1.006M64.784 61.072a.503.503 0 1 0-.001-1.005.503.503 0 0 0 0 1.005M59.576 61.072a.503.503 0 1 0 0-1.006.503.503 0 0 0 0 1.006M54.369 61.072a.503.503 0 1 0 0-1.006.503.503 0 0 0 0 1.006M49.162 61.072a.503.503 0 1 0-.001-1.006.503.503 0 0 0 0 1.006M43.954 61.072a.503.503 0 1 0 0-1.006.503.503 0 0 0 0 1.006M38.748 61.072a.503.503 0 1 0 0-1.005.503.503 0 0 0 0 1.005M33.541 61.072a.503.503 0 1 0-.001-1.006.503.503 0 0 0 .001 1.006M28.333 61.072a.503.503 0 1 0-.503-.504c0 .28.226.504.503.504M23.126 61.072a.504.504 0 1 0 0-1.007.504.504 0 0 0 0 1.007M17.92 61.072a.503.503 0 1 0-.002-1.006.503.503 0 0 0 .002 1.006M12.713 61.072a.503.503 0 1 0-.002-1.006.503.503 0 0 0 .002 1.006M7.505 61.072a.503.503 0 1 0 0-1.005.503.503 0 0 0 0 1.005M2.298 61.072a.503.503 0 1 0 0-1.005.503.503 0 0 0 0 1.005M-2.91 61.072a.503.503 0 1 0 0-1.006.503.503 0 0 0 0 1.006M-8.116 61.072a.503.503 0 1 0-.001-1.006.503.503 0 0 0 0 1.006M-13.324 61.072a.503.503 0 1 0 0-1.006.503.503 0 0 0 0 1.006M-18.53 61.072a.503.503 0 1 0-.003-1.007.503.503 0 0 0 .002 1.007M-23.738 61.072a.503.503 0 1 0-.001-1.006.503.503 0 0 0 0 1.006M-28.945 61.072a.503.503 0 1 0 0-1.005.503.503 0 0 0 0 1.005M-34.152 61.072a.503.503 0 1 0-.001-1.005.503.503 0 0 0 0 1.005M-39.36 61.072a.503.503 0 1 0 0-1.005.503.503 0 0 0 0 1.005M-44.567 61.072a.503.503 0 1 0-.503-.504c0 .28.225.504.503.504M77.474 55.122a.504.504 0 1 0 0-1.008.504.504 0 0 0 0 1.008M72.268 55.122a.503.503 0 1 0-.001-1.006.503.503 0 0 0 0 1.006M67.06 55.122a.503.503 0 1 0-.001-1.005.503.503 0 0 0 .002 1.005M61.853 55.122a.503.503 0 1 0 0-1.005.503.503 0 0 0 0 1.005M56.646 55.122a.503.503 0 1 0-.001-1.005.503.503 0 0 0 .001 1.005M51.438 55.122a.503.503 0 1 0 0-1.006.503.503 0 0 0 0 1.006M46.232 55.122a.503.503 0 1 0-.002-1.007.503.503 0 0 0 .002 1.007M41.025 55.122a.504.504 0 1 0-.002-1.007.504.504 0 0 0 .002 1.007M35.818 55.122a.503.503 0 1 0-.002-1.006.503.503 0 0 0 .002 1.006M30.611 55.122a.503.503 0 1 0-.002-1.007.503.503 0 0 0 .002 1.007M25.404 55.122a.503.503 0 1 0-.003-1.007.503.503 0 0 0 .003 1.007M20.196 55.122a.504.504 0 1 0 0-1.008.504.504 0 0 0 0 1.008M14.989 55.122a.504.504 0 0 0 0-1.007.503.503 0 1 0 0 1.007M9.782 55.122a.503.503 0 1 0-.001-1.007.503.503 0 0 0 0 1.007M4.575 55.122a.503.503 0 1 0 0-1.006.503.503 0 0 0 0 1.006M-.632 55.122a.503.503 0 1 0-.002-1.006.503.503 0 0 0 .002 1.006M-5.84 55.122a.503.503 0 1 0-.001-1.006.503.503 0 0 0 .002 1.006M-11.046 55.122a.503.503 0 1 0-.003-1.005.503.503 0 0 0 .003 1.005M-16.254 55.122a.504.504 0 0 0 0-1.007.502.502 0 0 0 0 1.007M-21.462 55.122a.504.504 0 0 0 0-1.007.502.502 0 0 0 0 1.007M-26.669 55.122a.504.504 0 0 0 0-1.007.502.502 0 0 0 0 1.007M-31.876 55.122a.503.503 0 1 0 0-1.006.503.503 0 0 0 0 1.006M-37.083 55.122a.503.503 0 1 0 0-1.006.503.503 0 0 0 0 1.006M-42.29 55.122a.503.503 0 1 0-.001-1.006.503.503 0 0 0 .001 1.006M-47.497 55.122a.503.503 0 1 0-.002-1.006.503.503 0 0 0 .002 1.006M75.198 49.17a.503.503 0 1 0-.503-.503c0 .279.225.504.503.504M69.99 49.17a.503.503 0 1 0 0-1.005.503.503 0 0 0 0 1.006M64.784 49.17a.503.503 0 1 0-.504-.503c0 .279.226.504.504.504M59.576 49.17a.503.503 0 1 0 0-1.005.503.503 0 0 0 0 1.006M54.369 49.17a.503.503 0 1 0 0-1.005.503.503 0 0 0 0 1.006M49.162 49.17a.503.503 0 1 0 0-1.005.503.503 0 0 0 0 1.006M43.954 49.17a.503.503 0 1 0 .001-1.005.503.503 0 0 0 0 1.006M38.748 49.17a.503.503 0 1 0-.503-.503c0 .279.226.504.503.504M33.541 49.17a.503.503 0 1 0 0-1.005.503.503 0 0 0 0 1.006M28.333 49.17a.503.503 0 1 0-.503-.503c0 .279.226.504.503.504M23.126 49.17a.503.503 0 1 0 0-1.006.503.503 0 0 0 0 1.007M17.92 49.17a.503.503 0 1 0-.001-1.005.503.503 0 0 0 0 1.006M12.713 49.17a.503.503 0 1 0-.002-1.005.503.503 0 0 0 .002 1.006M7.505 49.17a.503.503 0 1 0-.503-.503c0 .279.225.504.503.504M2.298 49.17a.502.502 0 1 0 0-1.004.502.502 0 0 0 0 1.005M-2.91 49.17a.503.503 0 1 0 0-1.005.503.503 0 0 0 0 1.006M-8.116 49.17a.503.503 0 1 0 0-1.005.503.503 0 0 0 0 1.006M-13.324 49.17a.503.503 0 1 0 0-1.005.503.503 0 0 0 0 1.006M-18.53 49.17a.503.503 0 1 0-.002-1.006.503.503 0 0 0 .001 1.007M-23.738 49.17a.503.503 0 1 0 0-1.005.503.503 0 0 0 0 1.006M-28.945 49.17a.503.503 0 1 0-.503-.503c0 .279.224.504.503.504M-34.152 49.17a.503.503 0 1 0-.503-.503c0 .279.225.504.503.504M-39.36 49.17a.503.503 0 1 0-.503-.503c0 .279.225.504.503.504M-44.567 49.17a.503.503 0 1 0-.503-.503c0 .279.225.504.503.504M77.474 43.22a.503.503 0 1 0 .001-1.006.503.503 0 0 0-.001 1.006M72.268 43.22a.503.503 0 1 0-.503-.503c0 .278.225.503.503.503M67.06 43.22a.502.502 0 0 0 .502-.503.502.502 0 1 0-1.004 0c0 .278.225.503.503.503M61.853 43.22a.502.502 0 0 0 .503-.503.502.502 0 1 0-1.006 0c0 .278.226.503.503.503M56.646 43.22a.502.502 0 0 0 .502-.503.502.502 0 1 0-1.004 0c0 .278.224.503.502.503M51.438 43.22a.503.503 0 1 0-.502-.503c0 .278.225.503.502.503M46.232 43.22a.503.503 0 1 0 0-1.005.503.503 0 0 0 0 1.005M41.025 43.22a.503.503 0 1 0 0-1.006.503.503 0 0 0 0 1.006M35.818 43.22a.503.503 0 1 0-.504-.503c0 .278.226.503.504.503M30.611 43.22a.503.503 0 1 0-.001-1.005.503.503 0 0 0 .001 1.005M25.404 43.22a.503.503 0 1 0-.001-1.005.503.503 0 0 0 .001 1.005M20.196 43.22a.503.503 0 1 0 0-1.006.503.503 0 0 0 0 1.006M14.989 43.22a.503.503 0 1 0 0-1.006.503.503 0 0 0 0 1.006M9.782 43.22a.502.502 0 1 0 0-1.005.502.502 0 0 0 0 1.005M4.575 43.22a.503.503 0 1 0-.503-.503c0 .278.225.503.503.503M-.632 43.22a.503.503 0 1 0-.503-.503c0 .278.225.503.503.503M-5.84 43.22a.503.503 0 1 0-.503-.503c0 .278.226.503.504.503M-11.046 43.22a.502.502 0 0 0 .501-.503.502.502 0 1 0-.501.503M-16.254 43.22a.503.503 0 1 0 0-1.007.503.503 0 0 0 0 1.007M-21.462 43.22a.503.503 0 1 0 0-1.007.503.503 0 0 0 0 1.007M-26.669 43.22a.503.503 0 1 0 0-1.006.503.503 0 0 0 0 1.006M-31.876 43.22a.503.503 0 1 0-.503-.503c0 .278.226.503.503.503M-37.083 43.22a.503.503 0 1 0-.503-.503c0 .278.225.503.503.503M-42.29 43.22a.503.503 0 1 0-.503-.503c0 .278.225.503.503.503M-47.497 43.22a.502.502 0 1 0 0-1.005.502.502 0 0 0 0 1.005M75.198 37.27a.503.503 0 1 0-.001-1.006.503.503 0 0 0 0 1.005M69.99 37.27a.503.503 0 1 0 0-1.008.503.503 0 0 0 0 1.007M64.784 37.27a.503.503 0 1 0-.001-1.006.503.503 0 0 0 0 1.005M59.576 37.27a.503.503 0 1 0-.001-1.007.503.503 0 0 0 .001 1.006M54.369 37.27a.503.503 0 1 0 0-1.007.503.503 0 0 0 0 1.006M49.162 37.27a.503.503 0 1 0-.001-1.007.503.503 0 0 0 0 1.006M43.954 37.27a.503.503 0 1 0 0-1.007.503.503 0 0 0 0 1.006M38.748 37.27a.503.503 0 1 0 0-1.006.503.503 0 0 0 0 1.005M33.541 37.27a.503.503 0 1 0-.001-1.008.503.503 0 0 0 .001 1.007M28.333 37.27a.503.503 0 1 0 0-1.006.503.503 0 0 0 0 1.005M23.126 37.27a.504.504 0 1 0 0-1.008.504.504 0 0 0 0 1.007M17.92 37.27a.503.503 0 1 0-.002-1.007.503.503 0 0 0 .002 1.006M12.713 37.27a.503.503 0 1 0-.003-1.007.503.503 0 0 0 .003 1.006M7.505 37.27a.503.503 0 1 0 0-1.006.503.503 0 0 0 0 1.005M2.298 37.27a.503.503 0 1 0 0-1.007.503.503 0 0 0 0 1.006M-2.91 37.27a.503.503 0 1 0 0-1.008.503.503 0 0 0 0 1.007M-8.116 37.27a.503.503 0 1 0-.002-1.007.503.503 0 0 0 .002 1.006M-13.324 37.27a.503.503 0 1 0 0-1.007.503.503 0 0 0 0 1.006M-18.53 37.27a.504.504 0 1 0-.003-1.008.504.504 0 0 0 .002 1.007M-23.738 37.27a.503.503 0 1 0-.001-1.007.503.503 0 0 0 0 1.006M-28.945 37.27a.503.503 0 1 0-.001-1.006.503.503 0 0 0 0 1.005M-34.152 37.27a.503.503 0 1 0-.001-1.006.503.503 0 0 0 0 1.005M-39.36 37.27a.503.503 0 1 0 0-1.006.503.503 0 0 0 0 1.005M-44.567 37.27a.503.503 0 1 0-.001-1.006.503.503 0 0 0 0 1.005M77.474 31.318a.503.503 0 1 0 0-1.006.503.503 0 0 0 0 1.006M72.268 31.318a.503.503 0 1 0-.503-.504c0 .28.225.504.503.504M67.06 31.318a.502.502 0 0 0 .502-.503.502.502 0 1 0-1.004 0c0 .278.225.503.503.503M61.853 31.318a.502.502 0 0 0 .503-.503.502.502 0 1 0-1.006 0c0 .278.226.503.503.503M56.646 31.318a.502.502 0 0 0 .502-.503.502.502 0 1 0-1.004 0c0 .278.224.503.502.503M51.438 31.318a.503.503 0 1 0 .001-1.005.503.503 0 0 0 0 1.005M46.232 31.318a.503.503 0 1 0-.001-1.005.503.503 0 0 0 0 1.005M41.025 31.318a.503.503 0 1 0-.001-1.006.503.503 0 0 0 0 1.006M35.818 31.318a.503.503 0 1 0-.504-.504c0 .28.226.504.504.504M30.611 31.318a.503.503 0 1 0-.002-1.005.503.503 0 0 0 .002 1.005M25.404 31.318a.503.503 0 1 0-.002-1.006.503.503 0 0 0 .002 1.006M20.196 31.318a.503.503 0 1 0 0-1.006.503.503 0 0 0 0 1.006M14.989 31.318a.503.503 0 1 0 0-1.006.503.503 0 0 0 0 1.006M9.782 31.318a.503.503 0 1 0 0-1.005.503.503 0 0 0 0 1.005M4.575 31.318a.503.503 0 1 0-.503-.504c0 .28.225.504.503.504M-.632 31.318a.503.503 0 1 0-.503-.504c0 .28.225.504.503.504M-5.84 31.318a.503.503 0 1 0-.503-.504c0 .28.226.504.504.504M-11.046 31.318a.502.502 0 0 0 .501-.503.503.503 0 1 0-.501.503M-16.254 31.318a.504.504 0 1 0 0-1.007.504.504 0 0 0 0 1.007M-21.462 31.318a.504.504 0 1 0 0-1.007.504.504 0 0 0 0 1.007M-26.669 31.318a.503.503 0 1 0 0-1.006.503.503 0 0 0 0 1.006M-31.876 31.318a.503.503 0 1 0-.503-.504c0 .28.226.504.503.504M-37.083 31.318a.503.503 0 1 0-.503-.504c0 .28.225.504.503.504M-42.29 31.318a.503.503 0 1 0-.503-.504c0 .28.225.504.503.504M-47.497 31.318a.503.503 0 1 0-.001-1.005.503.503 0 0 0 0 1.005M75.198 25.368a.503.503 0 0 0 .502-.504.503.503 0 1 0-1.005 0c0 .278.225.504.503.504M69.99 25.368a.504.504 0 1 0-.001-1.007.504.504 0 0 0 .002 1.007M64.784 25.368a.503.503 0 1 0-.504-.504c0 .278.226.504.504.504M59.576 25.368a.503.503 0 1 0-.001-1.007.503.503 0 0 0 .001 1.007M54.369 25.368a.503.503 0 1 0-.001-1.007.503.503 0 0 0 0 1.007M49.162 25.368a.503.503 0 1 0-.002-1.007.503.503 0 0 0 .002 1.007M43.954 25.368a.503.503 0 1 0 0-1.007.503.503 0 0 0 0 1.007M38.748 25.368a.503.503 0 1 0-.001-1.006.503.503 0 0 0 .001 1.006M33.541 25.368a.504.504 0 1 0-.002-1.007.504.504 0 0 0 .002 1.007M28.333 25.368a.503.503 0 1 0-.503-.504c0 .278.226.504.503.504M23.126 25.368a.504.504 0 1 0 0-1.008.504.504 0 0 0 0 1.008M17.92 25.368a.503.503 0 1 0-.002-1.007.503.503 0 0 0 .002 1.007M12.713 25.368a.503.503 0 1 0-.003-1.007.503.503 0 0 0 .003 1.007M7.505 25.368a.503.503 0 1 0 0-1.006.503.503 0 0 0 0 1.006M2.298 25.368a.503.503 0 1 0-.001-1.006.503.503 0 0 0 .001 1.006M-2.91 25.368a.504.504 0 1 0 0-1.007.504.504 0 0 0 0 1.007M-8.116 25.368a.503.503 0 1 0-.002-1.007.503.503 0 0 0 .002 1.007M-13.324 25.368a.503.503 0 1 0-.001-1.007.503.503 0 0 0 .001 1.007M-18.53 25.368a.504.504 0 1 0-.003-1.008.504.504 0 0 0 .002 1.008M-23.738 25.368a.503.503 0 1 0-.002-1.007.503.503 0 0 0 .002 1.007M-28.945 25.368a.503.503 0 1 0-.001-1.006.503.503 0 0 0 0 1.006M-34.152 25.368a.503.503 0 1 0-.002-1.006.503.503 0 0 0 .002 1.006M-39.36 25.368a.503.503 0 1 0-.001-1.006.503.503 0 0 0 .001 1.006M-44.567 25.368a.503.503 0 0 0 .502-.504.503.503 0 1 0-1.005 0c0 .278.225.504.503.504M77.474 19.417a.503.503 0 1 0 .001-1.007.503.503 0 0 0-.001 1.007M72.268 19.417a.502.502 0 1 0-.503-.504c0 .279.225.504.503.504M67.06 19.417a.502.502 0 0 0 .502-.504.502.502 0 1 0-1.004 0c0 .279.225.504.503.504M61.853 19.417a.502.502 0 0 0 .503-.504.502.502 0 1 0-1.006 0c0 .279.226.504.503.504M56.646 19.417a.502.502 0 0 0 .502-.504.502.502 0 1 0-1.004 0c0 .279.224.504.502.504M51.438 19.417a.502.502 0 1 0 .001-1.005.502.502 0 0 0 0 1.005M46.232 19.417a.503.503 0 1 0 0-1.006.503.503 0 0 0 0 1.006M41.025 19.417a.503.503 0 1 0-.001-1.006.503.503 0 0 0 0 1.006M35.818 19.417a.502.502 0 0 0 .502-.504.502.502 0 1 0-.502.504M30.611 19.417a.503.503 0 1 0-.001-1.005.503.503 0 0 0 .001 1.005M25.404 19.417a.503.503 0 1 0-.001-1.006.503.503 0 0 0 .001 1.006M20.196 19.417a.503.503 0 1 0 0-1.007.503.503 0 0 0 0 1.007M14.989 19.417a.503.503 0 1 0 0-1.006.503.503 0 0 0 0 1.006M9.782 19.417a.503.503 0 1 0 0-1.005.503.503 0 0 0 0 1.005M4.575 19.417a.502.502 0 1 0-.503-.504c0 .279.225.504.503.504M-.632 19.417a.503.503 0 1 0-.503-.504c0 .279.225.504.503.504M-5.84 19.417a.502.502 0 0 0 .502-.504.502.502 0 1 0-.501.504M-11.046 19.417a.502.502 0 0 0 .501-.504.502.502 0 1 0-1.005 0c0 .279.226.504.504.504M-16.254 19.417a.503.503 0 1 0 0-1.007.503.503 0 0 0 0 1.007M-21.462 19.417a.503.503 0 1 0 0-1.007.503.503 0 0 0 0 1.007M-26.669 19.417a.503.503 0 1 0 0-1.007.503.503 0 0 0 0 1.007M-31.876 19.417a.503.503 0 1 0-.503-.504c0 .279.226.504.503.504M-37.083 19.417a.503.503 0 1 0-.503-.504c0 .279.225.504.503.504M-42.29 19.417a.503.503 0 1 0-.503-.504c0 .279.225.504.503.504M-47.497 19.417a.502.502 0 1 0 0-1.005.502.502 0 0 0 0 1.005M75.198 13.466a.503.503 0 1 0-.002-1.005.503.503 0 0 0 .002 1.005M69.99 13.466a.504.504 0 1 0-.001-1.007.504.504 0 0 0 .002 1.007M64.784 13.466a.503.503 0 1 0-.002-1.006.503.503 0 0 0 .002 1.006M59.576 13.466a.504.504 0 1 0-.002-1.007.504.504 0 0 0 .002 1.007M54.369 13.466a.503.503 0 1 0-.001-1.007.503.503 0 0 0 0 1.007M49.162 13.466a.504.504 0 1 0-.002-1.007.504.504 0 0 0 .002 1.007M43.954 13.466a.503.503 0 1 0 0-1.007.503.503 0 0 0 0 1.007M38.748 13.466a.503.503 0 1 0-.001-1.006.503.503 0 0 0 .001 1.006M33.541 13.466a.504.504 0 1 0-.002-1.007.504.504 0 0 0 .002 1.007M28.333 13.466a.503.503 0 1 0 0-1.006.503.503 0 0 0 0 1.006M23.126 13.466a.504.504 0 1 0 0-1.008.504.504 0 0 0 0 1.008M17.92 13.466a.504.504 0 1 0-.003-1.007.504.504 0 0 0 .003 1.007M12.713 13.466a.503.503 0 1 0-.003-1.007.503.503 0 0 0 .003 1.007M7.505 13.466a.503.503 0 1 0-.001-1.006.503.503 0 0 0 .001 1.006M2.298 13.466a.503.503 0 1 0-.002-1.006.503.503 0 0 0 .002 1.006M-2.91 13.466a.504.504 0 1 0-.001-1.007.504.504 0 0 0 .002 1.007M-8.116 13.466a.504.504 0 1 0-.002-1.007.504.504 0 0 0 .002 1.007M-13.324 13.466a.504.504 0 1 0-.002-1.007.504.504 0 0 0 .002 1.007M-18.53 13.466a.504.504 0 1 0-.004-1.007.504.504 0 0 0 .003 1.007M-23.738 13.466a.503.503 0 1 0-.002-1.007.503.503 0 0 0 .002 1.007M-28.945 13.466a.503.503 0 1 0-.002-1.006.503.503 0 0 0 .002 1.006M-34.152 13.466a.503.503 0 1 0-.002-1.006.503.503 0 0 0 .002 1.006M-39.36 13.466a.503.503 0 1 0-.001-1.006.503.503 0 0 0 .001 1.006M-44.567 13.466a.503.503 0 1 0-.002-1.005.503.503 0 0 0 .002 1.005M77.474 7.516a.504.504 0 0 0 0-1.008.502.502 0 0 0-.501.504c0 .278.224.504.5.504M72.268 7.516a.503.503 0 1 0-.002-1.006.503.503 0 0 0 .002 1.006M67.06 7.516a.503.503 0 0 0 .502-.504.502.502 0 1 0-1.004 0c0 .278.225.504.503.504M61.853 7.516a.503.503 0 0 0 .503-.504.502.502 0 1 0-1.006 0c0 .278.226.504.503.504M56.646 7.516a.503.503 0 0 0 .502-.504.502.502 0 1 0-1.004 0c0 .278.224.504.502.504M51.438 7.516a.503.503 0 1 0 0-1.007.503.503 0 0 0 0 1.007M46.232 7.516a.503.503 0 1 0-.002-1.007.503.503 0 0 0 .002 1.007M41.025 7.516a.504.504 0 1 0-.003-1.008.504.504 0 0 0 .003 1.008M35.818 7.516a.503.503 0 1 0-.002-1.006.503.503 0 0 0 .002 1.006M30.611 7.516a.503.503 0 1 0-.003-1.007.503.503 0 0 0 .003 1.007M25.404 7.516a.504.504 0 1 0-.003-1.008.504.504 0 0 0 .003 1.008M20.196 7.516a.504.504 0 1 0-.001-1.008.504.504 0 0 0 .001 1.008M14.989 7.516a.504.504 0 0 0 0-1.008.503.503 0 1 0 0 1.008M9.782 7.516a.503.503 0 1 0-.001-1.007.503.503 0 0 0 0 1.007M4.575 7.516a.503.503 0 1 0-.001-1.006.503.503 0 0 0 .001 1.006M-.632 7.516a.503.503 0 1 0-.002-1.007.503.503 0 0 0 .002 1.007M-5.84 7.516a.503.503 0 1 0-.002-1.006.503.503 0 0 0 .003 1.006M-11.046 7.516a.503.503 0 0 0 .501-.504.502.502 0 1 0-1.005 0c0 .278.226.504.504.504M-16.254 7.516a.504.504 0 0 0 0-1.008.503.503 0 0 0 0 1.008M-21.462 7.516a.504.504 0 0 0 0-1.008.503.503 0 0 0 0 1.008M-26.669 7.516a.504.504 0 0 0 0-1.008.503.503 0 1 0 0 1.008M-31.876 7.516a.503.503 0 1 0-.001-1.007.503.503 0 0 0 .001 1.007M-37.083 7.516a.503.503 0 1 0-.001-1.007.503.503 0 0 0 .001 1.007M-42.29 7.516a.503.503 0 1 0-.002-1.006.503.503 0 0 0 .002 1.006M-47.497 7.516a.503.503 0 1 0-.002-1.007.503.503 0 0 0 .002 1.007M75.198 1.565a.502.502 0 0 0 .502-.504.503.503 0 1 0-.502.504M69.99 1.565a.503.503 0 1 0 0-1.007.503.503 0 0 0 0 1.007M64.784 1.565A.503.503 0 1 0 64.783.56a.503.503 0 0 0 0 1.005M59.576 1.565a.503.503 0 1 0 0-1.007.503.503 0 0 0 0 1.007M54.369 1.565a.503.503 0 1 0 0-1.006.503.503 0 0 0 0 1.006M49.162 1.565A.503.503 0 1 0 49.16.558a.503.503 0 0 0 0 1.007M43.954 1.565a.503.503 0 1 0 0-1.006.503.503 0 0 0 0 1.006M38.748 1.565a.503.503 0 1 0 0-1.006.503.503 0 0 0 0 1.006M33.541 1.565A.503.503 0 1 0 33.54.558a.503.503 0 0 0 .001 1.007M28.333 1.565a.503.503 0 1 0-.503-.504c0 .278.226.504.503.504M23.126 1.565a.504.504 0 1 0 0-1.007.504.504 0 0 0 0 1.007M17.92 1.565a.503.503 0 1 0-.002-1.007.503.503 0 0 0 .002 1.007M12.713 1.565A.503.503 0 1 0 12.71.559a.503.503 0 0 0 .002 1.006M7.505 1.565a.503.503 0 1 0 0-1.006.503.503 0 0 0 0 1.006M2.298 1.565a.503.503 0 1 0 0-1.006.503.503 0 0 0 0 1.006M-2.91 1.565a.503.503 0 1 0 0-1.007.503.503 0 0 0 0 1.007M-8.116 1.565A.503.503 0 1 0-8.117.558a.503.503 0 0 0 0 1.007M-13.324 1.565a.503.503 0 1 0 0-1.007.503.503 0 0 0 0 1.007M-18.53 1.565a.503.503 0 1 0-.003-1.007.503.503 0 0 0 .002 1.007M-23.738 1.565A.503.503 0 1 0-23.74.559a.503.503 0 0 0 0 1.006M-28.945 1.565a.503.503 0 1 0 0-1.006.503.503 0 0 0 0 1.006M-34.152 1.565a.503.503 0 1 0-.001-1.006.503.503 0 0 0 0 1.006M-39.36 1.565a.503.503 0 1 0 0-1.006.503.503 0 0 0 0 1.006M-44.567 1.565a.502.502 0 0 0 .502-.504.503.503 0 1 0-.502.504M77.474-4.386a.504.504 0 1 0 0-1.007.504.504 0 0 0 0 1.007M72.268-4.386a.503.503 0 1 0-.503-.504c0 .278.225.504.503.504M67.06-4.386a.502.502 0 0 0 .502-.504.503.503 0 1 0-1.004 0c0 .278.225.504.503.504M61.853-4.386a.502.502 0 0 0 .503-.504.503.503 0 1 0-1.006 0c0 .278.226.504.503.504M56.646-4.386a.502.502 0 0 0 .502-.504.503.503 0 1 0-1.004 0c0 .278.224.504.502.504M51.438-4.386a.503.503 0 1 0 0-1.006.503.503 0 0 0 0 1.006M46.232-4.386a.503.503 0 1 0-.002-1.006.503.503 0 0 0 .002 1.006M41.025-4.386a.503.503 0 1 0-.002-1.007.503.503 0 0 0 .002 1.007M35.818-4.386a.503.503 0 1 0-.504-.504c0 .278.226.504.504.504M30.611-4.386a.503.503 0 1 0-.002-1.006.503.503 0 0 0 .002 1.006M25.404-4.386a.503.503 0 1 0-.002-1.007.503.503 0 0 0 .002 1.007M20.196-4.386a.504.504 0 1 0 0-1.007.504.504 0 0 0 0 1.007M14.989-4.386a.504.504 0 1 0-.001-1.007.504.504 0 0 0 0 1.007M9.782-4.386a.503.503 0 1 0 0-1.006.503.503 0 0 0 0 1.006M4.575-4.386a.503.503 0 1 0-.503-.504c0 .278.225.504.503.504M-.632-4.386a.503.503 0 1 0-.001-1.006.503.503 0 0 0 .001 1.006M-5.84-4.386a.503.503 0 1 0-.503-.504c0 .278.226.504.504.504M-11.046-4.386a.502.502 0 0 0 .501-.504.503.503 0 1 0-1.005 0c0 .278.226.504.504.504M-16.254-4.386a.504.504 0 1 0-.001-1.008.504.504 0 0 0 0 1.008M-21.462-4.386a.504.504 0 1 0 0-1.008.504.504 0 0 0 0 1.008M-26.669-4.386a.504.504 0 1 0 0-1.007.504.504 0 0 0 0 1.007M-31.876-4.386a.503.503 0 1 0 0-1.006.503.503 0 0 0 0 1.006M-37.083-4.386a.503.503 0 1 0 0-1.006.503.503 0 0 0 0 1.006M-42.29-4.386a.503.503 0 1 0 0-1.005.503.503 0 0 0 0 1.005M-47.497-4.386a.503.503 0 1 0-.002-1.006.503.503 0 0 0 .002 1.006M75.198-10.337a.503.503 0 1 0-.503-.503c0 .278.225.503.503.503M69.99-10.337a.503.503 0 1 0 0-1.006.503.503 0 0 0 0 1.006M64.784-10.337a.503.503 0 1 0-.504-.503c0 .278.226.503.504.503M59.576-10.337a.503.503 0 1 0 0-1.006.503.503 0 0 0 0 1.006M54.369-10.337a.503.503 0 1 0 0-1.005.503.503 0 0 0 0 1.005M49.162-10.337a.503.503 0 1 0 0-1.006.503.503 0 0 0 0 1.006M43.954-10.337a.503.503 0 1 0 .001-1.006.503.503 0 0 0 0 1.006M38.748-10.337a.503.503 0 1 0-.503-.503c0 .278.226.503.503.503M33.541-10.337a.503.503 0 1 0 0-1.006.503.503 0 0 0 0 1.006M28.333-10.337a.503.503 0 1 0-.503-.503c0 .278.226.503.503.503M23.126-10.337a.503.503 0 1 0 0-1.007.503.503 0 0 0 0 1.007M17.92-10.337a.503.503 0 1 0-.001-1.006.503.503 0 0 0 0 1.006M12.713-10.337a.503.503 0 1 0-.002-1.006.503.503 0 0 0 .002 1.006M7.505-10.337a.503.503 0 1 0-.503-.503c0 .278.225.503.503.503M2.298-10.337a.503.503 0 1 0-.503-.503c0 .278.225.503.503.503M-2.91-10.337a.503.503 0 1 0 0-1.006.503.503 0 0 0 0 1.006M-8.116-10.337a.503.503 0 1 0 0-1.006.503.503 0 0 0 0 1.006M-13.324-10.337a.503.503 0 1 0 0-1.006.503.503 0 0 0 0 1.006M-18.53-10.337a.503.503 0 1 0-.002-1.006.503.503 0 0 0 .001 1.006M-23.738-10.337a.503.503 0 1 0 0-1.006.503.503 0 0 0 0 1.006M-28.945-10.337a.503.503 0 1 0-.503-.503c0 .278.224.503.503.503M-34.152-10.337a.503.503 0 1 0-.503-.503c0 .278.225.503.503.503M-39.36-10.337a.503.503 0 1 0-.503-.503c0 .278.225.503.503.503M-44.567-10.337a.503.503 0 1 0-.503-.503c0 .278.225.503.503.503M77.474-16.287a.504.504 0 0 0 0-1.008.502.502 0 0 0-.501.503c0 .279.224.505.5.505M72.268-16.287a.503.503 0 1 0-.002-1.006.503.503 0 0 0 .002 1.006M67.06-16.287a.503.503 0 0 0 .502-.505.502.502 0 1 0-1.004 0c0 .279.225.505.503.505M61.853-16.287a.503.503 0 0 0 .503-.505.502.502 0 1 0-1.006 0c0 .279.226.505.503.505M56.646-16.287a.503.503 0 0 0 .502-.505.502.502 0 1 0-1.004 0c0 .279.224.505.502.505M51.438-16.287a.503.503 0 1 0 0-1.007.503.503 0 0 0 0 1.007M46.232-16.287a.503.503 0 1 0-.002-1.007.503.503 0 0 0 .002 1.007M41.025-16.287a.504.504 0 1 0-.003-1.008.504.504 0 0 0 .003 1.008M35.818-16.287a.503.503 0 1 0-.002-1.006.503.503 0 0 0 .002 1.006M30.611-16.287a.503.503 0 1 0-.003-1.007.503.503 0 0 0 .003 1.007M25.404-16.287a.504.504 0 1 0-.003-1.008.504.504 0 0 0 .003 1.008M20.196-16.287a.504.504 0 1 0-.001-1.008.504.504 0 0 0 .001 1.008M14.989-16.287a.504.504 0 0 0 0-1.008.503.503 0 1 0 0 1.008M9.782-16.287a.503.503 0 1 0-.001-1.007.503.503 0 0 0 0 1.007M4.575-16.287a.503.503 0 1 0-.001-1.006.503.503 0 0 0 .001 1.006M-.632-16.287a.503.503 0 1 0-.002-1.007.503.503 0 0 0 .002 1.007M-5.84-16.287a.503.503 0 1 0-.002-1.006.503.503 0 0 0 .003 1.006M-11.046-16.287a.503.503 0 0 0 .501-.505.502.502 0 1 0-1.005 0c0 .279.226.505.504.505M-16.254-16.287a.504.504 0 0 0 0-1.008.503.503 0 1 0 0 1.008M-21.462-16.287a.504.504 0 0 0 0-1.008.503.503 0 1 0 0 1.008M-26.669-16.287a.504.504 0 0 0 0-1.008.503.503 0 1 0 0 1.008M-31.876-16.287a.503.503 0 1 0-.001-1.007.503.503 0 0 0 .001 1.007M-37.083-16.287a.503.503 0 1 0-.001-1.007.503.503 0 0 0 .001 1.007M-42.29-16.287a.503.503 0 1 0-.002-1.007.503.503 0 0 0 .002 1.007M-47.497-16.287a.503.503 0 1 0-.002-1.007.503.503 0 0 0 .002 1.007M75.198-22.238a.503.503 0 1 0-.001-1.006.503.503 0 0 0 0 1.006M69.99-22.238a.504.504 0 1 0-.001-1.007.504.504 0 0 0 .002 1.007M64.784-22.238a.503.503 0 1 0-.002-1.006.503.503 0 0 0 .002 1.006M59.576-22.238a.503.503 0 1 0-.001-1.007.503.503 0 0 0 .001 1.007M54.369-22.238a.503.503 0 1 0-.001-1.007.503.503 0 0 0 0 1.007M49.162-22.238a.503.503 0 1 0-.002-1.007.503.503 0 0 0 .002 1.007M43.954-22.238a.503.503 0 1 0 0-1.007.503.503 0 0 0 0 1.007M38.748-22.238a.503.503 0 1 0-.001-1.006.503.503 0 0 0 .001 1.006M33.541-22.238a.504.504 0 1 0-.002-1.008.504.504 0 0 0 .002 1.008M28.333-22.238a.503.503 0 1 0 0-1.006.503.503 0 0 0 0 1.006M23.126-22.238a.504.504 0 1 0 0-1.008.504.504 0 0 0 0 1.008M17.92-22.238a.503.503 0 1 0-.002-1.007.503.503 0 0 0 .002 1.007M12.713-22.238a.503.503 0 1 0-.003-1.007.503.503 0 0 0 .003 1.007M7.505-22.238a.503.503 0 1 0 0-1.006.503.503 0 0 0 0 1.006M2.298-22.238a.503.503 0 1 0-.001-1.006.503.503 0 0 0 .001 1.006M-2.91-22.238a.504.504 0 1 0 0-1.007.504.504 0 0 0 0 1.007M-8.116-22.238a.503.503 0 1 0-.002-1.007.503.503 0 0 0 .002 1.007M-13.324-22.238a.503.503 0 1 0-.001-1.007.503.503 0 0 0 .001 1.007M-18.53-22.238a.504.504 0 1 0-.003-1.008.504.504 0 0 0 .002 1.008M-23.738-22.238a.503.503 0 1 0-.002-1.007.503.503 0 0 0 .002 1.007M-28.945-22.238a.503.503 0 1 0-.001-1.006.503.503 0 0 0 0 1.006M-34.152-22.238a.503.503 0 1 0-.002-1.006.503.503 0 0 0 .002 1.006M-39.36-22.238a.503.503 0 1 0-.001-1.006.503.503 0 0 0 .001 1.006M-44.567-22.238a.503.503 0 1 0-.001-1.006.503.503 0 0 0 0 1.006M77.474-28.19a.504.504 0 1 0 0-1.007.502.502 0 0 0-.501.504c0 .278.224.504.5.504M72.268-28.19a.503.503 0 1 0-.001-1.005.503.503 0 0 0 0 1.006M67.06-28.19a.503.503 0 0 0 .502-.503.502.502 0 1 0-1.004 0c0 .278.225.504.503.504M61.853-28.19a.503.503 0 0 0 .503-.503.502.502 0 1 0-1.006 0c0 .278.226.504.503.504M56.646-28.19a.503.503 0 0 0 .502-.503.502.502 0 1 0-1.004 0c0 .278.224.504.502.504M51.438-28.19a.503.503 0 1 0 0-1.005.503.503 0 0 0 0 1.006M46.232-28.19a.503.503 0 1 0-.002-1.006.503.503 0 0 0 .002 1.007M41.025-28.19a.504.504 0 1 0-.002-1.006.504.504 0 0 0 .002 1.007M35.818-28.19a.503.503 0 1 0-.002-1.005.503.503 0 0 0 .002 1.006M30.611-28.19a.503.503 0 1 0-.003-1.006.503.503 0 0 0 .003 1.007M25.404-28.19a.503.503 0 1 0-.003-1.006.503.503 0 0 0 .003 1.007M20.196-28.19a.504.504 0 1 0 0-1.007.504.504 0 0 0 0 1.008M14.989-28.19a.504.504 0 0 0 0-1.007.503.503 0 1 0 0 1.008M9.782-28.19a.503.503 0 1 0-.001-1.005.503.503 0 0 0 0 1.006M4.575-28.19a.503.503 0 1 0 0-1.005.503.503 0 0 0 0 1.006M-.632-28.19a.503.503 0 1 0-.002-1.005.503.503 0 0 0 .002 1.006M-5.84-28.19a.503.503 0 1 0-.001-1.005.503.503 0 0 0 .002 1.006M-11.046-28.19a.503.503 0 0 0 .501-.503.502.502 0 1 0-1.005 0c0 .278.226.504.504.504M-16.254-28.19a.504.504 0 0 0 0-1.007.503.503 0 1 0 0 1.008M-21.462-28.19a.504.504 0 0 0 0-1.007.503.503 0 1 0 0 1.008M-26.669-28.19a.504.504 0 0 0 0-1.007.503.503 0 1 0 0 1.008M-31.876-28.19a.503.503 0 1 0 0-1.005.503.503 0 0 0 0 1.006M-37.083-28.19a.503.503 0 1 0 0-1.005.503.503 0 0 0 0 1.006M-42.29-28.19a.503.503 0 1 0-.001-1.005.503.503 0 0 0 .001 1.006M-47.497-28.19a.503.503 0 1 0-.002-1.005.503.503 0 0 0 .002 1.006M75.198-34.14a.503.503 0 1 0-.503-.504c0 .279.225.504.503.504M69.99-34.14a.503.503 0 1 0 0-1.006.503.503 0 0 0 0 1.006M64.784-34.14a.503.503 0 1 0-.504-.504c0 .279.226.504.504.504M59.576-34.14a.503.503 0 1 0 0-1.006.503.503 0 0 0 0 1.006M54.369-34.14a.503.503 0 1 0 0-1.006.503.503 0 0 0 0 1.006M49.162-34.14a.503.503 0 1 0 0-1.006.503.503 0 0 0 0 1.006M43.954-34.14a.503.503 0 1 0 0-1.006.503.503 0 0 0 0 1.006M38.748-34.14a.503.503 0 1 0-.503-.504c0 .279.226.504.503.504M33.541-34.14a.503.503 0 1 0 0-1.007.503.503 0 0 0 0 1.007M28.333-34.14a.503.503 0 1 0-.503-.504c0 .279.226.504.503.504M23.126-34.14a.503.503 0 1 0 0-1.007.503.503 0 0 0 0 1.007M17.92-34.14a.503.503 0 1 0-.002-1.006.503.503 0 0 0 .002 1.006M12.713-34.14a.503.503 0 1 0-.002-1.006.503.503 0 0 0 .002 1.006M7.505-34.14a.503.503 0 1 0-.503-.504c0 .279.225.504.503.504M2.298-34.14a.503.503 0 1 0 0-1.006.503.503 0 0 0 0 1.006M-2.91-34.14a.503.503 0 1 0 0-1.006.503.503 0 0 0 0 1.006M-8.116-34.14a.503.503 0 1 0-.001-1.006.503.503 0 0 0 0 1.006M-13.324-34.14a.503.503 0 1 0 0-1.006.503.503 0 0 0 0 1.006M-18.53-34.14a.503.503 0 1 0-.002-1.007.503.503 0 0 0 .001 1.007M-23.738-34.14a.503.503 0 1 0 0-1.006.503.503 0 0 0 0 1.006M-28.945-34.14a.503.503 0 1 0-.503-.504c0 .279.224.504.503.504M-34.152-34.14a.503.503 0 1 0-.503-.504c0 .279.225.504.503.504M-39.36-34.14a.503.503 0 1 0-.503-.504c0 .279.225.504.503.504M-44.567-34.14a.503.503 0 1 0-.503-.504c0 .279.225.504.503.504M77.474-40.091a.503.503 0 1 0 0-1.007.503.503 0 0 0 0 1.007M72.268-40.091a.503.503 0 1 0-.503-.504c0 .279.225.504.503.504M67.06-40.091a.502.502 0 0 0 .502-.504.503.503 0 1 0-.501.504M61.853-40.091a.503.503 0 1 0-.503-.504c0 .279.226.504.503.504M56.646-40.091a.502.502 0 0 0 .502-.504.503.503 0 1 0-.502.504M51.438-40.091a.503.503 0 1 0 .001-1.005.503.503 0 0 0 0 1.005M46.232-40.091a.503.503 0 1 0-.001-1.006.503.503 0 0 0 0 1.006M41.025-40.091a.503.503 0 1 0-.001-1.006.503.503 0 0 0 0 1.006M35.818-40.091a.503.503 0 1 0-.504-.504c0 .279.226.504.504.504M30.611-40.091a.503.503 0 1 0-.002-1.006.503.503 0 0 0 .002 1.006M25.404-40.091a.503.503 0 1 0-.002-1.006.503.503 0 0 0 .002 1.006M20.196-40.091a.503.503 0 1 0 0-1.007.503.503 0 0 0 0 1.007M14.989-40.091a.503.503 0 1 0 0-1.007.503.503 0 0 0 0 1.007M9.782-40.091a.503.503 0 1 0 0-1.006.503.503 0 0 0 0 1.006M4.575-40.091a.503.503 0 1 0-.503-.504c0 .279.225.504.503.504M-.632-40.091a.503.503 0 1 0-.503-.504c0 .279.225.504.503.504M-5.84-40.091a.503.503 0 1 0-.503-.504c0 .279.226.504.504.504M-11.046-40.091a.503.503 0 1 0-.503-.504c0 .279.225.504.503.504M-16.254-40.091a.504.504 0 1 0 0-1.007.504.504 0 0 0 0 1.007M-21.462-40.091a.504.504 0 1 0 0-1.007.504.504 0 0 0 0 1.007M-26.669-40.091a.503.503 0 1 0 0-1.007.503.503 0 0 0 0 1.007M-31.876-40.091a.503.503 0 1 0-.503-.504c0 .279.226.504.503.504M-37.083-40.091a.503.503 0 1 0-.503-.504c0 .279.225.504.503.504M-42.29-40.091a.503.503 0 1 0-.503-.504c0 .279.225.504.503.504M-47.497-40.091a.503.503 0 1 0-.001-1.005.503.503 0 0 0 0 1.005M75.198-46.042a.503.503 0 1 0-.002-1.005.503.503 0 0 0 .002 1.005M69.99-46.042a.504.504 0 1 0-.001-1.007.504.504 0 0 0 .002 1.007M64.784-46.042a.503.503 0 1 0-.002-1.005.503.503 0 0 0 .002 1.005M59.576-46.042a.503.503 0 1 0-.002-1.007.503.503 0 0 0 .002 1.007M54.369-46.042a.503.503 0 1 0-.001-1.006.503.503 0 0 0 0 1.006M49.162-46.042a.504.504 0 1 0-.002-1.007.504.504 0 0 0 .002 1.007M43.954-46.042a.503.503 0 1 0 0-1.006.503.503 0 0 0 0 1.006M38.748-46.042a.503.503 0 1 0-.001-1.006.503.503 0 0 0 .001 1.006M33.541-46.042a.504.504 0 1 0-.002-1.007.504.504 0 0 0 .002 1.007M28.333-46.042a.503.503 0 1 0 0-1.005.503.503 0 0 0 0 1.005M23.126-46.042a.504.504 0 1 0 0-1.007.504.504 0 0 0 0 1.007M17.92-46.042a.504.504 0 1 0-.003-1.007.504.504 0 0 0 .003 1.007M12.713-46.042a.503.503 0 1 0-.003-1.006.503.503 0 0 0 .003 1.006M7.505-46.042a.503.503 0 1 0-.001-1.006.503.503 0 0 0 .001 1.006M2.298-46.042a.503.503 0 1 0-.001-1.006.503.503 0 0 0 .001 1.006M-2.91-46.042a.504.504 0 1 0-.001-1.007.504.504 0 0 0 .002 1.007M-8.116-46.042a.503.503 0 1 0-.002-1.007.503.503 0 0 0 .002 1.007M-13.324-46.042a.504.504 0 1 0-.001-1.007.504.504 0 0 0 .001 1.007M-18.53-46.042a.504.504 0 1 0-.003-1.007.504.504 0 0 0 .002 1.007M-23.738-46.042a.503.503 0 1 0-.002-1.006.503.503 0 0 0 .002 1.006M-28.945-46.042a.503.503 0 1 0-.002-1.006.503.503 0 0 0 .002 1.006M-34.152-46.042a.503.503 0 1 0-.002-1.006.503.503 0 0 0 .002 1.006M-39.36-46.042a.503.503 0 1 0-.001-1.006.503.503 0 0 0 .001 1.006M-44.567-46.042a.503.503 0 1 0-.002-1.005.503.503 0 0 0 .002 1.005M77.474-51.992a.504.504 0 1 0 0-1.008.504.504 0 0 0 0 1.008M72.268-51.992a.503.503 0 1 0-.001-1.006.503.503 0 0 0 0 1.006M67.06-51.992a.502.502 0 0 0 .502-.504.502.502 0 1 0-1.004 0c0 .278.225.504.503.504M61.853-51.992a.502.502 0 0 0 .503-.504.502.502 0 1 0-1.006 0c0 .278.226.504.503.504M56.646-51.992a.502.502 0 0 0 .502-.504.502.502 0 1 0-1.004 0c0 .278.224.504.502.504M51.438-51.992a.503.503 0 1 0 0-1.006.503.503 0 0 0 0 1.006M46.232-51.992A.503.503 0 1 0 46.23-53a.503.503 0 0 0 .002 1.007M41.025-51.992A.503.503 0 1 0 41.023-53a.503.503 0 0 0 .002 1.007M35.818-51.992a.503.503 0 1 0-.001-1.006.503.503 0 0 0 .001 1.006M30.611-51.992A.503.503 0 1 0 30.61-53a.503.503 0 0 0 .002 1.007M25.404-51.992A.503.503 0 1 0 25.401-53a.503.503 0 0 0 .003 1.007M20.196-51.992a.504.504 0 1 0 0-1.008.504.504 0 0 0 0 1.008M14.989-51.992a.504.504 0 0 0 0-1.008.503.503 0 1 0 0 1.008M9.782-51.992a.503.503 0 1 0 0-1.006.503.503 0 0 0 0 1.006M4.575-51.992a.503.503 0 1 0 0-1.006.503.503 0 0 0 0 1.006M-.632-51.992a.503.503 0 1 0-.002-1.006.503.503 0 0 0 .002 1.006M-5.84-51.992a.503.503 0 0 0 .502-.504.502.502 0 1 0-1.005 0c0 .278.226.504.504.504M-11.046-51.992a.503.503 0 0 0 .501-.504.502.502 0 1 0-1.005 0c0 .278.226.504.504.504M-16.254-51.992a.504.504 0 0 0 0-1.008.503.503 0 0 0 0 1.008M-21.462-51.992a.504.504 0 1 0 0-1.008.504.504 0 0 0 0 1.008M-26.669-51.992A.504.504 0 1 0-26.67-53a.504.504 0 0 0 .001 1.008M-31.876-51.992a.503.503 0 1 0 0-1.006.503.503 0 0 0 0 1.006M-37.083-51.992a.503.503 0 1 0 0-1.006.503.503 0 0 0 0 1.006M-42.29-51.992a.503.503 0 1 0-.001-1.006.503.503 0 0 0 .001 1.006M-47.497-51.992a.503.503 0 1 0-.002-1.006.503.503 0 0 0 .002 1.006"/>
            </g>
        </g>
        <path fill="#A18775" d="M856.86 182.843c8.284 0 15-7.496 15-16.744v-10.714c0-9.247-6.716-16.744-15-16.744-8.285 0-15 7.497-15 16.744v10.714c0 9.248 6.715 16.744 15 16.744"/>
        <path fill="#A18775" d="M856.86 185.341c8.284 0 15-7.41 15-16.553v-.963c0-9.142-6.716-16.554-15-16.554-8.285 0-15 7.412-15 16.554v.963c0 9.142 6.715 16.553 15 16.553"/>
        <path fill="#B5A49C" d="M841.86 162.948h30v-7.463h-30z"/>
        <path fill="#B4B4B4" d="M856.862 137.924c7.775 0 14.138-6.406 14.138-14.235v-8.455c0-7.828-6.362-14.234-14.138-14.234-7.775 0-14.136 6.406-14.136 14.234v8.455c0 7.83 6.361 14.235 14.136 14.235"/>
        <path fill="#FFC9B2" d="M856.684 142.18h.69c2.178 0 3.962-1.796 3.962-3.99s-1.784-3.99-3.962-3.99h-.69c-2.18 0-3.963 1.796-3.963 3.99s1.784 3.99 3.963 3.99"/>
        <path fill="#FFD8C6" d="M855.76 142.18c1.677 0 3.037-1.37 3.037-3.059v-1.862c0-1.69-1.36-3.059-3.037-3.059a3.048 3.048 0 0 0-3.039 3.06v1.861c0 1.689 1.36 3.059 3.039 3.059"/>
        <path fill="#FFC9B2" d="M857.236 137.924c7.096 0 12.9-5.844 12.9-12.988v-7.387c0-7.144-5.804-12.988-12.9-12.988-7.094 0-12.899 5.844-12.899 12.988v7.387c0 7.144 5.805 12.988 12.899 12.988"/>
        <path fill="#FFD8C6" d="M855.714 137.924c6.257 0 11.376-5.155 11.376-11.455v-8.49c0-6.301-5.12-11.455-11.376-11.455-6.257 0-11.376 5.154-11.376 11.455v8.49c0 6.3 5.119 11.455 11.376 11.455"/>
        <path fill="#FFC9B2" d="M870.026 123.258c1.479 0 2.687-1.218 2.687-2.705 0-1.489-1.208-2.706-2.687-2.706-1.478 0-2.688 1.217-2.688 2.706 0 1.487 1.21 2.705 2.688 2.705"/>
        <path fill="#FFD8C6" d="M844.088 123.258c1.479 0 2.687-1.218 2.687-2.705 0-1.489-1.208-2.706-2.687-2.706-1.478 0-2.687 1.217-2.687 2.706 0 1.487 1.21 2.705 2.687 2.705"/>
        <path fill="#2D1C27" d="M861.526 119.393a.734.734 0 0 0 0-1.468.733.733 0 0 0 0 1.468M853.001 119.393a.733.733 0 0 0 0-1.468.733.733 0 1 0 0 1.468"/>
        <path fill="#FB9EAE" d="M854.171 123.564s-.175 3.177 3.155 3.177c3.332 0 3.157-3.177 3.157-3.177"/>
        <path fill="#B4B4B4" d="M855.26 117.05h-4.698a.882.882 0 0 1 0-1.765h4.698a.882.882 0 0 1 0 1.765M863.526 117.05h-4.7a.882.882 0 0 1 0-1.765h4.7a.882.882 0 0 1 0 1.765M866.588 111.093h-10.125c-2.384 0-4.334-1.964-4.334-4.363 0-2.4 1.95-4.363 4.334-4.363h10.125c2.384 0 4.335 1.963 4.335 4.363 0 2.4-1.95 4.363-4.335 4.363"/>
        <path fill="#F2F2F2" d="M860.476 139.14v.444c0 1.112-.883 1.947-1.987 1.947h-3.415c-1.104 0-2.096-.835-2.096-1.947v-.463c0 .012-.938.045-.938.097v.366c0 1.751 1.295 2.89 3.034 2.89h3.415c1.74 0 3.394-1.139 3.394-2.89v-.302c-.938-.067-.938-.114-1.407-.141"/>
        <path fill="#F18C50" d="M897.982 147.093c-6.764 0-12.016 4.905-12.016 10.899V178.069c0 2.686 2.177 5.095 5.208 5.095h13.621c3.031 0 5.204-2.409 5.204-5.095V157.992c0-5.994-5.252-10.899-12.017-10.899"/>
        <path fill="#FFD4BD" d="M915.43 172.11a2.88 2.88 0 0 0-.037-1.42l-4.93-17.516c-.431-1.529-2.025-2.426-3.545-1.993-1.519.434-2.41 2.04-1.979 3.569l4.284 15.216-11.814 5.222a3.748 3.748 0 0 0-.428-.141c-1.942-.494-3.913.69-4.404 2.645-.49 1.955.686 3.939 2.628 4.433a3.612 3.612 0 0 0 3.76-1.313l14.793-6.538a2.89 2.89 0 0 0 1.673-2.164"/>
        <path fill="#9A9A9A" d="M896.662 112.333c-.215.01-.43.023-.642.042-.017 0-.035-.06-.051-.058-.457.04-.908.11-1.352.11h.018c-1.246 1.258-1.655 3.764-1.655 5.955v.007c0 5.243 3.905 9.77 9.112 9.77h2.63c.225 1.26 1.278 1.889 2.535 1.889h9.515l-.77-1.444c-.598-1.361-1.007-2.962-1.382-3.591-.722-2.517-1.64-5.26-4.14-7.25v-.025c0-.493-.839-.971-1.35-1.408-.008-.006.035-.02.028-.025a16.54 16.54 0 0 0-1.562-1.2c-.016-.01-.02-.022-.036-.033-.178-.117-.35-.232-.533-.343-.01-.006-.018-.013-.03-.019-.367-.222-.742-.43-1.128-.625l-.073-.037c-.186-.092-.372-.18-.561-.266a15.705 15.705 0 0 0-.642-.274c-.004-.003-.008-.004-.013-.006-.194-.078-.39-.15-.586-.221l-.095-.034a16.537 16.537 0 0 0-.582-.192l-.087-.027c-.198-.06-.396-.117-.596-.17-.007 0-.012-.003-.019-.004a15.068 15.068 0 0 0-.719-.17 15.756 15.756 0 0 0-.6-.117c-.035-.007-.07-.012-.106-.018-.205-.035-.41-.067-.618-.094l-.016-.002a15.9 15.9 0 0 0-.632-.068l-.117-.012c-.205-.016-.412-.03-.62-.04-.038-.001.015-.002-.024-.004-.216-.009.692-.005-.558-.005v.103h-1.19c-.218 0-.434-.05-.65-.042-.034.002-.068-.053-.103-.052"/>
        <g>
            <g fill="#318369">
                <path d="M128.659 230.553H99.396c-4.42 0-8.037-3.595-8.037-7.99 0-4.394 3.616-7.989 8.037-7.989h29.263c4.42 0 8.037 3.595 8.037 7.99 0 4.394-3.616 7.989-8.037 7.989z"/>
                <path d="M128.847 218.02h-32.15c-3.683 0-6.697-2.995-6.697-6.656 0-3.662 3.014-6.658 6.697-6.658h32.15c3.683 0 6.697 2.996 6.697 6.657 0 3.662-3.014 6.658-6.697 6.658"/>
                <path d="M123.961 206.585h-22.693c-3.684 0-6.698-2.995-6.698-6.657s3.014-6.658 6.698-6.658h22.693c3.684 0 6.698 2.996 6.698 6.658 0 3.662-3.014 6.657-6.698 6.657"/>
                <path d="M116.888 195.933H105.42c-3.154 0-5.735-2.565-5.735-5.7 0-3.134 2.58-5.7 5.735-5.7h11.468c3.153 0 5.734 2.566 5.734 5.7 0 3.135-2.58 5.7-5.734 5.7"/>
                <path d="M113.38 188.691h-.945c-3.153 0-5.734-2.565-5.734-5.7 0-3.134 2.581-5.7 5.734-5.7h.945c3.153 0 5.734 2.566 5.734 5.7 0 3.135-2.58 5.7-5.734 5.7"/>
            </g>
            <path fill="#56453F" d="M130.587 224.997h4.764c.773 0 1.406-.884 1.406-1.964l-3.272-115.131c0-1.081-.632-1.965-1.406-1.965-.773 0-1.406.884-1.406 1.965l-1.492 115.13c0 1.08.633 1.965 1.406 1.965"/>
            <path fill="#56453F" d="M130.324 173.771l1.552-1.86c.252-.303.272-.708.046-.9l-24.761-19.787c-.227-.193-.618-.103-.87.199l-.776.931c-.252.302-.273.706-.046.9l23.986 20.716c.226.193.618.104.87-.199M132.403 115.7l-1.23-1.476c-.2-.24-.282-.505-.182-.59l11.164-8.489c.1-.085.345.041.545.281l.616.738c.2.24.28.505.18.59l-10.548 9.227c-.1.085-.346-.041-.545-.28M132.253 158.76l1.443 1.948c.235.316.62.428.857.249l24.698-19.868c.237-.18.24-.585.005-.9l-.722-.975c-.234-.316-.62-.428-.857-.249l-25.418 18.894c-.237.179-.24.585-.006.9"/>
            <path fill="#56453F" d="M145.654 148.97l1.867.093c.304.016.557-.08.563-.21l-.06-13.98c.006-.13-.236-.25-.54-.266l-.933-.046c-.303-.015-.556.08-.563.21l-.873 13.934c-.007.13.236.25.54.265M132.307 129.416l-.967 1.623c-.157.263-.388.417-.514.34l-12.978-8.768c-.125-.076-.1-.354.058-.618l.484-.811c.157-.264.387-.416.513-.34l13.462 7.957c.125.076.099.354-.058.617"/>
            <path fill="#56453F" d="M123.367 124.216l-1.44.22c-.233.034-.433.002-.444-.074l-.637-8.171c-.011-.076.17-.167.404-.203l.72-.11c.234-.036.434-.003.445.073l1.356 8.062c.012.076-.17.167-.404.203"/>
            <path fill="#8ECD4D" d="M164.185 138.88a7.225 7.225 0 0 1 5.808 2.932 7.225 7.225 0 0 1-5.808 2.933 7.226 7.226 0 0 1-5.808-2.933 7.226 7.226 0 0 1 5.808-2.933"/>
            <path fill="#CEE359" d="M102.652 151.681a4.727 4.727 0 0 1 4.04 1.367 4.757 4.757 0 0 1-3.507 2.444 4.728 4.728 0 0 1-4.04-1.367 4.759 4.759 0 0 1 3.507-2.444"/>
            <path fill="#8ECD4D" d="M111.939 160.535a6.38 6.38 0 0 1 5.316 2.197 6.403 6.403 0 0 1-4.93 2.976 6.381 6.381 0 0 1-5.316-2.197 6.4 6.4 0 0 1 4.93-2.976"/>
            <path fill="#CEE359" d="M155.063 146.104a6.108 6.108 0 0 1 4.257 3.45 6.052 6.052 0 0 1-5.288 1.37 6.108 6.108 0 0 1-4.257-3.45 6.05 6.05 0 0 1 5.288-1.37"/>
            <path fill="#8ECD4D" d="M143.962 131.08a6.19 6.19 0 0 1 1.873 5.179 6.053 6.053 0 0 1-5.226-1.595 6.187 6.187 0 0 1-1.872-5.178 6.055 6.055 0 0 1 5.225 1.594M112.88 120.306a7.225 7.225 0 0 1 5.808 2.932 7.225 7.225 0 0 1-5.808 2.933 7.226 7.226 0 0 1-5.808-2.933 7.226 7.226 0 0 1 5.808-2.932"/>
            <path fill="#CEE359" d="M117.722 112.905a6.223 6.223 0 0 1 3.52 4.31 6.124 6.124 0 0 1-5.527.258 6.225 6.225 0 0 1-3.52-4.31 6.122 6.122 0 0 1 5.527-.258"/>
            <path fill="#8ECD4D" d="M148.052 104.664a7.227 7.227 0 0 1 5.808 2.933 7.226 7.226 0 0 1-5.808 2.933 7.226 7.226 0 0 1-5.809-2.933 7.227 7.227 0 0 1 5.809-2.933M112.357 152.711a5.824 5.824 0 0 1 3.28-4.049 5.88 5.88 0 0 1 1.24 5.078 5.826 5.826 0 0 1-3.28 4.05 5.88 5.88 0 0 1-1.24-5.079M128.494 102.756a7.323 7.323 0 0 1 3.655 5.42 7.188 7.188 0 0 1-6.488-.3 7.324 7.324 0 0 1-3.654-5.42 7.188 7.188 0 0 1 6.487.3M159.524 135.362a7.379 7.379 0 0 1-.957 6.486 7.285 7.285 0 0 1-4.564-4.665 7.38 7.38 0 0 1 .957-6.486 7.286 7.286 0 0 1 4.564 4.665M108.272 147.374a5.885 5.885 0 0 1-1.87 4.895 5.86 5.86 0 0 1-2.755-4.448 5.886 5.886 0 0 1 1.87-4.895 5.863 5.863 0 0 1 2.755 4.448"/>
            <path fill="#CEE359" d="M132.663 103.228a5.895 5.895 0 0 1 4.923-2.004 6.025 6.025 0 0 1-1.367 5.18 5.895 5.895 0 0 1-4.922 2.003 6.026 6.026 0 0 1 1.366-5.18"/>
            <path fill="#8ECD4D" d="M143.713 101.147a7.38 7.38 0 0 1-.957 6.486 7.286 7.286 0 0 1-4.564-4.665 7.38 7.38 0 0 1 .957-6.486 7.285 7.285 0 0 1 4.564 4.665"/>
            <g fill="#BD8F66">
                <path d="M177.124 215.234h4.725v-31.376h-4.725zM172.398 245.702h9.45v-28.01h-9.45zM257.45 245.702h9.45v-28.01h-9.45zM257.45 215.234h4.725v-31.376h-4.725z"/>
                <path d="M167.674 203.167h103.952v-9.655H167.674zM167.674 188.685h103.952v-9.654H167.674zM167.674 217.648h103.952v-4.828H167.674z"/>
            </g>
            <g transform="translate(206 132)">
                <path fill="#FFD4BD" d="M40.09 110.15h5.18V96.133h-5.18z"/>
                <rect width="26" height="15" x="22" y="67" fill="#5A6083" rx="7"/>
                <path fill="#B8B8B8" d="M39.656 113.409c0-2.706 2.106-4.92 4.679-4.92h2.184c2.572 0 4.678 2.214 4.678 4.92"/>
                <path fill="#B8B8B8" d="M39.656 113.409v-4.257c0-.365.43-.664.954-.664h4.747c.524 0 .953.299.953.664v4.257"/>
                <path fill="#FFD4BD" d="M25.204 110.15h5.181V96.133h-5.181z"/>
                <path fill="#B8B8B8" d="M30.818 113.409c0-2.706-2.106-4.92-4.678-4.92h-2.184c-2.573 0-4.679 2.214-4.679 4.92M50.675 113.847H40.178a.536.536 0 0 1-.522-.55v-.031c0-.303.234-.55.522-.55h10.497c.288 0 .522.247.522.55v.032c0 .303-.234.549-.522.549"/>
                <path fill="#B8B8B8" d="M19.8 113.847h10.496a.536.536 0 0 0 .522-.55v-.031a.536.536 0 0 0-.522-.55H19.799a.536.536 0 0 0-.521.55v.032c0 .303.233.549.521.549"/>
                <path fill="#B8B8B8" d="M30.818 113.409v-4.257c0-.365-.429-.664-.953-.664h-4.748c-.524 0-.953.299-.953.664v4.257"/>
                <path fill="#B4B4B4" d="M35.933 30.436c8.071 0 14.675-6.563 14.675-14.583v-.67C50.608 7.163 44.004.6 35.933.6 27.863.6 21.26 7.162 21.26 15.183v.67c0 8.02 6.603 14.583 14.674 14.583"/>
                <path fill="#FFC9B2" d="M33.33 41.12h5.55a.505.505 0 0 0 .505-.502V28.584a.505.505 0 0 0-.505-.501h-5.55a.504.504 0 0 0-.504.501v12.034c0 .276.227.502.504.502"/>
                <path fill="#FFD8C6" d="M32.826 41.12h4.626V28.083h-4.626z"/>
                <path fill="#FFC9B2" d="M36.106 32.972c7.215 0 13.118-5.867 13.118-13.037v-4.397c0-7.17-5.903-13.036-13.118-13.036-7.215 0-13.12 5.866-13.12 13.036v4.397c0 7.17 5.905 13.037 13.12 13.037"/>
                <path fill="#FFD8C6" d="M34.557 32.972c6.363 0 11.57-5.174 11.57-11.498v-5.682c0-6.324-5.207-11.498-11.57-11.498-6.364 0-11.57 5.174-11.57 11.498v5.682c0 6.324 5.206 11.498 11.57 11.498"/>
                <path fill="#EAA3AD" d="M33.601 25s-.111 2 2 2c2.109 0 1.998-2 1.998-2"/>
                <path fill="#FFC9B2" d="M49.113 22.65c1.504 0 2.733-1.22 2.733-2.715 0-1.494-1.23-2.716-2.733-2.716-1.503 0-2.732 1.222-2.732 2.716 0 1.494 1.23 2.716 2.732 2.716"/>
                <path fill="#FFD8C6" d="M22.733 22.65c1.503 0 2.733-1.22 2.733-2.715 0-1.494-1.23-2.716-2.733-2.716-1.503 0-2.733 1.222-2.733 2.716 0 1.494 1.23 2.716 2.733 2.716"/>
                <path fill="#2D1C27" d="M39.426 18.511a.742.742 0 0 0 .742-.737.742.742 0 0 0-1.484 0c0 .405.334.737.742.737M32.007 18.511a.742.742 0 0 0 .742-.737.742.742 0 0 0-1.484 0c0 .405.334.737.742.737"/>
                <path fill="#FFDD4C" d="M15.977 50.537c4.784-.188 9.43-1.53 13.94-4.03 2.23-.088 4.032-2.002 4.008-4.255-.025-2.252-1.87-4.024-4.099-3.937-7.924 3.062-12.791 4.433-14.603 4.114-1.812-.32-5.931-.178-12.359.424.17 4.662.998 6.965 2.484 6.906 2.302.706 5.845.966 10.63.778z"/>
                <path fill="#FFDD4C" d="M23 48.59V67.783c0 3.104 2.242 5.886 5.364 5.886h14.03c3.123 0 5.36-2.782 5.36-5.886V48.59c0-6.925-5.408-12.59-12.377-12.59C28.41 36 23 41.665 23 48.59z"/>
                <path fill="#646B91" d="M42.671 103.21c-2.573 0-4.678-2.137-4.678-4.748v-24.23c0-2.611 2.105-4.747 4.678-4.747 2.574 0 4.679 2.136 4.679 4.747v24.23c0 2.611-2.105 4.748-4.679 4.748"/>
                <path fill="#575E83" d="M46.286 104.911h-7.23c-.584 0-1.063-.401-1.063-.891v-2.137c0-.49.479-.892 1.064-.892h7.229c.585 0 1.064.402 1.064.892v2.137c0 .49-.479.891-1.064.891"/>
                <path fill="#646B91" d="M27.803 103.21c2.574 0 4.679-2.137 4.679-4.748v-24.23c0-2.611-2.105-4.747-4.679-4.747-2.574 0-4.679 2.136-4.679 4.747v24.23c0 2.611 2.105 4.748 4.68 4.748"/>
                <path fill="#575E83" d="M24.188 104.911h7.23c.584 0 1.064-.401 1.064-.891v-2.137c0-.49-.48-.892-1.065-.892h-7.229c-.585 0-1.064.402-1.064.892v2.137c0 .49.479.891 1.064.891"/>
                <path fill="#FFF" d="M39.329 36.29L35.74 56.145 32.524 36.29z"/>
                <path fill="#B4B4B4" d="M35.377 22.095l-1.75 1.004a.687.687 0 1 1-.691-1.19l1.75-1.003a.696.696 0 0 1 .944.25c.19.328.076.75-.253.94"/>
                <path fill="#B4B4B4" d="M35.998 22.095l1.9 1.09c.329.19.754.076.945-.252a.686.686 0 0 0-.254-.937l-1.9-1.09a.697.697 0 0 0-.944.25.687.687 0 0 0 .253.94M35.427 9.799c-2.435 0-4.427-1.98-4.427-4.4C31 2.98 32.992 1 35.427 1c2.435 0 4.427 1.98 4.427 4.4 0 2.419-1.992 4.399-4.427 4.399"/>
            </g>
            <g transform="translate(189 126)">
                <path fill="#2D1C27" d="M19.271 31.358c8.334 0 15.154-6.857 15.154-15.237 0-8.38-6.82-15.236-15.154-15.236C10.936.885 4.117 7.74 4.117 16.12s6.82 15.237 15.154 15.237"/>
                <path fill="#FFC9B2" d="M16.715 44.68h5.913c.275 0 .5-.226.5-.503V31.282a.503.503 0 0 0-.5-.503h-5.913c-.275 0-.5.226-.5.503v12.895c0 .277.225.503.5.503"/>
                <path fill="#FFD8C6" d="M16.216 44.68h4.875V30.779h-4.875z"/>
                <path fill="#FFC9B2" d="M19.672 35.991c7.604 0 13.826-6.255 13.826-13.9v-1.74c0-7.645-6.222-13.901-13.826-13.901-7.605 0-13.826 6.256-13.826 13.902v1.738c0 7.646 6.221 13.901 13.826 13.901"/>
                <path fill="#FFD8C6" d="M18.04 35.991c6.706 0 12.193-5.517 12.193-12.26v-3.283c0-6.743-5.487-12.26-12.193-12.26-6.707 0-12.195 5.517-12.195 12.26v3.283c0 6.743 5.488 12.26 12.195 12.26"/>
                <path fill="#FFC9B2" d="M33.38 24.324c1.585 0 2.882-1.304 2.882-2.896 0-1.594-1.297-2.897-2.881-2.897-1.584 0-2.88 1.303-2.88 2.897 0 1.592 1.296 2.896 2.88 2.896"/>
                <path fill="#FFD8C6" d="M5.579 24.324c1.583 0 2.88-1.304 2.88-2.896 0-1.594-1.297-2.897-2.88-2.897-1.584 0-2.88 1.303-2.88 2.897 0 1.592 1.296 2.896 2.88 2.896"/>
                <path fill="#2D1C27" d="M23.83 20.571a.786.786 0 0 0 0-1.57.786.786 0 0 0 0 1.57"/>
                <path fill="#EB5B76" d="M27.2 24.694h2.587a1.415 1.415 0 0 0 0-2.828h-2.588a1.414 1.414 0 0 0 0 2.828M8.588 25.243h3.09a1.69 1.69 0 0 0 0-3.377h-3.09a1.689 1.689 0 0 0 0 3.377" opacity=".2"/>
                <path fill="#2D1C27" d="M33.25 14.513H19.768c-1.724 0-6.301-.11-7.468-3.521-.808-2.362.719-4.681 2.417-6.013l3.6 4.614a2.244 2.244 0 0 0-.1-.68c-.22-.705-.704-1.12-.856-1.185.023.009.575.169 2.407.169h13.48c1.723 0 3.12 1.576 3.12 3.308 0 1.731-1.397 3.308-3.12 3.308"/>
                <path fill="#2D1C27" d="M30.865 9.1H17.472c-1.317 0-2.385-1.082-2.385-2.406 0-1.325 1.068-2.406 2.385-2.406h13.393c1.317 0 2.384 1.081 2.384 2.406 0 1.324-1.067 2.405-2.384 2.405"/>
                <path fill="#2D1C27" d="M12.749 10.358a6.844 6.844 0 0 1-.162-1.48v-.011c0-3.806 3.098-6.933 6.882-6.933h1.387c4.936.37 9.075 3.813 10.418 8.424H12.749z"/>
                <path fill="#2D1C27" d="M5.975 14.513h13.48c1.724 0 6.302-.11 7.469-3.521.807-2.362-.72-4.681-2.417-6.013l-3.6 4.614a2.244 2.244 0 0 1 .1-.68c.22-.705.703-1.12.856-1.185-.024.009-.575.169-2.407.169H5.976c-1.724 0-3.12 1.576-3.12 3.308 0 1.731 1.396 3.308 3.12 3.308"/>
                <path fill="#2D1C27" d="M8.36 9.1h13.392c1.317 0 2.385-1.082 2.385-2.406 0-1.325-1.068-2.406-2.385-2.406H8.36c-1.317 0-2.385 1.081-2.385 2.406 0 1.324 1.068 2.405 2.385 2.405"/>
                <path fill="#2D1C27" d="M26.476 10.358c.105-.477.16-.971.16-1.48v-.011c0-3.806-3.096-6.933-6.881-6.933h-1.387c-4.935.37-9.075 3.813-10.417 8.424h18.525zM25.918 17.825h-2.987a.853.853 0 0 1 0-1.704h2.987a.853.853 0 0 1 0 1.704M14.7 20.571a.786.786 0 0 1 0-1.57.786.786 0 0 1 0 1.57M12.612 17.825h2.986a.853.853 0 0 0 0-1.704h-2.986a.853.853 0 0 0 0 1.704"/>
                <path fill="#E57685" d="M15.723 23.384s-.202 3.67 3.651 3.67c3.853 0 3.65-3.67 3.65-3.67"/>
                <path fill="#3545A7" d="M19.273 85.929c7.953 0 14.46-6.843 14.46-15.205V53.899c0-8.364-6.507-15.206-14.46-15.206-7.952 0-14.459 6.842-14.459 15.206v16.825c0 8.362 6.507 15.205 14.46 15.205"/>
                <path fill="#5984C3" d="M11.452 88.554h16.014c3.563 0 6.452-3.038 6.452-6.785V67.786c0-3.748-2.89-6.786-6.452-6.786H11.452C7.89 61 5 64.038 5 67.786v13.983c0 3.747 2.889 6.785 6.452 6.785"/>
                <path fill="#FFF" d="M23.042 38.57L19.37 62.954 15.7 38.57z"/>
                <path fill="#D7DEE6" d="M25.401 37.97L22.14 41.4l-3.262-3.43z"/>
                <path fill="#D7DEE6" d="M19.917 37.97l-3.263 3.43-3.262-3.43z"/>
                <path fill="#FFF" d="M24.101 53.782h4.575V52.47h-4.575z"/>
                <path fill="#FFD4BD" d="M24.09 113.942h5.18v-11.809h-5.18z"/>
                <path fill="#6593D5" d="M26.992 103.21c-2.75 0-5-2.215-5-4.921V73.177c0-2.707 2.25-4.92 5-4.92 2.751 0 5 2.213 5 4.92v25.112c0 2.706-2.249 4.921-5 4.921"/>
                <path fill="#896C53" d="M23.656 119.409c0-2.706 2.106-4.92 4.679-4.92h2.184c2.572 0 4.678 2.214 4.678 4.92"/>
                <path fill="#896C53" d="M23.656 119.409v-6.432c0-.552.43-1.003.954-1.003h4.747c.524 0 .953.451.953 1.003v6.432"/>
                <path fill="#896C53" d="M34.675 119.847H24.178a.536.536 0 0 1-.522-.55v-.031c0-.303.234-.55.522-.55h10.497c.288 0 .522.247.522.55v.032c0 .303-.234.549-.522.549"/>
                <path fill="#FFD4BD" d="M9.204 113.942h5.181v-11.809H9.204z"/>
                <path fill="#6593D5" d="M12 102.954c2.75 0 5-2.215 5-4.921V72.92c0-2.706-2.25-4.92-5-4.92s-5 2.214-5 4.92v25.113c0 2.706 2.25 4.92 5 4.92"/>
                <rect width="10" height="13" x="7" y="96" fill="#AFC6E7" rx="1"/>
                <rect width="10" height="13" x="22" y="96" fill="#AFC6E7" rx="1"/>
                <path fill="#896C53" d="M14.818 119.409c0-2.706-2.106-4.92-4.678-4.92H7.956c-2.573 0-4.679 2.214-4.679 4.92"/>
                <path fill="#896C53" d="M14.818 119.409v-6.432c0-.552-.429-1.003-.953-1.003H9.117c-.524 0-.953.451-.953 1.003v6.432"/>
                <path fill="#896C53" d="M3.8 119.847h10.496a.536.536 0 0 0 .522-.55v-.031a.536.536 0 0 0-.522-.55H3.799a.536.536 0 0 0-.521.55v.032c0 .303.233.549.521.549"/>
                <path fill="#B4B4B4" d="M33.58 79.363H5.06c-1.64 0-2.98-1.41-2.98-3.134V58.043c0-1.724 1.34-3.135 2.98-3.135H33.58c1.64 0 2.98 1.41 2.98 3.135v18.186c0 1.724-1.34 3.134-2.98 3.134M36.713 79.363H1.67c-.794 0-1.443.683-1.443 1.517 0 .835.649 1.518 1.443 1.518h35.044c.793 0 1.443-.683 1.443-1.518 0-.834-.65-1.517-1.443-1.517"/>
                <path fill="#FFF" d="M21.077 64.568c-.002.706-.547 1.277-1.22 1.277-.034 0-.068-.002-.101-.005.002-.706.547-1.278 1.22-1.278.034 0 .068.003.101.006M19.32 65.95c-.529 0-1.004.24-1.334.62a.94.94 0 0 1 .503.842c0 .518-.4.938-.893.938l-.023-.002c.208.812.91 1.41 1.748 1.41 1 0 1.811-.852 1.811-1.904s-.81-1.905-1.811-1.905"/>
            </g>
            <g fill="#CEE359">
                <path d="M130.546 246.552H119.36c-2.603 0-4.733-2.104-4.733-4.677 0-2.573 2.13-4.678 4.733-4.678h11.185c2.603 0 4.732 2.105 4.732 4.678s-2.13 4.677-4.732 4.677"/>
                <path d="M133.213 239.068h-18.929c-2.603 0-4.732-2.105-4.732-4.678s2.13-4.678 4.732-4.678h18.93c2.602 0 4.731 2.105 4.731 4.678s-2.129 4.678-4.732 4.678"/>
                <path d="M119.963 231.583h-3.785c-2.603 0-4.733-2.104-4.733-4.677 0-2.573 2.13-4.678 4.733-4.678h3.785c2.603 0 4.732 2.105 4.732 4.678s-2.13 4.677-4.732 4.677"/>
                <path d="M122.802 227.841c-3.123 0-5.678-2.526-5.678-5.613 0-3.087 2.555-5.614 5.678-5.614 3.124 0 5.679 2.527 5.679 5.614 0 3.087-2.555 5.613-5.679 5.613"/>
                <path d="M129.977 230.498h-4.885c-2.3 0-4.183-1.861-4.183-4.135 0-2.275 1.883-4.135 4.183-4.135h4.885c2.3 0 4.182 1.86 4.182 4.135 0 2.274-1.882 4.135-4.182 4.135M139.024 246.552h-11.185c-2.603 0-4.732-2.104-4.732-4.677 0-2.573 2.129-4.678 4.732-4.678h11.185c2.603 0 4.732 2.105 4.732 4.678s-2.13 4.677-4.732 4.677"/>
                <path d="M141.691 239.068h-18.929c-2.602 0-4.732-2.105-4.732-4.678s2.13-4.678 4.732-4.678h18.93c2.602 0 4.731 2.105 4.731 4.678s-2.129 4.678-4.732 4.678"/>
                <path d="M128.441 231.583h-3.786c-2.602 0-4.732-2.104-4.732-4.677 0-2.573 2.13-4.678 4.732-4.678h3.786c2.603 0 4.732 2.105 4.732 4.678s-2.129 4.677-4.732 4.677"/>
                <path d="M131.28 227.841c-3.123 0-5.678-2.526-5.678-5.613 0-3.087 2.555-5.614 5.679-5.614 3.123 0 5.678 2.527 5.678 5.614 0 3.087-2.555 5.613-5.678 5.613"/>
                <path d="M138.455 230.498h-4.884c-2.301 0-4.183-1.861-4.183-4.135 0-2.275 1.882-4.135 4.183-4.135h4.884c2.3 0 4.182 1.86 4.182 4.135 0 2.274-1.882 4.135-4.182 4.135"/>
            </g>
            <g>
                <path fill="#318369" d="M984.686 230.788h-12.729c-1.923 0-3.496-1.588-3.496-3.527 0-1.94 1.573-3.528 3.496-3.528h12.73c1.922 0 3.496 1.587 3.496 3.528 0 1.94-1.574 3.527-3.497 3.527"/>
                <path fill="#318369" d="M983.898 225.255h-13.985c-1.602 0-2.913-1.323-2.913-2.94 0-1.616 1.31-2.939 2.913-2.939h13.985c1.602 0 2.913 1.323 2.913 2.94 0 1.616-1.31 2.939-2.913 2.939"/>
                <path fill="#318369" d="M981.773 220.206h-9.871c-1.603 0-2.914-1.322-2.914-2.938 0-1.617 1.31-2.94 2.914-2.94h9.87c1.603 0 2.914 1.323 2.914 2.94 0 1.616-1.31 2.938-2.913 2.938"/>
                <path fill="#318369" d="M978.696 215.504h-4.989c-1.372 0-2.494-1.132-2.494-2.516 0-1.384 1.122-2.516 2.494-2.516h4.989c1.372 0 2.494 1.132 2.494 2.516 0 1.384-1.122 2.516-2.494 2.516"/>
                <path fill="#318369" d="M977.17 212.307h-.41c-1.373 0-2.495-1.132-2.495-2.516 0-1.384 1.122-2.516 2.494-2.516h.411c1.372 0 2.494 1.132 2.494 2.516 0 1.384-1.122 2.516-2.494 2.516"/>
                <path fill="#7BB725" d="M1014.179 230.788h-22.791c-2.712 0-4.93-2.239-4.93-4.974 0-2.736 2.218-4.973 4.93-4.973h22.79c2.712 0 4.93 2.237 4.93 4.973 0 2.735-2.218 4.974-4.93 4.974"/>
                <path fill="#7BB725" d="M1018.27 222.83h-24.91c-2.712 0-4.93-2.238-4.93-4.973 0-2.736 2.218-4.974 4.93-4.974h24.91c2.712 0 4.93 2.238 4.93 4.974 0 2.735-2.218 4.973-4.93 4.973"/>
                <path fill="#7BB725" d="M1017.023 214.873h-19.72c-2.711 0-4.93-2.239-4.93-4.974 0-2.736 2.219-4.973 4.93-4.973h19.72c2.712 0 4.93 2.237 4.93 4.973 0 2.735-2.218 4.974-4.93 4.974"/>
                <path fill="#7BB725" d="M1003.22 206.915h-3.944c-2.712 0-4.93-2.238-4.93-4.973 0-2.736 2.218-4.974 4.93-4.974h3.943c2.712 0 4.93 2.238 4.93 4.974 0 2.735-2.218 4.973-4.93 4.973"/>
                <path fill="#7BB725" d="M1006.177 202.936c-3.254 0-5.916-2.685-5.916-5.968 0-3.282 2.662-5.968 5.916-5.968 3.254 0 5.917 2.686 5.917 5.968 0 3.283-2.663 5.968-5.917 5.968"/>
                <path fill="#7BB725" d="M1013.651 205.761h-5.088c-2.397 0-4.357-1.979-4.357-4.396 0-2.419 1.96-4.396 4.357-4.396h5.088c2.397 0 4.358 1.977 4.358 4.396 0 2.417-1.961 4.396-4.358 4.396"/>
                <path fill="#CEE359" d="M1024.03 230.788h-9.008c-2.096 0-3.812-1.73-3.812-3.845s1.716-3.846 3.812-3.846h9.009c2.096 0 3.811 1.731 3.811 3.846 0 2.114-1.715 3.845-3.811 3.845"/>
                <path fill="#CEE359" d="M1026.18 224.635h-15.246c-2.097 0-3.812-1.73-3.812-3.845 0-2.114 1.715-3.845 3.812-3.845h15.245c2.097 0 3.812 1.731 3.812 3.845 0 2.115-1.715 3.845-3.812 3.845"/>
                <path fill="#CEE359" d="M1015.507 218.483h-3.05c-2.095 0-3.81-1.73-3.81-3.845 0-2.114 1.715-3.845 3.81-3.845h3.05c2.097 0 3.811 1.731 3.811 3.845 0 2.115-1.714 3.845-3.81 3.845"/>
                <path fill="#CEE359" d="M1017.794 215.407c-2.516 0-4.574-2.076-4.574-4.614s2.058-4.614 4.574-4.614 4.574 2.076 4.574 4.614-2.058 4.614-4.574 4.614"/>
                <path fill="#CEE359" d="M1023.573 217.59h-3.935c-1.853 0-3.369-1.528-3.369-3.398s1.516-3.399 3.37-3.399h3.934c1.852 0 3.368 1.53 3.368 3.4 0 1.869-1.516 3.398-3.368 3.398"/>
            </g>
            <g fill="#FFD8C6">
                <path d="M192.385 180.82c-1.281-.344-2.07-1.596-1.751-2.782l.908-3.391c.318-1.187 1.627-1.877 2.908-1.533 1.281.343 2.07 1.595 1.751 2.781l-.908 3.391c-.318 1.187-1.627 1.877-2.908 1.534"/>
            </g>
        </g>
        <path fill="#E2E8FF" d="M139.2 5.8V1.194C139.2.532 138.663 0 138 0c-.667 0-1.2.534-1.2 1.194V5.8h-4.606c-.662 0-1.194.537-1.194 1.2 0 .667.534 1.2 1.194 1.2h4.606v4.606c0 .662.537 1.194 1.2 1.194.667 0 1.2-.534 1.2-1.194V8.2h4.606c.662 0 1.194-.537 1.194-1.2 0-.667-.534-1.2-1.194-1.2H139.2zM752.2 181.8v-4.606c0-.662-.537-1.194-1.2-1.194-.667 0-1.2.534-1.2 1.194v4.606h-4.606c-.662 0-1.194.537-1.194 1.2 0 .667.534 1.2 1.194 1.2h4.606v4.606c0 .662.537 1.194 1.2 1.194.667 0 1.2-.534 1.2-1.194V184.2h4.606c.662 0 1.194-.537 1.194-1.2 0-.667-.534-1.2-1.194-1.2H752.2zM984.2 113.8v-4.606c0-.662-.537-1.194-1.2-1.194-.667 0-1.2.534-1.2 1.194v4.606h-4.606c-.662 0-1.194.537-1.194 1.2 0 .667.534 1.2 1.194 1.2h4.606v4.606c0 .662.537 1.194 1.2 1.194.667 0 1.2-.534 1.2-1.194V116.2h4.606c.662 0 1.194-.537 1.194-1.2 0-.667-.534-1.2-1.194-1.2H984.2zM8.2 202.8v-4.606c0-.662-.537-1.194-1.2-1.194-.667 0-1.2.534-1.2 1.194v4.606H1.194C.532 202.8 0 203.337 0 204c0 .667.534 1.2 1.194 1.2H5.8v4.606c0 .662.537 1.194 1.2 1.194.667 0 1.2-.534 1.2-1.194V205.2h4.606c.662 0 1.194-.537 1.194-1.2 0-.667-.534-1.2-1.194-1.2H8.2z"/>
    </g>
</svg>
