<svg xmlns="http://www.w3.org/2000/svg" xmlns:xlink="http://www.w3.org/1999/xlink" width="1046" height="227" viewBox="0 0 1046 227">
    <defs>
        <path id="a" d="M20.03 19.99H.038V.008H20.03z"/>
        <path id="c" d="M13.472.14L.262 1.318 1.76 18.11c8.842-.944 17.685-1.89 26.556-2.501l-2.342-7.76c-.405-1.089-1.453-3.44-3.894-5.317C19.337.424 16.357.082 14.657.082c-.54 0-.952.035-1.185.058z"/>
        <path id="e" d="M13.472.14L.262 1.318 1.76 18.11c8.842-.944 17.685-1.89 26.556-2.501l-2.342-7.76c-.405-1.089-1.453-3.44-3.894-5.317C19.337.424 16.357.082 14.657.082c-.54 0-.952.035-1.185.058z"/>
        <path id="g" d="M10.537.952C9.63 1.07 6.09 1.63 3.28 4.758.45 7.904.282 11.508.267 12.416l-.24 6.456c7.14-.438 14.26-1.113 21.374-1.852L19.894.12l-9.357.833z"/>
        <path id="i" d="M21.009 17.061c-6.984.723-13.974 1.38-20.983 1.81l.24-6.455c.016-.909.184-4.512 3.013-7.658C6.09 1.63 9.629 1.068 10.537.952L19.894.12l1.115 12.503v4.439z"/>
        <path id="k" d="M0 3.887V.085h8.8v3.802H0z"/>
        <path id="m" d="M.113.187h45.24v17.961H.113V.187z"/>
    </defs>
    <g fill="none" fill-rule="evenodd">
        <circle cx="244" cy="41" r="6" stroke="#E7EBFE" stroke-width="3"/>
        <circle cx="1038" cy="171" r="6" stroke="#E6EBFF" stroke-width="3"/>
        <circle cx="20" cy="96" r="6" stroke="#E6EBFF" stroke-width="3"/>
        <circle cx="323" cy="171" r="6" stroke="#E6EBFF" stroke-width="3"/>
        <circle cx="867" cy="38" r="6" stroke="#E6EBFF" stroke-width="3"/>
        <g transform="translate(848 88)">
            <path fill="#FBD2C6" d="M18.776 37.98l11.33 9.345a2.29 2.29 0 0 0 3.226-.321c.8-.98.656-2.44-.32-3.245l-11.329-9.344a2.29 2.29 0 0 0-3.226.321c-.8.98-.656 2.44.319 3.245M5.637 37.683L.124 53.786a2.316 2.316 0 0 0 1.421 2.93 2.296 2.296 0 0 0 2.914-1.429l5.513-16.102a2.315 2.315 0 0 0-1.421-2.93 2.296 2.296 0 0 0-2.914 1.428"/>
            <path fill="#62472B" d="M16.105 31.11c-7.853 0-14.278-6.836-14.278-15.19C1.827 7.565 8.252.73 16.105.73c7.853 0 14.277 6.835 14.277 15.19 0 8.354-6.424 15.19-14.277 15.19"/>
            <circle cx="20.676" cy="31.676" r="3.676" fill="#62472B"/>
            <path fill="#FAC5B3" d="M12.099 34.903h6.556v-5.586h-6.556z"/>
            <path fill="#FBD2C6" d="M12.099 34.903h4.624v-5.586h-4.624z"/>
            <path fill="#FAC5B3" d="M15.685 30.14c6.464 0 11.753-5.027 11.753-11.17v-1.397c0-6.144-5.289-11.17-11.753-11.17-6.465 0-11.754 5.026-11.754 11.17v1.396c0 6.144 5.29 11.17 11.754 11.17"/>
            <path fill="#FBD2C6" d="M14.026 7.942c-1.316 0-2.644.32-2.644.32-.881.206-2.248.65-3.647 1.664a9.528 9.528 0 0 0-1.915 1.857c-.443.582-1.093 1.492-1.494 2.712a9.97 9.97 0 0 0-.511 3.078v1.396c0 5.893 4.814 10.757 10.915 11.145 5.693-.376 10.177-4.919 10.177-10.42v-1.306c0-5.745-4.836-10.446-10.881-10.446"/>
            <path fill="#F68B9B" d="M14.593 25.579A1.31 1.31 0 0 0 15.9 24.27v-.454a1.31 1.31 0 0 0-1.306-1.307 1.31 1.31 0 0 0-1.305 1.307v.454a1.31 1.31 0 0 0 1.305 1.308"/>
            <g fill="#5E492D">
                <path d="M15.796 5.5s-1.364 7.687 9.009 6.838c0 0-1.168-7.48-9.009-6.838"/>
                <path d="M10.866 3.19s-3.507 6.995 6.706 9.033c0 0 1.014-7.492-6.706-9.033"/>
            </g>
            <path fill="#FBD2C6" d="M10.417 129.741c-1.476 0-2.684-1.215-2.684-2.7V80.73c0-1.485 1.208-2.7 2.684-2.7 1.476 0 2.684 1.215 2.684 2.7v46.312c0 1.484-1.208 2.7-2.684 2.7"/>
            <path fill="#F5D4C7" d="M20.25 129.741c-1.476 0-2.684-1.215-2.684-2.7V80.73c0-1.485 1.208-2.7 2.684-2.7 1.476 0 2.684 1.215 2.684 2.7v46.312c0 1.484-1.208 2.7-2.684 2.7"/>
            <path fill="#F7ACB5" d="M6.164 88.47a2.192 2.192 0 0 1-2.185 2.197 2.192 2.192 0 0 1-2.186-2.197c0-1.214.979-2.198 2.186-2.198 1.206 0 2.185.984 2.185 2.198"/>
            <path fill="#F7ACB5" d="M10.534 88.47a2.192 2.192 0 0 1-2.185 2.197 2.191 2.191 0 0 1-2.185-2.197c0-1.214.978-2.198 2.185-2.198s2.185.984 2.185 2.198"/>
            <path fill="#F7ACB5" d="M14.904 88.47a2.192 2.192 0 0 1-2.185 2.197 2.191 2.191 0 0 1-2.185-2.197c0-1.214.978-2.198 2.185-2.198s2.185.984 2.185 2.198"/>
            <path fill="#F7ACB5" d="M19.275 88.47a2.192 2.192 0 0 1-2.185 2.197 2.191 2.191 0 0 1-2.185-2.197c0-1.214.978-2.198 2.185-2.198 1.206 0 2.185.984 2.185 2.198"/>
            <path fill="#F7ACB5" d="M23.645 88.47a2.191 2.191 0 0 1-2.185 2.197 2.191 2.191 0 0 1-2.185-2.197c0-1.214.978-2.198 2.185-2.198s2.185.984 2.185 2.198"/>
            <path fill="#F7ACB5" d="M28.016 88.47a2.191 2.191 0 0 1-2.186 2.197 2.192 2.192 0 0 1-2.185-2.197c0-1.214.979-2.198 2.185-2.198 1.207 0 2.186.984 2.186 2.198"/>
            <path fill="#EE919F" d="M1.793 88.47V64.36c0-4.368 3.554-7.942 7.897-7.942h10.429c4.343 0 7.896 3.574 7.896 7.942V88.47H1.793z"/>
            <path fill="#DA5E6E" d="M5.071 58.067V39.998c0-3.66 2.978-6.656 6.618-6.656h6.43c3.64 0 6.619 2.995 6.619 6.656v18.069H5.07z"/>
            <g fill="#635868">
                <path d="M13.278 137.362c0-2.37-1.928-4.308-4.284-4.308H6.995c-2.356 0-4.283 1.938-4.283 4.308"/>
                <path d="M13.278 137.362v-12.375a.878.878 0 0 0-.873-.878H8.058a.878.878 0 0 0-.872.878v12.375"/>
                <path d="M3.204 137.745h9.582a.493.493 0 0 0 .492-.495.494.494 0 0 0-.492-.495H3.204a.493.493 0 0 0-.492.495c0 .273.22.495.492.495"/>
                <path d="M11.006 138.98h1.817c.25 0 .455-.205.455-.457v-1.827a.458.458 0 0 0-.455-.458h-1.817a.458.458 0 0 0-.455.458v1.827c0 .252.205.457.455.457M3.242 138.98h5.274c.281 0 .512-.193.512-.43l1.924-2.981c0-.237-2.155 1.186-2.436 1.186H3.242c-.281 0-.512.194-.512.431v1.364c0 .237.23.43.512.43"/>
            </g>
            <g fill="#6B5D6F">
                <path d="M23.333 137.362c0-2.37-1.927-4.308-4.283-4.308h-2c-2.355 0-4.283 1.938-4.283 4.308"/>
                <path d="M23.333 137.362v-12.375a.878.878 0 0 0-.873-.878h-4.346a.878.878 0 0 0-.873.878v12.375"/>
                <path d="M13.26 137.745h9.581a.493.493 0 0 0 .492-.495.494.494 0 0 0-.492-.495H13.26a.493.493 0 0 0-.492.495c0 .273.22.495.492.495"/>
                <path d="M21.062 138.98h1.816c.25 0 .455-.205.455-.457v-1.827a.458.458 0 0 0-.455-.458h-1.816a.458.458 0 0 0-.456.458v1.827c0 .252.205.457.456.457M13.298 138.98h5.273c.282 0 .512-.193.512-.43l1.924-2.981c0-.237-2.154 1.186-2.436 1.186h-5.273c-.282 0-.512.194-.512.431v1.364c0 .237.23.43.512.43"/>
            </g>
            <path fill="#2D1C27" d="M10.808 18.27a.745.745 0 0 1 0-1.49.745.745 0 0 1 0 1.49"/>
            <path fill="#593719" d="M9.222 15.216l3.035-.67c.442-.093.744-.32.651-.761-.092-.44-.465-.524-.907-.432l-3.035.671c-.442.093-.702.366-.604.775.098.408.418.51.86.417zM21.044 15.216l-3.034-.67c-.442-.093-.744-.32-.652-.761.093-.44.466-.524.907-.432l3.035.671c.442.093.702.366.604.775-.098.408-.418.51-.86.417z"/>
            <path fill="#2D1C27" d="M19.237 18.27a.745.745 0 0 1 0-1.49.745.745 0 0 1 0 1.49"/>
            <path fill="#EA5C76" d="M8.677 21.71H6.223a1.341 1.341 0 0 1 0-2.682h2.454a1.341 1.341 0 0 1 0 2.682M25.043 21.71H22.59a1.341 1.341 0 0 1 0-2.682h2.454a1.341 1.341 0 0 1 0 2.682" opacity=".3"/>
            <rect width="3" height="15" x="24.1" y="15.829" fill="#1F1F1F" rx="1" transform="rotate(32 25.6 23.328)"/>
            <path fill="#FBD2C6" d="M25.129 28.08a1.818 1.818 0 0 1-.34-2.53l3.124-4.123a1.793 1.793 0 0 1 2.517-.34c.785.603.938 1.742.34 2.531l-3.125 4.123c-.598.79-1.73.942-2.516.34"/>
            <path fill="#FBD2C6" d="M32.426 47.66a2.079 2.079 0 0 1-2.57-1.422L24.5 27.658a2.094 2.094 0 0 1 1.415-2.584 2.078 2.078 0 0 1 2.57 1.423l5.355 18.579a2.094 2.094 0 0 1-1.414 2.585M11.868 69.13L4.445 53.823a2.293 2.293 0 0 0-3.064-1.062 2.318 2.318 0 0 0-1.056 3.083l7.423 15.307a2.293 2.293 0 0 0 3.065 1.061 2.318 2.318 0 0 0 1.055-3.082"/>
            <path fill="#FBD2C6" d="M11.077 73.75c1.451-.655 2.105-2.386 1.454-3.845l-.41-.916a2.894 2.894 0 0 0-3.823-1.461c-1.45.655-2.104 2.386-1.453 3.845l.41.915a2.894 2.894 0 0 0 3.822 1.462"/>
        </g>
        <path stroke="#232020" stroke-width="3" d="M1000.136 215.721c.233-1.165 6.296-23.071 6.296-23.071l-6.296-8.39 4.197-6.292-16.787-44.047"/>
        <path stroke="#232020" stroke-linecap="round" stroke-width="3" d="M991.182 215.245h15.751"/>
        <path fill="#232020" d="M997.77 150.216l-6.627 2.366a3.961 3.961 0 0 1-5.048-2.39l-13.669-38.254a3.958 3.958 0 0 1 2.391-5.045l6.627-2.366a3.962 3.962 0 0 1 5.047 2.39l13.67 38.254a3.959 3.959 0 0 1-2.392 5.045"/>
        <path fill="#CB3127" d="M986.544 112.614a5.602 5.602 0 0 1-10.549 3.766 5.6 5.6 0 0 1 10.549-3.766"/>
        <path fill="#FEBE11" d="M990.94 124.915a5.601 5.601 0 0 1-10.549 3.765 5.601 5.601 0 0 1 10.549-3.765"/>
        <path fill="#00A551" d="M995.335 137.215a5.601 5.601 0 0 1-10.549 3.766 5.6 5.6 0 0 1 10.549-3.766"/>
        <path fill="#46B0B0" d="M908.264 213.553l-.052-11.14c-.5-5.597 3.495-12.572 9.094-13.07l71.684-6.388c1.18-.14 2.64.19 5.763 1.829 4.415 2.317 5.848 6.541 6.13 7.439 1.314 4.345 1.589 6.952 1.03 11.402l-8.719 2.236c-.904-4.48-10.381-8.982-11.871-8.849-6.11.545-10.62 5.936-10.076 12.043.031.352.08.699.142 1.04l-28.308 2.484c0-.334-.014-.671-.044-1.01-.544-6.107-5.939-10.616-12.048-10.072-5.737.511-10.064 5.296-10.12 10.932l-12.605 1.124z"/>
        <path fill="#00C7C4" d="M973.366 188.565c-10.333 1.144-20.656 1.623-31.03 2.17-5.162.271-10.337.602-15.456 1.33-2.416.345-4.824.751-7.238 1.098-.693.043-1.387.081-2.081.114l.4-11.352c.018-1.19.227-5.908 3.867-10.024 3.618-4.092 8.179-4.82 9.347-4.97l31.41-2.799c1.247-.124 6.436-.496 11.099 3.148 3.15 2.463 4.505 5.544 5.029 6.971l3.917 13.134c.007.067.007.13.011.196-3.094.297-6.185.642-9.275.984"/>
        <path fill="#58585B" d="M977.509 186.65c-.143 5.213-7.727 5.58-13.36 6.082l-13.21 1.177-.42-4.73c8.986-.96 17.973-1.922 26.99-2.529"/>
        <path stroke="#232020" stroke-width="1.193" d="M977.509 186.65c-.143 5.213-7.727 5.58-13.36 6.082l-13.21 1.177-.42-4.73c8.986-.96 17.973-1.922 26.99-2.529z"/>
        <path fill="#58585B" d="M943.89 189.88l.413 4.62-9.357.834c-1.183.33-5.56 1.393-9.716-.98a11.466 11.466 0 0 1-3.09-2.595c7.266-.44 14.511-1.127 21.75-1.88"/>
        <path stroke="#232020" stroke-width="1.193" d="M943.89 189.88l.413 4.62-9.357.834c-1.183.33-5.56 1.393-9.716-.98a11.466 11.466 0 0 1-3.09-2.595c7.266-.44 14.511-1.127 21.75-1.88z"/>
        <g transform="translate(921.03 200.616)">
            <mask id="b" fill="#fff">
                <use xlink:href="#a"/>
            </mask>
            <path fill="#23262A" d="M.052 10.522c.289 5.51 4.993 9.743 10.505 9.454 5.513-.288 9.748-4.99 9.46-10.5-.29-5.51-4.993-9.743-10.506-9.454-5.513.289-9.748 4.99-9.459 10.5" mask="url(#b)"/>
        </g>
        <path fill="#DCDCDC" d="M927.47 210.803a3.598 3.598 0 1 0 7.186-.379 3.598 3.598 0 0 0-7.186.38"/>
        <path fill="#00C7C4" d="M917.306 189.342l63.855-5.69.035-.56 5.285-3.257 2.41 2.014 1.719-.888 6.024 5.036-.01.003c2.967 2.349 4.021 5.466 4.259 6.223l.578 1.911-93.274 7.932c-.31-5.534 3.635-12.235 9.119-12.724"/>
        <path fill="#252B3B" d="M952.875 190.63l6.643-.59a1.111 1.111 0 0 0 1.005-1.203v-.004a1.112 1.112 0 0 0-1.203-1.005l-6.642.591a1.112 1.112 0 0 0-1.005 1.202v.005c.054.607.595 1.06 1.202 1.005"/>
        <path fill="#479FA1" d="M984.543 195.61s4.752-2.352 4.94-2.289c.186.064 2.31.909 2.31.909l2.114-1.303 1.603 2.953-10.967-.27z"/>
        <path fill="#23262A" d="M969.28 209.623c.29 5.51 4.992 9.743 10.505 9.454 5.513-.288 9.748-4.99 9.459-10.5-.289-5.51-4.992-9.743-10.505-9.454-5.513.288-9.748 4.99-9.46 10.5"/>
        <path fill="#DCDCDC" d="M975.669 209.288a3.598 3.598 0 1 0 7.185-.379 3.598 3.598 0 0 0-7.185.38"/>
        <path fill="#D0D1D3" d="M910.041 216.738l8.309-.74a2.778 2.778 0 0 0 2.513-3.005v-.012a2.778 2.778 0 0 0-3.006-2.512l-8.309.74a2.778 2.778 0 0 0-2.514 3.004l.001.012a2.779 2.779 0 0 0 3.006 2.513"/>
        <path fill="#686D6D" d="M970.572 170.626c2.442 1.877 3.49 4.229 3.894 5.318l2.342 7.759c-8.87.611-17.713 1.558-26.555 2.502l-1.498-16.793 13.209-1.177c.968-.097 4.995-.387 8.608 2.391"/>
        <g>
            <g transform="translate(948.493 168.094)">
                <mask id="d" fill="#fff">
                    <use xlink:href="#c"/>
                </mask>
                <path fill="#FFF" d="M.212-16.653l41.61 49.182-1.64 1.386-41.61-49.182z" mask="url(#d)" opacity=".118"/>
            </g>
            <g transform="translate(948.493 168.094)">
                <mask id="f" fill="#fff">
                    <use xlink:href="#e"/>
                </mask>
                <path fill="#FFF" d="M-12.059-16.972l41.61 49.182-3.281 2.772L-15.34-14.2z" mask="url(#f)" opacity=".118"/>
            </g>
        </g>
        <path fill="#686D6D" d="M922.49 182.3c.016-.908.184-4.511 3.012-7.658 2.812-3.128 6.351-3.689 7.259-3.805l9.357-.834 1.507 16.902c-7.114.74-14.234 1.413-21.375 1.852l.24-6.456"/>
        <g>
            <g transform="translate(922.224 169.885)">
                <mask id="h" fill="#fff">
                    <use xlink:href="#g"/>
                </mask>
                <path fill="#FFF" d="M-8.329-13.916l41.61 49.182-1.64 1.386L-9.97-12.53z" mask="url(#h)" opacity=".12"/>
            </g>
            <g transform="translate(922.224 169.885)">
                <mask id="j" fill="#fff">
                    <use xlink:href="#i"/>
                </mask>
                <path fill="#FFF" d="M-20.6-14.236l41.609 49.182-3.28 2.773-41.61-49.182z" mask="url(#j)" opacity=".12"/>
            </g>
        </g>
        <g>
            <path fill="#479FA1" d="M995.51 195.88a3.093 3.093 0 0 1 2.8-3.346l2.596-.23c.78 2.587 1.34 5.06 1.873 7.634l-3.78.336a3.093 3.093 0 0 1-3.346-2.797l-.143-1.597z"/>
            <path fill="#D6E1F2" d="M1003.145 201.73l-.926.363a3.095 3.095 0 0 1-3.998-1.747l-.585-1.493a3.092 3.092 0 0 1 1.747-3.996l2.026-.792c.69 2.548 1.205 5.031 1.736 7.665"/>
            <path fill="#D0D1D3" d="M988.534 210.286l10.87 2.338a2.779 2.779 0 0 0 3.291-2.124l.003-.012a2.778 2.778 0 0 0-2.126-3.29l-10.87-2.338a2.779 2.779 0 0 0-3.29 2.124l-.004.012a2.778 2.778 0 0 0 2.126 3.29"/>
            <path fill="#62ADAF" d="M970.5 186.563l4.812-.428a2.765 2.765 0 0 0 2.502-2.99 2.765 2.765 0 0 0-2.991-2.5l-4.812.428a2.764 2.764 0 0 0-2.502 2.99 2.765 2.765 0 0 0 2.992 2.5"/>
        </g>
        <path fill="#E7EBFE" d="M149.2 5.8V1.194C149.2.532 148.663 0 148 0c-.667 0-1.2.534-1.2 1.194V5.8h-4.606c-.662 0-1.194.537-1.194 1.2 0 .667.534 1.2 1.194 1.2h4.606v4.606c0 .662.537 1.194 1.2 1.194.667 0 1.2-.534 1.2-1.194V8.2h4.606c.662 0 1.194-.537 1.194-1.2 0-.667-.534-1.2-1.194-1.2H149.2zM792.2 171.8v-4.606c0-.662-.537-1.194-1.2-1.194-.667 0-1.2.534-1.2 1.194v4.606h-4.606c-.662 0-1.194.537-1.194 1.2 0 .667.534 1.2 1.194 1.2h4.606v4.606c0 .662.537 1.194 1.2 1.194.667 0 1.2-.534 1.2-1.194V174.2h4.606c.662 0 1.194-.537 1.194-1.2 0-.667-.534-1.2-1.194-1.2H792.2zM914.2 63.8v-4.606c0-.662-.537-1.194-1.2-1.194-.667 0-1.2.534-1.2 1.194V63.8h-4.606c-.662 0-1.194.537-1.194 1.2 0 .667.534 1.2 1.194 1.2h4.606v4.606c0 .662.537 1.194 1.2 1.194.667 0 1.2-.534 1.2-1.194V66.2h4.606c.662 0 1.194-.537 1.194-1.2 0-.667-.534-1.2-1.194-1.2H914.2zM8.2 201.8v-4.606c0-.662-.537-1.194-1.2-1.194-.667 0-1.2.534-1.2 1.194v4.606H1.194C.532 201.8 0 202.337 0 203c0 .667.534 1.2 1.194 1.2H5.8v4.606c0 .662.537 1.194 1.2 1.194.667 0 1.2-.534 1.2-1.194V204.2h4.606c.662 0 1.194-.537 1.194-1.2 0-.667-.534-1.2-1.194-1.2H8.2z"/>
        <g>
            <path fill="#23262A" d="M72.226 204.55c0 3.526 2.839 6.384 6.34 6.384 3.502 0 6.341-2.858 6.341-6.383 0-3.526-2.839-6.384-6.34-6.384-3.502 0-6.341 2.858-6.341 6.384"/>
            <path fill="#929496" d="M76.284 204.55a2.29 2.29 0 0 0 2.282 2.298 2.29 2.29 0 0 0 2.283-2.297 2.29 2.29 0 0 0-2.283-2.299 2.29 2.29 0 0 0-2.282 2.299"/>
            <path fill="#23262A" d="M40.874 205.43c0 3.525 2.839 6.383 6.34 6.383 3.503 0 6.342-2.858 6.342-6.383 0-3.526-2.84-6.383-6.341-6.383-3.502 0-6.341 2.857-6.341 6.383"/>
            <path fill="#929496" d="M44.932 205.43a2.29 2.29 0 0 0 2.283 2.298 2.29 2.29 0 0 0 2.282-2.298 2.29 2.29 0 0 0-2.282-2.298 2.29 2.29 0 0 0-2.283 2.298"/>
            <path fill="#F2BF18" d="M87.575 190.228c-1.92-1.117-2.068-1.076-2.818-1.019l-45.6 2.208c-3.561.172-6.274 4.52-6.103 8.106l-.255 7.113 8.018-.387c.182-3.598 3.048-6.539 6.697-6.716 3.887-.188 7.189 2.831 7.376 6.744.01.218.01.433.001.647l18.007-.848a7.33 7.33 0 0 1-.063-.667c-.187-3.913 2.812-7.238 6.699-7.426 3.621-.175 6.736 2.436 7.294 5.959l6.445-.375c-.498-3.031-1.267-5.611-1.987-8.42a8.56 8.56 0 0 0-1.323-2.756l-.927.309.24-1.133a7.71 7.71 0 0 0-.478-.46H87.44l.136-.879z"/>
            <path fill="#F7C747" d="M48.669 194.166c10.724-.559 21.454-.98 32.18-1.48l-1.927-7.634c-.295-.925-1.074-2.927-3.007-4.581-2.86-2.448-6.159-2.346-6.953-2.3l-19.98.968c-.745.065-3.655.411-6.054 2.929-2.414 2.532-2.669 5.539-2.711 6.298l-.477 6.303a1033.8 1033.8 0 0 1 8.929-.503"/>
            <path fill="#F7C747" d="M87.598 190.083a7.674 7.674 0 0 0-.051-.03c-1.938-1.128-2.085-1.087-2.837-1.03l-45.6 2.208c-3.488.169-6.162 4.344-6.11 7.885l58.556-2.919-.317-1.235a8.553 8.553 0 0 0-1.208-2.593l-.995.331.263-1.244a7.762 7.762 0 0 0-.344-.348h-1.516l.159-1.025z"/>
            <path fill="#AF2116" d="M64.246 194.665l-3.981.192a.668.668 0 0 1-.064-1.336l3.981-.192a.668.668 0 0 1 .064 1.336"/>
            <g transform="translate(32 204.832)">
                <mask id="l" fill="#fff">
                    <use xlink:href="#k"/>
                </mask>
                <path fill="#D0D1D3" d="M1.846 3.885l5.278-.256a1.774 1.774 0 0 0-.17-3.542L1.678.342a1.774 1.774 0 0 0 .169 3.543" mask="url(#l)"/>
            </g>
            <path fill="#D0D1D3" d="M86.625 206.161l5.737-.34a1.773 1.773 0 0 0-.17-3.543l-5.736.34a1.774 1.774 0 0 0 .169 3.543"/>
            <path fill="#B7BCBD" d="M77.147 189.777l-.96-3.755c-.229-.706-.832-2.234-2.33-3.496-2.22-1.868-4.779-1.788-5.395-1.752l-8.403.407.45 9.402 16.638-.806zM56.286 190.787l-.449-9.402-5.952.289c-.578.05-2.836.316-4.7 2.24-1.873 1.935-2.073 4.23-2.107 4.81l-.21 2.713 13.418-.65z"/>
            <path fill="#7D100D" d="M89.276 198.18c0-1.084.88-1.97 1.957-1.97h1.654c.346 1.69.561 3.296.753 4.965h-2.407a1.97 1.97 0 0 1-1.957-1.97v-1.025z"/>
            <path fill="#7DD9FA" d="M93.77 202.336l-.605.178a1.96 1.96 0 0 1-2.427-1.338l-.286-.984a1.978 1.978 0 0 1 1.33-2.443l1.324-.39c.291 1.66.477 3.27.665 4.977"/>
            <path stroke="#232020" stroke-width=".864" d="M93.77 202.336l-.605.178a1.96 1.96 0 0 1-2.427-1.338l-.286-.984a1.978 1.978 0 0 1 1.33-2.443l1.324-.39c.291 1.66.477 3.27.665 4.977z"/>
            <path fill="#0E4F99" d="M89.93 203.092l-.211-1.867.643-1.094.497-.845a52.645 52.645 0 0 0-1.823-2.762c.066-.098.165-.244.29-.417 1.256-1.76 2.481-2.847 2.865-3.202.856-.789 2.037-2.097 3.416-4.355l53 .773c.746-.01 2.605.067 4.448 1.3 2.604 1.744 3.224 4.491 3.342 5.074.538 2.816.71 5.382 1.016 8.404l-10.312-.15c-.334-3.511-3.247-6.281-6.832-6.334-3.846-.056-7.01 3.038-7.066 6.91-.003.224.005.445.022.663l-23.044-.36c.022-.21.035-.423.038-.638.056-3.872-3.018-7.057-6.864-7.113-3.612-.053-6.62 2.671-7.021 6.21l-6.405-.197"/>
            <g transform="translate(99.184 176.032)">
                <mask id="n" fill="#fff">
                    <use xlink:href="#m"/>
                </mask>
                <path fill="#323232" d="M11.14 17.79l21.788.319c5.248.076 12.365.42 12.425-3.787L43.57 6.97c-.262-.805-.98-2.555-2.975-4.075C37.64.645 34.047.545 33.18.54L17.14.229a12.038 12.038 0 0 0-4.651.517c-.358.114-1.651.544-3.355 1.69-2.603 1.75-4.095 3.775-5.459 5.662a35.016 35.016 0 0 0-3.562 6.174 9.423 9.423 0 0 0 2.506 2.08c3.47 2.004 7.443 1.582 8.52 1.439" mask="url(#n)"/>
            </g>
            <path fill="#D6E1F2" d="M121.027 178.204c2.292.045 8.675.149 10.967.193.694.004 3.568.085 5.93 1.885 1.598 1.216 2.172 2.616 2.381 3.26l1.428 5.881c-.049 3.367-5.743 3.09-9.94 3.03l-10.97-.16.204-14.089zM106.3 184.413c1.092-1.509 2.285-3.13 4.367-4.529 1.364-.916 2.398-1.261 2.684-1.352a9.632 9.632 0 0 1 3.721-.414c1.186.024.68.022 1.865.045l-.202 14.1-6.463-.095c-.862.115-4.04.452-6.816-1.151a7.542 7.542 0 0 1-2.006-1.664 28.013 28.013 0 0 1 2.85-4.94"/>
            <path fill="#315DAB" d="M90.886 192.294l-.424 1.08a192.86 192.86 0 0 1-1.074 2.66l67.245.901-.236-1.238c-.118-.583-.738-3.33-3.342-5.074-1.843-1.233-3.702-1.31-4.447-1.3l-53.001-.773c-1.562-.246-2.432.163-2.865.45-.527.349-.821.791-1.24 1.765l.844 1.03-1.46.5z"/>
            <path fill="#23262A" d="M134.085 204.382c.002 3.486 2.811 6.31 6.273 6.307 3.463-.002 6.267-2.83 6.265-6.316-.002-3.485-2.811-6.309-6.274-6.306-3.462.002-6.267 2.83-6.264 6.315"/>
            <path fill="#C2C2C2" d="M138.097 204.38a2.265 2.265 0 0 0 2.259 2.27 2.265 2.265 0 0 0 2.255-2.274 2.265 2.265 0 0 0-2.259-2.27 2.264 2.264 0 0 0-2.255 2.273"/>
            <path fill="#23262A" d="M97.167 204.409c.002 3.486 2.811 6.31 6.273 6.307 3.463-.003 6.267-2.83 6.265-6.316-.002-3.486-2.811-6.31-6.274-6.307-3.462.003-6.267 2.83-6.264 6.316"/>
            <path fill="#C2C2C2" d="M101.179 204.406a2.265 2.265 0 0 0 2.259 2.27 2.264 2.264 0 0 0 2.255-2.273 2.264 2.264 0 0 0-2.259-2.27 2.264 2.264 0 0 0-2.255 2.273"/>
            <path fill="#23262A" d="M122.937 191.754l4.18.06a.7.7 0 0 0 .02-1.401l-4.18-.061a.7.7 0 0 0-.02 1.402"/>
            <path fill="#D6E1F2" d="M148.705 194.009v-1.013c-.001-1.072.869-1.949 1.933-1.95l3.49-.002c1.724 1.643 2.211 3.665 2.318 4.154.052.253.1.504.147.753l-5.951.004a1.947 1.947 0 0 1-1.937-1.946M150.798 197.708a.35.35 0 0 1 .348-.35l5.687-.005c.036.234.07.468.104.702l-5.79.004a.35.35 0 0 1-.35-.35M152.192 199.811a.35.35 0 0 1 .348-.35l4.58-.004c.03.232.057.466.084.701l-4.663.003a.35.35 0 0 1-.349-.35"/>
            <path fill="#0E4F99" d="M89.042 196.527l-.056 1.187.984.91-.67.844.814 1.082-.782.69s.56 1.292.581 1.377c.022.086-.369.824-.369.824l3.014-.225 2.116-4.471-5.632-2.218M91.833 208.357l4.963-1.644a1.761 1.761 0 0 0 1.11-2.213 1.744 1.744 0 0 0-2.198-1.117l-4.963 1.643a1.761 1.761 0 0 0-1.11 2.213 1.744 1.744 0 0 0 2.198 1.118M148.854 206.159l8.358.121a1.752 1.752 0 0 0 1.767-1.727 1.753 1.753 0 0 0-1.716-1.778l-8.358-.122a1.753 1.753 0 1 0-.05 3.506"/>
            <path fill="#DD544E" d="M91.233 196.21l-1.61.855.958 1.774s-.309 1.23-.219 1.292c.09.061.871 1.043.871 1.043l.84-1.198s1.922-2.51-.84-3.766M90.41 202.065v1.104l1.262-.63zM89.93 203.124l-.63.745.968.289z"/>
        </g>
        <g>
            <path fill="#8080DA" d="M262.878 152.5l-2.573-5.847c2.725-1.205 6.427-3.907 6.29-5.845-.071-1.015-1.246-2.357-3.22-3.683-3.206-2.151-8.38-4.247-15.378-6.228l1.746-6.144c15.423 4.367 22.806 9.331 23.236 15.623.498 7.275-9.015 11.649-10.1 12.124z"/>
            <path fill="#FFD8C6" d="M262.21 147.437l.541.676a3.87 3.87 0 0 1-.603 5.43 3.888 3.888 0 0 1-5.441-.602l-.542-.676a3.87 3.87 0 0 1 .603-5.43 3.888 3.888 0 0 1 5.442.602"/>
            <path fill="#8080DA" d="M228.004 152.5c-1.086-.475-10.599-4.849-10.1-12.124.43-6.292 7.813-11.256 23.235-15.623l1.747 6.144c-7.004 1.983-12.18 4.08-15.385 6.233-1.973 1.326-3.144 2.667-3.214 3.681-.132 1.933 3.632 4.68 6.284 5.839l-2.567 5.85z"/>
            <path fill="#FFD8C6" d="M228.673 147.437l-.542.676a3.87 3.87 0 0 0 .603 5.43 3.888 3.888 0 0 0 5.441-.602l.542-.676a3.87 3.87 0 0 0-.603-5.43 3.887 3.887 0 0 0-5.441.602"/>
            <path fill="#FFD4BD" d="M249.56 221.84h4.485v-9.702h-4.485z"/>
            <path fill="#5E5E5E" d="M254.21 217.13h-4.83c-.9 0-1.635-.734-1.635-1.632v-54.442c0-.898.736-1.633 1.636-1.633h4.829c.9 0 1.635.735 1.635 1.633v54.442a1.64 1.64 0 0 1-1.635 1.633"/>
            <path fill="#101010" d="M249.185 226.33c0-2.222 1.823-4.042 4.05-4.042h1.89c2.228 0 4.05 1.82 4.05 4.043"/>
            <path fill="#101010" d="M249.185 226.33v-5.284c0-.453.372-.823.825-.823h4.11c.454 0 .825.37.825.823v5.285"/>
            <path fill="#101010" d="M258.993 226.69h-9.625a.182.182 0 0 1-.183-.182v-.564c0-.1.082-.182.183-.182h9.625c.1 0 .182.081.182.182v.564c0 .1-.081.182-.182.182"/>
            <path fill="#FFD4BD" d="M236.675 221.84h4.485v-9.702h-4.485z"/>
            <path fill="#5E5E5E" d="M236.51 217.13h4.83c.9 0 1.635-.734 1.635-1.632v-54.442c0-.898-.736-1.633-1.636-1.633h-4.829c-.9 0-1.635.735-1.635 1.633v54.442a1.64 1.64 0 0 0 1.635 1.633"/>
            <path fill="#101010" d="M241.535 226.33c0-2.222-1.823-4.042-4.05-4.042h-1.89c-2.228 0-4.05 1.82-4.05 4.043"/>
            <path fill="#101010" d="M241.535 226.33v-5.284a.827.827 0 0 0-.825-.823h-4.11a.827.827 0 0 0-.825.823v5.285"/>
            <path fill="#101010" d="M231.727 226.69h9.625a.182.182 0 0 0 .183-.182v-.564c0-.1-.082-.182-.183-.182h-9.625c-.1 0-.182.081-.182.182v.564c0 .1.082.182.182.182"/>
            <path fill="#5E5E5E" d="M245.391 174.47c6.912 0 12.516-5.593 12.516-12.492v-1.343c0-6.899-5.604-12.491-12.516-12.491s-12.516 5.592-12.516 12.491v1.343c0 6.9 5.604 12.492 12.516 12.492"/>
            <path fill="#929496" d="M245.665 117.602c7.974 0 14.498-6.511 14.498-14.468v-.665c0-7.958-6.524-14.469-14.498-14.469-7.973 0-14.497 6.51-14.497 14.469v.665c0 7.957 6.524 14.468 14.497 14.468"/>
            <path fill="#FFC9B2" d="M242.774 128.202h6.123c.098 0 .178-.08.178-.178v-12.578a.179.179 0 0 0-.178-.179h-6.123a.179.179 0 0 0-.179.179v12.578c0 .098.08.178.179.178"/>
            <path fill="#FFD8C6" d="M242.595 128.202h4.571v-12.934h-4.57z"/>
            <path fill="#FFC9B2" d="M245.835 120.118c7.128 0 12.96-5.82 12.96-12.935v-4.362c0-7.113-5.832-12.934-12.96-12.934-7.128 0-12.96 5.82-12.96 12.934v4.362c0 7.114 5.832 12.935 12.96 12.935"/>
            <path fill="#FFD8C6" d="M244.305 120.118c6.287 0 11.43-5.134 11.43-11.408v-5.637c0-6.274-5.143-11.408-11.43-11.408-6.286 0-11.43 5.134-11.43 11.408v5.637c0 6.274 5.144 11.408 11.43 11.408"/>
            <path fill="#FFC9B2" d="M258.686 109.878c1.485 0 2.7-1.213 2.7-2.695a2.705 2.705 0 0 0-2.7-2.694 2.705 2.705 0 0 0-2.7 2.694 2.706 2.706 0 0 0 2.7 2.695"/>
            <path fill="#FFD8C6" d="M232.625 109.878c1.485 0 2.7-1.213 2.7-2.695a2.705 2.705 0 0 0-2.7-2.694 2.705 2.705 0 0 0-2.7 2.694 2.706 2.706 0 0 0 2.7 2.695"/>
            <path fill="#2D1C27" d="M249.116 105.77a.734.734 0 0 0 .732-.73c0-.402-.33-.731-.732-.731a.734.734 0 0 0-.733.73c0 .403.33.732.733.732M241.786 105.77a.734.734 0 0 0 .733-.73.734.734 0 0 0-1.464 0c-.001.402.328.73.731.73"/>
            <path fill="#EB5B76" d="M252.892 110.713h2.425a1.32 1.32 0 0 0 1.319-1.316 1.32 1.32 0 0 0-1.319-1.315h-2.425a1.32 1.32 0 0 0-1.319 1.315 1.32 1.32 0 0 0 1.319 1.316M236.173 110.713h2.426a1.32 1.32 0 0 0 1.318-1.316 1.32 1.32 0 0 0-1.318-1.315h-2.426a1.32 1.32 0 0 0-1.318 1.315 1.32 1.32 0 0 0 1.318 1.316" opacity=".3"/>
            <path fill="#8080DA" d="M245.453 123.41c-6.883 0-12.589 5.62-12.589 12.49v23.011c0 3.079 2.512 5.732 5.597 5.732h13.86c3.086 0 5.722-2.653 5.722-5.732V135.9c0-6.87-5.706-12.49-12.59-12.49"/>
            <path fill="#FFF" d="M248.654 123.293l-3.179 20.03-3.178-20.03z"/>
            <path fill="#D7DEE6" d="M250.695 123.293l-2.823 2.818-2.824-2.818z"/>
            <path fill="#D7DEE6" d="M245.948 123.293l-2.824 2.818-2.824-2.818z"/>
            <path fill="#929496" d="M245.374 99.73c-2.406 0-4.374-1.964-4.374-4.365 0-2.4 1.968-4.365 4.374-4.365 2.405 0 4.374 1.964 4.374 4.365 0 2.4-1.969 4.365-4.374 4.365"/>
            <path fill="#929496" d="M252.374 99.73c-2.406 0-4.374-1.964-4.374-4.365 0-2.4 1.968-4.365 4.374-4.365 2.405 0 4.374 1.964 4.374 4.365 0 2.4-1.969 4.365-4.374 4.365M239.374 99.73c-2.406 0-4.374-1.964-4.374-4.365 0-2.4 1.968-4.365 4.374-4.365 2.405 0 4.374 1.964 4.374 4.365 0 2.4-1.969 4.365-4.374 4.365"/>
            <path fill="#929496" d="M242.374 95.73c-2.406 0-4.374-1.964-4.374-4.365 0-2.4 1.968-4.365 4.374-4.365 2.405 0 4.374 1.964 4.374 4.365 0 2.4-1.969 4.365-4.374 4.365"/>
            <path fill="#929496" d="M248.374 95.73c-2.406 0-4.374-1.964-4.374-4.365 0-2.4 1.968-4.365 4.374-4.365 2.405 0 4.374 1.964 4.374 4.365 0 2.4-1.969 4.365-4.374 4.365"/>
            <path fill="#929496" d="M253.374 97.73c-2.406 0-4.374-1.964-4.374-4.365 0-2.4 1.968-4.365 4.374-4.365 2.405 0 4.374 1.964 4.374 4.365 0 2.4-1.969 4.365-4.374 4.365M238.374 97.73c-2.406 0-4.374-1.964-4.374-4.365 0-2.4 1.968-4.365 4.374-4.365 2.405 0 4.374 1.964 4.374 4.365 0 2.4-1.969 4.365-4.374 4.365"/>
            <path fill="#E596A3" d="M248.417 110.485a.32.32 0 0 1-.302-.214c-.418-1.192-1.63-1.615-2.541-1.615-.912 0-2.124.423-2.54 1.615a.319.319 0 0 1-.408.197.319.319 0 0 1-.197-.407c.434-1.241 1.668-2.043 3.145-2.043 1.476 0 2.71.802 3.145 2.043a.319.319 0 0 1-.302.424"/>
            <g fill="#929496">
                <path d="M251.146 102.363l-2.682-.805a.797.797 0 0 0-.99.531.795.795 0 0 0 .533.988l2.681.804a.797.797 0 0 0 .99-.53.795.795 0 0 0-.532-.988M239.637 102.363l2.681-.805a.797.797 0 0 1 .99.531.795.795 0 0 1-.532.988l-2.682.804a.797.797 0 0 1-.99-.53.795.795 0 0 1 .533-.988"/>
            </g>
            <path fill="#FFD4BD" d="M183.246 221.387h5.86v-22.101h-5.86z"/>
            <path fill="#EFEFEF" d="M183.246 221.387h5.86v-6.452h-5.86z"/>
            <path fill="#6283A6" d="M189.438 200.912h-7.652c-.9 0-1.635-.735-1.635-1.632v-44.5c0-.897.736-1.632 1.635-1.632h7.652c.9 0 1.635.735 1.635 1.632v44.5c0 .897-.736 1.632-1.635 1.632"/>
            <path fill="#C6C8CA" d="M190.702 202.077h-10.18a.372.372 0 0 1-.371-.37v-3.677c0-.204.167-.372.372-.372h10.179c.204 0 .371.168.371.372v3.676a.372.372 0 0 1-.371.371"/>
            <path fill="#007FB2" d="M183.246 225.112c0-2.43 1.992-4.42 4.427-4.42l5.036.077c2.436 0 4.502 1.913 4.502 4.343"/>
            <path fill="#007FB2" d="M183.246 225.112h6.297v-5.73h-6.297z"/>
            <path fill="#007FB2" d="M197.028 225.505h-13.6a.183.183 0 0 1-.183-.182v-.65c0-.101.082-.183.183-.183h13.6c.101 0 .183.082.183.183v.65c0 .1-.082.182-.183.182"/>
            <path fill="#FFD4BD" d="M170.574 221.387h5.86v-22.101h-5.86z"/>
            <path fill="#EFEFEF" d="M170.574 221.387h5.86v-6.452h-5.86z"/>
            <path fill="#6283A6" d="M176.766 200.912h-7.651c-.9 0-1.636-.735-1.636-1.632v-44.5c0-.897.736-1.632 1.636-1.632h7.651c.9 0 1.636.735 1.636 1.632v44.5a1.64 1.64 0 0 1-1.636 1.632"/>
            <path fill="#C6C8CA" d="M178.03 202.077H167.85a.372.372 0 0 1-.372-.37v-3.677c0-.204.167-.372.372-.372h10.179c.204 0 .372.168.372.372v3.676a.372.372 0 0 1-.372.371"/>
            <path fill="#008AB5" d="M170.574 225.112c0-2.43 1.992-4.42 4.428-4.42l5.036.077c2.435 0 4.501 1.913 4.501 4.343"/>
            <path fill="#008AB5" d="M170.574 225.112h6.297v-5.73h-6.297z"/>
            <path fill="#008AB5" d="M184.357 225.505h-13.6a.182.182 0 0 1-.183-.182v-.65c0-.101.081-.183.182-.183h13.6c.102 0 .183.082.183.183v.65c0 .1-.081.182-.182.182"/>
            <path fill="#6283A6" d="M179.837 179.3h-.665c-8.38 0-15.172-6.779-15.172-15.141 0-8.363 6.793-15.142 15.172-15.142h.665c8.38 0 15.172 6.779 15.172 15.142 0 8.362-6.792 15.141-15.172 15.141"/>
            <path fill="#F2BF18" d="M198.143 161.645a50.24 50.24 0 0 0 4.243-.192c5.161-.438 9.562-1.49 9.747-1.534a4.256 4.256 0 0 0 3.144-5.138 4.265 4.265 0 0 0-5.148-3.138c-.037.009-4.036.959-8.563 1.334-7.522.623-9.612-.838-9.954-1.137-3.344-2.923-2.28-7.313-2.233-7.499l-.012.046-8.221-2.277c-.99 3.556-1.082 10.955 4.845 16.135 2.605 2.277 6.602 3.4 12.152 3.4"/>
            <path fill="#F2BF18" d="M179.961 173.96c-8.796-.456-15.556-7.942-15.099-16.72l.708-13.596c.457-8.779 7.958-15.525 16.755-15.07 8.796.457 15.556 7.943 15.099 16.722l-.709 13.596c-.457 8.778-7.958 15.525-16.754 15.068"/>
            <path fill="#3D1603" d="M183.736 129.384c7.576.726 14.371-4.866 15.1-12.427l.786-8.166c.728-7.561-4.875-14.343-12.452-15.07-7.576-.726-14.37 4.866-15.1 12.427l-.786 8.166c-.728 7.562 4.876 14.343 12.452 15.07"/>
            <path fill="#FFC9B2" d="M182.163 133.381l2.679.257a2.877 2.877 0 0 0 3.132-2.578l.193-2.003a2.875 2.875 0 0 0-2.583-3.126l-2.68-.257a2.878 2.878 0 0 0-3.131 2.578l-.193 2.003a2.875 2.875 0 0 0 2.583 3.126"/>
            <path fill="#FFD8C6" d="M182.265 133.391a2.973 2.973 0 0 0 3.245-2.67l.173-1.799a2.97 2.97 0 0 0-2.675-3.238 2.972 2.972 0 0 0-3.245 2.67l-.173 1.799a2.97 2.97 0 0 0 2.675 3.238"/>
            <path fill="#FFC9B2" d="M184.1 129.419c6.913.663 13.113-4.44 13.778-11.339l.687-7.135c.664-6.899-4.448-13.086-11.361-13.75-6.913-.662-13.113 4.44-13.778 11.34l-.686 7.134c-.665 6.9 4.448 13.087 11.36 13.75"/>
            <path fill="#FFD8C6" d="M182.617 129.276c6.097.585 11.564-3.915 12.15-10l.79-8.2c.586-6.085-3.923-11.542-10.02-12.127-6.097-.585-11.564 3.915-12.15 10l-.79 8.2c-.586 6.086 3.923 11.543 10.02 12.127"/>
            <path fill="#FFC9B2" d="M197.927 116.45a2.637 2.637 0 0 0 2.87-2.362 2.635 2.635 0 0 0-2.366-2.865 2.637 2.637 0 0 0-2.87 2.362 2.634 2.634 0 0 0 2.366 2.865"/>
            <path fill="#FFD8C6" d="M172.653 114.025a2.637 2.637 0 0 0 2.87-2.362 2.635 2.635 0 0 0-2.367-2.864 2.637 2.637 0 0 0-2.87 2.362 2.634 2.634 0 0 0 2.367 2.864"/>
            <path fill="#2D1C27" d="M189.593 111.882a.715.715 0 0 0 .778-.641.714.714 0 0 0-1.42-.136c-.037.39.251.74.642.777M182.313 111.184a.715.715 0 0 0 .779-.641.714.714 0 0 0-1.42-.136c-.038.39.25.74.641.777"/>
            <path fill="#EB5B76" d="M192.347 115.5l2.353.225a1.288 1.288 0 0 0 1.402-1.153 1.286 1.286 0 0 0-1.156-1.399l-2.353-.226a1.287 1.287 0 0 0-1.4 1.154 1.286 1.286 0 0 0 1.154 1.398M176.134 113.944l2.352.226a1.288 1.288 0 0 0 1.402-1.154 1.286 1.286 0 0 0-1.156-1.398l-2.352-.226a1.287 1.287 0 0 0-1.402 1.154 1.286 1.286 0 0 0 1.156 1.398" opacity=".3"/>
            <path fill="#FB9EAE" d="M182.627 113.419s-.466 3.052 2.78 3.364c3.245.31 3.37-2.774 3.37-2.774"/>
            <path fill="#3D1603" d="M183.778 108.34l-4.512.895a.86.86 0 0 1-1.008-.673.859.859 0 0 1 .674-1.006l4.511-.895a.86.86 0 0 1 1.009.672.859.859 0 0 1-.674 1.007M192.508 110.505l-4.258-1.736a.858.858 0 0 1-.47-1.116.86.86 0 0 1 1.119-.47l4.258 1.737c.436.178.648.68.47 1.117a.86.86 0 0 1-1.12.468M195.71 104.379l-9.868-.947c-2.323-.222-4.04-2.301-3.817-4.619.223-2.317 2.306-4.032 4.628-3.81l9.868.948c2.323.222 4.04 2.3 3.817 4.618-.223 2.319-2.306 4.032-4.629 3.81"/>
            <path fill="#F1B94D" d="M208.028 162.505l9.234-15.346-7.6-4.554-9.233 15.345z"/>
            <path stroke="#EBD88C" d="M208.028 162.505l9.234-15.346-7.6-4.554-9.233 15.345z"/>
            <path fill="#EBD88C" d="M207.53 154.527a2.47 2.47 0 0 0 3.387-.843 2.46 2.46 0 0 0-.845-3.38 2.47 2.47 0 0 0-3.386.844 2.46 2.46 0 0 0 .845 3.379"/>
            <path fill="#F1B94D" d="M207.393 159.964l9.234-15.346-7.6-4.554-9.234 15.346z"/>
            <path stroke="#EBD88C" d="M207.393 159.964l9.234-15.346-7.6-4.554-9.234 15.346z"/>
            <path fill="#EBD88C" d="M206.895 151.986a2.47 2.47 0 0 0 3.386-.843 2.46 2.46 0 0 0-.845-3.38 2.47 2.47 0 0 0-3.386.844 2.46 2.46 0 0 0 .845 3.38"/>
            <path fill="#86C588" d="M205.903 157.777l8.661-14.394-7.128-4.273-8.66 14.394z"/>
            <path stroke="#A4D9AE" d="M205.903 157.777l8.661-14.394-7.128-4.273-8.66 14.394z"/>
            <path fill="#A4D9AE" d="M205.437 150.294a2.318 2.318 0 0 0 3.176-.792 2.307 2.307 0 0 0-.793-3.169 2.317 2.317 0 0 0-3.176.79 2.307 2.307 0 0 0 .793 3.17"/>
            <path fill="#FDC838" d="M179.811 159.694c1.325 0 2.739-.064 4.243-.191 5.161-.438 9.562-1.49 9.747-1.534a4.257 4.257 0 1 0-2.004-8.277c-.037.009-4.036.96-8.563 1.335-7.522.622-9.612-.839-9.954-1.138-1.092-.954-.754-3.056-.279-4.651.755-2.53 2.144-4.695 2.158-4.716a4.247 4.247 0 0 0-1.243-5.888 4.276 4.276 0 0 0-5.907 1.242c-.203.31-2.01 3.128-3.12 6.718-1.024 3.318-2.026 9.509 2.77 13.7 2.605 2.278 6.602 3.4 12.152 3.4"/>
            <path fill="#FFD8C6" d="M196.702 155.821l2.212-1.426a3.877 3.877 0 0 0 1.153-5.35 3.894 3.894 0 0 0-5.361-1.15l-2.212 1.426a3.876 3.876 0 0 0-1.152 5.35 3.893 3.893 0 0 0 5.36 1.15M209.22 153.841l-.448.744a3.876 3.876 0 0 0 1.328 5.31 3.893 3.893 0 0 0 5.32-1.326l.447-.743a3.876 3.876 0 0 0-1.327-5.31 3.894 3.894 0 0 0-5.32 1.325"/>
            <path fill="#929496" d="M237.377 92.213c1.634-2.34 4.3-3.456 7.999-3.349 3.699.108 6.556 1.224 8.572 3.349-.935 2.449-3.58 3.673-7.932 3.673-4.353 0-7.232-1.224-8.639-3.673z"/>
        </g>
        <path fill="#DD544E" d="M88.05 207l-.05.958.43-.266zM89.052 208.956l.964-.016-.37-.834z"/>
    </g>
</svg>
