<svg xmlns="http://www.w3.org/2000/svg" xmlns:xlink="http://www.w3.org/1999/xlink" width="1046" height="242" viewBox="0 0 1046 242">
    <defs>
        <path id="a" d="M0 .144v26.51h27.677V.144z"/>
        <path id="c" d="M0 6.859V.013h7.338v6.846z"/>
    </defs>
    <g fill="none" fill-rule="evenodd">
        <g>
            <circle cx="244" cy="58" r="6" stroke="#FFE4E8" stroke-width="3"/>
            <circle cx="1038" cy="188" r="6" stroke="#FFE4E8" stroke-width="3"/>
            <circle cx="20" cy="113" r="6" stroke="#FFE4E8" stroke-width="3"/>
            <circle cx="39.5" cy="65.5" r="3.5" fill="#FFE4E8"/>
            <circle cx="157.5" cy="117.5" r="3.5" fill="#FFE4E8"/>
            <circle cx="163.5" cy="2.5" r="2.5" fill="#FFE4E8"/>
            <circle cx="293" cy="186" r="6" stroke="#FFE4E8" stroke-width="3"/>
            <circle cx="877" cy="35" r="6" stroke="#FFE4E8" stroke-width="3"/>
            <path fill="#FFE4E8" d="M188.2 30.8v-4.606c0-.662-.537-1.194-1.2-1.194-.667 0-1.2.534-1.2 1.194V30.8h-4.606c-.662 0-1.194.537-1.194 1.2 0 .667.534 1.2 1.194 1.2h4.606v4.606c0 .662.537 1.194 1.2 1.194.667 0 1.2-.534 1.2-1.194V33.2h4.606c.662 0 1.194-.537 1.194-1.2 0-.667-.534-1.2-1.194-1.2H188.2zM762.2 188.8v-4.606c0-.662-.537-1.194-1.2-1.194-.667 0-1.2.534-1.2 1.194v4.606h-4.606c-.662 0-1.194.537-1.194 1.2 0 .667.534 1.2 1.194 1.2h4.606v4.606c0 .662.537 1.194 1.2 1.194.667 0 1.2-.534 1.2-1.194V191.2h4.606c.662 0 1.194-.537 1.194-1.2 0-.667-.534-1.2-1.194-1.2H762.2zM994.2 60.8v-4.606c0-.662-.537-1.194-1.2-1.194-.667 0-1.2.534-1.2 1.194V60.8h-4.606c-.662 0-1.194.537-1.194 1.2 0 .667.534 1.2 1.194 1.2h4.606v4.606c0 .662.537 1.194 1.2 1.194.667 0 1.2-.534 1.2-1.194V63.2h4.606c.662 0 1.194-.537 1.194-1.2 0-.667-.534-1.2-1.194-1.2H994.2zM8.2 218.8v-4.606c0-.662-.537-1.194-1.2-1.194-.667 0-1.2.534-1.2 1.194v4.606H1.194C.532 218.8 0 219.337 0 220c0 .667.534 1.2 1.194 1.2H5.8v4.606c0 .662.537 1.194 1.2 1.194.667 0 1.2-.534 1.2-1.194V221.2h4.606c.662 0 1.194-.537 1.194-1.2 0-.667-.534-1.2-1.194-1.2H8.2z"/>
            <circle cx="902" cy="69" r="2" fill="#FFE4E8"/>
            <circle cx="1008" cy="26" r="2" fill="#FFE4E8"/>
            <circle cx="727" cy="122" r="3" fill="#FFE4E8"/>
            <circle cx="744.5" cy="92.5" r="4.5" fill="#FFE4E8"/>
        </g>
        <path fill="#6ED7DF" d="M847.03 162.054l12.917-9.202a4.5 4.5 0 0 0 1.052-6.25 4.487 4.487 0 0 0-6.244-1.054l-12.916 9.202a4.499 4.499 0 0 0-1.052 6.25 4.486 4.486 0 0 0 6.243 1.054z"/>
        <path fill="#3D1603" d="M864.725 131.822c-7.886-.533-13.903-7.428-13.37-15.324.531-7.896 7.418-13.92 15.304-13.388 7.885.533 13.902 7.428 13.37 15.324-.531 7.896-7.418 13.92-15.304 13.388"/>
        <path fill="#FFC9B2" d="M866.325 144.54l-5.65-.382a.448.448 0 0 1-.415-.476l.822-12.205a.448.448 0 0 1 .475-.417l5.65.381c.245.017.432.23.416.477l-.822 12.206a.448.448 0 0 1-.476.416"/>
        <path fill="#FFD8C6" d="M866.77 144.57l-4.612-.312.882-13.098 4.613.311z"/>
        <path fill="#FFB0A3" d="M864.052 136.162c-7.195-.485-12.686-6.777-12.2-13.981l.11-1.637c.485-7.205 6.77-12.701 13.964-12.216 7.195.486 12.685 6.778 12.2 13.982l-.11 1.637c-.486 7.204-6.77 12.701-13.964 12.215"/>
        <path fill="#FFC9B2" d="M864.052 136.162c-7.195-.485-12.686-6.777-12.2-13.981l.11-1.637c.485-7.205 6.77-12.701 13.964-12.216 7.195.486 12.685 6.778 12.2 13.982l-.11 1.637c-.486 7.204-6.77 12.701-13.964 12.215"/>
        <path fill="#FFD8C6" d="M865.596 136.267c-6.346-.429-11.187-5.977-10.76-12.331l.209-3.093c.428-6.354 5.97-11.201 12.315-10.773 6.346.429 11.187 5.977 10.76 12.331l-.209 3.093c-.428 6.354-5.97 11.201-12.315 10.773"/>
        <path fill="#FFD8C6" d="M878.084 126.693a2.742 2.742 0 0 1-2.541-2.913 2.74 2.74 0 0 1 2.909-2.544c1.5.1 2.643 1.412 2.542 2.912a2.74 2.74 0 0 1-2.91 2.545"/>
        <path fill="#2D1C27" d="M860.68 121.34a.742.742 0 0 1 .1-1.48.742.742 0 0 1-.1 1.48M869.325 121.923a.744.744 0 0 1-.69-.79.743.743 0 0 1 .79-.69.743.743 0 0 1-.1 1.48"/>
        <path fill="#EB5B76" d="M857.57 126.157l-2.448-.165a1.339 1.339 0 0 1-1.24-1.422 1.337 1.337 0 0 1 1.42-1.242l2.448.165c.732.049 1.29.69 1.241 1.422a1.339 1.339 0 0 1-1.42 1.242M874.445 127.297l-2.448-.166a1.339 1.339 0 0 1-1.24-1.422 1.338 1.338 0 0 1 1.42-1.242l2.448.165c.732.05 1.29.69 1.24 1.422a1.339 1.339 0 0 1-1.42 1.243" opacity=".2"/>
        <path fill="#491B08" d="M849.44 117.048l16.372 1.105c2.093.141 7.657.459 9.352-3.57 1.173-2.792-.494-5.685-2.448-7.434l-4.75 5.303c.014-.237.064-.515.176-.804.325-.835.953-1.398 1.143-1.465-.029.01-.706.057-2.93-.094l-16.372-1.104c-2.092-.142-3.92 1.68-4.06 3.775-.141 2.095 1.424 4.147 3.517 4.288"/>
        <path fill="#491B08" d="M852.766 110.852l16.265 1.098c1.6.107 2.987-1.154 3.096-2.755.107-1.602-1.099-3.038-2.698-3.146l-16.265-1.097c-1.6-.109-2.988 1.152-3.096 2.753-.107 1.603 1.099 3.039 2.698 3.147"/>
        <path fill="#491B08" d="M874.666 113.853a8.297 8.297 0 0 0 .316-1.776l.001-.015c.31-4.603-3.197-8.638-7.793-8.948l-1.684-.114c-6.024.042-11.332 3.868-13.338 9.333l22.498 1.52z"/>
        <path fill="#FB9EAE" d="M867.855 126.05s-.038 3.216-3.416 2.988c-3.378-.228-2.984-3.42-2.984-3.42"/>
        <path fill="#FFD4BD" d="M860.733 236.801h-4.538v-9.846h4.538z"/>
        <path fill="#3B5777" d="M858.472 232.022a4.112 4.112 0 0 0 4.097-4.103v-50.366a4.113 4.113 0 0 0-4.097-4.103c-2.254 0-4.098 1.847-4.098 4.103v50.366a4.112 4.112 0 0 0 4.098 4.103"/>
        <path fill="#858CAB" d="M855.307 232.608h6.33c.513 0 .932-.42.932-.933v-2.237a.935.935 0 0 0-.932-.933h-6.33a.935.935 0 0 0-.933.933v2.237c0 .513.42.933.933.933"/>
        <path fill="#65462C" d="M861.112 241.36a4.112 4.112 0 0 0-4.097-4.103h-1.912a4.112 4.112 0 0 0-4.098 4.103"/>
        <path fill="#65462C" d="M861.112 241.36v-5.363a.838.838 0 0 0-.834-.836h-4.158a.838.838 0 0 0-.835.836v5.363"/>
        <path fill="#65462C" d="M851.463 241.725h9.192a.458.458 0 0 0 .457-.458v-.026a.458.458 0 0 0-.457-.458h-9.192a.457.457 0 0 0-.457.458v.026c0 .253.204.458.457.458"/>
        <path fill="#FFD4BD" d="M872.313 236.801h-4.537v-9.846h4.537z"/>
        <path fill="#3B5777" d="M870.052 232.022a4.112 4.112 0 0 0 4.097-4.103v-50.366a4.112 4.112 0 0 0-4.097-4.103c-2.253 0-4.098 1.847-4.098 4.103v50.366c0 2.257 1.845 4.103 4.098 4.103"/>
        <path fill="#858CAB" d="M866.887 232.608h6.33c.513 0 .932-.42.932-.933v-2.237a.935.935 0 0 0-.932-.933h-6.33a.935.935 0 0 0-.933.933v2.237c0 .513.42.933.933.933"/>
        <path fill="#65462C" d="M872.692 241.36a4.112 4.112 0 0 0-4.097-4.103h-1.912a4.112 4.112 0 0 0-4.098 4.103"/>
        <path fill="#65462C" d="M872.692 241.36v-5.363a.838.838 0 0 0-.834-.836H867.7a.838.838 0 0 0-.835.836v5.363"/>
        <path fill="#65462C" d="M863.043 241.725h9.192a.458.458 0 0 0 .457-.458v-.026a.458.458 0 0 0-.457-.458h-9.192a.457.457 0 0 0-.457.458v.026c0 .253.204.458.457.458"/>
        <path fill="#3B5777" d="M867.033 189.857h-4.165c-5.843 0-10.58-4.743-10.58-10.594v-5.533c0-5.85 4.737-10.592 10.58-10.592h4.165c5.842 0 10.58 4.742 10.58 10.592v5.533c0 5.851-4.738 10.594-10.58 10.594"/>
        <path fill="#FFC9B2" d="M851.5 124.298a2.741 2.741 0 0 1-2.73-2.735 2.742 2.742 0 0 1 2.73-2.735 2.742 2.742 0 0 1 2.732 2.735 2.741 2.741 0 0 1-2.732 2.735"/>
        <path fill="#61C7CF" d="M865.268 138.032c6.964 0 12.265 5.705 12.265 12.678v23.356c0 3.124-2.45 5.332-5.57 5.332h-14.024c-3.12 0-4.936-2.208-4.936-5.332V150.71c0-6.973 5.301-12.678 12.265-12.678"/>
        <path fill="#FFF" d="M860.168 139.205l2.448 15.475 2.447-15.475z"/>
        <path fill="#F2F2F2" d="M857.531 137.53l2.857 2.861 2.857-2.86z"/>
        <path fill="#F2F2F2" d="M862.334 137.53l2.857 2.861 2.857-2.86z"/>
        <path fill="#FFC9B2" d="M860.243 161.08l-.859-4.004a1.325 1.325 0 0 0-1.569-1.016c-.71.153-1.166.86-1.013 1.57l.858 4.006a1.325 1.325 0 0 0 1.569 1.015 1.327 1.327 0 0 0 1.014-1.57"/>
        <path fill="#FFD8C6" d="M857.747 166.708h.497a1.88 1.88 0 0 0 1.874-1.875l.002-4.403a1.88 1.88 0 0 0-1.873-1.877h-.496a1.88 1.88 0 0 0-1.874 1.875l-.002 4.403a1.88 1.88 0 0 0 1.872 1.877"/>
        <path fill="#FFD8C6" d="M854.637 161l3.43.001c.68 0 1.236-.556 1.236-1.238 0-.68-.555-1.237-1.235-1.238l-3.43-.001c-.68 0-1.237.556-1.237 1.237 0 .68.556 1.238 1.236 1.238"/>
        <path fill="#FFD8C6" d="M854.146 163.372l3.43.002a1.24 1.24 0 0 0 1.236-1.237 1.24 1.24 0 0 0-1.235-1.239l-3.43-.001a1.24 1.24 0 0 0-1.237 1.237 1.24 1.24 0 0 0 1.236 1.238"/>
        <path fill="#FFD8C6" d="M854.37 165.274l3.43.002a1.24 1.24 0 0 0 1.237-1.237c0-.68-.556-1.238-1.236-1.238l-3.43-.002a1.24 1.24 0 0 0-1.236 1.237 1.24 1.24 0 0 0 1.235 1.238"/>
        <path fill="#FFD8C6" d="M855.31 166.707l3.43.001a1.24 1.24 0 0 0 1.236-1.237 1.24 1.24 0 0 0-1.235-1.238l-3.43-.002a1.24 1.24 0 0 0-1.237 1.237 1.24 1.24 0 0 0 1.236 1.239"/>
        <path fill="#FFF" d="M860.157 159.874c.084-.002.17-.006.256-.003.598.024 1.215.028 1.833.016l.009.03c.772 2.357.622 4.96.725 7.486-1.232.036-2.32.017-3.137-.017a4.12 4.12 0 0 1-1.179-.22c.568-2.42 1.094-4.846 1.493-7.292"/>
        <path fill="#6ED7DF" d="M861.646 159.417l7.908.122c.676.002 1.215-.472 1.277-1.095.06-.588.027-3.132-2.867-11.174a4.305 4.305 0 1 1 8.1-2.923c2.616 7.266 3.644 11.88 3.335 14.961-.503 4.991-4.804 8.852-9.827 8.852l-.15-.001-8.123-.124a4.318 4.318 0 0 1-1.075-.159 198.36 198.36 0 0 0 1.422-8.459"/>
        <path fill="#B8CDD5" d="M842.104 240.86a4.018 4.018 0 0 0 4.011-4.017v-1.593c0-2.215-1.8-4.016-4.011-4.016a4.018 4.018 0 0 0-4.011 4.016v1.593c0 2.214 1.799 4.016 4.01 4.016"/>
        <path fill="#B8CDD5" d="M842.104 230.636a4.617 4.617 0 0 1 4.609 4.615v1.592a4.617 4.617 0 0 1-4.61 4.615 4.617 4.617 0 0 1-4.608-4.615v-1.592a4.617 4.617 0 0 1 4.609-4.615m0 1.196a3.426 3.426 0 0 0-3.414 3.419v1.592a3.426 3.426 0 0 0 3.414 3.418 3.426 3.426 0 0 0 3.414-3.418v-1.592a3.426 3.426 0 0 0-3.414-3.419"/>
        <path fill="#FFD4BD" d="M842.112 238.076a2.902 2.902 0 0 0 2.892-2.896v-49.683c0-1.593-1.301-2.896-2.892-2.896a2.903 2.903 0 0 0-2.893 2.896v49.683a2.902 2.902 0 0 0 2.893 2.896"/>
        <path fill="#B8CDD5" d="M840.847 239.187h2.548a2.008 2.008 0 0 0 2.001-2.004c0-1.101-.9-2.003-2.001-2.003h-2.548a2.009 2.009 0 0 0-2.001 2.003c0 1.103.9 2.004 2.001 2.004M831.507 240.86a4.018 4.018 0 0 0 4.011-4.017v-1.593c0-2.215-1.799-4.016-4.01-4.016a4.018 4.018 0 0 0-4.012 4.016v1.593c0 2.214 1.8 4.016 4.011 4.016"/>
        <path fill="#B8CDD5" d="M831.507 230.636a4.617 4.617 0 0 1 4.61 4.615v1.592a4.617 4.617 0 0 1-4.61 4.615 4.617 4.617 0 0 1-4.609-4.615v-1.592a4.617 4.617 0 0 1 4.61-4.615m0 1.196a3.426 3.426 0 0 0-3.415 3.419v1.592a3.426 3.426 0 0 0 3.414 3.418 3.426 3.426 0 0 0 3.414-3.418v-1.592a3.426 3.426 0 0 0-3.414-3.419"/>
        <path fill="#FFD4BD" d="M831.515 238.076a2.902 2.902 0 0 0 2.892-2.896v-49.683a2.903 2.903 0 0 0-2.892-2.896 2.902 2.902 0 0 0-2.892 2.896v49.683c0 1.593 1.3 2.896 2.892 2.896"/>
        <path fill="#B8CDD5" d="M830.25 239.187h2.549c1.1 0 2-.901 2-2.004 0-1.101-.9-2.003-2-2.003h-2.549c-1.1 0-2 .902-2 2.003 0 1.103.9 2.004 2 2.004"/>
        <path fill="#673E22" d="M836.121 149.193c9.014-.648 15.858-8.562 15.212-17.586l-.225-3.132c-.646-9.024-8.55-15.879-17.563-15.23-9.013.647-15.858 8.56-15.211 17.584l.224 3.133c.647 9.024 8.55 15.878 17.563 15.23"/>
        <path fill="#FFD4BD" d="M822.4 135.711a1.844 1.844 0 0 0 1.702-1.966 1.844 1.844 0 0 0-1.964-1.704 1.844 1.844 0 0 0-1.701 1.967 1.843 1.843 0 0 0 1.964 1.703"/>
        <path fill="#FFB0A3" d="M835.936 143.994c6.942-.5 12.213-6.594 11.716-13.544l-.113-1.58c-.499-6.95-6.586-12.228-13.527-11.73-6.941.499-12.213 6.594-11.715 13.544l.113 1.58c.498 6.95 6.585 12.229 13.526 11.73"/>
        <path fill="#FFC9B2" d="M835.936 143.994c6.942-.5 12.213-6.594 11.716-13.544l-.113-1.58c-.499-6.95-6.586-12.228-13.527-11.73-6.941.499-12.213 6.594-11.715 13.544l.113 1.58c.498 6.95 6.585 12.229 13.526 11.73"/>
        <path fill="#FFD8C6" d="M834.446 144.1c6.122-.439 10.772-5.814 10.332-11.944l-.214-2.984c-.439-6.13-5.807-10.785-11.929-10.345-6.122.44-10.771 5.815-10.332 11.944l.214 2.985c.44 6.13 5.808 10.784 11.93 10.344"/>
        <path fill="#FFC9B2" d="M848.145 133.757a1.844 1.844 0 0 0 1.7-1.966 1.843 1.843 0 0 0-1.963-1.703 1.844 1.844 0 0 0-1.701 1.966 1.843 1.843 0 0 0 1.964 1.703"/>
        <path fill="#2D1C27" d="M839.195 131.782a.718.718 0 0 0 .662-.766.718.718 0 0 0-.764-.663.717.717 0 0 0 .103 1.429M831.358 132.345a.718.718 0 0 0 .662-.766.718.718 0 0 0-.765-.663.718.718 0 0 0-.662.766.718.718 0 0 0 .765.663"/>
        <path fill="#EB5B76" d="M842.788 135.847l2.362-.17a1.292 1.292 0 0 0 1.192-1.377 1.291 1.291 0 0 0-1.376-1.193l-2.363.17a1.29 1.29 0 0 0-1.191 1.377c.05.707.67 1.244 1.376 1.193M825.631 137.08l2.362-.17a1.291 1.291 0 0 0 1.192-1.377 1.291 1.291 0 0 0-1.376-1.193l-2.362.17c-.706.05-1.243.67-1.192 1.377.05.707.67 1.244 1.376 1.193" opacity=".2"/>
        <path fill="#FFC9B2" d="M833.108 148.784l6.31-.454-.383-5.352-6.31.452z"/>
        <path fill="#FFD8C6" d="M833.108 148.784l4.45-.32-.383-5.353-4.45.32z"/>
        <path fill="#673E22" d="M834.392 124.842a32.83 32.83 0 0 0-14.5 4.549c.456-7.355 6.282-13.422 13.826-13.964 7.543-.542 14.175 4.63 15.675 11.845a32.814 32.814 0 0 0-15-2.43"/>
        <path fill="#F7A1AE" d="M835.505 137.985a2.486 2.486 0 0 0 2.298-2.656.349.349 0 1 0-.696.05c.07.982-.67 1.838-1.651 1.909a1.786 1.786 0 0 1-1.906-1.653.35.35 0 1 0-.697.05 2.486 2.486 0 0 0 2.652 2.3"/>
        <path fill="#673E22" d="M841.445 125.965a3.755 3.755 0 1 0 7.49-.538 3.756 3.756 0 0 0-4.014-3.48 3.757 3.757 0 0 0-3.476 4.018"/>
        <path fill="#673E22" d="M834.173 125.435a3.755 3.755 0 1 0 7.489-.538 3.756 3.756 0 0 0-4.014-3.48 3.757 3.757 0 0 0-3.475 4.018"/>
        <path fill="#673E22" d="M826.857 125.961a3.755 3.755 0 1 0 7.49-.538 3.757 3.757 0 0 0-4.014-3.48 3.757 3.757 0 0 0-3.476 4.018"/>
        <path fill="#673E22" d="M819.954 127.334a3.755 3.755 0 1 0 7.489-.538 3.756 3.756 0 0 0-4.014-3.48 3.757 3.757 0 0 0-3.475 4.018"/>
        <path fill="#E77C82" d="M847.384 200.95a1.852 1.852 0 1 0 3.703 0 1.853 1.853 0 0 0-1.851-1.853c-1.023 0-1.852.83-1.852 1.854"/>
        <path fill="#E77C82" d="M843.682 200.95a1.852 1.852 0 1 0 3.702 0 1.852 1.852 0 0 0-3.703 0"/>
        <path fill="#E77C82" d="M839.979 200.95a1.852 1.852 0 1 0 3.703 0 1.853 1.853 0 0 0-3.704 0"/>
        <path fill="#E77C82" d="M836.276 200.95a1.852 1.852 0 1 0 3.703 0 1.852 1.852 0 0 0-3.703 0"/>
        <path fill="#E77C82" d="M832.573 200.95a1.852 1.852 0 1 0 3.704 0 1.852 1.852 0 0 0-3.703 0"/>
        <path fill="#E77C82" d="M828.87 200.95a1.852 1.852 0 1 0 3.704 0 1.852 1.852 0 0 0-3.703 0"/>
        <path fill="#E77C82" d="M825.215 200.95a1.852 1.852 0 1 0 3.703 0 1.853 1.853 0 0 0-1.851-1.853c-1.023 0-1.852.83-1.852 1.854"/>
        <path fill="#E77C82" d="M821.512 200.95a1.852 1.852 0 1 0 3.703 0 1.853 1.853 0 0 0-1.851-1.853c-1.023 0-1.852.83-1.852 1.854"/>
        <path fill="#E77C82" d="M851.087 201.062v-27.07c0-4.904-4.007-8.917-8.906-8.917h-11.762c-4.898 0-8.907 4.013-8.907 8.918v27.07h29.575z"/>
        <path fill="#FFD4BD" d="M830.595 174.417a2.622 2.622 0 0 0 .38-5.217c-3.308-.49-6.016-2.643-6.899-5.485-1.182-3.8 1.047-8.222 5.072-10.067a2.624 2.624 0 0 0 1.293-3.475 2.618 2.618 0 0 0-3.472-1.294c-3.127 1.432-5.651 3.897-7.107 6.941-1.456 3.045-1.736 6.402-.788 9.453 1.478 4.755 5.849 8.333 11.136 9.115.129.02.258.029.385.029"/>
        <path fill="#FFD4BD" d="M835.321 177.133a1.048 1.048 0 0 0 .517-1.962c-2.57-1.456-2.698-2.52-2.675-2.812.029-.392.36-.692.656-.805.078-.03.222-.076.3-.039.112.05.213.24.218.256a1.048 1.048 0 1 0 1.97-.719c-.062-.168-.415-1.034-1.318-1.446-.405-.185-1.068-.338-1.918-.012-1.128.432-1.912 1.456-1.998 2.608-.088 1.173.488 2.956 3.733 4.795.163.092.34.136.515.136M841.076 174.417a2.621 2.621 0 0 1-2.588-2.24 2.622 2.622 0 0 1 2.208-2.978c3.308-.49 6.016-2.642 6.9-5.484 1.181-3.8-1.048-8.222-5.073-10.067a2.623 2.623 0 0 1-1.292-3.475 2.618 2.618 0 0 1 3.471-1.294c3.127 1.432 5.652 3.897 7.108 6.941 1.456 3.045 1.735 6.402.787 9.453-1.478 4.755-5.849 8.333-11.135 9.115-.13.02-.258.029-.386.029"/>
        <path fill="#FFD4BD" d="M836.35 177.133a1.05 1.05 0 0 1-.517-1.962c2.57-1.456 2.698-2.52 2.676-2.812-.03-.392-.36-.692-.657-.805-.078-.03-.221-.076-.3-.039-.112.05-.213.24-.218.256a1.047 1.047 0 1 1-1.97-.719c.063-.168.415-1.034 1.318-1.446.405-.185 1.068-.338 1.92-.012 1.126.432 1.91 1.456 1.997 2.608.087 1.173-.49 2.956-3.734 4.795-.163.092-.34.136-.515.136"/>
        <path fill="#E77C82" d="M826.81 166.264v-12.828c0-3.517 2.874-6.395 6.387-6.395h6.206c3.513 0 6.387 2.878 6.387 6.395v12.828h-18.98z"/>
        <path fill="#FFDB00" d="M836.043 164.432c.019-.035.43-.776 1.265-.812.5-.021.969.215 1.243.583 0 0 .27.363.285.908.026.974-1.095 2.124-2.793 2.974v-3.653z"/>
        <path fill="#FFDB00" d="M836.1 164.432c-.018-.035-.43-.776-1.266-.812a1.486 1.486 0 0 0-1.242.583s-.27.363-.285.908c-.026.974 1.095 2.124 2.793 2.974v-3.653z"/>
        <g>
            <g transform="translate(923 73.203)">
                <mask id="b" fill="#fff">
                    <use xlink:href="#a"/>
                </mask>
                <path fill="#7A88BA" d="M27.677 13.398c0 7.322-6.196 13.256-13.838 13.256C6.196 26.654 0 20.72 0 13.398 0 6.078 6.196.144 13.839.144c7.642 0 13.838 5.933 13.838 13.254" mask="url(#b)"/>
            </g>
            <path fill="#FFF" d="M947.91 86.6c0 5.857-4.957 10.607-11.071 10.607s-11.072-4.75-11.072-10.607c0-5.855 4.958-10.604 11.072-10.604 6.114 0 11.07 4.75 11.07 10.604"/>
            <path fill="#5D6B9F" d="M939.055 86.6c0 1.126-.952 2.039-2.126 2.039-1.176 0-2.129-.913-2.129-2.039 0-1.124.953-2.037 2.129-2.037 1.174 0 2.126.913 2.126 2.037"/>
            <path fill="#5D6B9F" d="M937.6 86.297c0 .419-.224.759-.5.759s-.5-.34-.5-.758v-6.069c0-.417.224-.757.5-.757s.5.34.5.757v6.068z"/>
            <path fill="#5D6B9F" d="M937.558 87.106c-.288.11-.602-.01-.7-.267-.1-.258.054-.557.341-.667l4.169-1.6c.287-.11.6.009.699.267.099.258-.054.556-.34.666l-4.17 1.6zM936.839 78.91c1.498 0 1.498-2.271 0-2.271-1.5 0-1.5 2.27 0 2.27M936.839 96.563c1.498 0 1.498-2.27 0-2.27-1.5 0-1.5 2.27 0 2.27M945.877 87.737c1.499 0 1.499-2.271 0-2.271-1.5 0-1.5 2.27 0 2.27M927.8 87.737c1.499 0 1.499-2.271 0-2.271-1.5 0-1.5 2.27 0 2.27M943.229 81.21c1.125 0 1.125-1.702 0-1.702-1.124 0-1.124 1.703 0 1.703M930.446 93.695c1.126 0 1.126-1.703 0-1.703-1.123 0-1.123 1.703 0 1.703M943.229 93.695c1.125 0 1.125-1.703 0-1.703-1.124 0-1.124 1.703 0 1.703M930.448 81.21c1.124 0 1.124-1.701 0-1.701-1.125 0-1.125 1.702 0 1.702M945.189 84.074c1.124 0 1.124-1.702 0-1.702-1.125 0-1.125 1.702 0 1.702M928.488 90.831c1.124 0 1.124-1.702 0-1.702-1.126 0-1.126 1.702 0 1.702M940.296 95.608c1.125 0 1.125-1.702 0-1.702-1.123 0-1.123 1.702 0 1.702M933.379 79.298c1.126 0 1.126-1.703 0-1.703-1.124 0-1.124 1.703 0 1.703M940.296 79.297c1.126 0 1.126-1.702 0-1.702-1.123 0-1.123 1.702 0 1.702M933.38 95.609c1.124 0 1.124-1.703 0-1.703-1.125 0-1.125 1.703 0 1.703M945.19 90.831c1.123 0 1.123-1.702 0-1.702-1.126 0-1.126 1.702 0 1.702M928.488 84.075c1.124 0 1.124-1.703 0-1.703s-1.124 1.703 0 1.703"/>
        </g>
        <g>
            <path fill="#E58FA7" d="M193.377 209.587c0 4.499-3.664 8.146-8.184 8.146h-7.925c-4.52 0-8.184-3.647-8.184-8.146V200.8c0-4.499 3.664-8.146 8.184-8.146h7.925c4.52 0 8.184 3.647 8.184 8.146v8.786z"/>
            <path fill="#EAB1BA" d="M210.977 215.957c0 4.499-3.664 8.146-8.184 8.146h-7.925c-4.52 0-8.184-3.647-8.184-8.146v-8.785c0-4.5 3.664-8.146 8.184-8.146h7.925c4.52 0 8.184 3.647 8.184 8.146v8.785z"/>
            <path fill="#9FD9D2" d="M286.372 216.477c0 3.454-3.664 6.254-8.184 6.254H176.595c-4.52 0-8.184-2.8-8.184-6.254v-3.915c0-3.454 3.664-6.255 8.184-6.255h101.593c4.52 0 8.184 2.8 8.184 6.255v3.915z"/>
            <path fill="#FFD8C6" d="M240.555 183.008c.77-.27 3.605-1.257 4.606-1.559 1.164-.35 3.956-2.328 3.956-2.328s-.873-1.068-.575-1.695c.526-1.11 1.522-.246 1.632.056.185.512.15.822.15.822s.639-.336 1.264-1.041c.46-.52.975-1.215 1.488-.752.591.535-.476 1.678-.476 1.678s1.656-.745 1.858.002c.202.748-1.146 1.252-1.146 1.252s1.306.08 1.348.662c.043.581-1.442.497-1.442.497s1.199.55.78 1.087c-.417.538-1.59.036-1.59.036s-.906.348-1.342.43c-.438.082-1.242.106-1.242.106s-1.346 1.836-2.67 3.067c-1.324 1.232-2.555 2.903-2.555 2.903s1.613 1.47 3.121 6.28c1.002 3.193 1.396 5.727 1.396 5.727s1.132.425 2.96 1.685c1.866 1.284 1.9 1.528 1.9 1.528s1.118-1.645 1.898-2.094c.785-.452 1.808.23 1.742.874-.067.643-.59 1.038-.59 1.038s.26.953.117 2.126c-.108.896-.18 1.473-1.166 1.945-.448.214-12.297-.283-17.821-.377-5.526-.095-18.874.7-19.589.438-.597-.22-1.128-1.167-1.187-2.132-.058-.966.523-1.818.523-1.818s-1.026-.406-.893-1.176c.161-.936.853-1.212 1.676-.886.825.326 1.77 2.005 1.77 2.005s.83-.961 2.167-1.661c1.337-.702 2.61-1.21 2.61-1.21s.28-1.828 1.346-4.436c1.083-2.65 2.098-3.803 2.098-3.803s-2.185.047-3.906.175c-1.72.128-2.984-.078-2.984-.078s-.062.416-.732 1.028c-.776.705-1.243.587-1.243.587s-.027 1.085-.788 1.164c-.76.078-.327-1.306-.327-1.306s-1.057.876-1.457.499c-.548-.518.58-1.418.58-1.418s-1.513.601-1.71.191c-.398-.826 1.325-1.232 1.325-1.232s-1.408-.147-1.246-.788c.178-.695 1.408-.397 1.856-.57.446-.172.807-.414.807-.414s-.556-1.27.058-1.451c.612-.18 1.394.915 1.394.915s.266-.288 3.369-1.332c1.367-.46 2.8-1.097 3.978-1.666"/>
            <path fill="#FF9762" d="M225.685 197.638a8.21 8.21 0 0 0 1.015-2.399s3.587 1.288 10.75 1.398c7.165-.11 10.751-1.398 10.751-1.398s.256 1.2 1.015 2.4c.998 1.576.912 3.05.912 3.05s-2.572-.393-5.124 2.518c-2.163 2.47-2.03 3.952-2.03 3.952s-1.984.464-5.541.464c-3.772 0-5.507-.464-5.507-.464s.135-1.481-2.029-3.952c-2.551-2.91-5.124-2.518-5.124-2.518s-.085-1.474.912-3.05"/>
            <path fill="#FFD8C6" d="M245.825 169.948c1.528 6.993-2.832 13.93-9.738 15.493-6.907 1.565-13.745-2.837-15.272-9.83-1.529-6.993 2.832-13.93 9.739-15.494 6.906-1.563 13.743 2.838 15.271 9.831"/>
            <path fill="#2D1C27" d="M230.898 174.692a.787.787 0 0 1-.589.936.771.771 0 0 1-.922-.594.785.785 0 0 1 .588-.936.773.773 0 0 1 .923.594M238.237 173.03a.786.786 0 0 1-.588.937.772.772 0 0 1-.923-.594.786.786 0 0 1 .589-.937.771.771 0 0 1 .922.594"/>
            <g fill="#491B08">
                <path d="M230.581 168.18c.744-.251 2.9-.85 2.884-2.683-.007-.792-.318-2.039-.976-2.756l-2.105 2.913a1.247 1.247 0 0 1-.072-.338c-.026-.371.097-.681.152-.735-.008.008-.233.125-1.023.392l-5.814 1.962c-.743.25-1.072 1.224-.776 2.057.297.833 1.173 1.4 1.916 1.15l5.814-1.962z"/>
                <path d="M232.61 165.552c.578-.178.448-1.379.184-2.323s-1.875-1.265-2.295-1.13c-.28.09-2.146.646-5.596 1.667-.579.178-.776 1.051-.452 1.918s1.066 1.452 1.644 1.274l6.514-1.406z"/>
            </g>
            <path fill="#EB5B76" d="M227.63 180.454l1.866-.448c.557-.133.909-.654.78-1.156-.127-.502-.687-.804-1.245-.67l-1.865.447c-.557.134-.91.654-.781 1.156.128.503.689.804 1.246.67M241.124 176.41l1.84-.544c.548-.163.873-.7.718-1.195-.154-.495-.729-.767-1.279-.604l-1.839.544c-.55.163-.874.7-.72 1.195.155.495.73.767 1.28.604" opacity=".2"/>
            <path fill="#EEB1A9" d="M233.115 179.604s.413 1.828 2.446 1.26c2.033-.568 1.406-2.336 1.406-2.336"/>
            <path fill="#FFD8C6" d="M222.929 177.76a1.722 1.722 0 0 1-1.856 1.578 1.722 1.722 0 0 1-1.553-1.877 1.722 1.722 0 0 1 1.855-1.578 1.722 1.722 0 0 1 1.554 1.876M247.217 169.334a1.722 1.722 0 0 1-1.856 1.578 1.722 1.722 0 0 1-1.553-1.876 1.722 1.722 0 0 1 1.855-1.578 1.722 1.722 0 0 1 1.554 1.876"/>
            <path fill="#FF8397" d="M214.382 119.9h1.157v-8.86h-1.157zM226.073 124.386h1.158V112.65h-1.158zM238.156 122.316h1.157v-11.738h-1.157z"/>
            <path fill="#FFD23F" d="M227.878 105.363v-3.637c3.499-.1 6.2-.74 6.2-1.517 0-.846-3.211-1.533-7.172-1.533-3.962 0-7.173.687-7.173 1.533 0 .776 2.7 1.415 6.2 1.517v3.637c-6.653.122-11.898 4.244-11.898 5.93 0 1.766 5.762 3.199 12.87 3.199s12.87-1.433 12.87-3.2c0-1.685-5.245-5.807-11.897-5.93"/>
            <g transform="translate(211.391 115.47)">
                <mask id="d" fill="#fff">
                    <use xlink:href="#c"/>
                </mask>
                <path fill="#00D0DC" d="M7.338 3.435c0 1.891-1.643 3.424-3.669 3.424C1.642 6.859 0 5.326 0 3.435 0 1.545 1.643.013 3.67.013c2.026 0 3.67 1.532 3.67 3.422" mask="url(#d)"/>
            </g>
            <path fill="#00D0DC" d="M230.305 126.27c0 1.892-1.643 3.423-3.67 3.423-2.025 0-3.668-1.531-3.668-3.422 0-1.891 1.643-3.423 3.669-3.423s3.67 1.532 3.67 3.423M242.175 120.29c0 1.891-1.643 3.423-3.67 3.423-2.026 0-3.669-1.532-3.669-3.423 0-1.89 1.643-3.423 3.669-3.423 2.027 0 3.67 1.532 3.67 3.423"/>
            <path fill="#00A19A" d="M286.372 220.832c0 1.933-1.832 3.5-4.092 3.5H172.502c-2.26 0-4.091-1.567-4.091-3.5s1.832-3.5 4.091-3.5H282.28c2.26 0 4.092 1.567 4.092 3.5"/>
            <path fill="#FFF" d="M200.506 225.258h3.363v-35h-3.363zM183.702 225.258h3.36v-35h-3.36zM234.118 225.258h3.36v-35h-3.36zM217.313 225.258h3.36v-35h-3.36zM267.729 225.258h3.36v-35h-3.36zM250.922 225.258h3.361v-35h-3.361zM171.66 177.764c0 2.032-1.626 3.68-3.634 3.68s-3.635-1.648-3.635-3.68 1.627-3.68 3.635-3.68 3.634 1.648 3.634 3.68M290.391 177.764c0 2.032-1.626 3.68-3.635 3.68-2.007 0-3.634-1.648-3.634-3.68s1.627-3.68 3.634-3.68c2.009 0 3.635 1.648 3.635 3.68"/>
            <path fill="#FFF" d="M168.905 192.301h116.98v-4.089h-116.98zM168.905 226.948h116.98v-4.09h-116.98z"/>
            <path fill="#FFF" d="M170.449 234.271c0 .737-1.084 1.333-2.423 1.333-1.338 0-2.423-.596-2.423-1.333v-52.335c0-.736 1.085-1.332 2.423-1.332 1.339 0 2.423.596 2.423 1.332v52.335zM289.18 234.271c0 .737-1.085 1.333-2.424 1.333-1.337 0-2.422-.596-2.422-1.333v-52.335c0-.736 1.085-1.332 2.422-1.332 1.339 0 2.424.596 2.424 1.332v52.335z"/>
            <g>
                <g transform="translate(108.391 61.084)">
                    <path stroke="#DEC0A5" stroke-linecap="round" stroke-linejoin="round" d="M22.142 32.576c5.626 8.46 8.35 18.974 8.172 31.54-.266 18.85 6.89 51.535 27.063 55.853"/>
                    <path fill="#F98896" d="M10.477 4.429C3.954 7.189 1.89 15.817 4.84 23.375c4.183 10.708 14.425 8.914 16.85 8.913l-.066 1.976 2.85-1.206-1.972-1.125c1.707-1.819 10.013-8.184 5.964-18.552C25.514 5.825 17.002 1.67 10.477 4.43"/>
                    <text fill="#FFF" font-family="ArialRoundedMTBold, Arial Rounded MT Bold" font-size="7" letter-spacing="-.3" transform="rotate(-30 15.376 16.613)">
                        <tspan x="10.538" y="15.613">I’m</tspan> <tspan x="7.52" y="23.613">bab</tspan> <tspan x="19.438" y="23.613">y</tspan>
                    </text>
                    <path stroke="#DEC0A5" stroke-linecap="round" stroke-linejoin="round" d="M61.515 119.864c-1.522 1.805-2.935 2.618-4.241 2.439M62.02 121.899c-.716.205-1.51.017-2.383-.564M60.214 122c1.194 1.767 1.343 3.382.447 4.845-.896 1.464-.881 2.873.044 4.228"/>
                    <circle cx="59.659" cy="121.166" r="1" fill="#DEC0A5"/>
                </g>
            </g>
            <g>
                <path fill="#9CC236" d="M33.139 226.71h31.444v-18.958H33.139z"/>
                <path fill="#7D9930" d="M31.391 209.912h34.94v-5.739H31.39z"/>
                <path fill="#EFC83D" d="M43.475 217.375h10.773v-3.157H43.475z"/>
                <path fill="#1D71B8" d="M58.91 200.441c0 .718-.563 1.301-1.256 1.301H39.875c-.693 0-1.255-.583-1.255-1.3v-3.6c0-.718.562-1.3 1.255-1.3h17.779c.693 0 1.255.582 1.255 1.3v3.6z"/>
                <path fill="#1D71B8" d="M55.359 196.433c0 .718-.651 1.3-1.453 1.3H43.623c-.803 0-1.453-.582-1.453-1.3v-4.55c0-.718.65-1.3 1.453-1.3h10.283c.802 0 1.453.582 1.453 1.3v4.55z"/>
                <path fill="#71CCF2" d="M48.156 194.95c0 .352-.225.637-.503.637h-3.56c-.278 0-.503-.285-.503-.636v-2.228c0-.35.225-.636.503-.636h3.56c.278 0 .503.286.503.636v2.228zM53.939 194.95c0 .352-.225.637-.503.637h-3.56c-.278 0-.503-.285-.503-.636v-2.228c0-.35.225-.636.503-.636h3.56c.278 0 .503.286.503.636v2.228z"/>
                <path fill="#004458" d="M45.55 202.175c0 1.077-.886 1.95-1.978 1.95-1.093 0-1.979-.873-1.979-1.95s.886-1.95 1.979-1.95c1.092 0 1.978.873 1.978 1.95"/>
                <path stroke="#004458" stroke-width="1.3" d="M45.55 202.175c0 1.077-.886 1.95-1.978 1.95-1.093 0-1.979-.873-1.979-1.95s.886-1.95 1.979-1.95c1.092 0 1.978.873 1.978 1.95z"/>
                <path fill="#004458" d="M55.936 202.175c0 1.077-.886 1.95-1.978 1.95-1.094 0-1.98-.873-1.98-1.95s.886-1.95 1.98-1.95c1.092 0 1.978.873 1.978 1.95"/>
                <path stroke="#004458" stroke-width="1.3" d="M55.936 202.175c0 1.077-.886 1.95-1.978 1.95-1.094 0-1.98-.873-1.98-1.95s.886-1.95 1.98-1.95c1.092 0 1.978.873 1.978 1.95z"/>
                <path fill="#878787" d="M44.56 202.175a.982.982 0 0 1-.988.975.982.982 0 0 1-.99-.975c0-.538.443-.975.99-.975.546 0 .988.437.988.975M54.947 202.175a.982.982 0 0 1-.99.975.982.982 0 0 1-.989-.975c0-.538.443-.975.99-.975.546 0 .989.437.989.975"/>
            </g>
            <g>
                <path fill="#EB7D58" d="M83.161 212.83c2.471 4.989.277 11.174-4.902 13.815-5.179 2.64-11.38.736-13.852-4.253-2.472-4.99-.277-11.174 4.901-13.815 5.18-2.64 11.381-.736 13.853 4.253"/>
                <path fill="#FFCA6C" d="M78.609 215.15c2.493 5.032 2.348 10.215-.312 11.57-2.664 1.36-6.845-1.618-9.338-6.649-2.493-5.031-2.353-10.211.312-11.57 2.66-1.356 6.845 1.618 9.338 6.65"/>
                <path fill="#555B7A" d="M71.993 208.305c.297.601-.469 1.602-1.712 2.236-1.243.634-2.492.66-2.79.06-.296-.601.47-1.602 1.712-2.236 1.243-.634 2.492-.66 2.79-.06"/>
            </g>
            <g>
                <path fill="#E5C5C5" d="M141.113 225.973c0 1.533-1.47 2.396-2.98 2.396h-2.917c-1.51 0-2.98-.863-2.98-2.396l.248-10.856c0-1.531 1.223-1.764 2.732-1.764h2.918c1.508 0 2.732.233 2.732 1.764l.247 10.856z"/>
                <path fill="#FFC04E" d="M135.927 212.731c-.17-1.134-1.64-5.718 1.025-5.492 1.69.142.853 4.255.683 5.578"/>
                <path fill="#FFC04E" d="M139.577 210.935c0 .709-.588 1.284-1.313 1.284h-3.179c-.725 0-1.313-.575-1.313-1.284 0-.709.588-1.283 1.313-1.283h3.179c.725 0 1.313.574 1.313 1.283"/>
                <path fill="#C48686" d="M140.715 212.592c0 .736-.239 1.332-.815 1.332h-6.45c-.577 0-.816-.596-.816-1.332 0-.735.24-1.331.815-1.331h6.451c.576 0 .815.596.815 1.331"/>
                <path fill="#FFF" d="M140.335 217.567c0 .243-.155.438-.348.438h-3.093c-.193 0-.349-.195-.349-.438 0-.24.156-.437.349-.437h3.093c.193 0 .348.196.348.437M140.335 219.84c0 .242-.155.437-.348.437h-3.093c-.193 0-.349-.195-.349-.438 0-.242.156-.438.349-.438h3.093c.193 0 .348.196.348.438M140.335 222.111c0 .241-.155.438-.348.438h-3.093c-.193 0-.349-.197-.349-.438 0-.242.156-.438.349-.438h3.093c.193 0 .348.196.348.438M140.335 224.382c0 .242-.155.437-.348.437h-3.093c-.193 0-.349-.195-.349-.437 0-.241.156-.438.349-.438h3.093c.193 0 .348.197.348.438"/>
            </g>
        </g>
        <g>
            <g fill="#A0724D">
                <path d="M977.293 200.888h50.414v-2.722h-50.414zM977.293 174.999h50.414v-2.727h-50.414zM977.293 226.783h50.415v-2.728h-50.415z"/>
                <path d="M975 226.783h3.042v-54.511H975zM1000.852 226.783h3.042v-54.511h-3.042zM1026.958 226.783H1030v-54.511h-3.042z"/>
            </g>
            <path fill="#FFF" d="M1017.943 221.81c0 .605-.59 1.097-1.318 1.097-.728 0-1.318-.492-1.318-1.098v-15.258c0-.605.59-1.097 1.318-1.097.728 0 1.318.492 1.318 1.097v15.258z"/>
            <path fill="#94C01F" d="M1024.723 218.413a1.956 1.956 0 0 1-1.95 1.964h-12.296a1.956 1.956 0 0 1-1.95-1.964c0-1.084.873-1.963 1.95-1.963h12.297c1.076 0 1.949.879 1.949 1.963"/>
            <path fill="#D0397C" d="M1023.342 214.62a1.957 1.957 0 0 1-1.95 1.963h-9.534c-1.077 0-1.949-.879-1.949-1.964 0-1.084.872-1.963 1.95-1.963h9.533c1.077 0 1.95.879 1.95 1.963"/>
            <path fill="#F9B233" d="M1021.961 210.825a1.956 1.956 0 0 1-1.95 1.964h-6.772a1.956 1.956 0 0 1-1.95-1.964c0-1.084.874-1.963 1.95-1.963h6.773c1.076 0 1.949.879 1.949 1.963"/>
            <path fill="#50B0B9" d="M1026.355 222.208a1.957 1.957 0 0 1-1.95 1.964h-15.56c-1.076 0-1.95-.88-1.95-1.964 0-1.085.874-1.964 1.95-1.964h15.56c1.077 0 1.95.879 1.95 1.964"/>
            <path fill="#9CC370" d="M1025.706 194.974a1.2 1.2 0 0 1-1.195 1.205h-16.938a1.2 1.2 0 0 1-1.196-1.205v-2.409a1.2 1.2 0 0 1 1.196-1.204h16.938a1.2 1.2 0 0 1 1.195 1.204v2.41z"/>
            <path fill="#9CC370" d="M1021.472 191.26a1.2 1.2 0 0 1-1.196 1.205h-8.469a1.2 1.2 0 0 1-1.196-1.204v-4.216a1.2 1.2 0 0 1 1.196-1.204h8.47a1.2 1.2 0 0 1 1.195 1.204v4.216z"/>
            <path fill="#DBF1FA" d="M1015.444 190.612c0 .408-.177.74-.395.74h-2.797c-.218 0-.395-.332-.395-.74v-2.587c0-.408.177-.739.395-.739h2.797c.218 0 .395.331.395.739v2.587zM1020.226 190.612c0 .408-.176.74-.394.74h-2.798c-.218 0-.394-.332-.394-.74v-2.587c0-.408.176-.739.394-.739h2.798c.218 0 .394.331.394.739v2.587z"/>
            <path fill="#004458" d="M1013.127 196.58a1.8 1.8 0 0 1-1.793 1.807 1.8 1.8 0 0 1-1.794-1.807 1.8 1.8 0 0 1 1.794-1.806 1.8 1.8 0 0 1 1.793 1.806"/>
            <path stroke="#004458" stroke-width="1.2" d="M1013.127 196.58a1.8 1.8 0 0 1-1.793 1.807 1.8 1.8 0 0 1-1.794-1.807 1.8 1.8 0 0 1 1.794-1.806 1.8 1.8 0 0 1 1.793 1.806z"/>
            <path fill="#004458" d="M1022.543 196.58a1.8 1.8 0 0 1-1.793 1.807 1.8 1.8 0 0 1-1.794-1.807 1.8 1.8 0 0 1 1.794-1.806 1.8 1.8 0 0 1 1.793 1.806"/>
            <path stroke="#004458" stroke-width="1.2" d="M1022.543 196.58a1.8 1.8 0 0 1-1.793 1.807 1.8 1.8 0 0 1-1.794-1.807 1.8 1.8 0 0 1 1.794-1.806 1.8 1.8 0 0 1 1.793 1.806z"/>
            <path fill="#878787" d="M1012.23 196.58a.9.9 0 0 1-.896.904.9.9 0 0 1-.897-.904.9.9 0 0 1 .897-.903.9.9 0 0 1 .897.903M1021.646 196.58a.9.9 0 0 1-.896.904.9.9 0 0 1-.897-.904.9.9 0 0 1 .897-.903.9.9 0 0 1 .896.903"/>
            <g>
                <path fill="#C5D5E5" d="M997.505 196.057c0 1.533-1.471 2.396-2.98 2.396h-2.918c-1.509 0-2.98-.863-2.98-2.396l.248-10.856c0-1.532 1.223-1.764 2.732-1.764h2.918c1.509 0 2.732.232 2.732 1.764l.248 10.856z"/>
                <path fill="#F9B233" d="M992.319 182.815c-.171-1.135-1.64-5.718 1.024-5.493 1.69.143.853 4.256.683 5.578"/>
                <path fill="#F9B233" d="M995.968 181.019c0 .708-.588 1.284-1.313 1.284h-3.178c-.726 0-1.314-.576-1.314-1.284 0-.71.588-1.284 1.314-1.284h3.178c.725 0 1.313.575 1.313 1.284"/>
                <path fill="#86A6C4" d="M997.107 182.676c0 .736-.24 1.332-.816 1.332h-6.45c-.576 0-.815-.596-.815-1.332 0-.735.239-1.332.815-1.332h6.45c.576 0 .816.597.816 1.332"/>
                <path fill="#FFF" d="M996.727 187.651c0 .242-.156.438-.349.438h-3.093c-.192 0-.348-.196-.348-.438 0-.241.156-.438.348-.438h3.093c.193 0 .349.197.349.438M996.727 189.923c0 .242-.156.438-.349.438h-3.093c-.192 0-.348-.196-.348-.438 0-.243.156-.438.348-.438h3.093c.193 0 .349.195.349.438M996.727 192.195c0 .24-.156.437-.349.437h-3.093c-.192 0-.348-.196-.348-.437 0-.243.156-.438.348-.438h3.093c.193 0 .349.195.349.438M996.727 194.465c0 .243-.156.438-.349.438h-3.093c-.192 0-.348-.195-.348-.438 0-.24.156-.438.348-.438h3.093c.193 0 .349.197.349.438"/>
            </g>
            <g>
                <path fill="#FFADAD" d="M1023.808 165.969c0 6.063-3.892 7.29-8.693 7.29-4.8 0-8.692-1.227-8.692-7.29 0-6.064 3.891-10.98 8.692-10.98s8.693 4.916 8.693 10.98"/>
                <path fill="#D5A172" d="M1014.058 175.674c0 1.16-1.233 1.799-2.385 1.799-1.151 0-2.384-.64-2.384-1.8l.598-4.968c0-1.16.635-2.101 1.786-2.101 1.152 0 1.787.94 1.787 2.1l.598 4.97zM1020.942 175.674c0 1.16-1.233 1.799-2.385 1.799-1.15 0-2.384-.64-2.384-1.8l.598-4.968c0-1.16.635-2.101 1.786-2.101 1.152 0 1.787.94 1.787 2.1l.598 4.97zM1006.821 168.684a1.789 1.789 0 0 1-2.363.929 1.812 1.812 0 0 1-.922-2.38l2.435-4.843c.398-.913 1.182-1.45 2.09-1.05.906.401 1.045 1.346.647 2.26l-1.887 5.084zM1023.118 168.684a1.789 1.789 0 0 0 2.363.929c.907-.4 1.32-1.466.922-2.38l-2.434-4.843c-.398-.913-1.182-1.45-2.09-1.05-.907.401-1.046 1.346-.648 2.26l1.887 5.084z"/>
                <path fill="#FFF" d="M1024.289 155.282c0 3.921-4.135 7.1-9.235 7.1s-9.235-3.179-9.235-7.1c0-3.92 4.135-7.099 9.235-7.099s9.235 3.179 9.235 7.1"/>
                <path fill="#D5A172" d="M1024.289 155.282c0-3.92-4.135-7.099-9.235-7.099s-9.235 3.179-9.235 7.1c0 3.92 4.135 7.1 9.235 7.1s9.235-3.18 9.235-7.1"/>
                <path fill="#BEE6B4" d="M1013.719 164.275c-.521.38-.841.264-1.179-.295-.571-.948-.639-2.01-.605-3.074.016-.472.396-.832.815-.79.315.03.663.164.91.362.554.445 1.055.958 1.597 1.462.183-.227.348-.452.532-.658.276-.312.545-.635.853-.912.546-.492 1.194-.338 1.407.363.167.548.237 1.128.32 1.699.047.334.062.68.039 1.017-.056.813-.759 1.24-1.479.899a2.626 2.626 0 0 1-.677-.475c-.343-.328-.653-.69-.955-1.016-.548.5-1.024 1.013-1.578 1.418"/>
                <path fill="#D5A172" d="M1011.904 148.922a2.29 2.29 0 0 0-.253-.985c-.635-1.231-2.255-1.65-3.62-.937-1.364.714-1.956 2.29-1.322 3.521.209.405.525.72.902.94 1.253-1.06 2.701-2.098 4.293-2.539M1018.02 148.922c.01-.337.092-.672.253-.985.634-1.231 2.255-1.65 3.62-.937 1.364.714 1.956 2.29 1.322 3.521-.209.405-.525.72-.902.94-1.253-1.06-2.701-2.098-4.293-2.539"/>
                <path fill="#FFBCCE" d="M1010.593 148.808a1.282 1.282 0 0 0-.141-.554c-.357-.692-1.272-.926-2.043-.523-.773.404-1.11 1.292-.753 1.985.117.227.295.404.509.527.708-.6 1.529-1.185 2.428-1.435M1019.33 148.808c.006-.19.052-.379.143-.554.356-.692 1.27-.926 2.043-.522.771.403 1.108 1.291.752 1.984a1.287 1.287 0 0 1-.509.527c-.709-.6-1.529-1.185-2.428-1.435"/>
                <path fill="#FFADAD" d="M1011.73 156.501c0 .494-.661.894-1.476.894-.816 0-1.476-.4-1.476-.894s.66-.894 1.476-.894c.815 0 1.476.4 1.476.894M1021.81 156.501c0 .494-.66.894-1.475.894-.816 0-1.477-.4-1.477-.894s.66-.894 1.477-.894c.815 0 1.476.4 1.476.894"/>
                <path fill="#FFE4EB" d="M1017.29 156.188c0 1.173-.932 2.122-2.08 2.122-1.148 0-2.08-.95-2.08-2.122s.932-2.121 2.08-2.121c1.148 0 2.08.95 2.08 2.121"/>
                <path fill="#7D4E24" d="M1018.772 155.151c-.956 0-.956-1.494 0-1.494s.956 1.494 0 1.494M1011.434 155.263c-.956 0-.956-1.494 0-1.494s.956 1.494 0 1.494M1016.042 155.08c0 .33-.415.598-.927.598s-.926-.268-.926-.598c0-.33.414-.597.926-.597s.927.267.927.597"/>
                <path fill="#7D4E24" d="M1014.778 155.198c.046.453.054.905.054 1.36 0 .315.486.316.486 0 0-.455-.008-.907-.054-1.36-.032-.31-.519-.314-.486 0"/>
            </g>
        </g>
    </g>
</svg>
