<svg xmlns="http://www.w3.org/2000/svg" xmlns:xlink="http://www.w3.org/1999/xlink" width="1046" height="244" viewBox="0 0 1046 244">
    <defs>
        <path id="a" d="M0 4.036V.05h4.08v3.986z"/>
        <rect id="c" width="27" height="35" x="31" y="27" rx="1"/>
        <path id="d" d="M.203.166h28.262v31.727H.203V.166z"/>
        <path id="f" d="M13.588.282C20.18.747 25.34 6.274 25.34 12.965V41.943H.032V12.965C.032 6.275 5.192.747 11.785.282h1.803z"/>
        <path id="h" d="M.753.088c.607.274 1.1.839 1.297 1.48v7.358c-.24.978-.928 1.802-1.82 2.275V.088h.523z"/>
        <path id="j" d="M25.647.18v17.032H.073V.18h25.574z"/>
        <path id="l" d="M.132.067h26.897v26.757H.132V.067z"/>
    </defs>
    <g fill="none" fill-rule="evenodd">
        <circle cx="244" cy="58" r="6" stroke="#FFE2BD" stroke-width="3"/>
        <circle cx="1038" cy="188" r="6" stroke="#FFE2BD" stroke-width="3"/>
        <circle cx="20" cy="113" r="6" stroke="#FFE2BD" stroke-width="3"/>
        <circle cx="39.5" cy="65.5" r="3.5" fill="#FFE2BD"/>
        <circle cx="157.5" cy="117.5" r="3.5" fill="#FFE2BD"/>
        <circle cx="163.5" cy="2.5" r="2.5" fill="#FFE2BD"/>
        <circle cx="293" cy="186" r="6" stroke="#FFE2BD" stroke-width="3"/>
        <circle cx="877" cy="35" r="6" stroke="#FFE2BD" stroke-width="3"/>
        <path fill="#FFE2BD" d="M188.2 30.8v-4.606c0-.662-.537-1.194-1.2-1.194-.667 0-1.2.534-1.2 1.194V30.8h-4.606c-.662 0-1.194.537-1.194 1.2 0 .667.534 1.2 1.194 1.2h4.606v4.606c0 .662.537 1.194 1.2 1.194.667 0 1.2-.534 1.2-1.194V33.2h4.606c.662 0 1.194-.537 1.194-1.2 0-.667-.534-1.2-1.194-1.2H188.2zM762.2 188.8v-4.606c0-.662-.537-1.194-1.2-1.194-.667 0-1.2.534-1.2 1.194v4.606h-4.606c-.662 0-1.194.537-1.194 1.2 0 .667.534 1.2 1.194 1.2h4.606v4.606c0 .662.537 1.194 1.2 1.194.667 0 1.2-.534 1.2-1.194V191.2h4.606c.662 0 1.194-.537 1.194-1.2 0-.667-.534-1.2-1.194-1.2H762.2zM994.2 60.8v-4.606c0-.662-.537-1.194-1.2-1.194-.667 0-1.2.534-1.2 1.194V60.8h-4.606c-.662 0-1.194.537-1.194 1.2 0 .667.534 1.2 1.194 1.2h4.606v4.606c0 .662.537 1.194 1.2 1.194.667 0 1.2-.534 1.2-1.194V63.2h4.606c.662 0 1.194-.537 1.194-1.2 0-.667-.534-1.2-1.194-1.2H994.2zM8.2 218.8v-4.606c0-.662-.537-1.194-1.2-1.194-.667 0-1.2.534-1.2 1.194v4.606H1.194C.532 218.8 0 219.337 0 220c0 .667.534 1.2 1.194 1.2H5.8v4.606c0 .662.537 1.194 1.2 1.194.667 0 1.2-.534 1.2-1.194V221.2h4.606c.662 0 1.194-.537 1.194-1.2 0-.667-.534-1.2-1.194-1.2H8.2z"/>
        <circle cx="902" cy="69" r="2" fill="#FFE2BD"/>
        <circle cx="1008" cy="26" r="2" fill="#FFE2BD"/>
        <circle cx="727" cy="122" r="3" fill="#FFE2BD"/>
        <circle cx="744.5" cy="92.5" r="4.5" fill="#FFE2BD"/>
        <path fill="#E9E9E9" d="M230.165 208.304c0-.039-.004-.077-.004-.116v-57.145c0-5.34 4.415-9.708 9.81-9.708h5.07c5.395 0 9.81 4.369 9.81 9.708v57.145c0 .04-.003.077-.003.116h-24.683z"/>
        <path fill="#3D1603" d="M242.51 153.927c9.07 0 16.49-7.525 16.49-16.723v-14.876c0-9.197-7.42-16.723-16.49-16.723-9.068 0-16.489 7.526-16.489 16.723v14.876c0 9.198 7.42 16.723 16.49 16.723"/>
        <path fill="#FFC9B2" d="M242.78 147.126c1.81 0 3.292-1.465 3.292-3.257v-6.516c0-1.792-1.481-3.258-3.291-3.258-1.811 0-3.293 1.466-3.293 3.258v6.516c0 1.792 1.482 3.257 3.293 3.257"/>
        <path fill="#FFD8C6" d="M241.81 147.126c1.277 0 2.322-1.033 2.322-2.297v-8.436c0-1.264-1.045-2.298-2.322-2.298-1.277 0-2.322 1.034-2.322 2.298v8.436c0 1.264 1.045 2.297 2.322 2.297"/>
        <path fill="#FFB0A3" d="M242.78 138.982c7.243 0 13.168-5.864 13.168-13.032v-1.63c0-7.167-5.925-13.03-13.167-13.03-7.243 0-13.168 5.863-13.168 13.03v1.63c0 7.168 5.925 13.032 13.168 13.032"/>
        <path fill="#F9CDB9" d="M242.78 138.982c7.243 0 13.168-5.864 13.168-13.032v-4.163c0-7.168-5.925-13.032-13.167-13.032-7.243 0-13.168 5.864-13.168 13.032v4.163c0 7.168 5.925 13.032 13.168 13.032"/>
        <path fill="#FFD8C6" d="M243.971 138.635c6.388 0 11.614-5.172 11.614-11.494v-5.409c0-6.32-5.226-11.492-11.613-11.492-6.388 0-11.613 5.171-11.613 11.492v5.41c0 6.32 5.225 11.493 11.612 11.493"/>
        <path fill="#EB5B76" d="M233.373 129.685l2.367-.046a1.292 1.292 0 0 0 1.263-1.313 1.291 1.291 0 0 0-1.312-1.264l-2.368.047a1.29 1.29 0 0 0-1.262 1.313 1.291 1.291 0 0 0 1.312 1.263M249.373 129.685l2.368-.046a1.291 1.291 0 0 0 1.262-1.313 1.291 1.291 0 0 0-1.312-1.264l-2.367.047a1.291 1.291 0 0 0-1.263 1.313 1.291 1.291 0 0 0 1.312 1.263" opacity=".2"/>
        <path fill="#F7B4A1" d="M243.064 131.89a2.486 2.486 0 0 0 2.477-2.49.349.349 0 1 0-.698.002 1.787 1.787 0 0 1-1.78 1.789 1.786 1.786 0 0 1-1.786-1.782.35.35 0 1 0-.7.001 2.486 2.486 0 0 0 2.487 2.48"/>
        <path fill="#F9CDB9" d="M228.94 127.878c1.504 0 2.735-1.218 2.735-2.707 0-1.489-1.231-2.707-2.735-2.707-1.504 0-2.735 1.218-2.735 2.707 0 1.489 1.23 2.707 2.735 2.707"/>
        <path fill="#FFD8C6" d="M255.605 127.878c1.504 0 2.735-1.218 2.735-2.707 0-1.489-1.231-2.707-2.735-2.707-1.505 0-2.735 1.218-2.735 2.707 0 1.489 1.23 2.707 2.735 2.707"/>
        <path fill="#2D1C27" d="M247.15 125.26c.41 0 .744-.332.744-.737a.742.742 0 0 0-.744-.736.742.742 0 0 0-.744.736c0 .405.335.736.744.736M238.085 125.26a.742.742 0 0 0 .744-.737.743.743 0 0 0-.744-.736.742.742 0 0 0-.744.736c0 .405.335.736.744.736"/>
        <path fill="#522001" d="M240.73 106.918c-.21.01-.418.023-.624.04-.017.001-.034-.057-.05-.056-.444.039-.882.106-1.314.106h.019c-1.211 1.21-1.608 3.62-1.608 5.725v.007c0 5.04 3.793 9.392 8.851 9.392h2.554c.22 1.21 1.242 1.815 2.463 1.815h8.595v-.81c0-1.452-1.079-3.425-1.442-4.03h-.001c-.701-2.42-1.593-5.057-4.021-6.97v-.023c0-.474-.815-.934-1.313-1.353-.007-.007.036-.019.028-.024-.49-.413-.98-.8-1.517-1.153-.016-.01-.019-.022-.034-.033-.173-.113-.342-.223-.519-.33-.01-.005-.017-.012-.028-.018a16.403 16.403 0 0 0-1.097-.6l-.07-.036c-.18-.089-.362-.174-.545-.256-.02-.01-.041-.018-.061-.027a15.342 15.342 0 0 0-.563-.237l-.012-.005a16.126 16.126 0 0 0-.57-.213l-.092-.032a15.774 15.774 0 0 0-.565-.185l-.085-.026a19.101 19.101 0 0 0-.58-.163c-.005 0-.01-.003-.017-.005a14.766 14.766 0 0 0-.699-.163 15.448 15.448 0 0 0-.582-.112c-.034-.007-.07-.012-.104-.017a15.104 15.104 0 0 0-1.23-.158l-.113-.011c-.2-.016-.4-.029-.601-.038-.038-.002.013-.003-.025-.004-.209-.009.673-.006-.541-.006v.1h-1.157c-.21 0-.421-.05-.63-.04-.034 0-.067-.052-.1-.05"/>
        <path fill="#009BA5" d="M245.941 242.382c1.917 0 3.476-1.523 3.476-3.395v-1.346c0-1.873-1.56-3.395-3.476-3.395s-3.475 1.522-3.475 3.395v1.346c0 1.872 1.56 3.395 3.475 3.395"/>
        <path fill="#008C8F" d="M245.941 233.74c2.202 0 3.994 1.75 3.994 3.9v1.347c0 2.151-1.792 3.9-3.994 3.9-2.201 0-3.993-1.749-3.993-3.9v-1.347c0-2.15 1.792-3.9 3.993-3.9m0 1.011c-1.626 0-2.958 1.3-2.958 2.89v1.346c0 1.59 1.332 2.889 2.958 2.889 1.627 0 2.959-1.3 2.959-2.889v-1.347c0-1.589-1.332-2.889-2.959-2.889"/>
        <path fill="#FFD4BD" d="M245.948 240.03c1.378 0 2.506-1.102 2.506-2.45v-41.993c0-1.346-1.128-2.447-2.506-2.447s-2.506 1.1-2.506 2.447v41.994c0 1.347 1.128 2.448 2.506 2.448"/>
        <path fill="#009BA5" d="M244.852 240.968h2.209c.953 0 1.734-.762 1.734-1.693 0-.932-.781-1.694-1.734-1.694h-2.209c-.954 0-1.734.762-1.734 1.694 0 .931.78 1.693 1.734 1.693M236.76 242.382c1.916 0 3.475-1.523 3.475-3.395v-1.346c0-1.873-1.558-3.395-3.475-3.395-1.916 0-3.476 1.522-3.476 3.395v1.346c0 1.872 1.56 3.395 3.476 3.395"/>
        <path fill="#008C8F" d="M236.76 233.74c2.202 0 3.993 1.75 3.993 3.9v1.347c0 2.151-1.79 3.9-3.993 3.9-2.202 0-3.993-1.749-3.993-3.9v-1.347c0-2.15 1.791-3.9 3.993-3.9m0 1.011c-1.627 0-2.958 1.3-2.958 2.89v1.346c0 1.59 1.331 2.889 2.958 2.889 1.627 0 2.958-1.3 2.958-2.889v-1.347c0-1.589-1.33-2.889-2.958-2.889"/>
        <path fill="#FFD4BD" d="M236.767 240.03c1.378 0 2.506-1.102 2.506-2.45v-41.993c0-1.346-1.128-2.447-2.506-2.447s-2.507 1.1-2.507 2.447v41.994c0 1.347 1.129 2.448 2.507 2.448"/>
        <path fill="#009BA5" d="M235.671 240.968h2.208c.954 0 1.734-.762 1.734-1.693 0-.932-.78-1.694-1.734-1.694h-2.208c-.954 0-1.734.762-1.734 1.694 0 .931.78 1.693 1.734 1.693"/>
        <g transform="matrix(-1 0 0 1 254 200.562)">
            <mask id="b" fill="#fff">
                <use xlink:href="#a"/>
            </mask>
            <path fill="#D24D54" d="M4.08 2.043c0 1.1-.913 1.993-2.04 1.993S0 3.144 0 2.043C0 .943.913.05 2.04.05s2.04.893 2.04 1.993" mask="url(#b)"/>
        </g>
        <path fill="#EB8B97" d="M254 202.605v-21.86c0-3.961-3.318-7.203-7.373-7.203h-9.738c-4.055 0-7.372 3.242-7.372 7.203v21.86H254z"/>
        <path fill="#EB8B97" d="M230.125 179.706v-25.303c0-6.69 5.53-12.163 12.29-12.163 6.759 0 12.29 5.473 12.29 12.163v25.303h-24.58z"/>
        <path fill="#F9CDB9" d="M246 143.068h-6.584V138H246z"/>
        <path fill="#FFD8C6" d="M246 143.068h-4.644V138H246z"/>
        <path fill="#F7F7F7" d="M245.158 208.304v-66.966c5.342.062 9.693 4.404 9.693 9.705v57.145c0 .04-.003.077-.003.116h-9.69zM229.25 208.304c0-.039-.003-.077-.003-.116v-57.145c0-5.118 4.057-9.341 9.144-9.683v66.944h-9.141z"/>
        <path fill="#E0E1DF" d="M238.186 141.335l-6.481 8.145 6.635 3.257-5.015 3.259 4.861 11.402z"/>
        <path fill="#0046BE" d="M234.486 157.262h1.646v-13.131c.013-.085.018-.179.025-.305.073-1.411.437-2.853 2.587-2.853h.68v-1.63h-.68c-1.826 0-4.044.764-4.231 4.4l-.008.134c-.013.068-.019.134-.019.2v13.185z"/>
        <path fill="#9A9A9A" d="M232.748 158.04c0 1.261 1.034 2.285 2.31 2.285 1.275 0 2.308-1.024 2.308-2.286s-1.033-2.285-2.309-2.285c-1.275 0-2.309 1.023-2.309 2.285"/>
        <path fill="#E7E7E7" d="M234.134 158.04c0 .504.413.913.923.913s.924-.409.924-.914a.919.919 0 0 0-.924-.914c-.51 0-.923.41-.923.914"/>
        <path stroke="#CDCDCD" stroke-width="1.152" d="M234.134 158.04c0 .504.413.913.923.913s.924-.409.924-.914a.919.919 0 0 0-.924-.914c-.51 0-.923.41-.923.914z"/>
        <g transform="matrix(-1 0 0 1 261 105)">
            <use fill="#FFF" xlink:href="#c"/>
            <rect width="25" height="33" x="32" y="28" stroke="#A6A6A6" stroke-width="2" rx="1"/>
        </g>
        <path fill="#92E1FD" d="M220 137h-12v4h12zM225 137h-4v4h4z"/>
        <path stroke="#D5D5D5" stroke-linecap="round" stroke-linejoin="round" d="M208.5 144.5h16M208.5 149.5h16M208.5 154.5h16M208.5 159.5h16"/>
        <g>
            <path fill="#FFD4BD" d="M224.939 167.355l1.494-1.819a3.02 3.02 0 0 0-.445-4.267 3.096 3.096 0 0 0-4.312.441l-1.493 1.819a3.02 3.02 0 0 0 .444 4.266c1.309 1.053 3.249.855 4.312-.44"/>
            <path fill="#FFD4BD" d="M227.491 164.1a1.26 1.26 0 0 0-.185-1.781l-6.033-4.853a1.292 1.292 0 0 0-1.8.184c-.443.54-.36 1.342.186 1.78l6.033 4.854c.546.44 1.356.356 1.8-.184M211.134 134.116l4.34-.492c1.558-.176 2.686-1.582 2.507-3.124-.178-1.542-1.598-2.658-3.156-2.482l-4.34.492c-1.558.177-2.686 1.583-2.508 3.125.179 1.541 1.6 2.658 3.157 2.481"/>
            <path fill="#FFF" d="M227 161.53c8.184 6.077 16.132 7.417 20.842 6.646 2.313-.379 3.611-1.202 4.056-1.847 1.304-1.89.221-8.73-6.243-16.106a25.46 25.46 0 0 0-.083-2.084l5.307-4.932c4.164 4.387 7.34 9.455 8.942 14.268 1.811 5.44 1.528 10.295-.798 13.668-1.933 2.803-5.403 4.74-9.772 5.457a25.146 25.146 0 0 1-4.069.32c-7.49 0-15.944-3.053-23.36-8.561l5.177-6.83z"/>
            <path fill="#E0E1DF" d="M245.15 141.335l6.588 8.145-6.581 3.257 4.934 3.259-4.94 11.402z"/>
            <path fill="#CDCDCD" d="M248.528 165.717v-.966c-.351 0-.61-.089-.794-.27-.314-.313-.316-.819-.316-.824v-9.497c0-1.478 1.215-2.68 2.709-2.68 1.493 0 2.708 1.202 2.708 2.68l.001 9.519c0 .001.016.486-.282.792-.18.185-.459.28-.829.28v.966c.652 0 1.172-.197 1.544-.586.55-.576.549-1.344.543-1.49v-9.48c0-2.012-1.653-3.648-3.685-3.648s-3.686 1.636-3.686 3.647v9.489c0 .115.011.92.592 1.504.37.375.874.564 1.495.564"/>
            <path fill="#0046BE" d="M246.264 158.115h1.332v-3.955c0-1.38 1.135-2.504 2.53-2.504 1.396 0 2.531 1.123 2.531 2.504v3.955h1.332v-3.955c0-2.108-1.733-3.823-3.863-3.823s-3.862 1.715-3.862 3.823v3.955z"/>
            <path fill="#00CDBA" d="M251.606 166.379l.743-.294a.79.79 0 0 0 .444-1.028.805.805 0 0 0-1.038-.44l-.742.293a.79.79 0 0 0-.445 1.028.804.804 0 0 0 1.038.44M247.91 166.091l.746.287a.804.804 0 0 0 1.034-.451.791.791 0 0 0-.456-1.024l-.744-.286a.805.805 0 0 0-1.035.45.79.79 0 0 0 .456 1.024"/>
            <path fill="#0046BE" d="M250.944 143.84c0 .006.003.013.004.022 0-.007-.003-.014-.004-.021zm-1.62 6.907h1.646v-6.67c0-.068-.006-.135-.019-.2-.003-.034-.004-.08-.007-.135-.188-3.635-2.405-4.398-4.232-4.398h-.679v1.629h.68c2.15 0 2.514 1.442 2.587 2.853.006.125.011.217.025.303v6.618z"/>
        </g>
        <g>
            <path fill="#FBD2C6" d="M798.159 159.56a2.854 2.854 0 0 1 4.003-.303l13.62 11.655a2.83 2.83 0 0 1 .304 3.989 2.854 2.854 0 0 1-4.004.303l-13.62-11.655a2.83 2.83 0 0 1-.303-3.99M845.05 169.173a3.255 3.255 0 0 0 1.094-4.468l-8.885-14.563a3.28 3.28 0 0 0-4.484-1.09 3.255 3.255 0 0 0-1.093 4.468l8.885 14.563a3.28 3.28 0 0 0 4.484 1.09"/>
            <path fill="#E5A338" d="M827.61 144.125l.477-.39a3.882 3.882 0 0 1 5.434.532l1.078 1.309 4.606 5.59 2.45 2.974-2.984 2.441-.478.39-2.984 2.442-2.45-2.974-4.606-5.59-1.078-1.31a3.85 3.85 0 0 1 .535-5.414"/>
            <path fill="#FBD2C6" d="M798.265 163.29a3.253 3.253 0 0 1 0-4.598l12.095-12.051a3.281 3.281 0 0 1 4.614 0 3.253 3.253 0 0 1 0 4.598l-12.094 12.052a3.281 3.281 0 0 1-4.615 0"/>
            <path fill="#FFB63F" d="M817.3 144.604l-.436-.435a3.882 3.882 0 0 0-5.46 0l-1.202 1.197-5.133 5.115-2.73 2.72 2.73 2.72.437.436 2.73 2.72 2.73-2.72 5.133-5.115 1.202-1.197a3.85 3.85 0 0 0 0-5.44"/>
            <g transform="translate(807.237 105.134)">
                <mask id="e" fill="#fff">
                    <use xlink:href="#d"/>
                </mask>
                <path fill="#461F10" d="M16.149 31.893h-3.63C5.744 31.893.202 26.371.202 19.621v-7.183C.203 5.688 5.745.166 12.518.166h3.631c6.774 0 12.316 5.522 12.316 12.272v7.183c0 6.75-5.542 12.272-12.316 12.272" mask="url(#e)"/>
            </g>
            <path fill="#FBCEBF" d="M813.422 238.897h4.572v-9.874h-4.572z"/>
            <path fill="#98815D" d="M813.195 234.104h5.04a1.61 1.61 0 0 0 1.609-1.603v-55.532a1.61 1.61 0 0 0-1.609-1.603h-5.04a1.61 1.61 0 0 0-1.609 1.603v55.532a1.61 1.61 0 0 0 1.61 1.603"/>
            <path fill="#A9916C" d="M811.952 234.691h7.526a.366.366 0 0 0 .366-.364v-3.385c0-.2-.165-.365-.366-.365h-7.526a.366.366 0 0 0-.366.365v3.385c0 .2.165.364.366.364"/>
            <path fill="#262161" d="M818.376 243.468c0-2.262-1.858-4.114-4.129-4.114h-1.927c-2.27 0-4.128 1.852-4.128 4.114"/>
            <path fill="#262161" d="M818.376 243.468v-5.378a.842.842 0 0 0-.841-.839h-4.19a.842.842 0 0 0-.841.839v5.378"/>
            <path fill="#B8CDD5" d="M808.371 243.834h9.825c.1 0 .18-.08.18-.179v-.587a.18.18 0 0 0-.18-.179h-9.825c-.099 0-.18.08-.18.18v.586c0 .099.081.179.18.179M808.269 242.846h3.219v-3.409c-1.808.333-2.9 1.908-3.219 3.41"/>
            <path fill="#FBCEBF" d="M826.722 238.897h4.572v-9.874h-4.572z"/>
            <path fill="#86704D" d="M831.52 234.104h-5.04a1.61 1.61 0 0 1-1.608-1.603v-55.532a1.61 1.61 0 0 1 1.608-1.603h5.04a1.61 1.61 0 0 1 1.61 1.603v55.532a1.61 1.61 0 0 1-1.61 1.603"/>
            <path fill="#A9916C" d="M832.763 234.691h-7.525a.367.367 0 0 1-.366-.364v-3.385c0-.2.165-.365.366-.365h7.525c.202 0 .366.164.366.365v3.385c0 .2-.164.364-.366.364"/>
            <path fill="#262161" d="M826.34 243.468c0-2.262 1.858-4.114 4.129-4.114h1.927c2.27 0 4.128 1.852 4.128 4.114"/>
            <path fill="#262161" d="M826.34 243.468v-5.378c0-.462.378-.839.84-.839h4.19c.463 0 .842.377.842.839v5.378"/>
            <path fill="#B8CDD5" d="M836.345 243.834h-9.826a.18.18 0 0 1-.18-.179v-.587a.18.18 0 0 1 .18-.179h9.826c.099 0 .18.08.18.18v.586a.18.18 0 0 1-.18.179M836.447 242.846h-2.966v-3.409c1.507.333 2.646 1.908 2.966 3.41"/>
            <path fill="#98815D" d="M822.307 188.994c6.603 0 11.957-5.334 11.957-11.914v-1.28c0-6.58-5.354-11.914-11.957-11.914-6.603 0-11.956 5.334-11.956 11.913v1.281c0 6.58 5.353 11.914 11.956 11.914"/>
            <path fill="#86704D" d="M822.307 163.886c-.416 0-.827.021-1.231.062 6.024.615 10.724 5.686 10.724 11.851v1.281c0 6.166-4.7 11.237-10.724 11.852.404.04.815.063 1.231.063 6.603 0 11.957-5.335 11.957-11.915v-1.28c0-6.58-5.354-11.914-11.957-11.914"/>
            <path fill="#8F89AD" d="M822.334 138.709c-7.018 0-12.654 5.721-12.654 12.714V180.401H834.987v-28.978c0-6.993-5.636-12.714-12.653-12.714"/>
            <path fill="#FFB63F" d="M822.334 138.709c-7.018 0-12.654 5.721-12.654 12.714V180.401H834.987v-28.978c0-6.993-5.636-12.714-12.653-12.714"/>
            <g transform="translate(809.647 138.458)">
                <mask id="g" fill="#fff">
                    <use xlink:href="#f"/>
                </mask>
                <path fill="#FFF" fill-opacity=".18" d="M-10.17 2.649h42.833v-.582H-10.17zM-10.17 5.727h42.833v-.582H-10.17zM-10.17 8.805h42.833v-.581H-10.17zM-10.17 11.883h42.833V11.3H-10.17zM-10.17 14.961h42.833v-.582H-10.17zM-10.17 18.039h42.833v-.582H-10.17zM-10.17 21.117h42.833v-.582H-10.17zM-10.17 24.195h42.833v-.582H-10.17zM-10.17 27.273h42.833v-.582H-10.17zM-10.17 30.35h42.833v-.58H-10.17zM-10.17 33.429h42.833v-.582H-10.17zM-10.17 36.507h42.833v-.582H-10.17zM-10.17 39.585h42.833v-.582H-10.17zM-10.17 42.663h42.833v-.582H-10.17z" mask="url(#g)"/>
                <path fill="#000" d="M13.584.282V41.97h11.738V12.965c0-6.708-5.126-12.243-11.738-12.683" mask="url(#g)" opacity=".1"/>
            </g>
            <path fill="#FBD2C6" d="M825.949 133.719c0-1.143-1.03-2.253-2.177-2.253h-2.78c-1.147 0-2.274 1.11-2.274 2.253v4.155c0 .074.004.147.012.218-.007.09-.012.181-.012.273v1.356c0 1.904 1.704 3.463 3.616 3.463 1.911 0 3.615-1.559 3.615-3.463v-1.356c0-.092-.005-.182-.012-.273.008-.071.012-.144.012-.218v-4.155z"/>
            <g transform="translate(823.808 131.553)">
                <mask id="i" fill="#fff">
                    <use xlink:href="#h"/>
                </mask>
                <path fill="#FAC5B3" d="M1.697 11.63H.583a.353.353 0 0 1-.353-.351V.439C.23.247.39.09.583.09h1.114c.194 0 .353.157.353.35v10.84a.353.353 0 0 1-.353.351" mask="url(#i)"/>
            </g>
            <g>
                <path fill="#FAC5B3" d="M825.058 137.028h-6.974c-5.112 0-9.293-4.167-9.293-9.26v-8.44c0-5.093 4.181-9.26 9.293-9.26h6.974c5.112 0 9.293 4.167 9.293 9.26v8.44c0 5.093-4.181 9.26-9.293 9.26"/>
                <path fill="#FBD2C6" d="M821.695 137.028h-3.612c-5.11 0-9.293-4.167-9.293-9.26v-8.44c0-5.093 4.182-9.26 9.293-9.26h3.612c5.111 0 9.293 4.167 9.293 9.26v8.44c0 5.093-4.182 9.26-9.293 9.26"/>
                <path fill="#FAC5B3" d="M834.92 125.706a2.756 2.756 0 0 0 2.752-2.743 2.756 2.756 0 0 0-2.753-2.743 2.756 2.756 0 0 0-2.752 2.743 2.756 2.756 0 0 0 2.752 2.743"/>
                <path fill="#FBD2C6" d="M808.134 125.706a2.756 2.756 0 0 0 2.752-2.743 2.756 2.756 0 0 0-2.752-2.743 2.756 2.756 0 0 0-2.753 2.743 2.756 2.756 0 0 0 2.753 2.743"/>
                <path fill="#EA5C76" d="M828.949 126.691h2.473c.739 0 1.344-.602 1.344-1.339 0-.736-.605-1.339-1.344-1.339h-2.473c-.739 0-1.344.603-1.344 1.34 0 .736.605 1.338 1.344 1.338M811.906 126.691h2.473c.74 0 1.344-.602 1.344-1.339 0-.736-.605-1.339-1.344-1.339h-2.473c-.74 0-1.344.603-1.344 1.34 0 .736.605 1.338 1.344 1.338" opacity=".2"/>
                <path fill="#2D1C27" d="M825.647 122.14c.41 0 .746-.334.746-.743a.747.747 0 0 0-1.493 0c0 .409.336.744.747.744M816.916 122.14c.41 0 .746-.334.746-.743a.748.748 0 0 0-1.493 0c0 .409.336.744.747.744"/>
                <path fill="#461F10" d="M818.26 116.749h-11.037a2.43 2.43 0 0 1-2.428-2.419 2.43 2.43 0 0 1 2.428-2.418h11.038a2.43 2.43 0 0 1 2.427 2.418 2.43 2.43 0 0 1-2.427 2.419"/>
                <path fill="#461F10" d="M818.39 112.876h-8.174a2.085 2.085 0 0 1-2.082-2.075c0-1.142.937-2.075 2.082-2.075h8.174c1.145 0 2.082.933 2.082 2.075a2.085 2.085 0 0 1-2.082 2.075"/>
                <path fill="#FBD2C6" d="M822.764 112.563h-2.424a1.26 1.26 0 0 1-1.258-1.254c0-.69.566-1.254 1.258-1.254h2.424a1.26 1.26 0 0 1 1.258 1.254 1.26 1.26 0 0 1-1.258 1.254"/>
                <path fill="#F5ABC8" d="M830.304 162.977c.2 0 .365-.163.365-.363a.365.365 0 0 0-.73 0c0 .2.164.363.365.363"/>
                <path fill="#F5ABC8" d="M830.304 162.427a.187.187 0 1 0 0 .374.187.187 0 0 0 0-.374m0 .726a.541.541 0 0 1-.542-.54.541.541 0 0 1 1.084 0c0 .298-.243.54-.542.54"/>
                <path fill="#F59AAD" d="M818.912 126.06s-.165 2.965 2.975 2.965 2.975-2.964 2.975-2.964"/>
                <path fill="#FBD2C6" d="M846.726 167.671a2.837 2.837 0 0 0-2.118-3.398l-17.483-4.07a2.847 2.847 0 0 0-3.41 2.111 2.837 2.837 0 0 0 2.119 3.398l17.482 4.07a2.847 2.847 0 0 0 3.41-2.11"/>
                <path fill="#F1F1F2" d="M825.83 165.589h-7.084a.356.356 0 0 1-.355-.354l-1.005-11.635c0-.194.16-.354.356-.354h9.091c.196 0 .356.16.356.354l-1.005 11.635c0 .194-.16.354-.355.354"/>
                <path fill="#232020" d="M826.834 153.246h-4.483v12.343h3.478c.196 0 .356-.16.356-.354l1.004-11.635a.356.356 0 0 0-.355-.354" opacity=".1"/>
                <path fill="#009344" d="M827.582 154.58h-10.589a.356.356 0 0 1-.355-.353v-.627c0-.194.16-.354.355-.354h10.589c.195 0 .355.16.355.354v.627c0 .194-.16.354-.355.354"/>
                <path fill="#009344" d="M827.133 153.974h-9.69a.356.356 0 0 1-.355-.354v-.52c0-.195.16-.354.355-.354h9.69c.195 0 .355.159.355.354v.52c0 .195-.16.354-.355.354"/>
                <path fill="#009344" d="M826.313 153.413h-1.052a.368.368 0 0 1-.368-.367v-.746c0-.202.165-.367.368-.367h1.052c.203 0 .369.165.369.367v.746a.369.369 0 0 1-.369.367"/>
                <path fill="#DDC5A1" d="M826.533 163.067l.473-5.473h-9.437l.473 5.473z"/>
                <path fill="#232020" d="M822.162 157.593v5.473h4.371l.473-5.473z" opacity=".1"/>
                <path fill="#FBD2C6" d="M827.964 158.92l-2.244-.522c-1.748-.407-3.512.685-3.92 2.426l-.253 1.077a3.26 3.26 0 0 0 2.435 3.906l2.244.523c1.748.406 3.512-.686 3.92-2.427l.253-1.077a3.261 3.261 0 0 0-2.435-3.906"/>
                <g fill="none" fill-opacity="0">
                    <path d="M829.381 149.75h-2.26a.566.566 0 0 0-.565.562c0 .31.254.563.565.563h2.26c.31 0 .565-.253.565-.563a.566.566 0 0 0-.565-.562M832.77 145.246h-1.13c.311 0 .566-.253.566-.563a.566.566 0 0 0-.565-.563h-6.78a.566.566 0 0 0-.565.563c0 .31.255.563.565.563h1.13a.566.566 0 0 0-.565.563c0 .31.254.563.565.563h.565c.31 0 .565.253.565.563 0 .31-.254.563-.565.563h-.565a.566.566 0 0 0-.565.563c0 .31.254.563.565.563h4.52c.31 0 .565-.254.565-.563a.566.566 0 0 0-.565-.563h-1.032a.565.565 0 0 1-.565-.563c0-.31.254-.563.565-.563h3.292c.31 0 .564-.254.564-.563a.566.566 0 0 0-.564-.563"/>
                </g>
            </g>
        </g>
        <g>
            <path fill="#444" d="M856.297 228.691c2.134.125 4.113 2.426 4.725 4.366.45 1.424.54 2.924 1.31 4.237.888 1.513 2.526.511 3.092-.712.417-.902 1.736-.116 1.32.782-.57 1.234-1.691 2.177-3.074 2.242-1.587.074-2.483-1.017-3.065-2.376-.628-1.464-.607-3.257-1.432-4.616-.55-.905-1.74-2.308-2.876-2.374-.979-.057-.985-1.607 0-1.549"/>
            <path stroke="#444" stroke-width=".525" d="M856.297 228.691c2.134.125 4.113 2.426 4.725 4.366.45 1.424.54 2.924 1.31 4.237.888 1.513 2.526.511 3.092-.712.417-.902 1.736-.116 1.32.782-.57 1.234-1.691 2.177-3.074 2.242-1.587.074-2.483-1.017-3.065-2.376-.628-1.464-.607-3.257-1.432-4.616-.55-.905-1.74-2.308-2.876-2.374-.979-.057-.985-1.607 0-1.549z"/>
            <path fill="#444" d="M845.63 237.814c0-.065.319.022.455.022h-.04v-2.11h-.416v2.088zm9.582 1.89c0-.063.25-.18.385-.18h.032v-4.242c0 .041-.417.065-.417.078v4.344zm.385 1.507a.796.796 0 0 1-.646-.347.815.815 0 0 1-.642.347h-1.387c-.452 0-.82-.348-.82-.844s.368-.844.82-.844h.207v-3.797h-4.583v2.572c0 .09-.107.15-.142.187-.004.02-.037.046-.042.065-.006.52-.443.973-.89.973h-1.387a.796.796 0 0 1-.645-.346.82.82 0 0 1-.643.346h-1.386c-.453 0-.82-.348-.82-.844s.367-.843.82-.843h.135v-2.932l.003-.018-.003-.037v-7.245c-2.084-.324-4.25-1.237-4.25-5.165 0-4.679 2.078-6.79 2.166-6.877l.212-.206 1.58 3.282a8.263 8.263 0 0 1 2.089-.254c.705 0 1.39.078 1.99.226l1.579-3.246.205.194c.093.088 2.328 2.199 2.328 6.881 0 2.674-.816 4.234-2.9 4.895v.799h6.237c1.742 0 3.347 1.294 3.347 2.954v1.202c0 .269-.018.48-.06.675.033.098.06.194.06.3v6.943c0 .091-.142.152-.18.19-.002.019-.053-.06-.057-.042-.006.51-.46.856-.908.856h-1.387z"/>
            <path fill="#444" d="M846.046 235.726v1.79-1.79zm9.583-.18v-.003V239.408v-3.862zM841.74 215l-.412.411c-.09.09-2.136 2.261-2.136 7.028 0 3.992 2.271 4.998 4.355 5.345v9.718c-.834.016-1.081.408-1.081 1.01 0 .612.379 1.011.946 1.011h1.386a.982.982 0 0 0 .639-.25c.177.156.403.25.65.25h1.386c.557 0 1.047-.421 1.062-1.021l.003.034c0-.003-.043.02-.043.018.048-.065.052-.133.052-.256v-2.572h4.166v3.668c-.416.014-.91.516-.91 1.12 0 .611.553 1.119 1.12 1.119h1.387c.236 0 .46-.095.64-.25a.98.98 0 0 0 .648.25h1.387c.556 0 1.046-.524 1.063-1.117l.002-.014c0-.002-.01-.005-.01-.006a.467.467 0 0 0 .09-.29v-6.942c0-.12-.026-.227-.053-.314a3.6 3.6 0 0 0 .053-.661v-1.202c0-1.776-1.49-3.376-3.347-3.376h-6.236v-.226c2.083-.718 3.003-2.33 3.003-5.046 0-4.773-2.216-6.945-2.311-7.035l-.4-.388-.242.51-1.379 2.841a8.805 8.805 0 0 0-1.874-.194c-.696 0-1.37.075-1.974.219l-1.376-2.865-.253-.527zm7.236.712s2.157 2.082 2.157 6.727c0 3.042-1.336 4.232-3.003 4.739v.955h6.653c1.573 0 2.93 1.362 2.93 2.954v1.202c0 .237-.014.466-.067.686.03.091.067.187.067.289v6.943c0 .036-.064.07-.068.106.006.038-.019.132-.019.17 0 .372-.303.728-.641.728h-1.387a.61.61 0 0 1-.611-.633.61.61 0 0 1 .611-.633h.449v-4.977c-.417.113-.834.18-.834.196v5.043c0 .036-.152.07-.156.106.006.038-.062.132-.062.17 0 .372-.347.728-.685.728h-1.387c-.337 0-.611-.262-.611-.633s.274-.633.611-.633h.207v-4.64h-5v2.993c0 .037-.029.072-.033.107.006.038 0 .03 0 .07a.613.613 0 0 1-.624.626h-1.387c-.337 0-.61-.262-.61-.633s.273-.632.61-.632h.377v-2.532h-.833v2.994c0 .037-.117.072-.12.107.006.038-.045.03-.045.07 0 .371-.33.626-.667.626h-1.386c-.338 0-.612-.262-.612-.633s.274-.632.612-.632h.551v-2.906c0-.025.011-.048.013-.072-.006-.002-.013-.005-.013-.009v-6.322l.005-.003c-.001-.03-.005-.061-.005-.092v-1.011c-2.5-.325-4.354-1.29-4.354-4.982 0-4.645 2.052-6.727 2.052-6.727l1.505 3.176a7.777 7.777 0 0 1 2.19-.293c.78 0 1.496.096 2.097.262l1.523-3.145z"/>
            <path fill="#00A67B" d="M843.956 221.939c0 .563-.452 1.02-1.009 1.02a1.014 1.014 0 0 1-1.008-1.02c0-.564.451-1.021 1.008-1.021.557 0 1.008.457 1.008 1.02"/>
            <path stroke="#FFF" stroke-width=".525" d="M843.956 221.939c0 .563-.452 1.02-1.009 1.02a1.014 1.014 0 0 1-1.008-1.02c0-.564.451-1.021 1.008-1.021.557 0 1.008.457 1.008 1.02z"/>
            <path fill="#00A67B" d="M847.574 221.939c0 .563-.452 1.02-1.008 1.02a1.015 1.015 0 0 1-1.009-1.02c0-.564.452-1.021 1.009-1.021.556 0 1.008.457 1.008 1.02"/>
            <path stroke="#FFF" stroke-width=".525" d="M847.574 221.939c0 .563-.452 1.02-1.008 1.02a1.015 1.015 0 0 1-1.009-1.02c0-.564.452-1.021 1.009-1.021.556 0 1.008.457 1.008 1.02z"/>
            <path fill="#000" d="M845.085 223.925a.462.462 0 0 1-.46.465.463.463 0 0 1-.46-.465c0-.257.207-.465.46-.465.254 0 .46.208.46.465M843.438 222.455c0 .185-.165.335-.371.335-.205 0-.371-.15-.371-.335v-1.033c0-.185.166-.335.37-.335.206 0 .372.15.372.335v1.033zM846.999 222.455c0 .185-.166.335-.37.335-.206 0-.373-.15-.373-.335v-1.033c0-.185.167-.335.372-.335s.37.15.37.335v1.033z"/>
        </g>
        <g>
            <path fill="#E5E5E5" d="M994.17 131h8.69v-4h-8.69z"/>
            <path fill="#CBCBCB" d="M992.387 127h12.256v-3.637h-12.256z"/>
            <path fill="#F8D567" d="M942.302 226.7h65.913v-92h-65.913z"/>
            <path fill="#FEFEFE" d="M979.593 170.312c0 2.484-1.824 4.498-4.075 4.498-2.25 0-4.075-2.014-4.075-4.498h8.15z"/>
            <path stroke="#FFF" stroke-width=".65" d="M959.942 175.325h30.595v5.85h-30.595z"/>
            <text fill="#8B572A" font-family="ArialRoundedMTBold, Arial Rounded MT Bold" font-size="3.9" transform="translate(959.226 163.3)">
                <tspan x="4.942" y="16.35">coffee shop</tspan>
            </text>
            <path fill="#FEFEFE" d="M979.884 174.09h-8.792c-.164 0-.207.25-.054.316l.537.233.148.242c.053.086.14.137.234.137h6.913c.083 0 .162-.04.216-.11l.15-.198.703-.304c.152-.066.11-.316-.055-.316M979.593 172.681c-.503 0-.912-.45-.912-1.007 0-.556.409-1.007.912-1.007.504 0 .913.45.913 1.007 0 .556-.409 1.007-.913 1.007m0-2.37c-.681 0-1.234.61-1.234 1.363 0 .752.553 1.362 1.234 1.362.682 0 1.235-.61 1.235-1.362 0-.753-.553-1.363-1.235-1.363"/>
            <path fill="#EB6739" d="M978.329 167.426a1.48 1.48 0 0 0 .264-.85c0-.77-.565-1.395-1.263-1.395-.697 0-1.263.624-1.263 1.394 0-.77-.565-1.394-1.262-1.394-.698 0-1.263.624-1.263 1.394 0 .321.099.616.264.851v.001l.006.008c.038.053.078.103.122.149l2.133 2.589 2.134-2.59c.043-.046.084-.095.121-.147l.008-.009h-.001zM982.14 165.078c.117-.167.187-.375.187-.602 0-.545-.4-.986-.893-.986s-.893.441-.893.986c0-.545-.4-.986-.893-.986s-.893.441-.893.986c0 .227.07.435.187.602h-.001l.005.006a.97.97 0 0 0 .086.105l1.509 1.83 1.508-1.83a.962.962 0 0 0 .086-.105l.005-.006z"/>
            <path fill="#FEC100" d="M941 134.636h69v-5.09h-69z"/>
            <path fill="#FFF" d="M948.899 160.54h15.979V141h-15.98z"/>
            <path fill="#0DCBB9" d="M950.17 158.986h13.437v-16.432H950.17z"/>
            <path fill="#FFF" d="M948.899 226.636h18.612v-31.345h-18.612zM973.775 210.124h26.692v-14.946h-26.692zM967.51 160.54h15.98V141h-15.98zM986.667 160.54h15.98V141h-15.98z"/>
            <path fill="#0DCBB9" d="M968.782 158.986h13.436v-16.432h-13.436z"/>
            <path fill="#69DAD7" d="M968.782 158.986h13.436v-11.38h-13.436z"/>
            <path fill="#0DCBB9" d="M987.938 158.986h13.437v-16.432h-13.437z"/>
            <path fill="#69DAD7" d="M975.337 210.288h24.15v-13.65h-24.15z"/>
            <path fill="#ECECEC" d="M949.655 203.617h8.55v-7.346h-8.55z"/>
            <path fill="#F6F6F6" d="M949.656 210.963h8.549v-7.346h-8.55z"/>
            <path fill="#ECECEC" d="M958.205 210.963h8.55v-7.346h-8.55z"/>
            <path fill="#F6F6F6" d="M958.205 203.617h8.55v-7.346h-8.55zM949.656 225.636h8.549V218.3h-8.55z"/>
            <path fill="#ECECEC" d="M949.655 218.3h8.55v-7.337h-8.55zM958.205 225.636h8.55V218.3h-8.55z"/>
            <path fill="#F6F6F6" d="M958.205 218.3h8.55v-7.337h-8.55z"/>
            <g>
                <path fill="#666" d="M965.794 209.277a.959.959 0 1 1-1.917.001.959.959 0 0 1 1.917-.001z"/>
                <path fill="#ECECEC" d="M979.319 190.609c0 1.27-1.04 2.3-2.322 2.3a2.312 2.312 0 0 1-2.322-2.3c0-1.271 1.04-2.302 2.322-2.302a2.312 2.312 0 0 1 2.322 2.302M988.605 190.595c0 1.271-1.04 2.302-2.322 2.302a2.312 2.312 0 0 1-2.322-2.302 2.312 2.312 0 0 1 2.322-2.301 2.312 2.312 0 0 1 2.322 2.301"/>
                <path fill="#E93939" d="M983.961 190.609c0 1.27-1.04 2.3-2.322 2.3a2.312 2.312 0 0 1-2.321-2.3c0-1.271 1.04-2.302 2.321-2.302a2.312 2.312 0 0 1 2.322 2.302M993.259 190.609c0 1.27-1.04 2.3-2.322 2.3a2.312 2.312 0 0 1-2.322-2.3c0-1.271 1.04-2.302 2.322-2.302a2.312 2.312 0 0 1 2.322 2.302M1002.545 190.595c0 1.271-1.04 2.302-2.322 2.302a2.311 2.311 0 0 1-2.321-2.302 2.312 2.312 0 0 1 2.321-2.301 2.312 2.312 0 0 1 2.322 2.301"/>
                <path fill="#ECECEC" d="M997.902 190.609c0 1.27-1.04 2.3-2.323 2.3a2.312 2.312 0 0 1-2.321-2.3c0-1.271 1.04-2.302 2.321-2.302a2.312 2.312 0 0 1 2.323 2.302"/>
                <path fill="#F14E4E" d="M979.318 190.602h4.643v-7.158h-4.643z"/>
                <path fill="#FFF" d="M974.675 190.602h4.643v-7.158h-4.643zM983.961 190.602h4.655v-7.158h-4.655z"/>
                <path fill="#F14E4E" d="M988.616 190.602h4.643v-7.158h-4.643zM997.902 190.602h4.655v-7.159h-4.655z"/>
                <path fill="#FFF" d="M993.26 190.602h4.642v-7.158h-4.643z"/>
                <path fill="#ECECEC" d="M951.437 190.609c0 1.27-1.04 2.3-2.322 2.3a2.312 2.312 0 0 1-2.321-2.3c0-1.271 1.04-2.302 2.321-2.302a2.312 2.312 0 0 1 2.322 2.302M960.723 190.595c0 1.271-1.04 2.302-2.322 2.302a2.312 2.312 0 0 1-2.321-2.302 2.312 2.312 0 0 1 2.321-2.301 2.312 2.312 0 0 1 2.322 2.301"/>
                <path fill="#E93939" d="M956.08 190.609c0 1.27-1.04 2.3-2.322 2.3a2.312 2.312 0 0 1-2.322-2.3c0-1.271 1.04-2.302 2.322-2.302a2.312 2.312 0 0 1 2.322 2.302M965.377 190.609c0 1.27-1.04 2.3-2.321 2.3a2.312 2.312 0 0 1-2.322-2.3c0-1.271 1.04-2.302 2.322-2.302a2.312 2.312 0 0 1 2.321 2.302M974.663 190.595c0 1.271-1.04 2.302-2.321 2.302a2.311 2.311 0 0 1-2.322-2.302 2.312 2.312 0 0 1 2.322-2.301 2.312 2.312 0 0 1 2.321 2.301"/>
                <path fill="#ECECEC" d="M970.02 190.609c0 1.27-1.04 2.3-2.322 2.3a2.312 2.312 0 0 1-2.322-2.3c0-1.271 1.04-2.302 2.322-2.302a2.312 2.312 0 0 1 2.322 2.302"/>
                <path fill="#F14E4E" d="M951.436 190.602h4.644v-7.158h-4.644z"/>
                <path fill="#FFF" d="M946.794 190.602h4.642v-7.158h-4.642zM956.08 190.602h4.654v-7.158h-4.654z"/>
                <path fill="#F14E4E" d="M960.734 190.602h4.643v-7.158h-4.643zM970.02 190.602h4.655v-7.159h-4.655z"/>
                <path fill="#FFF" d="M965.377 190.602h4.643v-7.158h-4.643z"/>
                <path fill="#01C558" d="M975.465 210.452a1.287 1.287 0 1 1-2.57-.14 1.287 1.287 0 0 1 2.57.14"/>
                <path fill="#01C558" d="M976.576 209.554a1.287 1.287 0 1 1-2.57-.141 1.287 1.287 0 0 1 2.57.141"/>
                <path fill="#01C558" d="M977.921 208.536a1.287 1.287 0 1 1-2.57-.142 1.287 1.287 0 0 1 2.57.142"/>
                <path fill="#01C558" d="M979.74 209.071a1.287 1.287 0 1 1-2.57-.141 1.287 1.287 0 0 1 2.57.141"/>
                <path fill="#01C558" d="M981.566 210.03a1.287 1.287 0 1 1-2.57-.142 1.287 1.287 0 0 1 2.57.141M978.242 209.844a1.287 1.287 0 1 1-2.57-.141 1.287 1.287 0 0 1 2.57.141M985.725 210.178a1.287 1.287 0 1 1-2.57-.153 1.287 1.287 0 0 1 2.57.153"/>
                <path fill="#01C558" d="M986.84 209.284a1.287 1.287 0 1 1-2.57-.153 1.287 1.287 0 0 1 2.57.153"/>
                <path fill="#01C558" d="M988.189 208.272a1.287 1.287 0 1 1-2.57-.152 1.287 1.287 0 0 1 2.57.152"/>
                <path fill="#01C558" d="M990.005 208.814a1.287 1.287 0 1 1-2.57-.151 1.287 1.287 0 0 1 2.57.151"/>
                <path fill="#01C558" d="M991.827 209.78a1.287 1.287 0 1 1-2.57-.151 1.287 1.287 0 0 1 2.57.151M988.504 209.58a1.287 1.287 0 1 1-2.569-.15 1.287 1.287 0 0 1 2.569.15"/>
                <path fill="#01C558" d="M990.286 210.116a1.287 1.287 0 1 1-2.569-.152 1.287 1.287 0 0 1 2.569.152"/>
                <path fill="#01C558" d="M993.059 210.073a1.287 1.287 0 1 1-1.207-1.363c.708.042 1.25.653 1.207 1.363M996.556 209.658a1.287 1.287 0 1 1-2.574.002 1.287 1.287 0 0 1 2.574-.002"/>
                <path fill="#01C558" d="M997.842 208.567a1.287 1.287 0 1 1-2.574.002 1.287 1.287 0 0 1 2.574-.002"/>
                <path fill="#01C558" d="M999.688 209a1.287 1.287 0 1 1-2.574.001 1.287 1.287 0 0 1 2.574-.001"/>
                <path fill="#01C558" d="M1001.564 209.855a1.287 1.287 0 1 1-2.574.002 1.287 1.287 0 0 1 2.574-.002M998.235 209.855a1.287 1.287 0 1 1-2.574.002 1.287 1.287 0 0 1 2.574-.002"/>
                <path fill="#FFF" d="M971.596 214.466h31.05v-4.342h-31.05z"/>
                <path fill="#69DAD7" d="M956.888 142.554s.182 6.123-4.267 8.216l1.952 8.216h9.034v-16.432h-6.719zM994.657 142.554s-.182 6.123 4.267 8.216l-1.952 8.216h-9.034v-16.432h6.719z"/>
            </g>
        </g>
        <g>
            <path fill="#6E6E6E" stroke="#9E9E9E" stroke-linecap="round" stroke-linejoin="round" stroke-width="2" d="M115.18 223.909L127 212M127.18 212L139 223.909M127 209v16.842"/>
            <path fill="#ABABAB" d="M125.784 213.315c0 .974.545 1.763 1.216 1.763.67 0 1.216-.79 1.216-1.763V92.763c0-.974-.545-1.763-1.216-1.763-.671 0-1.216.789-1.216 1.763v120.552z"/>
            <path fill="#ABABAB" d="M109.347 89.584h33.508A1.15 1.15 0 0 1 144 90.737a1.15 1.15 0 0 1-1.145 1.153h-33.508a1.15 1.15 0 0 1-1.145-1.153 1.15 1.15 0 0 1 1.145-1.153"/>
            <path stroke="#6E6E6E" stroke-linecap="round" d="M115.912 90.399v5.731"/>
            <path fill="#DCDCDC" d="M110.362 108.102l5.319 6.236 5.317-6.236V95.13h-10.636z"/>
            <path fill="#F59923" d="M119.51 105.02v2.139l-3.829 4.49-3.83-4.49v-2.139z"/>
            <path stroke="#E99F34" stroke-width=".5" d="M115.75 110.901c-.637 9.967-2.89 22.012-2.054 31.964 3.082 36.675 26.415 52.494-15.857 52.98"/>
        </g>
        <g>
            <path fill="#9DA1A7" d="M134.109 217.6H90.276a.87.87 0 0 1-.87-.864.87.87 0 0 1 .87-.865h43.833c.478 0 .87.389.87.865a.87.87 0 0 1-.87.864z"/>
            <path fill="#2C388F" d="M135.798 218.226H114.99a.87.87 0 0 1-.87-.864v-1.253a.87.87 0 0 1 .87-.864h20.807c.478 0 .869.389.869.864v1.253a.87.87 0 0 1-.87.864"/>
            <path fill="#FFD8C6" d="M121.6 214.507h-13.672c-1.593 0-2.897-1.297-2.897-2.882 0-1.584 1.304-2.881 2.897-2.881h13.671c1.593 0 2.897 1.297 2.897 2.881 0 1.585-1.304 2.882-2.897 2.882"/>
            <g transform="translate(113.307 198.885)">
                <mask id="k" fill="#fff">
                    <use xlink:href="#j"/>
                </mask>
                <path fill="#E6E6E6" d="M20.289.18c-2.947 0-5.358 2.397-5.358 5.329v1.648H2.781C1.29 7.157.073 8.37.073 9.85v4.67c0 1.48 1.219 2.692 2.708 2.692h16.817c.098 0 .196-.005.292-.016.132.01.265.016.399.016 2.947 0 5.358-2.398 5.358-5.329V5.509c0-2.932-2.411-5.33-5.358-5.33" mask="url(#k)"/>
            </g>
            <path fill="#B9B9B9" d="M118.546 206.042c.494 3.354 1.005 6.706 1.533 10.056h.98c-.529-3.35-1.04-6.702-1.536-10.056h-.977zM123.522 206.042c.623 3.354 1.26 6.706 1.907 10.056h.99c-.649-3.35-1.285-6.702-1.91-10.056h-.987zM138.953 205.256c-3.527-.648-7.022-1.476-10.323-2.855a5.223 5.223 0 0 0-.283.926c3.397 1.403 6.983 2.245 10.606 2.907v-.978zM128.238 205.268v.774h-.603c3.059 3.125 6.643 5.597 10.53 7.498a5.31 5.31 0 0 0 .433-.872c-3.826-1.87-7.35-4.307-10.36-7.4"/>
            <path fill="#6CCAD4" d="M88.183 217.925c6.545 0 11.85-5.278 11.85-11.789v-1.267c0-6.51-5.305-11.788-11.85-11.788s-11.85 5.277-11.85 11.788v1.267c0 6.51 5.305 11.789 11.85 11.789"/>
            <g transform="translate(77.657 144.252)">
                <mask id="m" fill="#fff">
                    <use xlink:href="#l"/>
                </mask>
                <path fill="#2D1C27" d="M11.74 26.698c7.326 1.008 14.15-4.132 15.163-11.42C27.915 7.987 22.749 1.2 15.422.192 8.094-.814 1.27 4.325.258 11.614c-1.012 7.29 4.154 14.077 11.481 15.084" mask="url(#m)"/>
            </g>
            <path fill="#FFC9B2" d="M86.033 182.004l5.755.792a.163.163 0 0 0 .184-.139l1.635-11.77a.162.162 0 0 0-.139-.183l-5.755-.791a.163.163 0 0 0-.183.138l-1.636 11.77c-.012.089.05.171.14.183"/>
            <path fill="#FFD8C6" d="M85.872 181.982l4.287.59 1.68-12.092-4.287-.59z"/>
            <path fill="#FFC9B2" d="M89.96 174.843c6.686.919 12.912-3.77 13.836-10.42l.21-1.513c.924-6.65-3.79-12.843-10.475-13.762-6.686-.92-12.912 3.77-13.836 10.42l-.21 1.512c-.923 6.65 3.79 12.843 10.476 13.763"/>
            <path fill="#FFD8C6" d="M88.526 174.645c5.896.811 11.387-3.325 12.201-9.19l.397-2.855c.815-5.865-3.342-11.327-9.238-12.138-5.896-.81-11.387 3.325-12.202 9.19l-.397 2.855c-.815 5.866 3.343 11.328 9.239 12.138"/>
            <path fill="#FFC9B2" d="M103.423 166.35a2.562 2.562 0 0 0 2.883-2.17 2.554 2.554 0 0 0-2.183-2.867 2.562 2.562 0 0 0-2.882 2.17 2.553 2.553 0 0 0 2.182 2.868"/>
            <path fill="#FFD8C6" d="M78.98 162.99a2.562 2.562 0 0 0 2.883-2.17 2.553 2.553 0 0 0-2.182-2.868 2.562 2.562 0 0 0-2.883 2.171 2.553 2.553 0 0 0 2.183 2.868"/>
            <path fill="#2D1C27" d="M96.77 162.11a.695.695 0 0 0 .782-.589.692.692 0 0 0-.592-.777.695.695 0 0 0-.782.589.692.692 0 0 0 .592.777"/>
            <path fill="#EB5B76" d="M99.134 166.09l2.275.313a1.25 1.25 0 0 0 1.407-1.06 1.246 1.246 0 0 0-1.066-1.4l-2.275-.313a1.25 1.25 0 0 0-1.407 1.06 1.246 1.246 0 0 0 1.066 1.4M82.878 164.342l2.718.373a1.493 1.493 0 0 0 1.68-1.265 1.488 1.488 0 0 0-1.272-1.672l-2.718-.374a1.494 1.494 0 0 0-1.68 1.266c-.112.808.46 1.56 1.272 1.672" opacity=".2"/>
            <path fill="#2D1C27" d="M105.5 157.932l-11.852-1.63c-1.515-.208-5.547-.708-6.16-3.816-.425-2.153 1.187-3.911 2.84-4.864l2.603 4.485c.025-.171.029-.364-.008-.585-.109-.64-.48-1.08-.606-1.156.019.011.488.196 2.098.417l11.851 1.63c1.514.208 2.568 1.63 2.359 3.136-.21 1.507-1.611 2.59-3.125 2.383"/>
            <path fill="#2D1C27" d="M104.008 153.286l-11.773-1.618c-1.159-.16-1.954-1.316-1.794-2.467.16-1.153 1.241-2.05 2.4-1.89l11.773 1.618c1.157.159 1.954 1.315 1.794 2.467-.16 1.152-1.242 2.05-2.4 1.89"/>
            <path fill="#2D1C27" d="M87.937 152.136a6.012 6.012 0 0 1 .038-1.306l.001-.01c.46-3.31 3.56-5.656 6.888-5.198l1.218.167c4.295.918 7.518 4.414 8.141 8.586l-16.286-2.239z"/>
            <path fill="#2D1C27" d="M79.784 154.397l11.851 1.629c1.516.208 5.533.814 6.97-2.012.996-1.957-.076-4.085-1.407-5.448l-3.728 3.615c.022-.171.07-.358.167-.56.279-.587.756-.911.898-.95-.02.005-.522.057-2.133-.165l-11.851-1.629c-1.514-.208-2.916.876-3.125 2.383-.21 1.506.844 2.929 2.358 3.137"/>
            <path fill="#2D1C27" d="M82.486 150.327l11.774 1.619c1.158.16 2.24-.739 2.399-1.89.16-1.152-.636-2.308-1.794-2.468l-11.773-1.618c-1.159-.16-2.24.738-2.4 1.89-.16 1.152.636 2.308 1.794 2.467"/>
            <path fill="#2D1C27" d="M98.268 153.556c.15-.402.259-.825.32-1.267l.002-.01c.46-3.31-1.885-6.404-5.213-6.862l-1.218-.167c-4.384-.275-8.44 2.22-10.177 6.067l16.286 2.24zM98.373 160.117l-2.523-.811a.751.751 0 0 1-.486-.943.754.754 0 0 1 .946-.481l2.524.811c.393.127.612.55.486.943a.754.754 0 0 1-.947.481M89.18 161.067a.695.695 0 0 0 .781-.59.692.692 0 0 0-.592-.777.695.695 0 0 0-.782.589.692.692 0 0 0 .592.778M91.103 158.653l-2.65.1a.75.75 0 0 1-.778-.719.754.754 0 0 1 .724-.776l2.65-.1a.751.751 0 0 1 .778.72.753.753 0 0 1-.724.775"/>
            <path fill="#9BC965" d="M100.033 207.58v-18.645c0-6.511-5.306-11.789-11.85-11.789s-11.85 5.278-11.85 11.789v18.646h23.7z"/>
            <path fill="#FFD8C6" d="M111.054 232.743l-6.06-12.19a2.883 2.883 0 0 1 1.313-3.86 2.912 2.912 0 0 1 3.88 1.305l6.06 12.19a2.883 2.883 0 0 1-1.312 3.86 2.913 2.913 0 0 1-3.88-1.305"/>
            <path fill="#4FBAC1" d="M84.914 215.432h26.766v-7.754H84.914z"/>
            <path fill="#65BCC5" d="M109.528 230.308l-9.492-19.538-19.8 4.095-1.587-7.591 22.78-4.712a3.905 3.905 0 0 1 4.302 2.109l10.815 22.263-7.018 3.374z"/>
            <path fill="#E596A3" d="M94.914 166.674a.292.292 0 0 1-.247-.23c-.195-.966-1.052-1.691-2.182-1.846-1.13-.155-2.152.31-2.603 1.188a.292.292 0 0 1-.52-.265c.565-1.1 1.823-1.689 3.203-1.5 1.38.19 2.43 1.096 2.676 2.308a.291.291 0 0 1-.327.345"/>
            <path fill="#2C388F" d="M100.712 218.244H72.91c-.69 0-1.254-.56-1.254-1.247v-5.455c0-.686.564-1.247 1.254-1.247h27.802c.69 0 1.253.56 1.253 1.247v5.455c0 .686-.564 1.247-1.253 1.247M76.222 183.627v18.923c0 .685-.564 1.247-1.253 1.247H72.9c-.69 0-1.254-.562-1.254-1.247v-18.923c0-.686.564-1.247 1.254-1.247h2.068c.689 0 1.253.561 1.253 1.247"/>
            <path fill="#9DA1A7" d="M100.64 220.43H71.81a2.198 2.198 0 0 1-2.197-2.186c0-1.202.989-2.186 2.197-2.186h28.83c1.208 0 2.197.984 2.197 2.186a2.199 2.199 0 0 1-2.198 2.187"/>
            <path fill="#9DA1A7" d="M68.874 220.356v-37.57a2.199 2.199 0 0 1 4.395 0v37.57a2.199 2.199 0 0 1-4.395 0"/>
            <path fill="#A6A9AB" d="M70.682 243.296h.388v-38.049h-.388z"/>
            <path fill="#A6A9AB" d="M77.234 242.215l-13.082-35.754.366-.133 13.083 35.755z"/>
            <path fill="#A6A9AB" d="M83.02 238.97l-24.586-29.147.299-.25 24.586 29.148z"/>
            <path fill="#A6A9AB" d="M87.342 233.952l-33.126-19.025.195-.336 33.125 19.025z"/>
            <path fill="#A6A9AB" d="M89.677 227.766l-37.668-6.607.067-.382 37.669 6.608z"/>
            <path fill="#A6A9AB" d="M52.076 227.766l-.068-.381 37.669-6.608.067.382z"/>
            <path fill="#A6A9AB" d="M54.411 233.952l-.194-.336 33.125-19.025.195.336z"/>
            <path fill="#A6A9AB" d="M58.733 238.97l-.3-.249 24.587-29.147.299.249z"/>
            <path fill="#A6A9AB" d="M64.518 242.215l-.366-.132 13.082-35.755.367.133z"/>
            <path fill="#404041" d="M70.834 207.573c-9.217 0-16.716 7.46-16.716 16.63 0 9.168 7.499 16.629 16.716 16.629 9.218 0 16.717-7.46 16.717-16.63 0-9.169-7.5-16.629-16.717-16.629m0 36.36c-10.937 0-19.834-8.851-19.834-19.73 0-10.88 8.897-19.731 19.834-19.731s19.835 8.85 19.835 19.73-8.898 19.731-19.835 19.731"/>
            <path fill="#D0D1D3" d="M74.49 224.202c0 2.008-1.637 3.636-3.656 3.636a3.645 3.645 0 0 1-3.655-3.636c0-2.008 1.637-3.636 3.655-3.636 2.019 0 3.655 1.628 3.655 3.636"/>
            <path fill="#6D6E71" d="M70.834 222.117a2.093 2.093 0 0 0-2.096 2.085c0 1.15.94 2.086 2.096 2.086a2.093 2.093 0 0 0 2.096-2.086c0-1.15-.94-2.085-2.096-2.085m0 7.272c-2.875 0-5.214-2.327-5.214-5.187 0-2.86 2.34-5.186 5.214-5.186 2.875 0 5.214 2.326 5.214 5.186s-2.339 5.187-5.214 5.187"/>
            <path fill="#9DA1A7" d="M109.725 240.284l-9.407-21.474a1.372 1.372 0 0 1 .715-1.81c.7-.303 1.514.015 1.82.712l9.407 21.474a1.373 1.373 0 0 1-.716 1.81 1.385 1.385 0 0 1-1.819-.712"/>
            <path fill="#9DA1A7" d="M110.478 238.746l7.48-3.243c.7-.304 1.515.015 1.82.71a1.372 1.372 0 0 1-.715 1.81l-7.48 3.244a1.386 1.386 0 0 1-1.82-.712 1.372 1.372 0 0 1 .715-1.81M98.297 236.155v-34.44c0-.759.619-1.375 1.382-1.375.764 0 1.382.616 1.382 1.376v34.44c0 .759-.618 1.375-1.382 1.375a1.379 1.379 0 0 1-1.382-1.376"/>
            <path fill="#9DA1A7" d="M71.406 200.196h28.162c.764 0 1.382.616 1.382 1.376 0 .759-.618 1.374-1.382 1.374H71.406a1.378 1.378 0 0 1-1.382-1.374c0-.76.618-1.376 1.382-1.376"/>
            <path fill="#F0F1F1" d="M105.165 236.806c0 3.08-2.51 5.576-5.605 5.576-3.096 0-5.605-2.496-5.605-5.576 0-3.08 2.509-5.575 5.605-5.575 3.095 0 5.605 2.496 5.605 5.575"/>
            <path fill="#404041" d="M99.56 232.782c-2.231 0-4.047 1.805-4.047 4.024 0 2.22 1.816 4.025 4.047 4.025 2.23 0 4.046-1.805 4.046-4.025 0-2.22-1.816-4.024-4.046-4.024m0 11.15c-3.95 0-7.164-3.196-7.164-7.126s3.213-7.126 7.164-7.126c3.95 0 7.164 3.197 7.164 7.126 0 3.93-3.214 7.127-7.164 7.127"/>
            <path fill="#9DA1A7" d="M62.409 180.442h8.16c.763 0 1.382.615 1.382 1.375s-.619 1.375-1.382 1.375h-8.16a1.378 1.378 0 0 1-1.382-1.375c0-.76.618-1.375 1.382-1.375"/>
            <path fill="#404041" d="M56.94 179.89h7.216a1.85 1.85 0 0 1 1.854 1.845 1.85 1.85 0 0 1-1.854 1.845H56.94a1.85 1.85 0 0 1-1.855-1.845 1.85 1.85 0 0 1 1.855-1.845"/>
            <path fill="#FFD8C6" d="M121.539 233.278l-7.311 3.317a2.23 2.23 0 0 1-2.939-1.092 2.209 2.209 0 0 1 1.098-2.923l7.311-3.317a2.229 2.229 0 0 1 2.938 1.092 2.208 2.208 0 0 1-1.097 2.923"/>
            <path fill="#836A4A" d="M121.19 234.09l-2.19.993a.945.945 0 0 1-1.246-.462l-1.557-3.396a.936.936 0 0 1 .465-1.238l2.19-.994a.945.945 0 0 1 1.246.463l1.556 3.395a.936.936 0 0 1-.465 1.239"/>
            <path fill="#836A4A" d="M122.95 233.291l-9.637 4.373a.945.945 0 0 1-1.245-.463l-.096-.209a.936.936 0 0 1 .465-1.239l9.637-4.372a.945.945 0 0 1 1.245.462l.096.21a.936.936 0 0 1-.465 1.238"/>
            <path fill="#A9D774" d="M90.386 200.82c-3.123 0-5.74-.277-7.918-.833-3.568-.913-5.988-2.619-7.194-5.07-3.088-6.277 3.665-13.783 4.446-14.619a3.227 3.227 0 0 1 4.544-.165 3.187 3.187 0 0 1 .17 4.516c-1.884 2.035-4.173 5.861-3.383 7.459.329.664 1.432 1.278 3.025 1.685 2.719.693 6.716.815 11.88.36a3.208 3.208 0 0 1 3.486 2.905 3.202 3.202 0 0 1-2.92 3.467 70.416 70.416 0 0 1-6.136.295"/>
            <path fill="#FFD8C6" d="M99.284 193.917l.674.245a3.19 3.19 0 0 1 1.914 4.083c-.602 1.647-2.45 2.504-4.105 1.904l-.674-.244a3.19 3.19 0 0 1-1.914-4.083c.602-1.647 2.45-2.504 4.105-1.905"/>
        </g>
    </g>
</svg>
