<svg xmlns="http://www.w3.org/2000/svg" xmlns:xlink="http://www.w3.org/1999/xlink" width="1046" height="216" viewBox="0 0 1046 216">
    <defs>
        <radialGradient id="a" cy="43.031%" r="50.032%" fx="50%" fy="43.031%" gradientTransform="matrix(0 -.97276 .78126 0 .164 .917)">
            <stop offset="0%" stop-color="#ED3030" stop-opacity=".5"/>
            <stop offset="43.746%" stop-color="#C74D4D" stop-opacity=".253"/>
            <stop offset="100%" stop-color="#FFF" stop-opacity="0"/>
        </radialGradient>
        <path id="b" d="M0 34.65V.387h32.15V34.65H0z"/>
        <path id="d" d="M59.578 25.488V.454H.262v25.034z"/>
        <path id="f" d="M.397.02H9.37v9.294H.397V.02z"/>
    </defs>
    <g fill="none" fill-rule="evenodd" transform="translate(0 2)">
        <circle cx="244" cy="6" r="6" stroke="#B7DEFF" stroke-width="3"/>
        <circle cx="1038" cy="156" r="6" stroke="#B7DEFF" stroke-width="3"/>
        <circle cx="20" cy="81" r="6" stroke="#B7DEFF" stroke-width="3"/>
        <circle cx="273" cy="154" r="6" stroke="#B7DEFF" stroke-width="3"/>
        <circle cx="877" cy="13" r="6" stroke="#B7DEFF" stroke-width="3"/>
        <path fill="#FFD8C6" d="M831.113 107.14c1.298 1.43 1.035 3.667-.385 4.972l-1.874 1.721a3.495 3.495 0 0 1-4.943-.224c-1.297-1.429-.872-3.098.549-4.403l1.698-2.065c1.42-1.306 3.657-1.428 4.955 0z"/>
        <path fill="#FFD4BD" d="M849.661 208.699h4.552v-9.92h-4.552z"/>
        <path fill="#5B7086" d="M854.244 203.883h-4.63a1.806 1.806 0 0 1-1.795-1.805v-55.403c0-.993.808-1.805 1.795-1.805h4.63c.988 0 1.795.812 1.795 1.805v55.403c0 .993-.807 1.805-1.795 1.805"/>
        <path fill="#858CAB" d="M855.63 204.474h-7.402a.41.41 0 0 1-.41-.41v-3.314a.41.41 0 0 1 .41-.41h7.403a.41.41 0 0 1 .408.41v3.313a.41.41 0 0 1-.408.41"/>
        <path fill="#65462C" d="M849.28 213.292c0-2.274 1.85-4.134 4.11-4.134h1.918c2.261 0 4.11 1.86 4.11 4.134"/>
        <path fill="#65462C" d="M849.28 213.292v-5.404c0-.464.377-.843.838-.843h4.17c.461 0 .838.38.838.843v5.404"/>
        <path fill="#65462C" d="M859.218 213.66h-9.737c-.11 0-.2-.091-.2-.203v-.546a.2.2 0 0 1 .2-.2h9.737c.111 0 .2.09.2.2v.546c0 .112-.089.202-.2.202"/>
        <path fill="#FFD4BD" d="M836.585 208.699h4.552v-9.92h-4.552z"/>
        <path fill="#5B7086" d="M836.554 203.883h4.63c.987 0 1.795-.812 1.795-1.805v-55.403c0-.993-.808-1.805-1.795-1.805h-4.63c-.988 0-1.795.812-1.795 1.805v55.403c0 .993.807 1.805 1.795 1.805"/>
        <path fill="#858CAB" d="M835.167 204.474h7.403a.41.41 0 0 0 .409-.41v-3.314a.41.41 0 0 0-.409-.41h-7.403a.41.41 0 0 0-.408.41v3.313c0 .226.184.41.408.41"/>
        <path fill="#65462C" d="M841.517 213.292c0-2.274-1.849-4.134-4.11-4.134h-1.918c-2.26 0-4.11 1.86-4.11 4.134"/>
        <path fill="#65462C" d="M841.517 213.292v-5.404a.842.842 0 0 0-.837-.843h-4.17a.842.842 0 0 0-.838.843v5.404"/>
        <path fill="#65462C" d="M831.58 213.66h9.737c.11 0 .2-.091.2-.203v-.546a.2.2 0 0 0-.2-.2h-9.737a.2.2 0 0 0-.2.2v.546c0 .112.089.202.2.202"/>
        <path fill="#5B7086" d="M844.937 168.45c7.414 0 13.423-6.044 13.423-13.5v-1.451c0-7.456-6.01-13.5-13.423-13.5s-13.422 6.044-13.422 13.5v1.451c0 7.456 6.01 13.5 13.422 13.5"/>
        <path fill="#796356" d="M845.232 106.991c8.55 0 15.547-7.036 15.547-15.636v-.719c0-8.6-6.997-15.636-15.547-15.636-8.552 0-15.548 7.036-15.548 15.636v.72c0 8.599 6.996 15.635 15.548 15.635"/>
        <path fill="#FFC9B2" d="M842.146 118.447h6.536a.208.208 0 0 0 .206-.208v-13.562a.208.208 0 0 0-.206-.209h-6.536a.208.208 0 0 0-.207.209v13.562c0 .115.093.208.207.208"/>
        <path fill="#FFD8C6" d="M841.939 118.447h4.902v-13.979h-4.902z"/>
        <path fill="#FFC9B2" d="M845.414 109.71c7.644 0 13.899-6.29 13.899-13.978v-4.714c0-7.689-6.255-13.979-13.9-13.979-7.644 0-13.898 6.29-13.898 13.979v4.714c0 7.688 6.254 13.978 13.899 13.978"/>
        <path fill="#FFD8C6" d="M843.773 109.71c6.742 0 12.258-5.548 12.258-12.328V91.29c0-6.78-5.516-12.328-12.258-12.328-6.742 0-12.258 5.547-12.258 12.328v6.093c0 6.78 5.516 12.328 12.258 12.328"/>
        <path fill="#FFC9B2" d="M859.195 98.395c1.593 0 2.896-1.31 2.896-2.912 0-1.602-1.303-2.912-2.896-2.912-1.592 0-2.896 1.31-2.896 2.912 0 1.602 1.304 2.912 2.896 2.912"/>
        <path fill="#FFD8C6" d="M831.246 98.395c1.593 0 2.896-1.31 2.896-2.912 0-1.602-1.303-2.912-2.896-2.912s-2.895 1.31-2.895 2.912c0 1.602 1.302 2.912 2.895 2.912"/>
        <path fill="#F5A623" d="M844.894 113.267c-7.383 0-13.348 6.075-13.348 13.5v24.869c0 3.327 2.65 6.115 5.959 6.115h14.865c3.308 0 5.87-2.788 5.87-6.115v-24.869c0-7.425-5.964-13.5-13.346-13.5"/>
        <path fill="#FFF" d="M848.436 113.15l-3.408 21.647-3.409-21.647z"/>
        <path fill="#D7DEE6" d="M850.626 113.15l-3.028 3.046-3.029-3.046z"/>
        <path fill="#D7DEE6" d="M845.534 113.15l-3.028 3.046-3.028-3.046z"/>
        <path fill="#796356" d="M844.16 95.785l-1.854 1.077a.732.732 0 0 1-1-.27.741.741 0 0 1 .268-1.006l1.854-1.077a.732.732 0 0 1 1 .27c.202.35.081.804-.267 1.006"/>
        <path fill="#796356" d="M844.819 95.785l2.013 1.17a.732.732 0 0 0 1-.27.741.741 0 0 0-.268-1.007l-2.013-1.169a.733.733 0 0 0-1 .27.741.741 0 0 0 .268 1.006M845.414 84.976c-2.58 0-4.69-2.123-4.69-4.718 0-2.594 2.11-4.717 4.69-4.717 2.58 0 4.69 2.123 4.69 4.717 0 2.595-2.11 4.718-4.69 4.718"/>
        <path fill="#56453F" d="M839.223 93a.222.222 0 0 1-.203-.129.219.219 0 0 1 .11-.29l1.173-.53c-.457-.27-.995-.573-1.148-.622a.219.219 0 0 1-.144-.276.222.222 0 0 1 .28-.142c.312.099 1.472.8 1.603.88a.219.219 0 0 1-.024.387l-1.555.702a.225.225 0 0 1-.092.02M849.777 93a.224.224 0 0 1-.091-.02l-1.556-.702a.22.22 0 0 1-.024-.388c.131-.079 1.292-.78 1.604-.88a.222.222 0 0 1 .28.143.218.218 0 0 1-.145.276c-.153.05-.69.353-1.147.622l1.172.53a.219.219 0 0 1-.093.419"/>
        <path fill="#FFD8C6" d="M854.59 131.65l2.494.782c1.892.594 2.696 2.452 2.106 4.355-.59 1.902-2.534 2.64-4.426 2.047l-2.495-.783c-1.891-.593-2.956-2.635-2.367-4.537.59-1.903 2.796-2.457 4.687-1.864z"/>
        <path fill="#F5A623" d="M870.23 128.814c-3.579-3.16-9.002-7.178-16.58-12.284l-2.534 3.804c2.25 2.26 4.4 4.67 5.788 7.526 4.044 2.912 6.7 5.037 8.44 6.566-2.114-.41-5.115-1.129-9.343-2.373l-2.083 7.164c5.553 1.634 9.754 2.615 12.842 3 .544.067 1.348.167 2.258.188 2.257.052 5.173-.381 6.444-2.991 2.035-4.181-2.693-8.356-5.233-10.6"/>
        <path fill="#FFD8C6" d="M832.774 106.663c-2.614-3.029-2.263-7.288 0-9.28 2.263-1.993 6.217-1.152 8.83 1.876 2.615 3.03 2.9 7.1.637 9.092-2.264 1.993-6.853 1.341-9.467-1.688z"/>
        <path fill="url(#a)" d="M14.28 30.024c0-4.447 3.506-8.051 7.832-8.051 4.326 0 7.832 3.604 7.832 8.05 0 4.448-3.506 8.052-7.832 8.052-4.326 0-7.832-3.604-7.832-8.051" transform="rotate(-36 544.525 -1185.093)"/>
        <path stroke="#CF7F7F" stroke-linecap="round" stroke-linejoin="round" stroke-width=".5" d="M841.192 102.439s1.139-1.068 1.745-.939c.605.13.86.867 1.578.939.718.072 1.076-.96 1.794-.95.718.011 1.72.954 1.72.954"/>
        <path fill="#F5A623" d="M834.759 118.014s-10.301 11.857-12.271 9.885c-2.042-2.043.814-7.7 7.654-15.162l-4.458-5.242s-16.842 15.51-8.42 25.76c-.793-.868 7.576 9.47 23.012-9.715"/>
        <g>
            <path fill="#FFF" stroke="#FFF" d="M958.307 194.464h1.104V99.106h23.915a9.684 9.684 0 0 1 6.894 2.855l5.928 5.928.781-.781-5.928-5.929a10.78 10.78 0 0 0-7.675-3.18h-25.019v96.465z"/>
            <path fill="#C5C5C5" d="M990.091 167.967l-17.534 12.138-1.843 7.972 23.714-16.308z"/>
            <g transform="matrix(-1 0 0 1 1028 127.181)">
                <mask id="c" fill="#fff">
                    <use xlink:href="#b"/>
                </mask>
                <path fill="#FFF" d="M1.42.615l29.904 29.31a2.757 2.757 0 1 1-4.032 3.753L.194 1.762C-.45.952.654-.08 1.42.615" mask="url(#c)"/>
            </g>
            <path fill="#FFF" d="M972.55 171.77h21.878a5.152 5.152 0 0 0 5.152-5.153v-1.984a5.152 5.152 0 0 0-5.152-5.15H972.55a5.152 5.152 0 0 0-5.152 5.15v1.984a5.152 5.152 0 0 0 5.152 5.152M967.397 188.573c0-5.521 4.476-9.997 9.998-9.997 4.842 0 20.215 11.372 23.925 14.17h-33.01a9.971 9.971 0 0 1-.913-4.173"/>
            <path fill="#C5C5C5" d="M1012.171 196.181H942.23v-3.435h69.941z"/>
            <path fill="#FFDE71" d="M992.312 114.721l1.434 1.434 11.449-11.45-1.433-1.434z"/>
            <path fill="#FFF" d="M991.922 114.33l11.449-11.45a3.133 3.133 0 0 0-4.43 0l-7.02 7.02a3.132 3.132 0 0 0 0 4.43"/>
            <g transform="matrix(-1 0 0 1 995 151.98)">
                <mask id="e" fill="#fff">
                    <use xlink:href="#d"/>
                </mask>
                <path fill="#2DC2EB" d="M59.2 25.488a2.937 2.937 0 0 0-.789-3.79L30.147.454H3.163a2.94 2.94 0 0 0-2.9 2.49l29.64.687 29.296 21.857z" mask="url(#e)"/>
            </g>
            <path fill="#0395D7" d="M965.098 155.61l29.64-.685c.023.15.045.299.045.456a2.947 2.947 0 0 1-2.946 2.946H966.82l-26.69 20.062a2.933 2.933 0 0 1-1.769.59 2.94 2.94 0 0 1-2.358-1.175c-.08-.107-.139-.222-.202-.336l29.297-21.857z"/>
            <g transform="matrix(-1 0 0 1 1026 121.98)">
                <mask id="g" fill="#fff">
                    <use xlink:href="#f"/>
                </mask>
                <path fill="#2DC2EB" d="M8.586 5.782L3.607.802A2.689 2.689 0 0 0 .397.36l8.421 8.954a2.69 2.69 0 0 0-.232-3.532" mask="url(#g)"/>
            </g>
            <path fill="#0395D7" d="M1026.21 122.783a2.698 2.698 0 0 1 0 3.816l-4.98 4.98a2.698 2.698 0 0 1-3.816 0c-.089-.09-.159-.188-.232-.284l8.421-8.954c.215.119.423.258.606.442M1014.816 134.068a2.698 2.698 0 0 1 0 3.816L998.78 153.92a2.693 2.693 0 0 1-3.264.413l19.162-20.376c.045.039.095.069.137.11"/>
            <path fill="#2DC2EB" d="M994.965 150.103L1011 134.068a2.69 2.69 0 0 1 3.679-.11l-19.162 20.374a2.65 2.65 0 0 1-.552-.413 2.698 2.698 0 0 1 0-3.816"/>
        </g>
        <g>
            <path fill="#FED2BB" d="M181.457 119.544a1.3 1.3 0 0 0 .446-1.767l-3.956-6.735a1.273 1.273 0 0 0-1.749-.45 1.3 1.3 0 0 0-.445 1.766l3.956 6.735c.359.61 1.144.812 1.748.45z"/>
            <g fill="#C1C1C1">
                <path d="M193.067 67.558l.367-.817c-1.254.051-2.51.087-3.764.162-.447.027-.968-.124-1.43.439 1.223.223 2.323.043 3.416.046.476 0 .978-.201 1.411.17M190.002 74.284l.367-.82-4.944.28.005.303c1.497.422 3.08-.249 4.572.237M190.635 72.907c.153-.313.307-.624.461-.936-1.257.457-2.575.138-3.855.3-.364.046-.757-.049-1.248.334 1.64.481 3.186-.147 4.642.302M192.448 68.942l.356-.836c-1.622.216-3.292-.1-4.898.29l.01.355c1.157-.01 2.314-.028 3.47-.025.363 0 .78-.211 1.062.216M188.63 77.312c.241-.226.255-.547.344-.837-1.548.038-3.107-.075-4.637.343 1.035.467 2.106.093 3.148.205.396.043.86-.2 1.145.29M188.005 78.688c.222-.182.199-.456.256-.7-1.545-.135-3.082-.126-4.81.168.566.548 1.04.321 1.46.35 1.031.072 2.086-.298 3.094.182M189.376 75.656l.356-.81-4.923.259c.17.59.543.386.812.409 1.25.1 2.515-.225 3.755.142M187.464 80.567l.177-1.047c-1.478.377-3.023.03-4.693.327.546.576 1.055.325 1.497.393 1.002.155 2.085-.46 3.019.327M191.263 71.525c.169-.157.171-.354.13-.561-1.546-.272-3.07-.053-4.602.2 1.464.533 3.01-.095 4.472.361M191.877 70.084l.186-.477c-1.543-.114-3.079-.117-4.6.133.002.113.003.227.003.34l4.41.004M193.644 66.157l.092-.292c-1.51-.433-3.004-.018-4.512.13 1.467.272 2.94.287 4.42.162M194.425 65.203l.874-.584c-1.512-.08-3.02-.07-4.514.244 1.182.569 2.447.02 3.64.34M187.613 81.819l-.155-.573c-1.295.362-2.699-.149-3.964.54 1.374.258 2.747.114 4.12.033M187.863 83.576c.191-.248.306-.524.297-.844-.977.336-2.06-.099-3.156.414.977.614 2.024-.165 2.86.43"/>
            </g>
            <path fill="#4D60A1" d="M192.831 77.098a1.34 1.34 0 0 0-1.769.71l-22.883 53.527c-.295.69.02 1.49.701 1.788a1.341 1.341 0 0 0 1.77-.71l22.883-53.527a1.364 1.364 0 0 0-.702-1.788"/>
            <path fill="#FED2BB" d="M178.514 118.433l.864-2.221c.615-1.58-.161-3.382-1.725-4.004-1.564-.622-3.347.163-3.962 1.744l-.864 2.22c-.616 1.58.161 3.382 1.725 4.004 1.564.622 3.347-.163 3.962-1.743"/>
            <path fill="#FFF" d="M216.915 112.606s-18.755 12.184-37.326 1.078l-3.288 6.77s19.567 14.026 39.53 2.614"/>
            <path fill="#FED2BB" d="M208.995 137.839l1.572-1.78a3.119 3.119 0 0 0-.242-4.36 3.042 3.042 0 0 0-4.315.246l-1.573 1.78a3.12 3.12 0 0 0 .243 4.36 3.042 3.042 0 0 0 4.315-.246"/>
            <path fill="#4D60A1" d="M196.658 64.597a2.332 2.332 0 0 0-3.077 1.233l-6.359 14.874a2.375 2.375 0 0 0 1.22 3.11l2.515 1.098a2.332 2.332 0 0 0 3.077-1.233l6.36-14.875a2.375 2.375 0 0 0-1.221-3.11l-2.515-1.097z"/>
            <path fill="#FED2BB" d="M211.69 134.648a1.302 1.302 0 0 0-.102-1.82l-5.78-5.218a1.27 1.27 0 0 0-1.802.103 1.303 1.303 0 0 0 .102 1.82l5.78 5.218a1.27 1.27 0 0 0 1.802-.103"/>
            <path fill="#F5F5F5" d="M214.3 178.493c0-.04-.003-.078-.003-.118v-58.174c0-5.436 4.402-9.884 9.781-9.884h5.055c5.38 0 9.78 4.448 9.78 9.884v58.174l-.002.118H214.3z"/>
            <path fill="#FED2BB" d="M222.138 210.739h-4.923v-33.83h4.923z"/>
            <path fill="#131313" d="M216.968 209.16h.19v-1.302c0-.465.368-.709.829-.709h4.162c.46 0 .979.244.979.71v6.127h-10.263c0-3.218 1.846-4.826 4.103-4.826"/>
            <path fill="#D0BABA" d="M223.78 209.373h-8.206v-63.236h8.205z"/>
            <path fill="#998575" d="M226.967 105.476h.119c9.026 0 16.41-7.462 16.41-16.583 0-9.121-7.384-16.584-16.41-16.584h-.12c-9.025 0-16.41 7.463-16.41 16.584 0 9.12 7.385 16.583 16.41 16.583"/>
            <path fill="#FED2BB" d="M235.632 210.739h-4.924v-33.83h4.924z"/>
            <path fill="#D0BABA" d="M226.515 157.561c6.739 0 12.253-5.572 12.253-12.382s-5.514-12.382-12.253-12.382c-6.74 0-12.254 5.572-12.254 12.382s5.514 12.382 12.254 12.382"/>
            <path fill="#FEC7B0" d="M226.88 116.213c1.804 0 3.281-1.492 3.281-3.316v-6.634c0-1.823-1.477-3.316-3.282-3.316s-3.282 1.493-3.282 3.316v6.634c0 1.824 1.477 3.316 3.282 3.316"/>
            <path fill="#FED6C4" d="M225.911 116.213h.001c1.273 0 2.315-1.052 2.315-2.338v-8.59c0-1.286-1.042-2.338-2.315-2.338s-2.315 1.052-2.315 2.338v8.59c0 1.286 1.042 2.338 2.314 2.338"/>
            <path fill="#FEAEA1" d="M226.88 107.922c7.22 0 13.128-5.97 13.128-13.267v-1.658c0-7.297-5.908-13.267-13.129-13.267-7.22 0-13.129 5.97-13.129 13.267v1.658c0 7.297 5.908 13.267 13.13 13.267"/>
            <path fill="#FEC7B0" d="M226.88 107.922c7.22 0 13.128-5.97 13.128-13.267v-4.238c0-7.297-5.908-13.267-13.129-13.267-7.22 0-13.129 5.97-13.129 13.267v4.238c0 7.297 5.908 13.267 13.13 13.267"/>
            <path fill="#FED6C4" d="M225.076 106.55c6.368 0 11.578-5.265 11.578-11.7v-5.506c0-6.435-5.21-11.7-11.578-11.7-6.368 0-11.58 5.265-11.58 11.7v5.506c0 6.435 5.212 11.7 11.58 11.7"/>
            <path fill="#FEC7B0" d="M240 95.6c1.5 0 2.726-1.24 2.726-2.756 0-1.515-1.226-2.755-2.727-2.755-1.5 0-2.727 1.24-2.727 2.755 0 1.516 1.227 2.756 2.727 2.756"/>
            <path fill="#FED6C4" d="M213.743 95.6c1.499 0 2.726-1.24 2.726-2.756 0-1.515-1.227-2.755-2.726-2.755-1.5 0-2.728 1.24-2.728 2.755 0 1.516 1.227 2.756 2.728 2.756"/>
            <path fill="#2D1C27" d="M230.24 91.917a.748.748 0 0 0 .74-.75.748.748 0 0 0-.74-.75.748.748 0 0 0-.742.75c0 .412.333.75.741.75M221.2 91.917a.748.748 0 0 0 .742-.75.748.748 0 0 0-.742-.75.748.748 0 0 0-.741.75c0 .412.333.75.741.75"/>
            <path fill="#3C65D2" d="M214.26 149.38v-25.76c0-6.81 5.515-12.382 12.254-12.382 6.74 0 12.254 5.572 12.254 12.383v25.759h-24.507z"/>
            <path fill="#131313" d="M229.461 209.16h.626v-1.302c0-.465-.068-.709.393-.709h4.162c.46 0 1.016.244 1.016.71v6.127h-10.3c0-3.218 1.847-4.826 4.103-4.826"/>
            <path fill="#D0BABA" d="M236.273 209.373h-8.206v-63.236h8.206z"/>
            <path fill="#998575" d="M211.836 78.463h.82c-.902 0-1.64-.697-1.64-1.609s.738-1.608 1.64-1.608h8.206c.903 0 1.641.696 1.641 1.608 0 .912-.738 1.609-1.641 1.609H218.4c2.257 0 4.103 1.942 4.103 4.222 0 2.28-1.846 4.223-4.103 4.223h-6.564c-2.257 0-4.103-1.943-4.103-4.223s1.846-4.222 4.103-4.222"/>
            <path fill="#998575" d="M226.002 73.478c4.302.215 7.87 3.236 7.87 7.17v.03c0 4.073-3.939 7.838-8.452 7.838h-14.404.023c.502 0 6.229-14.734 14.963-15.038"/>
            <path fill="#FEC7B0" d="M230.161 111.607h-6.564v-5.159h6.564z"/>
            <path fill="#FED6C4" d="M228.227 111.607h-4.63v-5.159h4.63z"/>
            <path fill="#F5F5F5" d="M229.25 178.493V110.32c5.326.064 9.663 4.484 9.663 9.88v58.175l-.002.118h-9.661zM213.389 178.493c-.001-.04-.003-.078-.003-.118v-58.174c0-5.21 4.044-9.51 9.117-9.858v68.15h-9.114z"/>
            <path fill="#DEDFDD" d="M222.73 110.317l-6.678 8.292 6.508 3.316-4.838 3.317 5.008 11.608z"/>
            <path fill="#E394A1" d="M222.769 95.55a.364.364 0 0 0-.28.495c.494 1.24 1.776 2.016 3.265 1.977 1.49-.041 2.73-.884 3.159-2.15a.364.364 0 0 0-.224-.461.359.359 0 0 0-.457.226c-.33.976-1.31 1.625-2.497 1.658-1.186.032-2.199-.565-2.58-1.52a.359.359 0 0 0-.386-.224"/>
            <path fill="#666" d="M232.845 76.955s9.3 3.324 10.553 10.123c0 0 .128 1.226.097 2.042 0 0-1.398-5.664-10.518-9.652M221.735 76.955s-5.173 1.106-6.865 2.915c0 0-1.7 1.818-1.964 2.89 0 0 5.181-3.326 8.664-3.51"/>
            <path fill="#FFF" d="M228.509 78.482c0-.538-.349-.988-.829-1.147l2.537-4.282a6.172 6.172 0 0 1 3.18 5.042l-4.917.647c.018-.084.029-.17.029-.26"/>
            <path fill="#E5E5E5" d="M227.309 72.31c1.053 0 2.044.269 2.909.744l-2.537 4.28a1.174 1.174 0 0 0-.372-.064c-.662 0-1.2.543-1.2 1.212 0 .67.538 1.212 1.2 1.212.574 0 1.052-.408 1.17-.952l4.918-.647c.008.129.02.256.02.387 0 3.408-2.734 6.171-6.108 6.171-3.374 0-6.108-2.763-6.108-6.171 0-3.41 2.734-6.172 6.108-6.172"/>
            <path fill="#666" d="M228.509 78.482c0 .09-.011.176-.03.26l-.442.058.443-.058a1.203 1.203 0 0 1-1.171.952c-.662 0-1.2-.543-1.2-1.212 0-.67.538-1.212 1.2-1.212.13 0 .254.026.371.065l-.371.627.371-.627c.48.159.829.61.829 1.147"/>
            <path fill="#FFF" d="M211.028 131.848c8.418 6.384 16.594 7.791 21.438 6.981 2.379-.398 3.715-1.263 4.172-1.94 1.341-1.985.227-9.17-6.421-16.914a27.107 27.107 0 0 0-.086-2.189l5.459-5.18c4.282 4.608 7.549 9.93 9.197 14.984 1.863 5.714 1.572 10.813-.82 14.354-1.989 2.944-5.558 4.98-10.051 5.731a25.352 25.352 0 0 1-4.186.337c-7.704 0-16.399-3.207-24.028-8.991l5.326-7.173z"/>
            <path fill="#F5F5F5" d="M229.25 135.003V110.32c5.326.023 8.403 4 9.663 6.274l-1.784 18.413v.014l-7.88-.018z"/>
            <path fill="#DEDFDD" d="M229.097 110.317l6.64 8.292-6.525 3.316 4.866 3.317-4.98 11.608z"/>
        </g>
        <path fill="#B7DEFF" d="M139.2 30.8v-4.606c0-.662-.537-1.194-1.2-1.194-.667 0-1.2.534-1.2 1.194V30.8h-4.606c-.662 0-1.194.537-1.194 1.2 0 .667.534 1.2 1.194 1.2h4.606v4.606c0 .662.537 1.194 1.2 1.194.667 0 1.2-.534 1.2-1.194V33.2h4.606c.662 0 1.194-.537 1.194-1.2 0-.667-.534-1.2-1.194-1.2H139.2zM792.2 156.8v-4.606c0-.662-.537-1.194-1.2-1.194-.667 0-1.2.534-1.2 1.194v4.606h-4.606c-.662 0-1.194.537-1.194 1.2 0 .667.534 1.2 1.194 1.2h4.606v4.606c0 .662.537 1.194 1.2 1.194.667 0 1.2-.534 1.2-1.194V159.2h4.606c.662 0 1.194-.537 1.194-1.2 0-.667-.534-1.2-1.194-1.2H792.2zM984.2 48.8v-4.606c0-.662-.537-1.194-1.2-1.194-.667 0-1.2.534-1.2 1.194V48.8h-4.606c-.662 0-1.194.537-1.194 1.2 0 .667.534 1.2 1.194 1.2h4.606v4.606c0 .662.537 1.194 1.2 1.194.667 0 1.2-.534 1.2-1.194V51.2h4.606c.662 0 1.194-.537 1.194-1.2 0-.667-.534-1.2-1.194-1.2H984.2zM8.2 186.8v-4.606c0-.662-.537-1.194-1.2-1.194-.667 0-1.2.534-1.2 1.194v4.606H1.194C.532 186.8 0 187.337 0 188c0 .667.534 1.2 1.194 1.2H5.8v4.606c0 .662.537 1.194 1.2 1.194.667 0 1.2-.534 1.2-1.194V189.2h4.606c.662 0 1.194-.537 1.194-1.2 0-.667-.534-1.2-1.194-1.2H8.2z"/>
        <g transform="matrix(-1 0 0 1 140 111)">
            <path fill="#D1CBCC" d="M8.499 30.767c-.007.374-.297.045-.613-.024l-.467-.102c-.316-.07-.538.148-.531-.226l.342-18.792c.007-.374.268-.622.584-.553l.467.102c.316.07.567.429.56.803l-.342 18.792z"/>
            <path fill="#DB3A3A" d="M14.869 6.222c.767 4.134-1.91 8.117-5.98 8.897-4.07.779-7.99-1.941-8.758-6.075C-.636 4.909 2.041.926 6.111.147c4.07-.78 7.99 1.94 8.758 6.075"/>
            <path fill="#FFE5E5" d="M10.143 14.829l.03-.022.09-.066a6.45 6.45 0 0 0 .34-.271l.055-.048.058-.051.122-.113a6.013 6.013 0 0 0 .851-.997 6.498 6.498 0 0 0 .557-1.002 6.87 6.87 0 0 0 .418-1.274 7.605 7.605 0 0 0 .18-1.505 7.995 7.995 0 0 0-.14-1.657 7.25 7.25 0 0 0-.535-1.686 6 6 0 0 0-.441-.79 4.737 4.737 0 0 0-.566-.699 3.674 3.674 0 0 0-.873-.655l-.048-.024-.049-.024-.048-.022-.025-.011-.012-.006c.01.005-.006-.002-.008-.003l-.124-.053-.104-.042-.113-.042-.113-.04a5.409 5.409 0 0 0-.926-.234 4.562 4.562 0 0 0-.938-.05 3.864 3.864 0 0 0-1.345.319 3.808 3.808 0 0 0-1.147.797 4.474 4.474 0 0 0-.605.765 5.392 5.392 0 0 0-.278.496l-.028.058-.028.058-.027.059-.007.014c-.003.007.006-.011-.001.005l-.016.035-.015.035-.008.017a.256.256 0 0 0-.006.015l-.019.048-.01.024-.01.028-.02.056-.02.056-.01.028-.01.028-.017.057a3.999 3.999 0 0 0-.144.697l-.006.059-.003.03L4 7.254l-.004.06-.003.059-.002.03v.03l-.002.059.001.119c.001.079.006.158.012.237.004.04.007.08.012.119A3.778 3.778 0 0 0 4.286 9a3.7 3.7 0 0 0 .788 1.163c.056.055.113.107.172.159.03.025.058.05.089.074.03.025.061.048.092.072l.047.035c.015.011.03.023.047.034.032.022.063.044.096.065.064.043.131.083.198.122l.051.028.026.014.026.013.051.027.056.027.017.009.01.004.02.009.02.009.024.01a2.587 2.587 0 0 0 .929.208c.282.01.566-.03.837-.113A2.643 2.643 0 0 0 9.244 10c.043-.058.082-.117.12-.178l.055-.091c.017-.032.035-.063.051-.095l.013-.024.001-.002.008-.016.016-.033.007-.015.004-.009.008-.016.004-.009.005-.01.02-.046a2.129 2.129 0 0 0 .144-.563 2.073 2.073 0 0 0-.057-.773A2.115 2.115 0 0 0 8.77 6.9l-.04-.026-.04-.025-.041-.024c-.012-.006.006.002-.002-.002l-.014-.007-.03-.016-.016-.009-.014-.007-.038-.019a1.494 1.494 0 0 0-.738-.14c-.224.014-.446.08-.645.187a1.64 1.64 0 0 0-.61.574l-.022.037-.021.037c-.005.01 0-.004-.002.003l-.007.013-.013.025-.007.013-.004.006-.004.008a1.326 1.326 0 0 0-.103.289 1.329 1.329 0 0 0 .113.897 1.343 1.343 0 0 0 .5.548l.007.005.005.003.022.012c.01.006.014.01.025.015l.06.03c.162.077.342.106.518.09a1.056 1.056 0 0 0 .493-.171 1.12 1.12 0 0 0 .357-.37l.004-.007s.005-.008.003-.003l.01-.018.008-.014.006-.01a.947.947 0 0 0 .096-.626 1.008 1.008 0 0 0-.422-.657c-.006-.004-.013-.01-.02-.013l-.01-.007-.004-.003-.006-.003-.04-.024a.762.762 0 0 0-.124-.056.812.812 0 0 0-.33-.043.857.857 0 0 0-.486.193.93.93 0 0 0-.195.214l-.016.024-.005.008.003-.009.01-.027a.936.936 0 0 1 .151-.264.981.981 0 0 1 .503-.334 1.024 1.024 0 0 1 .6.01l.06.021.006.003.009.003.014.006.03.013a.801.801 0 0 1 .058.027 1.345 1.345 0 0 1 .533.48 1.48 1.48 0 0 1 .226 1.02 1.55 1.55 0 0 1-.068.291l-.018.05-.007.019-.006.015-.005.011a1.851 1.851 0 0 1-2.364 1.043l-.065-.026-.024-.01-.017-.007-.014-.006a2.338 2.338 0 0 1-1.005-.84 2.505 2.505 0 0 1-.412-1.077 2.665 2.665 0 0 1-.01-.613 2.61 2.61 0 0 1 .139-.614l.007-.02.008-.02.016-.043.011-.028.006-.014.01-.024.03-.07.033-.069a3.037 3.037 0 0 1 1.015-1.184 3.013 3.013 0 0 1 1.887-.523 3.005 3.005 0 0 1 .932.21l.046.019.042.018.03.013.015.006.028.013.076.036.075.038.075.04a3.726 3.726 0 0 1 1.475 1.474 3.966 3.966 0 0 1 .496 2.15 4.005 4.005 0 0 1-.225 1.128l-.034.09-.009.023-.01.025-.02.05-.018.043-.014.034-.008.017-.013.03-.02.042c-.025.056-.052.11-.08.166a4.953 4.953 0 0 1-.28.479 4.611 4.611 0 0 1-2.335 1.8 4.583 4.583 0 0 1-1.11.228l-.096.006-.095.004-.095.003H7.01a4.5 4.5 0 0 1-1.684-.344l-.045-.018-.049-.022-.049-.021-.024-.011-.017-.008-.08-.038-.083-.042-.04-.02-.042-.023-.081-.044a5.631 5.631 0 0 1-.319-.19c-.052-.033-.104-.068-.155-.103l-.076-.054-.076-.055a5.586 5.586 0 0 1-1.07-1.05 5.756 5.756 0 0 1-1.158-2.77c-.008-.063-.017-.126-.022-.19a5.826 5.826 0 0 1-.03-.57c-.001-.062 0-.126.002-.19l.004-.094.002-.048.003-.047.006-.095.009-.095.004-.047.006-.047.01-.094a5.787 5.787 0 0 1 .255-1.104l.031-.088.016-.045.016-.044.033-.087.036-.087.017-.043.02-.047.041-.093a.59.59 0 0 1 .01-.02l.007-.017.017-.035.016-.034.014-.03.01-.02.039-.079.04-.078.04-.079.043-.077c.113-.207.236-.409.37-.604a6.3 6.3 0 0 1 .926-1.08 5.671 5.671 0 0 1 1.154-.827 5.367 5.367 0 0 1 2.647-.642c.443.006.876.062 1.29.16.415.097.81.233 1.185.397l.139.063.137.066.142.071.12.064.023.012.018.01.036.02c.024.012.048.025.071.04l.07.04.07.043a5.106 5.106 0 0 1 1.176 1.03 5.773 5.773 0 0 1 .52.723 6.447 6.447 0 0 1 .398.76c.077.17.146.342.207.514.247.688.384 1.376.443 2.038a8.566 8.566 0 0 1-.041 1.892 7.97 7.97 0 0 1-.397 1.644 7.046 7.046 0 0 1-.637 1.326 6.42 6.42 0 0 1-.746.98 5.878 5.878 0 0 1-.723.656l-.083.063-.08.058-.155.106c-.05.033-.097.063-.143.091l-.067.041-.064.038a5.272 5.272 0 0 1-.222.122c-.032.017-.062.033-.09.046l-.074.037-.059.028-.042.02-.034.015"/>
            <path fill="#FFD8C6" d="M27 44.96L5.764 27.166a3.106 3.106 0 0 1-.387-4.356 3.091 3.091 0 0 1 4.348-.388L30.96 40.216a3.106 3.106 0 0 1 .388 4.356A3.093 3.093 0 0 1 27 44.96"/>
            <path fill="#FF9E9D" d="M31.4 49.806l-9.852-8.257a.697.697 0 0 1-.087-.978l4.404-5.275a.694.694 0 0 1 .976-.088l9.854 8.257a.697.697 0 0 1 .087.978l-4.404 5.275a.694.694 0 0 1-.977.087"/>
            <path fill="#FFD8C6" d="M35.091 99.174c-1.6 0-2.907-1.311-2.907-2.913V74.904a2.918 2.918 0 0 1 2.907-2.912 2.918 2.918 0 0 1 2.907 2.912v21.357a2.918 2.918 0 0 1-2.907 2.913"/>
            <path fill="#3E4E89" d="M35.44 102.394H31.19A3.203 3.203 0 0 1 28 99.197 3.204 3.204 0 0 1 31.191 96h4.249a3.204 3.204 0 0 1 3.192 3.197 3.204 3.204 0 0 1-3.192 3.197"/>
            <path fill="#FFD8C6" d="M45.644 99.658c1.6 0 2.907-1.31 2.907-2.912V69.565a2.918 2.918 0 0 0-2.907-2.912 2.918 2.918 0 0 0-2.906 2.912v27.181a2.918 2.918 0 0 0 2.906 2.912"/>
            <path fill="#3E4E89" d="M43.191 102.394h4.249a3.204 3.204 0 0 0 3.192-3.197A3.204 3.204 0 0 0 47.44 96H43.19A3.204 3.204 0 0 0 40 99.197a3.203 3.203 0 0 0 3.191 3.197"/>
            <rect width="8" height="19" x="31" y="66" fill="#305BBE" rx="2"/>
            <ellipse cx="40.5" cy="63" fill="#3869D7" rx="10.5" ry="9"/>
            <rect width="8" height="19" x="42" y="66" fill="#3869D7" rx="2"/>
            <path fill="#5D3009" d="M40.939 32.492h-1.57c-8.096 0-14.719-6.636-14.719-14.747C24.65 9.636 31.273 3 39.37 3h1.57c8.095 0 14.718 6.636 14.718 14.745 0 8.111-6.623 14.747-14.718 14.747"/>
            <path fill="#FFC9B2" d="M40.343 37.474c-7.698 0-13.997-6.31-13.997-14.023v-1.753c0-7.713 6.299-14.024 13.997-14.024 7.699 0 13.997 6.311 13.997 14.024v1.753c0 7.713-6.298 14.023-13.997 14.023"/>
            <path fill="#FFD8C6" d="M42.016 37.474c-6.789 0-12.344-5.565-12.344-12.368v-3.311c0-6.802 5.555-12.368 12.344-12.368 6.79 0 12.345 5.566 12.345 12.368v3.311c0 6.803-5.556 12.368-12.345 12.368"/>
            <path fill="#2D1C27" d="M36.272 23.283a.794.794 0 0 1-.79-.792c0-.437.356-.793.79-.793.435 0 .791.356.791.793a.795.795 0 0 1-.79.792M44.161 23.283a.794.794 0 0 1-.79-.792c0-.437.355-.793.79-.793.435 0 .79.356.79.793a.794.794 0 0 1-.79.792"/>
            <path fill="#EB5B76" d="M33.703 27.034h-2.097a1.953 1.953 0 0 1-1.946-1.95c0-1.07.876-1.948 1.946-1.948h2.097c1.07 0 1.946.877 1.946 1.949s-.876 1.95-1.946 1.95M48.76 27.034h-2.098a1.954 1.954 0 0 1-1.946-1.95c0-1.07.877-1.948 1.946-1.948h2.098c1.07 0 1.946.877 1.946 1.949s-.876 1.95-1.946 1.95" opacity=".5"/>
            <path fill="#FF9FA8" d="M40.44 28.596a2.42 2.42 0 0 1-2.414-2.419.665.665 0 1 1 1.33 0c0 .6.486 1.088 1.084 1.088.6 0 1.085-.488 1.085-1.088a.665.665 0 1 1 1.33 0 2.42 2.42 0 0 1-2.415 2.419"/>
            <path fill="#FFC9B2" d="M26.265 24.725a2.918 2.918 0 0 1-2.907-2.912 2.918 2.918 0 0 1 2.907-2.912c1.6 0 2.907 1.31 2.907 2.912a2.917 2.917 0 0 1-2.907 2.912"/>
            <path fill="#FFD8C6" d="M54.688 24.725c-1.599 0-2.907-1.31-2.907-2.912a2.918 2.918 0 0 1 2.907-2.912 2.918 2.918 0 0 1 2.906 2.912 2.917 2.917 0 0 1-2.906 2.912"/>
            <path fill="#74400A" d="M37.488 18.192h-.002zM52.02 15.104V9.8c-2.852-3.368-6.501-4.871-11.24-4.871h-.936c-4.485 0-8.5 1.28-11.351 4.342v5.834c0 1.688 1.342 3.07 3.027 3.07a3.05 3.05 0 0 0 2.983-2.44c.287 1.392 1.517 2.457 2.99 2.458a3.073 3.073 0 0 0 3.059-3.07 3.074 3.074 0 0 0 3.062 3.07c1.453 0 2.468-1.039 2.777-2.405.308 1.366 1.352 2.391 2.777 2.391v-.003c2.14 0 2.852-1.383 2.852-3.07"/>
            <path fill="#FFC9B2" d="M36.994 40.586h6.894v-3.071h-6.894z"/>
            <path fill="#FFD8C6" d="M43.536 40.586h-4.16a.351.351 0 0 1-.35-.351v-2.368c0-.194.156-.352.35-.352h4.16c.194 0 .351.158.351.352v2.368a.352.352 0 0 1-.35.351"/>
            <path fill="#FF9E9D" d="M41.42 39h-2.273C33.398 39 30 43.853 30 49.47v13.554c0 2.16.503 4.976 2.713 4.976h15.143C50.066 68 51 65.183 51 63.024V49.47C51 43.853 47.17 39 41.42 39"/>
            <path fill="#FFC9B2" d="M36.994 38.603h6.894v-2.229h-6.894z"/>
            <path fill="#FFD8C6" d="M43.536 38.603h-4.16a.35.35 0 0 1-.35-.352v-1.524c0-.195.156-.353.35-.353h4.16c.194 0 .351.158.351.352v1.526a.351.351 0 0 1-.35.35M48.33 52.787L61.2 63.975a3.098 3.098 0 0 0 4.358-.309 3.098 3.098 0 0 0-.3-4.359L52.388 48.12a3.098 3.098 0 0 0-4.36.31 3.098 3.098 0 0 0 .301 4.358"/>
            <path fill="#FF9E9D" d="M46 51.03l6.975 6.979c.09.077.225.067.302-.023l5.122-5.924a.216.216 0 0 0-.021-.303L49.666 44 46 51.03z"/>
        </g>
    </g>
</svg>
